<!-- Generated by IcoMoon.io -->
<svg version="1.1" xmlns="http://www.w3.org/2000/svg" width="32" height="32" viewBox="0 0 32 32">
<title>bean-bag</title>
<path fill="#6ad7d4" d="M28.128 16.454c-0.545-6.927-3.975-13.318-12.128-13.318s-11.582 6.391-12.128 13.318z"></path>
<path fill="#8ee2e1" d="M24.389 16.523c0 2.463-3.756 4.459-8.389 4.459s-8.389-1.997-8.389-4.459c0-2.463 3.756-4.459 8.389-4.459s8.389 1.996 8.389 4.459z"></path>
<path fill="#6ad7d4" d="M18.374 19.919c0-2.586 2.945-4.682 6.579-4.682s6.579 2.096 6.579 4.682c0 8.286-6.335 8.945-15.531 8.945s-15.531-0.66-15.531-8.945c0-2.586 2.945-4.682 6.579-4.682s6.579 2.096 6.579 4.682z"></path>
<path fill="#6ad7d4" d="M24.953 15.237c-2.177 0-4.107 0.753-5.304 1.912-1.071-0.442-2.317-0.696-3.648-0.696s-2.578 0.254-3.648 0.696c-1.197-1.16-3.127-1.912-5.304-1.912-3.633 0-6.579 2.096-6.579 4.682 0 8.286 6.335 8.945 15.531 8.945s15.531-0.66 15.531-8.945c0-2.586-2.945-4.682-6.579-4.682z"></path>
<path fill="#5abfd6" d="M9.375 15.539c-0.724-0.195-1.508-0.302-2.328-0.302-3.633 0-6.579 2.096-6.579 4.682 0 7.374 5.019 8.708 12.606 8.912-6.639-2.555-7.662-11.005-3.699-13.292z"></path>
<path fill="#fff" d="M12.862 23.927c0 0.807-0.821 1.461-1.835 1.461s-1.835-0.654-1.835-1.461c0-0.807 0.821-1.461 1.835-1.461s1.835 0.654 1.835 1.461z"></path>
<path fill="#fff" d="M22.807 23.927c0 0.807-0.821 1.461-1.835 1.461s-1.835-0.654-1.835-1.461c0-0.807 0.821-1.461 1.835-1.461s1.835 0.654 1.835 1.461z"></path>
<path fill="#565e75" d="M16 22.375c-0.728 0-1.376-0.489-1.784 0.114-0.414 0.612 0.513 1.561 1.784 1.561s2.197-0.949 1.784-1.561c-0.408-0.603-1.056-0.114-1.784-0.114z"></path>
<path fill="#000" d="M28.501 15.463c-0.423-3.584-1.6-6.622-3.413-8.799-2.209-2.652-5.267-3.998-9.088-3.998-2.339 0-4.418 0.515-6.179 1.532-0.224 0.129-0.301 0.416-0.172 0.64s0.416 0.301 0.64 0.172c1.617-0.933 3.538-1.406 5.711-1.406 3.53 0 6.345 1.231 8.368 3.66 1.62 1.945 2.7 4.649 3.143 7.852-0.992-0.28-2.077-0.4-3.203-0.327-0.744-1.131-2.185-2.037-4.013-2.591-0.154-1.289-0.461-2.511-0.854-3.384-0.106-0.236-0.384-0.341-0.62-0.235s-0.341 0.384-0.235 0.62c0.314 0.697 0.576 1.693 0.729 2.744-1.028-0.226-2.148-0.349-3.315-0.349s-2.287 0.123-3.315 0.349c0.153-1.051 0.415-2.047 0.729-2.744 0.106-0.236 0.001-0.514-0.235-0.62s-0.514-0.001-0.62 0.235c-0.393 0.873-0.7 2.095-0.854 3.384-1.828 0.554-3.268 1.46-4.013 2.591-1.127-0.073-2.212 0.047-3.202 0.327 0.659-4.785 2.563-7.444 4.085-8.844 0.191-0.175 0.203-0.472 0.027-0.662s-0.472-0.203-0.662-0.027c-1.687 1.552-3.811 4.521-4.441 9.881-1.91 0.812-3.499 2.391-3.499 4.456 0 3.699 1.211 6.521 4.597 8.009 2.664 1.17 6.338 1.405 11.403 1.405 4.593 0 8.961-0.127 11.928-1.655 0.23-0.119 0.321-0.401 0.202-0.631s-0.401-0.321-0.631-0.202c-2.777 1.431-7.203 1.551-11.498 1.551-4.051 0-8.24-0.102-11.026-1.326-3.047-1.338-4.037-3.848-4.037-7.151 0-2.323 2.741-4.213 6.11-4.213 1.684 0 3.291 0.489 4.441 1.33-0.85 0.443-1.569 1.009-2.106 1.661-0.164 0.2-0.136 0.495 0.064 0.66s0.495 0.136 0.66-0.064c1.349-1.641 3.768-2.37 5.893-2.37s4.544 0.729 5.893 2.37c0.165 0.2 0.46 0.229 0.66 0.064s0.229-0.46 0.064-0.66c-0.536-0.652-1.256-1.218-2.106-1.662 1.15-0.841 2.757-1.33 4.441-1.33 3.369 0 6.11 1.89 6.11 4.213 0 2.521-0.602 4.374-1.84 5.665-0.179 0.187-0.173 0.483 0.014 0.663s0.483 0.173 0.663-0.014c1.414-1.473 2.102-3.539 2.102-6.314 0-2.070-1.595-3.647-3.499-4.456zM19.547 16.606c-1.090-0.407-2.309-0.621-3.547-0.621s-2.457 0.214-3.547 0.621c-0.966-0.844-2.25-1.426-3.683-1.685 1.269-1.432 4.090-2.389 7.23-2.389s5.961 0.957 7.23 2.389c-1.434 0.259-2.717 0.841-3.684 1.686zM20.359 21.743c-0.115 0.132-0.282 0.208-0.456 0.208s-0.341-0.076-0.456-0.208c-0.17-0.195-0.466-0.215-0.661-0.045s-0.215 0.466-0.045 0.661c0.293 0.337 0.717 0.53 1.163 0.53s0.87-0.193 1.163-0.53c0.17-0.195 0.15-0.491-0.045-0.661s-0.491-0.15-0.661 0.045zM16 21.906c-0.611 0-1.565-0.578-2.172 0.32-0.229 0.34-0.24 0.762-0.030 1.158 0.354 0.668 1.26 1.134 2.202 1.134s1.847-0.466 2.202-1.134c0.211-0.396 0.2-0.819-0.030-1.158-0.608-0.9-1.556-0.32-2.172-0.32zM16 23.581c-0.982 0-1.518-0.648-1.395-0.829 0.041-0.061 0.072-0.095 0.173-0.095 0.252 0 0.728 0.188 1.223 0.188 0.292 0 0.557-0.061 0.79-0.114 0.491-0.112 0.531-0.088 0.605 0.022 0.121 0.179-0.408 0.829-1.395 0.829zM12.553 21.743c-0.115 0.132-0.282 0.208-0.456 0.208s-0.341-0.076-0.456-0.208c-0.17-0.195-0.466-0.215-0.661-0.045s-0.216 0.466-0.045 0.661c0.293 0.337 0.717 0.53 1.163 0.53s0.87-0.193 1.163-0.53c0.17-0.195 0.15-0.491-0.045-0.661s-0.491-0.15-0.661 0.045z"></path>
</svg>
