<!-- Generated by IcoMoon.io -->
<svg version="1.1" xmlns="http://www.w3.org/2000/svg" width="32" height="32" viewBox="0 0 32 32">
<title>billiard</title>
<path fill="#f5ea72" d="M28.771 12.842c3.673 3.673 3.673 9.627 0 13.3s-9.627 3.673-13.3 0c-3.673-3.673-3.673-9.627 0-13.3s9.627-3.673 13.3 0z"></path>
<path fill="#ebca5f" d="M12.72 19.491c0 2.070 0.669 3.983 1.802 5.536 5.414-1.441 9.414-6.385 9.414-12.246 0-0.88-0.090-1.739-0.262-2.568-0.504-0.083-1.021-0.128-1.548-0.128-5.195 0-9.406 4.211-9.406 9.406z"></path>
<path fill="#fff" d="M29.39 20.143c0 2.686-2.178 4.864-4.864 4.864s-4.864-2.178-4.864-4.864c0-2.686 2.178-4.864 4.864-4.864s4.864 2.178 4.864 4.864z"></path>
<path fill="#efedff" d="M19.662 20.143c0 0.636 0.123 1.243 0.346 1.8 1.826-1.743 3.134-4.025 3.664-6.588-2.279 0.404-4.010 2.393-4.010 4.788z"></path>
<path fill="#6171a3" d="M22.060 12.782c0 5.962-4.833 10.796-10.796 10.796s-10.796-4.833-10.796-10.796c0-5.962 4.833-10.796 10.796-10.796s10.796 4.833 10.796 10.796z"></path>
<path fill="#475a99" d="M11.265 23.578c5.962 0 10.796-4.833 10.796-10.796 0-2.456-0.82-4.719-2.201-6.533l-14.487 15.58c1.694 1.106 3.718 1.75 5.893 1.75z"></path>
<path fill="#fff" d="M15.645 11.889c0 3.083-2.5 5.583-5.583 5.583s-5.583-2.5-5.583-5.583c0-3.083 2.5-5.583 5.583-5.583s5.583 2.5 5.583 5.583z"></path>
<path fill="#efedff" d="M10.062 17.472c3.083 0 5.583-2.5 5.583-5.583 0-0.345-0.032-0.683-0.091-1.011l-6.1 6.56c0.2 0.022 0.403 0.033 0.609 0.033z"></path>
<path fill="#daa985" d="M29.597 7.303l-24.025 22.34c-0.542 0.504-1.385 0.489-1.909-0.035l-0.6-0.6c-0.523-0.523-0.538-1.367-0.035-1.909l22.34-24.025c1.047-1.127 2.821-1.159 3.908-0.071l0.39 0.39c1.088 1.088 1.055 2.861-0.071 3.908z"></path>
<path fill="#8ee2e1" d="M25.369 3.076l-8.951 9.626v2.362c0 0.657 0.533 1.19 1.19 1.19h2.362l9.626-8.951c1.127-1.048 1.159-2.821 0.071-3.908l-0.39-0.39c-1.088-1.088-2.861-1.056-3.908 0.071z"></path>
<path fill="#000" d="M24.654 22.344c-0.478 0-0.866-0.389-0.866-0.866 0-0.259-0.21-0.469-0.469-0.469s-0.469 0.21-0.469 0.469c0 0.994 0.809 1.804 1.804 1.804s1.804-0.809 1.804-1.804c0-0.529-0.229-1.005-0.592-1.335 0.363-0.33 0.592-0.806 0.592-1.335 0-0.995-0.809-1.804-1.804-1.804-0.86 0-1.604 0.612-1.77 1.455-0.050 0.254 0.116 0.5 0.37 0.55s0.5-0.116 0.55-0.37c0.079-0.404 0.437-0.698 0.85-0.698 0.478 0 0.866 0.389 0.866 0.866s-0.389 0.866-0.866 0.866c-0.259 0-0.469 0.21-0.469 0.469s0.21 0.469 0.469 0.469c0.478 0 0.866 0.389 0.866 0.866s-0.389 0.866-0.866 0.866zM26.63 10.702l3.286-3.056c1.32-1.227 1.362-3.304 0.083-4.583l-0.39-0.39c-1.271-1.271-3.349-1.244-4.583 0.083l-4.037 4.341c-3.13-5.346-9.906-7.1-15.183-4.172-0.226 0.126-0.308 0.411-0.182 0.637s0.411 0.308 0.637 0.182c4.926-2.733 11.269-1.009 14.060 4.071l-4.226 4.545c0.276-3.536-2.531-6.524-6.033-6.524-3.337 0-6.052 2.715-6.052 6.052s2.715 6.052 6.052 6.052c0.307 0 0.61-0.023 0.908-0.068l-4.001 4.303c-3.675-1.68-6.032-5.332-6.032-9.394 0-2.998 1.301-5.845 3.57-7.81 0.196-0.17 0.217-0.465 0.047-0.661s-0.466-0.217-0.661-0.047c-2.474 2.143-3.893 5.248-3.893 8.518 0 4.326 2.452 8.226 6.3 10.113l-3.614 3.886c-0.679 0.73-0.659 1.854 0.046 2.559l0.6 0.6c0.705 0.705 1.829 0.725 2.559 0.046l6.444-5.992c0.314-0.030 0.627-0.073 0.936-0.129 1.659 3.353 5.094 5.5 8.855 5.5 1.572 0 3.075-0.359 4.467-1.066 0.231-0.117 0.323-0.399 0.206-0.63s-0.399-0.323-0.63-0.206c-1.259 0.64-2.62 0.964-4.043 0.964-3.327 0-6.372-1.858-7.909-4.777 1.88-0.512 3.616-1.508 5.012-2.905 0.301 2.657 2.561 4.729 5.298 4.729 2.941 0 5.333-2.392 5.333-5.333s-2.392-5.333-5.333-5.333c-0.795 0-1.577 0.181-2.287 0.518 0.051-0.221 0.096-0.443 0.134-0.667l3.522-3.275c3.149 1.465 5.168 4.613 5.168 8.105 0 2.613-1.139 5.088-3.126 6.79-0.197 0.168-0.219 0.464-0.051 0.661s0.464 0.22 0.661 0.051c2.195-1.88 3.454-4.615 3.454-7.502 0-3.731-2.086-7.107-5.37-8.789zM10.062 17.003c-2.82 0-5.114-2.294-5.114-5.114s2.294-5.114 5.114-5.114c3.571 0 6.054 3.591 4.779 6.935l-2.618 2.815c-0.678 0.317-1.405 0.479-2.161 0.479zM5.253 29.3c-0.359 0.334-0.911 0.324-1.258-0.023l-0.6-0.6c-0.346-0.346-0.357-0.899-0.023-1.258l12.577-13.525v1.17c0 0.915 0.744 1.659 1.659 1.659h1.17zM13.568 22.848l7.571-7.040c-1.082 3.519-3.953 6.21-7.571 7.040zM24.526 15.747c2.424 0 4.395 1.972 4.395 4.395s-1.972 4.395-4.395 4.395c-2.596 0-4.638-2.252-4.371-4.841 0.713-0.918 1.282-1.942 1.683-3.030 0.767-0.593 1.716-0.919 2.688-0.919zM19.786 15.786h-2.178c-0.398 0-0.721-0.324-0.721-0.722v-2.178l8.826-9.491c0.869-0.935 2.335-0.958 3.234-0.059l0.39 0.39c0.899 0.899 0.876 2.365-0.059 3.234zM11.343 11.324c0.314-0.322 0.508-0.761 0.508-1.246 0-0.986-0.802-1.788-1.788-1.788s-1.788 0.802-1.788 1.788c0 0.484 0.194 0.924 0.508 1.246-0.602 0.411-0.998 1.102-0.998 1.884 0 1.257 1.022 2.279 2.279 2.279s2.279-1.022 2.279-2.279c0-0.782-0.396-1.474-0.999-1.884zM10.062 9.228c0.469 0 0.851 0.382 0.851 0.851s-0.382 0.851-0.851 0.851c-0.469 0-0.851-0.382-0.851-0.851s0.382-0.851 0.851-0.851zM10.062 14.55c-0.74 0-1.341-0.602-1.341-1.341s0.602-1.341 1.341-1.341 1.341 0.602 1.341 1.341-0.602 1.341-1.341 1.341z"></path>
</svg>
