<!-- Generated by IcoMoon.io -->
<svg version="1.1" xmlns="http://www.w3.org/2000/svg" width="32" height="32" viewBox="0 0 32 32">
<title>bomb</title>
<path fill="#f5ea72" d="M9.726 17.572l-2.846 2.41c-0.454 0.385-1.152 0.067-1.159-0.529l-0.034-2.93c-0.005-0.419-0.373-0.741-0.789-0.69l-3.638 0.445c-0.592 0.072-1-0.579-0.677-1.080l1.882-2.914c0.148-0.23 0.15-0.525 0.005-0.757l-1.89-3.004c-0.296-0.47 0.043-1.081 0.598-1.079l3.613 0.014c0.372 0.001 0.681-0.287 0.705-0.659l0.231-3.61c0.037-0.577 0.715-0.866 1.157-0.493l2.483 2.098c0.246 0.208 0.602 0.222 0.864 0.035l2.373-1.699c0.413-0.296 0.994-0.070 1.098 0.427l0.556 2.64c0.076 0.36 0.416 0.601 0.781 0.553l2.696-0.358c0.518-0.069 0.928 0.432 0.758 0.926l-3.3 9.602-1.541 4.609-2.912-3.845c-0.244-0.322-0.708-0.373-1.016-0.112z"></path>
<path fill="#daa985" d="M16.375 14.218c-0.673 0.673-1.764 0.673-2.437 0-1.389-1.389-2.654-2.256-6.295-0.752-0.88 0.363-1.887-0.055-2.25-0.935s0.055-1.887 0.935-2.25c5.316-2.195 7.971-0.576 10.047 1.501 0.673 0.673 0.673 1.764 0 2.437z"></path>
<path fill="#d2896f" d="M16.375 11.782c-0.938-0.938-1.995-1.783-3.361-2.225l-2.348 2.348c-0.251 0.251-0.462 0.534-0.631 0.84 1.911-0.296 2.873 0.445 3.902 1.474 0.673 0.673 1.764 0.673 2.437 0s0.673-1.764 0-2.437z"></path>
<path fill="#807bcf" d="M15.289 9.933l-3.297 3.297c-0.788 0.788-0.732 2.082 0.121 2.798l2.868 2.409 5.515-5.515-2.409-2.868c-0.717-0.853-2.010-0.909-2.798-0.121z"></path>
<path fill="#a78cd6" d="M29.138 12.802c3.485 3.485 3.113 9.507-0.83 13.451s-9.966 4.315-13.451 0.83c-3.485-3.485-3.113-9.507 0.83-13.451s9.966-4.315 13.451-0.83z"></path>
<path fill="#807bcf" d="M25.877 10.822c2.96 5.024 1.634 18.941-10.798 16.471 3.514 3.258 9.371 2.823 13.234-1.040 3.944-3.944 4.316-9.967 0.83-13.453-0.936-0.936-2.054-1.593-3.266-1.978z"></path>
<path fill="#fff" d="M19.913 22.365c0.579 0.579 0.459 1.639-0.268 2.367s-1.787 0.848-2.367 0.268c-0.579-0.579-0.459-1.639 0.268-2.367s1.787-0.848 2.367-0.268z"></path>
<path fill="#fff" d="M27.055 15.224c0.579 0.579 0.459 1.639-0.268 2.367s-1.787 0.848-2.367 0.268c-0.579-0.579-0.459-1.639 0.268-2.367s1.787-0.848 2.367-0.268z"></path>
<path fill="#565e75" d="M23.043 17.903c-0.666-0.666-1.418-0.039-2.269 0.812s-1.478 1.603-0.812 2.269 1.896 0.517 2.746-0.334c0.851-0.851 1-2.080 0.334-2.746z"></path>
<path fill="#000" d="M29.475 12.469c-2.632-2.632-6.641-3.18-10.219-1.752-0.805-0.948-0.821-1.001-1.025-1.187l0.708-2.059c0.284-0.825-0.4-1.658-1.263-1.543l-2.696 0.358c-0.121 0.016-0.236-0.065-0.261-0.185l-0.556-2.64c-0.174-0.829-1.143-1.204-1.83-0.712l-2.373 1.699c-0.088 0.063-0.206 0.058-0.289-0.012l-2.483-2.098c-0.735-0.621-1.865-0.14-1.927 0.821l-0.231 3.61c-0.008 0.124-0.111 0.22-0.234 0.22-0.618-0.003-0.444-0.002-1.053-0.005-0.258 0-0.468 0.208-0.469 0.467s0.208 0.47 0.467 0.471c0.211 0.001-0.544-0.002 1.055 0.005 0.617 0 1.13-0.481 1.17-1.098l0.231-3.61c0.012-0.193 0.239-0.289 0.386-0.164l2.483 2.098c0.411 0.347 1.002 0.371 1.439 0.058l2.373-1.699c0.139-0.099 0.332-0.024 0.367 0.143l0.556 2.64c0.126 0.596 0.697 1.001 1.302 0.921l2.696-0.358c0.173-0.023 0.31 0.144 0.253 0.309l-0.644 1.873c-0.882-0.307-1.828-0.060-2.45 0.562l-0.236 0.236c-2.347-1.436-5.083-1.431-8.573 0.010-1.117 0.461-1.651 1.745-1.189 2.862 0.462 1.119 1.742 1.652 2.862 1.189 1.531-0.632 2.674-0.861 3.589-0.706-0.731 1.021-0.533 2.409 0.401 3.193l0.964 0.809c-0.224 0.56-0.398 1.131-0.525 1.705l-1.136-1.5c-0.405-0.535-1.179-0.622-1.693-0.187l-2.846 2.41c-0.152 0.129-0.385 0.023-0.387-0.177l-0.034-2.93c-0.008-0.696-0.619-1.235-1.315-1.15l-3.638 0.445c-0.198 0.024-0.335-0.192-0.226-0.361l1.883-2.914c0.246-0.382 0.249-0.876 0.007-1.261l-1.89-3.004c-0.099-0.157 0.015-0.36 0.198-0.36 0.189 0.001 0.354 0.002 0.344 0.002h0.003c0.258 0 0.467-0.208 0.469-0.466s-0.207-0.47-0.466-0.471c-0.006-0-0.372-0.002-0.349-0.002-0.923 0-1.482 1.019-0.992 1.797l1.89 3.004c0.049 0.077 0.048 0.176-0.002 0.253l-1.883 2.914c-0.54 0.836 0.141 1.921 1.127 1.8l3.638-0.445c0.137-0.017 0.262 0.089 0.264 0.231l0.034 2.93c0.011 0.993 1.175 1.521 1.93 0.881l2.846-2.41c0.103-0.087 0.258-0.070 0.339 0.038l1.683 2.222c-0.247 2.673 0.565 5.313 2.477 7.225 4.026 4.026 10.885 3.038 14.78-1.551 0.168-0.197 0.143-0.493-0.054-0.661s-0.493-0.143-0.661 0.054c-3.651 4.3-9.868 5.029-13.402 1.494-3.297-3.297-2.925-9.035 0.83-12.79s9.493-4.128 12.79-0.83c2.586 2.586 2.99 6.746 1.007 10.352-0.125 0.227-0.042 0.512 0.185 0.637s0.512 0.042 0.637-0.185c2.063-3.751 1.86-8.442-1.165-11.467zM7.464 13.033c-0.641 0.264-1.373-0.040-1.638-0.681-0.264-0.639 0.041-1.374 0.681-1.638 3.895-1.608 6.139-0.992 7.533-0.194l-1.893 1.893c-1.21-0.406-2.674-0.21-4.682 0.619zM15.359 13.299c-0.912 0.912-1.64 1.933-2.182 3.009l-0.761-0.639c-0.638-0.536-0.69-1.509-0.091-2.108l3.297-3.297c0.589-0.589 1.563-0.557 2.108 0.091l0.639 0.761c-1.076 0.542-2.097 1.27-3.009 2.182zM18.022 22.232c0.183 0.183 0.48 0.183 0.663 0s0.183-0.48 0-0.663l-0.53-0.53c-0.183-0.183-0.48-0.183-0.663 0s-0.183 0.48 0 0.663zM18.058 19.914c-0.148-0.212-0.441-0.264-0.653-0.115l-1.098 0.769c-0.212 0.148-0.264 0.441-0.115 0.653s0.441 0.263 0.653 0.115l1.098-0.769c0.212-0.148 0.264-0.441 0.115-0.653zM19.376 19.716c-0.358 0.752-0.059 1.284 0.255 1.598 0.37 0.37 0.869 0.55 1.399 0.55 0.687 0 1.428-0.302 2.010-0.884 0.971-0.971 1.241-2.503 0.334-3.409-0.314-0.314-0.846-0.613-1.598-0.255-0.423 0.202-0.839 0.572-1.334 1.066s-0.865 0.91-1.066 1.334zM22.431 18.095c0.12 0 0.203 0.061 0.28 0.139 0.474 0.474 0.321 1.428-0.334 2.084s-1.609 0.808-2.084 0.334c-0.225-0.225-0.308-0.486 0.812-1.606 0.733-0.733 1.098-0.95 1.326-0.95zM24.292 16.626c0.183-0.183 0.183-0.48 0-0.663l-0.53-0.53c-0.183-0.183-0.48-0.183-0.663 0s-0.183 0.48 0 0.663l0.53 0.53c0.183 0.183 0.48 0.183 0.663 0zM21.974 15.999c0.212 0.149 0.504 0.097 0.653-0.115l0.769-1.098c0.148-0.212 0.097-0.504-0.115-0.653s-0.504-0.097-0.653 0.115l-0.769 1.098c-0.148 0.212-0.097 0.504 0.115 0.653z"></path>
</svg>
