<!-- Generated by IcoMoon.io -->
<svg version="1.1" xmlns="http://www.w3.org/2000/svg" width="32" height="32" viewBox="0 0 32 32">
<title>cars</title>
<path fill="#efedff" d="M11.419 5.861c-1.285-0.090-2.454 0.419-3.255 1.276-0.16 0.171-0.423 0.202-0.616 0.069-0.367-0.254-0.777-0.45-1.218-0.572-0.246-0.069-0.404-0.314-0.347-0.563 0.383-1.684-0.881-3.381-2.691-3.401-1.466-0.016-2.683 1.077-2.811 2.537-0.092 1.045 0.392 1.983 1.17 2.532 0.219 0.155 0.278 0.45 0.137 0.679-1.105 1.789-0.647 4.159 1.073 5.403 0.206 0.149 0.294 0.415 0.214 0.656-0.832 2.512 0.979 5.221 3.709 5.314 2.155 0.073 3.978-1.514 4.181-3.661 0.075-0.8-0.083-1.556-0.414-2.212 2.53 0.359 4.741-1.667 4.624-4.205-0.094-2.039-1.721-3.71-3.757-3.853z"></path>
<path fill="#d4d4ff" d="M10.789 16.99l-3.159-5.159c-2.954 0.074-3.767-2.569-3.206-4.189 0.078-0.226-0.047-0.473-0.274-0.549-1.723-0.573-1.855-3.181-0.598-4.408-0.085-0.009-0.171-0.015-0.259-0.016-1.466-0.016-2.683 1.077-2.811 2.537-0.092 1.045 0.392 1.983 1.17 2.532 0.219 0.155 0.278 0.45 0.137 0.679-1.105 1.789-0.647 4.159 1.073 5.403 0.206 0.149 0.294 0.415 0.214 0.656-0.832 2.512 0.979 5.221 3.709 5.314 1.855 0.063 3.463-1.105 4.004-2.801z"></path>
<path fill="#f3a977" d="M20.332 29.332h-16.334c-0.627 0-0.867-0.817-0.341-1.157l2.67-1.723c0.413-0.267 0.512-0.828 0.216-1.22l-4.372-5.783c-0.476-0.629 0.079-1.513 0.853-1.357l4.381 0.881c0.566 0.114 1.028-0.453 0.801-0.984l-2.965-6.956c-0.427-1.001 0.647-1.98 1.605-1.462l5.593 3.023c0.434 0.235 0.97-0.029 1.049-0.517l0.544-3.365c0.13-0.802 1.11-1.124 1.69-0.555l6.829 6.702z"></path>
<path fill="#ee8c49" d="M22.55 14.859l-4.772-4.684c-0.868 0.463-1.7 1.028-2.476 1.688-2.419 2.057-4.037 4.808-4.556 7.747-0.545 3.092 0.177 6.013 2.033 8.226 0.475 0.566 1.009 1.066 1.593 1.496h5.96z"></path>
<path fill="#efedff" d="M26.545 15.79c1.928 2.108 1.453 5.681-1.061 7.98s-6.115 2.454-8.043 0.346c-1.928-2.108-1.453-5.681 1.061-7.98s6.115-2.454 8.043-0.346z"></path>
<path fill="#f3a977" d="M20.853 22.427l-3.388 2.433 2.089-3.474c0.296-0.492 0.22-1.062-0.179-1.351l-2.943-2.127 3.763 0.392c0.538 0.056 1.106-0.303 1.326-0.84l1.581-3.849 0.224 3.849c0.031 0.536 0.472 0.896 1.030 0.84l3.901-0.392-3.693 2.127c-0.501 0.288-0.777 0.859-0.655 1.351l0.864 3.474-2.53-2.433c-0.346-0.332-0.929-0.332-1.391 0z"></path>
<path fill="#6171a3" d="M23.645 10.54c-5.189 0-10.138 4.207-11.053 9.396s2.55 9.396 7.739 9.396c5.189 0 10.138-4.207 11.053-9.396s-2.55-9.396-7.739-9.396zM26.683 19.936c-0.457 2.593-2.93 4.695-5.523 4.695s-4.324-2.102-3.867-4.695c0.457-2.593 2.93-4.695 5.523-4.695s4.324 2.102 3.867 4.695z"></path>
<path fill="#475a99" d="M22.609 24.415c-0.47 0.14-0.957 0.216-1.448 0.216-2.593 0-4.324-2.102-3.867-4.695 0.238-1.349 1.021-2.563 2.083-3.42-1.675-1.032-1.396-3.756-0.341-4.875-3.242 1.581-5.809 4.702-6.442 8.295-0.915 5.189 2.55 9.396 7.739 9.396 1.937 0 3.841-0.586 5.513-1.591-3.061 0.193-3.916-2.446-3.236-3.326z"></path>
<path fill="#000" d="M23.645 10.071c-1.474 0-2.955 0.322-4.355 0.932l-3.241-3.181c-0.312-0.306-0.734-0.452-1.157-0.415-0.776-1.17-2.039-1.915-3.441-2.014-2.307-0.162-3.587 1.394-3.637 1.427-0.416-0.288-0.874-0.503-1.359-0.638-0.010-0.003-0.014-0.009-0.016-0.009 0.098-0.431 0.106-0.87 0.025-1.305-0.048-0.254-0.292-0.422-0.547-0.375s-0.422 0.293-0.375 0.547c0.058 0.308 0.052 0.62-0.018 0.926-0.112 0.49 0.187 0.982 0.679 1.119 0.384 0.107 0.747 0.277 1.077 0.506 0.38 0.264 0.907 0.206 1.225-0.134 0.742-0.794 1.791-1.205 2.879-1.129 1.056 0.074 2.013 0.613 2.634 1.465-0.236 0.219-0.398 0.513-0.452 0.844l-0.544 3.365c-0.027 0.169-0.212 0.261-0.364 0.179l-5.593-3.023c-1.349-0.729-2.859 0.651-2.259 2.059l2.965 6.956c0.079 0.184-0.081 0.381-0.278 0.341l-3.489-0.702c-0.66-0.933-0.844-2.112-0.487-3.188 0.145-0.437-0.010-0.912-0.385-1.183-1.511-1.094-1.928-3.192-0.949-4.777 0.27-0.437 0.153-1.012-0.266-1.308-0.684-0.483-1.048-1.271-0.974-2.108 0.16-1.81 2.184-2.661 3.589-1.728 0.216 0.143 0.507 0.084 0.65-0.131s0.084-0.507-0.131-0.65c-1.98-1.314-4.817-0.113-5.041 2.427-0.103 1.173 0.408 2.279 1.367 2.956 0.017 0.012 0.020 0.031 0.009 0.050-1.236 2.001-0.71 4.649 1.197 6.029 0.041 0.030 0.059 0.083 0.044 0.129-0.359 1.085-0.285 2.252 0.182 3.277-1.052 0.029-1.676 1.252-1.015 2.126l4.372 5.783c0.131 0.174 0.089 0.424-0.096 0.543l-2.67 1.723c-0.412 0.266-0.596 0.761-0.458 1.232s0.562 0.787 1.052 0.787h16.334c2.269 0 4.617-0.789 6.613-2.222 0.21-0.151 0.258-0.444 0.107-0.654s-0.444-0.258-0.654-0.107c-1.838 1.32-3.992 2.046-6.066 2.046-4.879 0-8.146-3.92-7.277-8.846 0.876-4.967 5.627-9.009 10.591-9.009 4.879 0 8.146 3.92 7.277 8.846-0.358 2.033-1.361 3.954-2.9 5.554-0.179 0.187-0.174 0.483 0.013 0.663s0.483 0.174 0.663-0.013c1.668-1.735 2.756-3.824 3.147-6.041 0.967-5.482-2.718-9.946-8.201-9.946zM13.223 16.663l-3.14-2.597c-0.2-0.165-0.495-0.137-0.66 0.063s-0.137 0.495 0.063 0.66l3.328 2.752c-0.791 1.898-1.081 4.048-0.607 6.074l-4.829-2.182c-0.236-0.106-0.514-0.002-0.62 0.234s-0.002 0.514 0.234 0.62l5.594 2.528c0.689 1.705 1.965 3.162 3.695 4.049h-12.282c-0.099 0-0.138-0.062-0.153-0.115s-0.016-0.126 0.067-0.179l2.67-1.723c0.641-0.414 0.796-1.288 0.336-1.897l-4.372-5.783c-0.216-0.286 0.037-0.685 0.386-0.615l4.381 0.881c0.934 0.188 1.699-0.75 1.325-1.628l-2.965-6.956c-0.253-0.593 0.383-1.173 0.95-0.866l5.593 3.023c0.717 0.388 1.605-0.049 1.735-0.854l0.544-3.365c0.069-0.428 0.59-0.598 0.899-0.295l3.003 2.948c-2.153 1.16-4.021 3.004-5.173 5.223zM22.816 14.772c-2.831 0-5.489 2.273-5.984 5.082-0.248 1.406 0.076 2.73 0.913 3.728 0.821 0.978 2.034 1.517 3.415 1.517 1.365 0 2.738-0.528 3.866-1.487 1.126-0.957 1.879-2.234 2.119-3.596 0.512-2.902-1.462-5.245-4.329-5.245zM25.994 17.666l-1.683 0.169c-0.275 0.028-0.499-0.116-0.515-0.4l-0.095-1.628c1.071 0.243 1.882 0.925 2.293 1.859zM21.675 15.857l-0.586 1.427c-0.141 0.344-0.511 0.587-0.844 0.551l-1.395-0.145c0.728-0.887 1.732-1.552 2.825-1.833zM17.87 19.526l1.231 0.889c0.198 0.143 0.22 0.45 0.052 0.729l-0.918 1.527c-0.608-0.93-0.675-2.075-0.364-3.145zM19.657 23.864l1.47-1.056c0.273-0.196 0.614-0.215 0.793-0.043l1.061 1.021c-1.049 0.437-2.273 0.532-3.325 0.078zM23.456 21.5l0.446 1.793c-0.016 0.011-0.032 0.021-0.048 0.031l-1.284-1.235c-0.508-0.488-1.345-0.506-1.99-0.043l-1.54 1.106 0.917-1.525c0.425-0.707 0.296-1.537-0.306-1.972l-1.42-1.026c0.010-0.019 0.020-0.039 0.030-0.058 1.996 0.205 1.905 0.205 2.049 0.205 0.693 0 1.368-0.457 1.647-1.136l0.793-1.929 0.008-0 0.104 1.778c0.047 0.805 0.725 1.362 1.545 1.279l1.725-0.174-1.797 1.035c-0.68 0.391-1.048 1.178-0.876 1.87zM24.706 22.641l-0.34-1.367c-0.071-0.285 0.12-0.65 0.434-0.831l1.458-0.84c-0.138 1.166-0.726 2.232-1.553 3.038z"></path>
</svg>
