<!-- Generated by IcoMoon.io -->
<svg version="1.1" xmlns="http://www.w3.org/2000/svg" width="32" height="32" viewBox="0 0 32 32">
<title>chess-piece</title>
<path fill="#f5ea72" d="M20.003 16.91h-8.005l-2.542 11.615h13.089z"></path>
<path fill="#ebca5f" d="M20.003 16.91h-8.005l-1.042 4.762c0.395 0.122 0.814 0.188 1.248 0.188h7.593c0.434 0 0.853-0.066 1.248-0.188z"></path>
<path fill="#a78cd6" d="M21.85 14.411h-11.7v3.208c0 1.134 0.919 2.053 2.053 2.053h7.593c1.134 0 2.053-0.919 2.053-2.053z"></path>
<path fill="#a78cd6" d="M24.18 31.531h-16.36c-0.689 0-1.247-0.558-1.247-1.247v-0.694c0-1.12 0.908-2.029 2.029-2.029h14.798c1.12 0 2.029 0.908 2.029 2.029v0.694c0 0.689-0.558 1.247-1.247 1.247z"></path>
<path fill="#807bcf" d="M14.007 27.562h-5.406c-1.12 0-2.029 0.908-2.029 2.029v0.694c0 0.689 0.559 1.247 1.247 1.247h7.193c-1.322-1.017-1.327-3.118-1.006-3.97z"></path>
<path fill="#a78cd6" d="M20.887 4.918c0 2.457-2.188 4.449-4.887 4.449s-4.887-1.992-4.887-4.449c0-2.457 2.188-4.449 4.887-4.449s4.887 1.992 4.887 4.449z"></path>
<path fill="#f5ea72" d="M20.988 16.264h-9.976c-1.381 0-2.602-0.894-3.020-2.21l-1.759-5.544c-0.3-0.946-0.029-1.981 0.697-2.659l1.349-1.259c0.497-0.464 1.268-0.464 1.765 0l1.654 1.544c0.497 0.464 1.268 0.464 1.765 0l1.654-1.544c0.497-0.464 1.268-0.464 1.765 0l1.654 1.544c0.497 0.464 1.268 0.464 1.765 0l1.654-1.544c0.497-0.464 1.268-0.464 1.765 0l1.349 1.259c0.726 0.678 0.997 1.712 0.697 2.659l-1.759 5.544c-0.418 1.316-1.639 2.21-3.020 2.21z"></path>
<path fill="#ebca5f" d="M12.172 6.417c-0.172-0.057-0.334-0.15-0.474-0.28l-1.654-1.544c-0.497-0.464-1.268-0.464-1.765 0l-1.349 1.259c-0.726 0.678-0.997 1.712-0.697 2.659l1.759 5.544c0.418 1.316 1.639 2.21 3.020 2.21h3.462c-2.121-1.758-2.777-7.158-2.301-9.847z"></path>
<path fill="#eda1ab" d="M12.862 12.611c0 0.807-0.821 1.461-1.835 1.461s-1.835-0.654-1.835-1.461c0-0.807 0.821-1.461 1.835-1.461s1.835 0.654 1.835 1.461z"></path>
<path fill="#eda1ab" d="M22.807 12.611c0 0.807-0.821 1.461-1.835 1.461s-1.835-0.654-1.835-1.461c0-0.807 0.821-1.461 1.835-1.461s1.835 0.654 1.835 1.461z"></path>
<path fill="#000" d="M14.971 11.843h0.014c0.388 0 1.28 0.001 1.866 0.241 0.241 0.098 0.514-0.018 0.611-0.257 0.098-0.24-0.017-0.513-0.256-0.611-0.757-0.309-1.741-0.311-2.22-0.311h-0.015c-0.259 0-0.469 0.21-0.469 0.469s0.21 0.469 0.469 0.469zM19.903 11.673c0.259 0 0.469-0.21 0.469-0.469v-0.75c0-0.259-0.21-0.469-0.469-0.469s-0.469 0.21-0.469 0.469v0.75c0 0.259 0.21 0.469 0.469 0.469zM11.155 10.044c0.162 0.097 0.337 0.167 0.519 0.21-0.077 0.163-0.032 0.249-0.045 0.95 0 0.259 0.21 0.469 0.469 0.469s0.469-0.21 0.469-0.469c-0.013-0.698 0.032-0.788-0.046-0.95 0.182-0.043 0.358-0.113 0.519-0.21 0.222-0.133 0.294-0.421 0.16-0.643s-0.421-0.294-0.643-0.16c-0.277 0.166-0.643 0.166-0.919-0-0.222-0.133-0.51-0.061-0.643 0.161s-0.061 0.51 0.161 0.643zM22.319 17.618v-1.136c1-0.391 1.796-1.214 2.136-2.287l1.759-5.544c0.353-1.113 0.030-2.346-0.824-3.143l-1.349-1.259c-0.674-0.629-1.731-0.629-2.405 0l-0.3 0.28c-0.217-2.531-2.527-4.529-5.337-4.529-1.051 0-2.068 0.279-2.942 0.807-0.222 0.134-0.293 0.422-0.159 0.644s0.422 0.293 0.644 0.159c0.727-0.44 1.577-0.672 2.457-0.672 2.649 0 4.72 2.1 4.382 4.483l-0.399 0.373c-0.316 0.295-0.81 0.294-1.125 0l-1.654-1.544c-0.674-0.629-1.731-0.629-2.405 0l-1.654 1.544c-0.316 0.294-0.81 0.295-1.125 0l-0.399-0.373c-0.12-0.844 0.066-1.678 0.488-2.385 0.133-0.222 0.060-0.51-0.162-0.643s-0.51-0.060-0.643 0.162c-0.362 0.606-0.58 1.282-0.64 1.973l-0.299-0.279c-0.674-0.629-1.73-0.629-2.405 0l-1.349 1.259c-0.853 0.796-1.177 2.030-0.824 3.143l1.759 5.544c0.34 1.073 1.136 1.896 2.136 2.287v1.136c0 0.91 0.485 1.71 1.21 2.153l-1.602 7.322h-0.688c-1.377 0-2.497 1.12-2.497 2.497v0.694c0 0.946 0.77 1.716 1.716 1.716h12.394c0.259 0 0.469-0.21 0.469-0.469s-0.21-0.469-0.469-0.469h-12.394c-0.429 0-0.779-0.349-0.779-0.779v-0.694c0-0.86 0.7-1.56 1.56-1.56h14.798c0.86 0 1.56 0.7 1.56 1.56v0.694c0 0.429-0.349 0.779-0.779 0.779h-1.721c-0.259 0-0.469 0.21-0.469 0.469s0.21 0.469 0.469 0.469h1.721c0.946 0 1.716-0.77 1.716-1.716v-0.694c0-1.377-1.12-2.497-2.497-2.497h-0.688l-1.602-7.322c0.725-0.443 1.21-1.243 1.21-2.153zM8.439 13.912l-1.759-5.544c-0.244-0.77-0.021-1.623 0.57-2.174l1.349-1.259c0.316-0.295 0.81-0.295 1.125 0l1.654 1.544c0.674 0.629 1.73 0.629 2.405 0l1.654-1.544c0.316-0.295 0.81-0.295 1.126 0l1.654 1.544c0.674 0.629 1.73 0.629 2.405 0l1.654-1.544c0.316-0.294 0.81-0.295 1.125 0l1.349 1.259c0.59 0.551 0.814 1.404 0.57 2.174l-1.759 5.544c-0.357 1.126-1.392 1.883-2.573 1.883h-9.976c-1.182 0-2.216-0.757-2.573-1.883zM21.751 27.093h-11.502l1.53-6.989c0.138 0.024 0.28 0.037 0.425 0.037 7.934-0.013 7.613 0.033 8.018-0.037zM21.381 17.618c0 0.874-0.711 1.584-1.585 1.584h-7.593c-0.874 0-1.585-0.711-1.585-1.584v-0.908c0.375 0.040-0.094 0.014 10.369 0.022 0.133 0 0.264-0.008 0.393-0.022v0.908z"></path>
</svg>
