<!-- Generated by IcoMoon.io -->
<svg version="1.1" xmlns="http://www.w3.org/2000/svg" width="32" height="32" viewBox="0 0 32 32">
<title>chevron-2</title>
<path fill="#bd6428" d="M7.455 24.254c-0.285-0.185-0.455-0.501-0.455-0.84v-21.414h17.999v21.414c0 0.339-0.171 0.655-0.455 0.84l-8.545 5.55-8.545-5.55z"></path>
<path fill="#a35623" d="M24.25 6.5c-0.414 0-0.75 0.336-0.75 0.75v4.575c0 0.373-0.302 0.675-0.675 0.675-0.002 0-0.003 0-0.005 0h-0.070c-0.412-0.003-0.747 0.329-0.75 0.74 0 0.002 0 0.004 0 0.005v4.58c0 0.373-0.302 0.675-0.675 0.675-0.002 0-0.003 0-0.005 0h-0.065c-0.414-0.003-0.752 0.331-0.755 0.745 0 0.002 0 0.003 0 0.005v2.25c-0.003 2.223-1.132 4.293-3 5.5v0c-0.938 0.617-1.502 1.666-1.5 2.79l8.545-5.535c0.261-0.168 0.428-0.447 0.455-0.755v0-16.999h-0.75z"></path>
<path fill="#2e485d" d="M16.499 23.499c0 0.276-0.224 0.5-0.5 0.5s-0.5-0.224-0.5-0.5c0-0.276 0.224-0.5 0.5-0.5s0.5 0.224 0.5 0.5z"></path>
<path fill="#d17f4d" d="M7 2v14.499h0.75c0.414 0 0.75-0.336 0.75-0.75v0-5.075c0.010-0.383 0.329-0.686 0.713-0.676 0.009 0 0.018 0.001 0.027 0.001v0c0.414 0.005 0.754-0.326 0.76-0.74 0-0.004 0-0.007 0-0.010v-3.75c0-1.104 0.895-2 2-2h9.5c0.828 0 1.5-0.671 1.5-1.5h-15.999z"></path>
<path fill="#2e485d" d="M21.999 5.5c0 0.276-0.224 0.5-0.5 0.5s-0.5-0.224-0.5-0.5c0-0.276 0.224-0.5 0.5-0.5s0.5 0.224 0.5 0.5z"></path>
<path fill="#2d4961" d="M25 0h-17.999c-1.104 0-2 0.895-2 2v21.414c0.005 1.010 0.518 1.949 1.365 2.5l9.090 5.925c0.332 0.216 0.758 0.216 1.090 0l9.090-5.91c0.847-0.55 1.36-1.49 1.365-2.5v-21.429c0-1.105-0.895-2-2-2zM25 4.28c-0.43-0.39-0.962-0.647-1.535-0.74-0.093-0.575-0.352-1.11-0.745-1.54h2.28v2.28zM9.28 2c-0.392 0.429-0.65 0.962-0.745 1.535-0.573 0.095-1.106 0.353-1.535 0.745v-2.28h2.28zM16 29.803l-1.655-1.075c0.69-0.288 1.27-0.789 1.655-1.43 0.384 0.641 0.964 1.142 1.655 1.43l-1.655 1.075zM25 23.414c0 0.339-0.171 0.655-0.455 0.84l-5.735 3.745c-1.306-0.099-2.314-1.19-2.31-2.5 0-0.276-0.224-0.5-0.5-0.5s-0.5 0.224-0.5 0.5c0.004 1.31-1.004 2.4-2.31 2.5l-5.735-3.745c-0.285-0.185-0.455-0.501-0.455-0.84v-16.914c0-1.104 0.895-2 2-2 0.276 0 0.5-0.224 0.5-0.5 0-1.104 0.895-2 2-2h9c1.104 0 2 0.895 2 2 0 0.276 0.224 0.5 0.5 0.5 1.104 0 2 0.895 2 2v16.914z"></path>
<path fill="#44637f" d="M5.001 2v16.999c0.553 0 1-0.448 1-1v-15.999c0-0.552 0.447-1 1-1h16.999c0.552 0 1-0.448 1-1h-17.999c-1.105-0-2 0.895-2 2z"></path>
<path fill="#123247" d="M25.635 25.929c0.847-0.55 1.36-1.49 1.365-2.5v-19.929c-0.552 0-1 0.447-1 1v19.029c0 0.503-0.252 0.972-0.67 1.25l-8.5 5.665c-0.519 0.348-0.83 0.93-0.83 1.555v0c0.194 0 0.383-0.055 0.545-0.16l9.090-5.91z"></path>
<path fill="#a35623" d="M21.999 13.499c0 0.552-0.448 1-1 1s-1-0.448-1-1c0-0.552 0.448-1 1-1s1 0.448 1 1z"></path>
<path fill="#a35623" d="M12.999 13.499c0 0.552-0.448 1-1 1s-1-0.448-1-1c0-0.552 0.448-1 1-1s1 0.448 1 1z"></path>
<path fill="#a35623" d="M17.499 9c0 0.552-0.448 1-1 1s-1-0.448-1-1c0-0.552 0.448-1 1-1s1 0.448 1 1z"></path>
<path fill="#fff" d="M21.499 12.999c0 0.552-0.448 1-1 1s-1-0.448-1-1c0-0.552 0.448-1 1-1s1 0.448 1 1z"></path>
<path fill="#fff" d="M16.999 8.5c0 0.552-0.448 1-1 1s-1-0.448-1-1c0-0.552 0.448-1 1-1s1 0.448 1 1z"></path>
<path fill="#fff" d="M12.499 12.999c0 0.552-0.448 1-1 1s-1-0.448-1-1c0-0.552 0.448-1 1-1s1 0.448 1 1z"></path>
<path fill="#2e485d" d="M18.499 23.499c0 0.276-0.224 0.5-0.5 0.5s-0.5-0.224-0.5-0.5c0-0.276 0.224-0.5 0.5-0.5s0.5 0.224 0.5 0.5z"></path>
<path fill="#2e485d" d="M23.499 7c0 0.276-0.224 0.5-0.5 0.5s-0.5-0.224-0.5-0.5c0-0.276 0.224-0.5 0.5-0.5s0.5 0.224 0.5 0.5z"></path>
<path fill="#2e485d" d="M20.499 4c0 0.276-0.224 0.5-0.5 0.5s-0.5-0.224-0.5-0.5c0-0.276 0.224-0.5 0.5-0.5s0.5 0.224 0.5 0.5z"></path>
<path fill="#2e485d" d="M10.999 5.5c0 0.276-0.224 0.5-0.5 0.5s-0.5-0.224-0.5-0.5c0-0.276 0.224-0.5 0.5-0.5s0.5 0.224 0.5 0.5z"></path>
<path fill="#2e485d" d="M12.499 4c0 0.276-0.224 0.5-0.5 0.5s-0.5-0.224-0.5-0.5c0-0.276 0.224-0.5 0.5-0.5s0.5 0.224 0.5 0.5z"></path>
<path fill="#2e485d" d="M9.499 7c0 0.276-0.224 0.5-0.5 0.5s-0.5-0.224-0.5-0.5c0-0.276 0.224-0.5 0.5-0.5s0.5 0.224 0.5 0.5z"></path>
<path fill="#2e485d" d="M14.499 23.499c0 0.276-0.224 0.5-0.5 0.5s-0.5-0.224-0.5-0.5c0-0.276 0.224-0.5 0.5-0.5s0.5 0.224 0.5 0.5z"></path>
<path fill="#a35623" d="M18.275 13.644l1.9-1.9c0.364-0.348 0.425-0.907 0.145-1.325-0.326-0.446-0.952-0.543-1.397-0.216-0.036 0.027-0.070 0.055-0.102 0.086l-1.94 1.94c-0.195 0.194-0.51 0.194-0.705 0l-1.9-1.9c-0.348-0.362-0.906-0.423-1.325-0.145-0.445 0.326-0.543 0.952-0.216 1.397 0.027 0.036 0.055 0.070 0.086 0.102l1.94 1.94c0.194 0.195 0.194 0.51 0 0.705l-1.915 1.92c-0.389 0.372-0.431 0.979-0.095 1.4 0.357 0.421 0.988 0.473 1.409 0.116 0.021-0.018 0.041-0.037 0.060-0.056l1.94-1.94c0.195-0.194 0.51-0.194 0.705 0l1.94 1.94c0.39 0.39 1.023 0.391 1.414 0 0.020-0.020 0.038-0.040 0.056-0.061 0.335-0.421 0.294-1.028-0.095-1.4l-1.895-1.895c-0.199-0.191-0.204-0.508-0.013-0.707 0.001-0.001 0.002-0.002 0.003-0.003z"></path>
<path fill="#fff" d="M17.77 13.144l1.9-1.9c0.364-0.348 0.425-0.907 0.145-1.325-0.326-0.446-0.952-0.543-1.397-0.216-0.036 0.027-0.070 0.055-0.102 0.086l-1.94 1.94c-0.195 0.194-0.51 0.194-0.705 0l-1.9-1.9c-0.348-0.362-0.906-0.423-1.325-0.145-0.445 0.326-0.543 0.952-0.216 1.397 0.027 0.036 0.055 0.070 0.086 0.102l1.94 1.94c0.194 0.195 0.194 0.51 0 0.705l-1.92 1.92c-0.389 0.372-0.431 0.979-0.095 1.4 0.357 0.421 0.988 0.473 1.409 0.116 0.021-0.018 0.041-0.037 0.060-0.056l1.94-1.94c0.195-0.194 0.51-0.194 0.705 0l1.94 1.94c0.39 0.39 1.023 0.391 1.414 0 0.020-0.020 0.038-0.040 0.056-0.061 0.335-0.421 0.294-1.028-0.095-1.4l-1.895-1.895c-0.198-0.193-0.201-0.509-0.008-0.707 0.001-0.001 0.002-0.002 0.003-0.003z"></path>
<path fill="#dddfe1" d="M19.18 10.744l-1.9 1.9c-0.194 0.195-0.194 0.51 0 0.705l0.5 0.5c-0.181-0.193-0.181-0.492 0-0.685l1.9-1.9c0.364-0.348 0.425-0.907 0.145-1.325-0.102-0.139-0.238-0.249-0.395-0.32 0.145 0.392 0.047 0.832-0.25 1.125z"></path>
<path fill="#dddfe1" d="M19.215 15.299c0.35 0.374 0.373 0.948 0.055 1.35-0.357 0.421-0.988 0.473-1.409 0.116-0.021-0.018-0.041-0.037-0.061-0.056l-1.94-1.94c-0.195-0.194-0.51-0.194-0.705 0l-1.94 1.94c-0.294 0.295-0.74 0.377-1.12 0.205 0.036 0.087 0.085 0.168 0.145 0.24 0.357 0.421 0.988 0.473 1.409 0.116 0.021-0.018 0.041-0.037 0.060-0.056l1.94-1.94c0.195-0.194 0.51-0.194 0.705 0l1.94 1.94c0.39 0.39 1.023 0.391 1.414 0 0.020-0.020 0.038-0.040 0.056-0.061 0.335-0.421 0.294-1.028-0.095-1.4l-0.455-0.455z"></path>
<path fill="#a35623" d="M19.5 21.999c-0.265-0.001-0.518-0.107-0.705-0.295l-2.295-2.29-2.295 2.295c-0.39 0.39-1.024 0.39-1.415 0s-0.39-1.024 0-1.415l3-3c0.39-0.39 1.023-0.391 1.414-0.001 0 0 0 0 0.001 0.001l3 3c0.39 0.392 0.387 1.025-0.004 1.414-0.187 0.186-0.439 0.29-0.701 0.291z"></path>
<path fill="#fff" d="M19 21.499c-0.265-0.001-0.518-0.107-0.705-0.295l-2.295-2.29-2.295 2.295c-0.39 0.39-1.024 0.39-1.415 0s-0.39-1.024 0-1.415l3-3c0.39-0.39 1.023-0.391 1.414-0.001 0 0 0 0 0.001 0.001l3 3c0.39 0.392 0.387 1.025-0.004 1.414-0.187 0.186-0.439 0.29-0.701 0.291z"></path>
<path fill="#dddfe1" d="M19.665 19.749l-0.455-0.455c0.39 0.39 0.39 1.024 0 1.415s-1.024 0.39-1.415 0v0l-1.94-1.94c-0.195-0.194-0.51-0.194-0.705 0l-1.94 1.94c-0.294 0.291-0.738 0.37-1.115 0.2 0.111 0.259 0.331 0.454 0.6 0.535 0.374 0.111 0.779 0.006 1.050-0.275l2.255-2.255 2.295 2.295c0.39 0.39 1.023 0.391 1.414 0 0.020-0.020 0.038-0.040 0.056-0.061 0.334-0.422 0.291-1.029-0.1-1.4z"></path>
<path fill="#dddfe1" d="M12.205 13.704c0.272-0.273 0.364-0.677 0.235-1.040-0.059-0.158-0.235-0.238-0.393-0.178-0.040 0.015-0.077 0.039-0.107 0.069l-0.89 0.89c-0.118 0.12-0.117 0.313 0.002 0.431 0.030 0.030 0.067 0.053 0.107 0.069 0.365 0.129 0.772 0.036 1.045-0.24z"></path>
<path fill="#dddfe1" d="M21.205 13.704c0.272-0.273 0.363-0.677 0.235-1.040-0.059-0.158-0.235-0.238-0.392-0.178-0.040 0.015-0.077 0.039-0.108 0.069l-0.89 0.89c-0.119 0.12-0.117 0.313 0.003 0.431 0.030 0.030 0.067 0.053 0.108 0.069 0.365 0.129 0.772 0.036 1.045-0.24z"></path>
<path fill="#dddfe1" d="M16.705 9.205c0.272-0.273 0.363-0.677 0.235-1.040-0.059-0.158-0.235-0.237-0.392-0.178-0.040 0.015-0.077 0.039-0.108 0.069l-0.89 0.89c-0.118 0.12-0.117 0.313 0.002 0.431 0.030 0.030 0.067 0.053 0.107 0.069 0.365 0.13 0.772 0.036 1.045-0.24z"></path>
</svg>
