<!-- Generated by IcoMoon.io -->
<svg version="1.1" xmlns="http://www.w3.org/2000/svg" width="32" height="32" viewBox="0 0 32 32">
<title>chevron-12</title>
<path fill="#3cb54a" d="M16 29.985c-3.588 0-6.497-2.909-6.497-6.497s2.909-6.497 6.497-6.497 6.497 2.909 6.497 6.497-2.909 6.497-6.497 6.497z"></path>
<path fill="#89c763" d="M10.003 23.988c-0.276 0-0.5-0.224-0.5-0.5 0-3.588 2.909-6.497 6.497-6.497 0.276 0 0.5 0.224 0.5 0.5s-0.224 0.5-0.5 0.5c-3.036 0-5.497 2.461-5.497 5.497 0 0.276-0.224 0.5-0.5 0.5z"></path>
<path fill="#0e9347" d="M16 29.985c-0.276 0-0.5-0.224-0.5-0.5s0.224-0.5 0.5-0.5c3.036 0 5.497-2.461 5.497-5.497 0-0.276 0.224-0.5 0.5-0.5s0.5 0.224 0.5 0.5c0 3.588-2.909 6.497-6.497 6.497z"></path>
<path fill="#2d4961" d="M23.876 7.941c0.708-0.57 1.12-1.43 1.119-2.339v-3.603c0-1.104-0.895-1.999-1.999-1.999h-13.993c-1.104 0-1.999 0.895-1.999 1.999v3.603c-0 0.909 0.411 1.769 1.119 2.339l6.877 5.527v1.159c0.003 0.249-0.178 0.462-0.425 0.5-4.625 0.788-7.736 5.176-6.949 9.802s5.176 7.736 9.802 6.949c4.626-0.788 7.736-5.176 6.949-9.802-0.606-3.556-3.392-6.342-6.949-6.949-0.246-0.037-0.428-0.25-0.425-0.5v-1.159l6.872-5.527zM19.753 18.196c0.226 0.158 0.281 0.47 0.123 0.696-0.017 0.024-0.037 0.047-0.058 0.068l-1 1c-0.209 0.179-0.234 0.495-0.055 0.705s0.495 0.234 0.705 0.055c0.020-0.017 0.038-0.035 0.055-0.055l1-1c0.194-0.196 0.511-0.198 0.707-0.003 0.021 0.021 0.041 0.044 0.058 0.068 0.564 0.793 0.942 1.704 1.104 2.664 0.052 0.271-0.124 0.533-0.396 0.586-0.035 0.006-0.069 0.009-0.104 0.009h-1.394c-0.276 0-0.5 0.224-0.5 0.5s0.224 0.5 0.5 0.5h1.404c0.276-0.005 0.504 0.214 0.509 0.491 0 0.035-0.003 0.070-0.009 0.104-0.162 0.96-0.54 1.871-1.104 2.664-0.158 0.226-0.47 0.281-0.696 0.123-0.024-0.017-0.047-0.037-0.068-0.058l-1-1c-0.209-0.179-0.525-0.155-0.705 0.055-0.16 0.187-0.16 0.463 0 0.65l1 1c0.196 0.194 0.198 0.511 0.003 0.707-0.021 0.021-0.044 0.041-0.068 0.058-0.793 0.564-1.704 0.942-2.664 1.104-0.271 0.052-0.533-0.124-0.586-0.396-0.006-0.035-0.009-0.069-0.009-0.104v-1.399c0-0.276-0.224-0.5-0.5-0.5s-0.5 0.224-0.5 0.5v1.404c0.005 0.276-0.214 0.504-0.491 0.509-0.035 0-0.070-0.003-0.104-0.009-0.96-0.162-1.871-0.54-2.664-1.104-0.226-0.158-0.281-0.47-0.123-0.696 0.017-0.024 0.037-0.047 0.058-0.068l0.999-1c0.179-0.209 0.155-0.525-0.055-0.705-0.187-0.16-0.463-0.16-0.65 0l-0.999 1c-0.194 0.196-0.511 0.198-0.707 0.003-0.021-0.021-0.040-0.044-0.058-0.068-0.567-0.794-0.946-1.707-1.109-2.669-0.053-0.271 0.124-0.533 0.396-0.586 0.034-0.006 0.069-0.009 0.104-0.009h1.399c0.276 0 0.5-0.224 0.5-0.5s-0.224-0.5-0.5-0.5h-1.404c-0.276 0.005-0.504-0.214-0.509-0.491-0.001-0.035 0.002-0.070 0.009-0.104 0.162-0.96 0.54-1.871 1.104-2.664 0.158-0.226 0.47-0.281 0.696-0.123 0.024 0.017 0.047 0.037 0.068 0.058l0.999 1c0.209 0.179 0.525 0.155 0.705-0.055 0.16-0.187 0.16-0.463 0-0.65l-0.999-1c-0.196-0.194-0.198-0.511-0.004-0.707 0.021-0.021 0.044-0.041 0.068-0.058 0.793-0.564 1.704-0.942 2.664-1.104 0.271-0.052 0.533 0.124 0.586 0.396 0.007 0.035 0.009 0.069 0.009 0.104v1.399c0 0.276 0.224 0.5 0.5 0.5s0.5-0.224 0.5-0.5v-1.404c-0.005-0.276 0.214-0.504 0.491-0.509 0.035-0 0.070 0.003 0.104 0.009 0.96 0.164 1.871 0.543 2.664 1.109z"></path>
<path fill="#3cb54a" d="M9.378 6.382c-0.237-0.189-0.375-0.476-0.375-0.78v-3.603h13.993v3.603c0 0.303-0.138 0.59-0.375 0.78l-6.622 5.322-6.622-5.322z"></path>
<path fill="#123247" d="M16 31.984c-0.276 0-0.5-0.224-0.5-0.5s0.224-0.5 0.5-0.5c4.14 0 7.496-3.356 7.496-7.496 0-0.276 0.224-0.5 0.5-0.5s0.5 0.224 0.5 0.5c0 4.692-3.804 8.496-8.496 8.496v0z"></path>
<path fill="#44637f" d="M15.001 13.493v1.134c0.003 0.249-0.178 0.462-0.425 0.5-4.078 0.694-7.064 4.224-7.071 8.361 0 0.276 0.224 0.5 0.5 0.5s0.5-0.224 0.5-0.5c-0.001-3.77 2.798-6.954 6.537-7.436 0.541-0.060 0.953-0.515 0.96-1.059v0-0.5c0-0.552-0.448-0.999-0.999-0.999z"></path>
<path fill="#123247" d="M23.996 2.999v2.879c-0.001 0.455-0.209 0.886-0.565 1.169l-5.432 4.353c-0.631 0.502-0.998 1.263-1 2.069v0l6.877-5.527c0.708-0.57 1.12-1.43 1.119-2.339v-3.603c-0.552 0-1 0.447-1 0.999z"></path>
<path fill="#44637f" d="M9.003 0c-1.104 0-1.999 0.895-1.999 1.999v3.498c0.552 0 0.999-0.447 0.999-1v-2.499c0-0.552 0.447-1 0.999-1h12.993c0.552 0 1-0.447 1-1h-13.993z"></path>
<path fill="#d1d9e1" d="M20.498 8.091v-5.092h-1.999v6.697z"></path>
<path fill="#d1d9e1" d="M13.501 9.695v-6.697h-1.999v5.092z"></path>
<path fill="#d1d9e1" d="M15.001 10.9l0.999 0.805 1-0.805v-7.901h-1.999z"></path>
<path fill="#89c763" d="M9.005 1.999h13.993v1h-13.993v-1z"></path>
<path fill="#f1f2f2" d="M11.504 1.999h1.999v1h-1.999v-1z"></path>
<path fill="#f1f2f2" d="M15.002 1.999h1.999v1h-1.999v-1z"></path>
<path fill="#f1f2f2" d="M18.501 1.999h1.999v1h-1.999v-1z"></path>
<path fill="#123247" d="M16.502 23.488c0 0.276-0.224 0.5-0.5 0.5s-0.5-0.224-0.5-0.5c0-0.276 0.224-0.5 0.5-0.5s0.5 0.224 0.5 0.5z"></path>
<path fill="#123247" d="M18.999 22.989h-0.045c-0.213-1.256-1.197-2.24-2.454-2.454v-0.045c0-0.276-0.224-0.5-0.5-0.5s-0.5 0.224-0.5 0.5v0.045c-1.256 0.213-2.24 1.197-2.454 2.454h-0.045c-0.276 0-0.5 0.224-0.5 0.5s0.224 0.5 0.5 0.5h0.045c0.213 1.256 1.197 2.24 2.454 2.454v0.045c0 0.276 0.224 0.5 0.5 0.5s0.5-0.224 0.5-0.5v-0.045c1.256-0.213 2.24-1.197 2.454-2.454h0.045c0.276 0 0.5-0.224 0.5-0.5s-0.224-0.5-0.5-0.5zM16.5 25.422c-0.061-0.269-0.329-0.438-0.598-0.376-0.187 0.043-0.333 0.189-0.376 0.376-0.713-0.174-1.273-0.725-1.459-1.434 0.269-0.061 0.438-0.329 0.376-0.598-0.043-0.187-0.189-0.333-0.376-0.376 0.174-0.713 0.725-1.273 1.434-1.459 0.062 0.269 0.329 0.438 0.598 0.376 0.187-0.043 0.333-0.189 0.376-0.376 0.713 0.174 1.273 0.725 1.459 1.434-0.269 0.061-0.438 0.329-0.376 0.598 0.043 0.187 0.189 0.333 0.376 0.376-0.174 0.713-0.725 1.273-1.434 1.459z"></path>
</svg>
