<!-- Generated by IcoMoon.io -->
<svg version="1.1" xmlns="http://www.w3.org/2000/svg" width="32" height="32" viewBox="0 0 32 32">
<title>chevron-11</title>
<path fill="#2d4961" d="M23.877 7.942c0.708-0.57 1.12-1.43 1.119-2.339v-3.603c0-1.104-0.895-1.999-1.999-1.999h-13.994c-1.104 0-1.999 0.895-1.999 1.999v3.604c-0 0.909 0.411 1.769 1.12 2.339l6.877 5.528v1.175l-2.179 4.638-4.848 0.74c-0.615 0.088-1.042 0.658-0.954 1.272 0.034 0.234 0.14 0.452 0.304 0.622l3.539 3.628-0.86 5.138c-0.099 0.613 0.316 1.191 0.93 1.29 0.249 0.040 0.504-0.004 0.725-0.126l4.343-2.389 4.323 2.389c0.536 0.313 1.225 0.131 1.538-0.405 0.133-0.229 0.182-0.498 0.136-0.76l-0.86-5.138 3.539-3.629c0.432-0.446 0.422-1.157-0.024-1.59-0.167-0.162-0.38-0.268-0.611-0.304l-4.848-0.74-2.194-4.643v-1.169l6.877-5.528z"></path>
<path fill="#123247" d="M23.997 2.999v2.879c-0.001 0.455-0.209 0.886-0.565 1.17l-5.433 4.353c-0.631 0.502-0.999 1.263-1 2.069v0l6.877-5.528c0.708-0.57 1.12-1.43 1.119-2.339v-3.603c-0.552 0-1 0.447-1 1z"></path>
<path fill="#44637f" d="M9.003 0c-1.104 0-1.999 0.895-1.999 1.999v3.499c0.552 0 1-0.447 1-1v-2.499c0-0.552 0.447-1 1-1h12.995c0.552 0 1-0.447 1-1h-13.994z"></path>
<path fill="#123247" d="M21.138 25.544l3.539-3.629c0.295-0.302 0.395-0.745 0.26-1.145-0.023-0.055-0.049-0.109-0.080-0.16-0.254 0.025-0.494 0.126-0.69 0.29l-2.834 2.904c-0.443 0.455-0.643 1.093-0.54 1.719l0.675 4.138c0.099 0.613-0.316 1.191-0.93 1.29-0.249 0.041-0.504-0.004-0.725-0.126l-3.354-1.839c-0.608-0.342-1.351-0.342-1.959 0l-3.329 1.849c-0.046 0.023-0.095 0.039-0.145 0.050-0.351 0.099-0.555 0.464-0.455 0.814 0.014 0.050 0.034 0.099 0.060 0.145v0c0.328 0.175 0.722 0.175 1.050 0l4.318-2.389 4.323 2.389c0.536 0.313 1.225 0.131 1.538-0.405 0.133-0.229 0.182-0.498 0.136-0.76l-0.86-5.138z"></path>
<path fill="#ffcb5b" d="M16 27.174l-3.713 2.054 0.71-4.358-3.054-3.129 4.218-0.645 1.839-3.918 1.839 3.918 4.218 0.645-3.054 3.129 0.71 4.358z"></path>
<path fill="#ffdb6f" d="M14.721 21.911l1.749-3.728-0.47-1.005-1.839 3.918-4.218 0.645 0.765 0.785z"></path>
<path fill="#f7b84e" d="M22.058 21.741l-1.115-0.17-2.499 2.564 0.71 4.353-3.713-2.049-2.964 1.634-0.19 1.154 3.713-2.054 3.713 2.054-0.71-4.358z"></path>
<path fill="#3689c9" d="M9.378 6.382c-0.237-0.189-0.375-0.476-0.375-0.78v-3.603h13.994v3.604c0 0.303-0.138 0.59-0.375 0.78l-6.622 5.323-6.622-5.323z"></path>
<path fill="#e2e5e7" d="M20.498 8.092v-5.093h-1.999v6.697z"></path>
<path fill="#e2e5e7" d="M13.501 9.696v-6.697h-1.999v5.093z"></path>
<path fill="#e2e5e7" d="M15 10.9l1 0.805 1-0.805v-7.902h-1.999z"></path>
<path fill="#4c9fd7" d="M9.001 1.999h13.994v1h-13.994v-1z"></path>
<path fill="#f1f2f2" d="M11.5 1.999h1.999v1h-1.999v-1z"></path>
<path fill="#f1f2f2" d="M14.999 1.999h1.999v1h-1.999v-1z"></path>
<path fill="#f1f2f2" d="M18.497 1.999h1.999v1h-1.999v-1z"></path>
<path fill="#44637f" d="M15 13.494v1.149l-2.179 4.638-4.848 0.74c-0.615 0.088-1.042 0.658-0.954 1.272 0.034 0.234 0.14 0.452 0.304 0.622l0.18 0.19c0.006-0.546 0.409-1.006 0.95-1.085l3.833-0.585c0.644-0.091 1.204-0.49 1.499-1.070l1.954-3.873c0.17-0.331 0.259-0.698 0.26-1.070v0c0-0.513-0.416-0.93-0.93-0.93v0h-0.070z"></path>
</svg>
