<!-- Generated by IcoMoon.io -->
<svg version="1.1" xmlns="http://www.w3.org/2000/svg" width="32" height="32" viewBox="0 0 32 32">
<title>chevron-5</title>
<path fill="#3cb54a" d="M7.45 24.25c-0.3-0.2-0.45-0.5-0.45-0.85v-21.4h18v21.4c0 0.35-0.15 0.65-0.45 0.85l-8.55 5.55-8.55-5.55z"></path>
<path fill="#89c763" d="M7 2v14.5h0.75c0.4 0 0.75-0.35 0.75-0.75v0-5.050c0-0.4 0.35-0.7 0.7-0.7 0 0 0 0 0.050 0v0c0.4 0 0.75-0.35 0.75-0.75v0-3.75c0-1.1 0.9-2 2-2h9.5c0.85 0 1.5-0.65 1.5-1.5h-16z"></path>
<path fill="#0e9347" d="M17.95 10.3l-1-2.5c-0.1-0.25-0.4-0.4-0.65-0.3-0.15 0.050-0.25 0.15-0.3 0.3l-1 2.5c-0.050 0.1-0.050 0.25 0 0.35l1 2.5c0.1 0.25 0.4 0.4 0.65 0.3 0.15-0.050 0.25-0.15 0.3-0.3l1-2.5c0.050-0.1 0.050-0.2 0-0.35z"></path>
<path fill="#fff" d="M17.45 9.8l-1-2.5c-0.1-0.25-0.4-0.4-0.65-0.3-0.15 0.050-0.25 0.15-0.3 0.3l-1 2.5c-0.050 0.1-0.050 0.25 0 0.35l1 2.5c0.1 0.25 0.4 0.4 0.65 0.3 0.15-0.050 0.25-0.15 0.3-0.3l1-2.5c0.050-0.1 0.050-0.2 0-0.35z"></path>
<path fill="#2d4961" d="M16.5 23.5c0 0.276-0.224 0.5-0.5 0.5s-0.5-0.224-0.5-0.5c0-0.276 0.224-0.5 0.5-0.5s0.5 0.224 0.5 0.5z"></path>
<path fill="#2d4961" d="M16.5 5.5c0 0.276-0.224 0.5-0.5 0.5s-0.5-0.224-0.5-0.5c0-0.276 0.224-0.5 0.5-0.5s0.5 0.224 0.5 0.5z"></path>
<path fill="#2d4961" d="M20 13c0 0.276-0.224 0.5-0.5 0.5s-0.5-0.224-0.5-0.5c0-0.276 0.224-0.5 0.5-0.5s0.5 0.224 0.5 0.5z"></path>
<path fill="#2d4961" d="M16.5 18c0 0.276-0.224 0.5-0.5 0.5s-0.5-0.224-0.5-0.5c0-0.276 0.224-0.5 0.5-0.5s0.5 0.224 0.5 0.5z"></path>
<path fill="#2d4961" d="M13.5 13c0 0.276-0.224 0.5-0.5 0.5s-0.5-0.224-0.5-0.5c0-0.276 0.224-0.5 0.5-0.5s0.5 0.224 0.5 0.5z"></path>
<path fill="#2d4961" d="M16.5 3.5c0 0.276-0.224 0.5-0.5 0.5s-0.5-0.224-0.5-0.5c0-0.276 0.224-0.5 0.5-0.5s0.5 0.224 0.5 0.5z"></path>
<path fill="#2d4961" d="M16.5 21.5c0 0.276-0.224 0.5-0.5 0.5s-0.5-0.224-0.5-0.5c0-0.276 0.224-0.5 0.5-0.5s0.5 0.224 0.5 0.5z"></path>
<path fill="#0e9347" d="M14.9 17.65l1.050-2.45c0.1-0.25 0-0.55-0.3-0.65-0.1-0.050-0.25-0.050-0.35 0l-2.45 1.050c-0.1 0.050-0.2 0.15-0.25 0.25l-1.050 2.45c-0.1 0.25 0 0.55 0.3 0.65 0.1 0.050 0.25 0.050 0.35 0l2.45-1.050c0.1-0.050 0.2-0.15 0.25-0.25z"></path>
<path fill="#0e9347" d="M24.25 6.5c-0.4 0-0.75 0.35-0.75 0.75v4.55c0 0.35-0.3 0.7-0.65 0.7v0h-0.050c-0.4 0-0.75 0.35-0.75 0.75v0 4.6c0 0.3-0.2 0.6-0.5 0.65 0-0.050 0-0.1-0.050-0.15l-1.050-2.45c-0.050-0.1-0.15-0.2-0.25-0.25l-2.45-1.050c-0.25-0.1-0.55 0-0.65 0.3-0.050 0.1-0.050 0.25 0 0.35l1.050 2.45c0.050 0.1 0.15 0.2 0.25 0.25l2.25 0.95c-0.1 0.1-0.15 0.25-0.15 0.35v2.25c0 2.2-1.15 4.3-3 5.5-0.95 0.6-1.5 1.65-1.5 2.8l8.55-5.55c0.25-0.15 0.45-0.45 0.45-0.75v0-17h-0.75z"></path>
<path fill="#fff" d="M14.4 17.15l1.050-2.45c0.1-0.25 0-0.55-0.3-0.65-0.1-0.050-0.25-0.050-0.35 0l-2.45 1.050c-0.1 0.050-0.2 0.15-0.25 0.25l-1.050 2.45c-0.1 0.25 0 0.55 0.3 0.65 0.1 0.050 0.25 0.050 0.35 0l2.45-1.050c0.1-0.050 0.2-0.15 0.25-0.25z"></path>
<path fill="#dddfe1" d="M11.7 18.45l2.45-1.050c0.1-0.050 0.2-0.15 0.25-0.25l1.050-2.45c0.1-0.2-0.3-0.3-0.8 0.15l-3.5 3.5c0.15 0.15 0.35 0.2 0.55 0.1z"></path>
<path fill="#fff" d="M17.6 17.15l-1.050-2.45c-0.1-0.25 0-0.55 0.3-0.65 0.1-0.050 0.25-0.050 0.35 0l2.45 1.050c0.1 0.050 0.2 0.15 0.25 0.25l1.050 2.45c0.1 0.25 0 0.55-0.3 0.65-0.1 0.050-0.25 0.050-0.35 0l-2.45-1.050c-0.1-0.050-0.2-0.15-0.25-0.25z"></path>
<path fill="#dddfe1" d="M20.3 18.45l-2.45-1.050c-0.1-0.050-0.2-0.15-0.25-0.25l-1.050-2.45c-0.1-0.2 0.3-0.3 0.8 0.15l3.5 3.5c-0.15 0.15-0.35 0.2-0.55 0.1z"></path>
<path fill="#dddfe1" d="M16.45 12.7l1-2.5c0.050-0.1 0.050-0.25 0-0.35l-1-2.5c-0.050-0.2-0.45 0-0.45 0.7v5c0.2-0.050 0.4-0.15 0.45-0.35z"></path>
<path fill="#2d4961" d="M25 0h-18c-1.1 0-2 0.9-2 2v21.4c0 1 0.5 1.95 1.35 2.5l9.1 5.9c0.35 0.2 0.75 0.2 1.1 0l9.1-5.9c0.85-0.55 1.35-1.5 1.35-2.5v-21.4c0-1.1-0.9-2-2-2zM25 4.3c-0.45-0.4-0.95-0.65-1.55-0.75-0.1-0.55-0.35-1.1-0.75-1.55h2.3v2.3zM9.3 2c-0.4 0.45-0.65 0.95-0.75 1.55-0.6 0.1-1.1 0.35-1.55 0.75v-2.3h2.3zM16 29.8l-1.65-1.1c0.7-0.3 1.25-0.8 1.65-1.45 0.4 0.65 0.95 1.15 1.65 1.45l-1.65 1.1zM25 23.4c0 0.35-0.15 0.65-0.45 0.85l-5.75 3.75c-1.3-0.1-2.3-1.2-2.3-2.5 0-0.3-0.2-0.5-0.5-0.5s-0.5 0.2-0.5 0.5c0 1.3-1 2.4-2.3 2.5l-5.75-3.75c-0.3-0.2-0.45-0.5-0.45-0.85v-16.9c0-1.1 0.9-2 2-2 0.3 0 0.5-0.2 0.5-0.5 0-1.1 0.9-2 2-2h9c1.1 0 2 0.9 2 2 0 0.3 0.2 0.5 0.5 0.5 1.1 0 2 0.9 2 2v16.9z"></path>
<path fill="#44637f" d="M5 2v17c0.55 0 1-0.45 1-1v-16c0-0.55 0.45-1 1-1h17c0.55 0 1-0.45 1-1h-18c-1.1 0-2 0.9-2 2z"></path>
<path fill="#123247" d="M25.65 25.95c0.85-0.55 1.35-1.5 1.35-2.5v-19.95c-0.55 0-1 0.45-1 1v19.050c0 0.5-0.25 0.95-0.65 1.25l-8.5 5.65c-0.5 0.35-0.85 0.95-0.85 1.55v0c0.2 0 0.4-0.050 0.55-0.15l9.1-5.9z"></path>
</svg>
