<!-- Generated by IcoMoon.io -->
<svg version="1.1" xmlns="http://www.w3.org/2000/svg" width="32" height="32" viewBox="0 0 32 32">
<title>chevron-18</title>
<path fill="#ffcb5b" d="M7.455 24.254c-0.285-0.185-0.455-0.501-0.455-0.84v-21.414h17.999v21.414c0 0.339-0.171 0.655-0.455 0.84l-8.545 5.55-8.545-5.55z"></path>
<path fill="#2e485d" d="M16.499 23.499c0 0.276-0.224 0.5-0.5 0.5s-0.5-0.224-0.5-0.5c0-0.276 0.224-0.5 0.5-0.5s0.5 0.224 0.5 0.5z"></path>
<path fill="#ffdb6f" d="M7 2v14.499h0.75c0.414 0 0.75-0.336 0.75-0.75v0-5.075c0.010-0.383 0.329-0.686 0.713-0.676 0.009 0 0.018 0.001 0.027 0.001v0c0.414 0.005 0.754-0.326 0.76-0.74 0-0.004 0-0.007 0-0.010v-3.75c0-1.104 0.895-2 2-2h9.5c0.828 0 1.5-0.671 1.5-1.5h-15.999z"></path>
<path fill="#2e485d" d="M10.499 5c0 0.276-0.224 0.5-0.5 0.5s-0.5-0.224-0.5-0.5c0-0.276 0.224-0.5 0.5-0.5s0.5 0.224 0.5 0.5z"></path>
<path fill="#2e485d" d="M22.499 5c0 0.276-0.224 0.5-0.5 0.5s-0.5-0.224-0.5-0.5c0-0.276 0.224-0.5 0.5-0.5s0.5 0.224 0.5 0.5z"></path>
<path fill="#f7b84e" d="M19.5 18.139c-0.046-0.133-0.161-0.23-0.3-0.25l-1.615-0.245-0.725-1.545c-0.087-0.188-0.311-0.269-0.498-0.182-0.080 0.037-0.145 0.101-0.182 0.182l-0.725 1.545-1.615 0.245c-0.205 0.030-0.347 0.22-0.317 0.425 0.010 0.068 0.039 0.132 0.082 0.185l1.18 1.21-0.285 1.73c-0.034 0.204 0.104 0.398 0.309 0.431 0.082 0.014 0.168-0.001 0.241-0.041l1.45-0.795 1.44 0.795c0.181 0.099 0.41 0.032 0.509-0.149 0.040-0.073 0.055-0.159 0.041-0.241l-0.28-1.715 1.185-1.225c0.096-0.093 0.137-0.23 0.105-0.36z"></path>
<path fill="#fff" d="M19 17.259c-0.046-0.133-0.161-0.23-0.3-0.25l-1.615-0.245-0.725-1.545c-0.087-0.188-0.311-0.269-0.498-0.182-0.080 0.037-0.145 0.101-0.182 0.182l-0.725 1.545-1.635 0.235c-0.204 0.034-0.343 0.226-0.31 0.43 0.012 0.075 0.047 0.145 0.1 0.2l1.18 1.21-0.29 1.725c-0.034 0.204 0.104 0.398 0.309 0.431 0.082 0.014 0.168-0.001 0.241-0.041l1.45-0.8 1.44 0.795c0.181 0.099 0.41 0.032 0.509-0.149 0.040-0.073 0.055-0.159 0.041-0.241l-0.275-1.71 1.18-1.21c0.104-0.096 0.145-0.244 0.105-0.38z"></path>
<path fill="#dddfe1" d="M19 17.259c-0.046-0.133-0.161-0.23-0.3-0.25l-0.25-0.040-0.035 0.050-1 1.030c-0.11 0.114-0.161 0.273-0.135 0.43l0.22 1.46c0.034 0.204-0.105 0.398-0.309 0.431-0.082 0.014-0.168-0.001-0.241-0.041l-1.2-0.665c-0.155-0.090-0.345-0.090-0.5 0l-1.2 0.665-0.050 0.235c-0.034 0.204 0.104 0.398 0.309 0.431 0.082 0.014 0.168-0.001 0.241-0.041l1.45-0.8 1.44 0.795c0.181 0.099 0.41 0.032 0.509-0.149 0.040-0.073 0.055-0.159 0.041-0.241l-0.275-1.71 1.18-1.21c0.104-0.096 0.145-0.244 0.105-0.38z"></path>
<path fill="#f7b84e" d="M24.25 6.5c-0.414 0-0.75 0.336-0.75 0.75v4.575c0 0.373-0.302 0.675-0.675 0.675-0.002 0-0.003 0-0.005 0h-0.070c-0.184-0.001-0.363 0.066-0.5 0.19l1.145-1.19c0.143-0.149 0.139-0.386-0.011-0.53-0.055-0.053-0.125-0.088-0.2-0.1l-1.615-0.245-0.725-1.545c-0.087-0.188-0.311-0.269-0.498-0.182-0.080 0.037-0.145 0.101-0.182 0.182l-0.725 1.545-1.615 0.245c-0.205 0.028-0.349 0.218-0.32 0.423 0.011 0.078 0.046 0.15 0.1 0.207l1.18 1.21-0.285 1.73c-0.034 0.204 0.105 0.398 0.309 0.431 0.082 0.014 0.168-0.001 0.241-0.041l1.45-0.795 1.44 0.795c0.020 0.002 0.040 0.002 0.060 0v3c-0.003 0.373-0.307 0.673-0.68 0.67v0h-0.065c-0.414-0.003-0.752 0.331-0.755 0.745 0 0.002 0 0.003 0 0.005v2.25c-0.003 2.223-1.132 4.293-3 5.5-0.938 0.617-1.502 1.666-1.5 2.79l8.545-5.535c0.261-0.168 0.428-0.447 0.455-0.755v0-16.999h-0.75z"></path>
<path fill="#fff" d="M23 10.259c-0.046-0.133-0.161-0.229-0.3-0.25l-1.615-0.245-0.725-1.545c-0.087-0.188-0.311-0.269-0.498-0.182-0.080 0.037-0.145 0.101-0.182 0.182l-0.725 1.545-1.635 0.235c-0.204 0.034-0.343 0.226-0.31 0.431 0.012 0.075 0.047 0.145 0.1 0.2l1.18 1.21-0.29 1.725c-0.034 0.204 0.105 0.398 0.309 0.431 0.082 0.014 0.168-0.001 0.241-0.041l1.45-0.8 1.44 0.795c0.181 0.1 0.41 0.033 0.509-0.149 0.040-0.073 0.055-0.159 0.041-0.241l-0.275-1.71 1.18-1.21c0.104-0.097 0.144-0.243 0.105-0.38z"></path>
<path fill="#dddfe1" d="M23 10.259c-0.046-0.133-0.161-0.229-0.3-0.25l-0.25-0.040-0.035 0.050-1 1.030c-0.11 0.114-0.161 0.274-0.135 0.43l0.22 1.46c0.034 0.204-0.105 0.398-0.309 0.431-0.082 0.014-0.168-0.001-0.241-0.041l-1.2-0.665c-0.154-0.089-0.346-0.089-0.5 0l-1.2 0.665-0.050 0.235c-0.034 0.204 0.105 0.398 0.309 0.431 0.082 0.014 0.168-0.001 0.241-0.041l1.45-0.8 1.44 0.795c0.181 0.1 0.41 0.033 0.509-0.149 0.040-0.073 0.055-0.159 0.041-0.241l-0.275-1.71 1.18-1.21c0.104-0.097 0.145-0.243 0.105-0.38z"></path>
<path fill="#f7b84e" d="M15.5 11.139c-0.046-0.133-0.161-0.229-0.3-0.25l-1.615-0.245-0.725-1.545c-0.088-0.188-0.31-0.269-0.498-0.182-0.080 0.037-0.145 0.101-0.182 0.182l-0.725 1.545-1.615 0.245c-0.205 0.030-0.347 0.22-0.317 0.425 0.010 0.068 0.039 0.132 0.082 0.185l1.18 1.21-0.285 1.73c-0.034 0.204 0.104 0.398 0.309 0.431 0.082 0.014 0.168-0.001 0.241-0.041l1.45-0.795 1.44 0.795c0.181 0.1 0.409 0.033 0.509-0.149 0.040-0.073 0.055-0.159 0.041-0.241l-0.28-1.715 1.185-1.225c0.097-0.093 0.136-0.23 0.105-0.36z"></path>
<path fill="#fff" d="M15 10.259c-0.046-0.133-0.161-0.229-0.3-0.25l-1.615-0.245-0.725-1.545c-0.088-0.188-0.31-0.269-0.498-0.182-0.080 0.037-0.145 0.101-0.182 0.182l-0.725 1.545-1.635 0.235c-0.204 0.034-0.343 0.226-0.31 0.431 0.012 0.075 0.047 0.145 0.1 0.2l1.18 1.21-0.29 1.725c-0.034 0.204 0.104 0.398 0.309 0.431 0.082 0.014 0.168-0.001 0.241-0.041l1.45-0.8 1.44 0.795c0.181 0.1 0.409 0.033 0.509-0.149 0.040-0.073 0.055-0.159 0.041-0.241l-0.275-1.71 1.18-1.21c0.104-0.097 0.145-0.243 0.105-0.38z"></path>
<path fill="#dddfe1" d="M15 10.259c-0.046-0.133-0.161-0.229-0.3-0.25l-0.25-0.040-0.035 0.050-1 1.030c-0.111 0.114-0.161 0.274-0.135 0.43l0.22 1.46c0.034 0.204-0.104 0.398-0.309 0.431-0.082 0.014-0.168-0.001-0.241-0.041l-1.2-0.665c-0.155-0.089-0.345-0.089-0.5 0l-1.2 0.665-0.050 0.235c-0.034 0.204 0.104 0.398 0.309 0.431 0.082 0.014 0.168-0.001 0.241-0.041l1.45-0.8 1.44 0.795c0.181 0.1 0.409 0.033 0.509-0.149 0.040-0.073 0.055-0.159 0.041-0.241l-0.275-1.71 1.18-1.21c0.104-0.097 0.145-0.243 0.105-0.38z"></path>
<path fill="#2d4961" d="M25 0h-17.999c-1.104 0-2 0.895-2 2v21.414c0.005 1.010 0.518 1.949 1.365 2.5l9.090 5.925c0.332 0.216 0.758 0.216 1.090 0l9.090-5.91c0.847-0.55 1.36-1.49 1.365-2.5v-21.429c0-1.105-0.895-2-2-2zM25 4.28c-0.43-0.39-0.962-0.647-1.535-0.74-0.093-0.575-0.352-1.11-0.745-1.54h2.28v2.28zM9.28 2c-0.392 0.429-0.65 0.962-0.745 1.535-0.573 0.095-1.106 0.353-1.535 0.745v-2.28h2.28zM16 29.803l-1.655-1.075c0.69-0.288 1.27-0.789 1.655-1.43 0.384 0.641 0.964 1.142 1.655 1.43l-1.655 1.075zM25 23.414c0 0.339-0.171 0.655-0.455 0.84l-5.735 3.745c-1.306-0.099-2.314-1.19-2.31-2.5 0-0.276-0.224-0.5-0.5-0.5s-0.5 0.224-0.5 0.5c0.004 1.31-1.004 2.4-2.31 2.5l-5.735-3.745c-0.285-0.185-0.455-0.501-0.455-0.84v-16.914c0-1.104 0.895-2 2-2 0.276 0 0.5-0.224 0.5-0.5 0-1.104 0.895-2 2-2h9c1.104 0 2 0.895 2 2 0 0.276 0.224 0.5 0.5 0.5 1.104 0 2 0.895 2 2v16.914z"></path>
<path fill="#44637f" d="M5.001 2v16.999c0.553 0 1-0.448 1-1v-15.999c0-0.552 0.447-1 1-1h16.999c0.552 0 1-0.448 1-1h-17.999c-1.105-0-2 0.895-2 2z"></path>
<path fill="#123247" d="M25.635 25.929c0.847-0.55 1.36-1.49 1.365-2.5v-19.929c-0.552 0-1 0.447-1 1v19.029c0 0.503-0.252 0.972-0.67 1.25l-8.5 5.665c-0.519 0.348-0.83 0.93-0.83 1.555v0c0.194 0 0.383-0.055 0.545-0.16l9.090-5.91z"></path>
</svg>
