<!-- Generated by IcoMoon.io -->
<svg version="1.1" xmlns="http://www.w3.org/2000/svg" width="32" height="32" viewBox="0 0 32 32">
<title>chevron-19</title>
<path fill="#d1d9e1" d="M24.25 6.5c-0.4 0-0.75 0.35-0.75 0.75v4.55c0 0.35-0.3 0.7-0.65 0.7v0h-0.050c-0.4 0-0.75 0.35-0.75 0.75v0 4.6c0 0.35-0.2 0.6-0.55 0.65 0.050-0.1 0.050-0.15 0.050-0.25 0-0.4-0.35-0.75-0.75-0.75h-0.3v-4.050c0-0.2 0.1-0.4 0.3-0.5 0.5-0.15 0.8-0.75 0.65-1.25s-0.75-0.8-1.25-0.65c-0.45 0.1-0.7 0.5-0.7 0.95 0 0.2 0.050 0.35 0.15 0.55s0.1 0.4-0.050 0.55l-0.7 0.9c-0.15 0.2-0.5 0.25-0.7 0.1-0.050 0-0.050-0.050-0.1-0.1l-0.75-0.9c-0.15-0.15-0.15-0.4-0.050-0.55s0.15-0.35 0.15-0.55c0-0.55-0.45-1-1-1s-1 0.45-1 1c0 0.2 0.050 0.35 0.15 0.55s0.1 0.4-0.050 0.55l-0.65 0.9c-0.15 0.2-0.5 0.25-0.7 0.1-0.050 0-0.050-0.050-0.1-0.1l-0.75-0.9c-0.15-0.15-0.15-0.4-0.050-0.55s0.15-0.35 0.15-0.55c0-0.55-0.45-1-1-1s-1 0.45-1 1c0 0.45 0.3 0.8 0.7 0.95 0.2 0.1 0.35 0.3 0.3 0.5v4.050h-0.25c-0.4 0-0.75 0.35-0.75 0.75s0.35 0.75 0.75 0.75h8.3c0 0.1 0 0.15 0 0.25v2.25c0 2.2-1.15 4.3-3 5.5-0.95 0.6-1.5 1.65-1.5 2.8l8.55-5.55c0.25-0.15 0.45-0.45 0.45-0.75v0-17h-0.75z"></path>
<path fill="#e2e5e7" d="M7.45 24.25c-0.3-0.2-0.45-0.5-0.45-0.85v-21.4h18v21.4c0 0.35-0.15 0.65-0.45 0.85l-8.55 5.55-8.55-5.55z"></path>
<path fill="#f1f2f2" d="M7 2v14.5h0.75c0.4 0 0.75-0.35 0.75-0.75v0-5.050c0-0.4 0.35-0.7 0.7-0.7 0 0 0 0 0.050 0v0c0.4 0 0.75-0.35 0.75-0.75v0-3.75c0-1.1 0.9-2 2-2h9.5c0.85 0 1.5-0.65 1.5-1.5h-16z"></path>
<path fill="#2d4961" d="M25 0h-18c-1.1 0-2 0.9-2 2v21.4c0 1 0.5 1.95 1.35 2.5l9.1 5.9c0.35 0.2 0.75 0.2 1.1 0l9.1-5.9c0.85-0.55 1.35-1.5 1.35-2.5v-21.4c0-1.1-0.9-2-2-2zM25 4.3c-0.45-0.4-0.95-0.65-1.55-0.75-0.1-0.55-0.35-1.1-0.75-1.55h2.3v2.3zM9.3 2c-0.4 0.45-0.65 0.95-0.75 1.55-0.6 0.1-1.1 0.35-1.55 0.75v-2.3h2.3zM16 29.8l-1.65-1.1c0.7-0.3 1.25-0.8 1.65-1.45 0.4 0.65 0.95 1.15 1.65 1.45l-1.65 1.1zM25 23.4c0 0.35-0.15 0.65-0.45 0.85l-5.75 3.75c-1.3-0.1-2.3-1.2-2.3-2.5 0-0.3-0.2-0.5-0.5-0.5s-0.5 0.2-0.5 0.5c0 1.3-1 2.4-2.3 2.5l-5.75-3.75c-0.3-0.2-0.45-0.5-0.45-0.85v-16.9c0-1.1 0.9-2 2-2 0.3 0 0.5-0.2 0.5-0.5 0-1.1 0.9-2 2-2h9c1.1 0 2 0.9 2 2 0 0.3 0.2 0.5 0.5 0.5 1.1 0 2 0.9 2 2v16.9z"></path>
<path fill="#123247" d="M25.65 25.95c0.85-0.55 1.35-1.5 1.35-2.5v-19.95c-0.55 0-1 0.45-1 1v19.050c0 0.5-0.25 0.95-0.65 1.25l-8.5 5.65c-0.5 0.35-0.85 0.95-0.85 1.55v0c0.2 0 0.4-0.050 0.55-0.15l9.1-5.9z"></path>
<path fill="#2e485d" d="M16.5 23.5c0 0.276-0.224 0.5-0.5 0.5s-0.5-0.224-0.5-0.5c0-0.276 0.224-0.5 0.5-0.5s0.5 0.224 0.5 0.5z"></path>
<path fill="#2e485d" d="M10.5 5c0 0.276-0.224 0.5-0.5 0.5s-0.5-0.224-0.5-0.5c0-0.276 0.224-0.5 0.5-0.5s0.5 0.224 0.5 0.5z"></path>
<path fill="#2e485d" d="M22.5 5c0 0.276-0.224 0.5-0.5 0.5s-0.5-0.224-0.5-0.5c0-0.276 0.224-0.5 0.5-0.5s0.5 0.224 0.5 0.5z"></path>
<path fill="#44637f" d="M5 2v17c0.55 0 1-0.45 1-1v-16c0-0.55 0.45-1 1-1h17c0.55 0 1-0.45 1-1h-18c-1.1 0-2 0.9-2 2z"></path>
<path fill="#2e485d" d="M21 6.5c0 0.276-0.224 0.5-0.5 0.5s-0.5-0.224-0.5-0.5c0-0.276 0.224-0.5 0.5-0.5s0.5 0.224 0.5 0.5z"></path>
<path fill="#2e485d" d="M12 6.5c0 0.276-0.224 0.5-0.5 0.5s-0.5-0.224-0.5-0.5c0-0.276 0.224-0.5 0.5-0.5s0.5 0.224 0.5 0.5z"></path>
<path fill="#2e485d" d="M16.5 21.5c0 0.276-0.224 0.5-0.5 0.5s-0.5-0.224-0.5-0.5c0-0.276 0.224-0.5 0.5-0.5s0.5 0.224 0.5 0.5z"></path>
<path fill="#2e485d" d="M20 10.5c-0.55 0-1 0.45-1 1 0 0.2 0.050 0.35 0.15 0.55s0.1 0.4-0.050 0.55l-0.7 0.9c-0.15 0.2-0.5 0.25-0.7 0.1-0.050 0-0.050-0.050-0.1-0.1l-0.75-0.9c-0.15-0.15-0.15-0.4-0.050-0.55s0.15-0.35 0.15-0.55c0-0.55-0.45-1-1-1s-1 0.45-1 1c0 0.2 0.050 0.35 0.15 0.55s0.1 0.4-0.050 0.55l-0.65 0.9c-0.15 0.2-0.5 0.25-0.7 0.1-0.050 0-0.050-0.050-0.1-0.1l-0.75-0.9c-0.15-0.15-0.15-0.4-0.050-0.55s0.15-0.35 0.15-0.55c0-0.55-0.45-1-1-1s-1 0.45-1 1c0 0.45 0.3 0.8 0.7 0.95 0.2 0.1 0.35 0.3 0.3 0.5v3.55c0 0.3 0.2 0.5 0.5 0.5h7c0.3 0 0.5-0.2 0.5-0.5v-3.55c0-0.2 0.1-0.4 0.3-0.5 0.5-0.2 0.75-0.8 0.55-1.3-0.1-0.4-0.4-0.65-0.8-0.65z"></path>
<path fill="#123247" d="M18.5 16h-6c-0.3 0-0.5 0.2-0.5 0.5v0.5h8v-3.5c-0.55 0-1 0.45-1 1v1c0 0.3-0.2 0.5-0.5 0.5z"></path>
<path fill="#123247" d="M15.55 11.95c-0.1 0.1-0.15 0.3 0 0.4 0.050 0.050 0.050 0.050 0.1 0.1 0.5 0.2 1.1-0.050 1.3-0.6 0.1-0.2 0.1-0.45 0-0.7-0.050-0.15-0.25-0.25-0.4-0.2-0.050 0-0.1 0.050-0.1 0.1l-0.9 0.9z"></path>
<path fill="#123247" d="M11.55 11.95c-0.1 0.1-0.15 0.3 0 0.4 0.050 0.050 0.050 0.050 0.1 0.1 0.5 0.2 1.1-0.050 1.3-0.6 0.1-0.2 0.1-0.45 0-0.7-0.050-0.15-0.25-0.25-0.4-0.2-0.050 0-0.1 0.050-0.1 0.1l-0.9 0.9z"></path>
<path fill="#123247" d="M19.55 11.95c-0.1 0.1-0.15 0.3 0 0.4 0.050 0.050 0.050 0.050 0.1 0.1 0.5 0.2 1.1-0.050 1.3-0.6 0.1-0.2 0.1-0.45 0-0.7-0.050-0.15-0.25-0.25-0.4-0.2-0.050 0-0.1 0.050-0.1 0.1l-0.9 0.9z"></path>
<path fill="#ee2c39" d="M11.75 17h8.5c0.4 0 0.75 0.35 0.75 0.75v0c0 0.4-0.35 0.75-0.75 0.75h-8.5c-0.4 0-0.75-0.35-0.75-0.75v0c0-0.4 0.35-0.75 0.75-0.75z"></path>
<path fill="#cc202c" d="M11.75 18.5h8.5c0.4 0 0.75-0.35 0.75-0.75h-8.5c-0.4 0-0.75 0.35-0.75 0.75v0z"></path>
<path fill="#2e485d" d="M22.5 14.5c0 0.276-0.224 0.5-0.5 0.5s-0.5-0.224-0.5-0.5c0-0.276 0.224-0.5 0.5-0.5s0.5 0.224 0.5 0.5z"></path>
<path fill="#2e485d" d="M10.5 14.5c0 0.276-0.224 0.5-0.5 0.5s-0.5-0.224-0.5-0.5c0-0.276 0.224-0.5 0.5-0.5s0.5 0.224 0.5 0.5z"></path>
</svg>
