<!-- Generated by IcoMoon.io -->
<svg version="1.1" xmlns="http://www.w3.org/2000/svg" width="32" height="32" viewBox="0 0 32 32">
<title>chevron-6</title>
<path fill="#3cb54a" d="M7.455 24.254c-0.285-0.185-0.455-0.501-0.455-0.84v-21.414h17.999v21.414c0 0.339-0.171 0.655-0.455 0.84l-8.545 5.55-8.545-5.55z"></path>
<path fill="#89c763" d="M7 2v14.499h0.75c0.414 0 0.75-0.336 0.75-0.75v0-5.075c0.010-0.383 0.329-0.686 0.713-0.676 0.009 0 0.018 0.001 0.027 0.001v0c0.414 0.005 0.754-0.326 0.76-0.74 0-0.004 0-0.007 0-0.010v-3.75c0-1.104 0.895-2 2-2h9.5c0.828 0 1.5-0.671 1.5-1.5h-15.999z"></path>
<path fill="#0e9347" d="M17.965 10.314l-1-2.5c-0.102-0.257-0.392-0.383-0.649-0.281-0.128 0.051-0.23 0.152-0.281 0.281l-1 2.5c-0.047 0.119-0.047 0.251 0 0.37l1 2.5c0.102 0.257 0.392 0.383 0.649 0.281 0.128-0.051 0.23-0.152 0.281-0.281l1-2.5c0.047-0.119 0.047-0.251 0-0.37z"></path>
<path fill="#0e9347" d="M17.965 17.314l-1-2.5c-0.102-0.257-0.392-0.383-0.649-0.281-0.128 0.051-0.23 0.152-0.281 0.281l-1 2.5c-0.047 0.119-0.047 0.251 0 0.37l1 2.5c0.102 0.257 0.392 0.383 0.649 0.281 0.128-0.051 0.23-0.152 0.281-0.281l1-2.5c0.047-0.119 0.047-0.251 0-0.37z"></path>
<path fill="#0e9347" d="M24.25 6.5c-0.414 0-0.75 0.336-0.75 0.75v4.575c0 0.373-0.302 0.675-0.675 0.675-0.002 0-0.003 0-0.005 0h-0.070c-0.412-0.003-0.747 0.329-0.75 0.74 0 0.002 0 0.004 0 0.005v0l-1.815-0.725c-0.119-0.047-0.251-0.047-0.37 0l-2.5 1c-0.257 0.101-0.383 0.392-0.281 0.649 0.051 0.129 0.152 0.23 0.281 0.281l2.5 1c0.119 0.047 0.251 0.047 0.37 0l1.815-0.71v3.090c-0.003 0.373-0.307 0.673-0.68 0.67v0h-0.065c-0.414-0.003-0.752 0.331-0.755 0.745 0 0.002 0 0.003 0 0.005v2.25c-0.003 2.223-1.132 4.293-3 5.5-0.938 0.617-1.502 1.666-1.5 2.79l8.545-5.535c0.261-0.168 0.428-0.447 0.455-0.755v0-16.999h-0.75z"></path>
<path fill="#0e9347" d="M13.185 15.464l2.5-1c0.257-0.101 0.383-0.392 0.281-0.649-0.051-0.129-0.152-0.23-0.281-0.281l-2.5-1c-0.119-0.047-0.251-0.047-0.37 0l-2.5 1c-0.257 0.101-0.383 0.392-0.281 0.649 0.051 0.129 0.152 0.23 0.281 0.281l2.5 1c0.118 0.047 0.251 0.047 0.37 0z"></path>
<path fill="#fff" d="M17.465 9.815l-1-2.5c-0.102-0.257-0.392-0.383-0.649-0.281-0.129 0.051-0.23 0.152-0.281 0.281l-1 2.5c-0.047 0.119-0.047 0.251 0 0.37l1 2.5c0.101 0.257 0.392 0.383 0.649 0.281 0.128-0.051 0.23-0.152 0.281-0.281l1-2.5c0.047-0.119 0.047-0.251 0-0.37z"></path>
<path fill="#fff" d="M17.465 16.814l-1-2.5c-0.102-0.257-0.392-0.383-0.649-0.281-0.129 0.051-0.23 0.152-0.281 0.281l-1 2.5c-0.047 0.119-0.047 0.251 0 0.37l1 2.5c0.101 0.257 0.392 0.383 0.649 0.281 0.128-0.051 0.23-0.152 0.281-0.281l1-2.5c0.047-0.119 0.047-0.251 0-0.37z"></path>
<path fill="#fff" d="M19.685 14.964l2.5-1c0.257-0.101 0.383-0.392 0.281-0.649-0.051-0.129-0.152-0.23-0.281-0.281l-2.5-1c-0.119-0.047-0.251-0.047-0.37 0l-2.5 1c-0.257 0.101-0.383 0.392-0.281 0.649 0.051 0.129 0.152 0.23 0.281 0.281l2.5 1c0.119 0.047 0.251 0.047 0.37 0z"></path>
<path fill="#fff" d="M12.685 14.964l2.5-1c0.257-0.101 0.383-0.392 0.281-0.649-0.051-0.129-0.152-0.23-0.281-0.281l-2.5-1c-0.119-0.047-0.251-0.047-0.37 0l-2.5 1c-0.257 0.101-0.383 0.392-0.281 0.649 0.051 0.129 0.152 0.23 0.281 0.281l2.5 1c0.118 0.047 0.251 0.047 0.37 0z"></path>
<path fill="#2d4961" d="M16.499 23.499c0 0.276-0.224 0.5-0.5 0.5s-0.5-0.224-0.5-0.5c0-0.276 0.224-0.5 0.5-0.5s0.5 0.224 0.5 0.5z"></path>
<path fill="#2d4961" d="M16.499 5.5c0 0.276-0.224 0.5-0.5 0.5s-0.5-0.224-0.5-0.5c0-0.276 0.224-0.5 0.5-0.5s0.5 0.224 0.5 0.5z"></path>
<path fill="#2d4961" d="M19.999 10c0 0.276-0.224 0.5-0.5 0.5s-0.5-0.224-0.5-0.5c0-0.276 0.224-0.5 0.5-0.5s0.5 0.224 0.5 0.5z"></path>
<path fill="#2d4961" d="M19.999 16.999c0 0.276-0.224 0.5-0.5 0.5s-0.5-0.224-0.5-0.5c0-0.276 0.224-0.5 0.5-0.5s0.5 0.224 0.5 0.5z"></path>
<path fill="#2d4961" d="M13.499 10c0 0.276-0.224 0.5-0.5 0.5s-0.5-0.224-0.5-0.5c0-0.276 0.224-0.5 0.5-0.5s0.5 0.224 0.5 0.5z"></path>
<path fill="#2d4961" d="M13.499 16.999c0 0.276-0.224 0.5-0.5 0.5s-0.5-0.224-0.5-0.5c0-0.276 0.224-0.5 0.5-0.5s0.5 0.224 0.5 0.5z"></path>
<path fill="#2d4961" d="M16.499 3.5c0 0.276-0.224 0.5-0.5 0.5s-0.5-0.224-0.5-0.5c0-0.276 0.224-0.5 0.5-0.5s0.5 0.224 0.5 0.5z"></path>
<path fill="#2d4961" d="M16.499 21.499c0 0.276-0.224 0.5-0.5 0.5s-0.5-0.224-0.5-0.5c0-0.276 0.224-0.5 0.5-0.5s0.5 0.224 0.5 0.5z"></path>
<path fill="#dddfe1" d="M16.465 19.684l1-2.5c0.047-0.119 0.047-0.251 0-0.37l-1-2.5c-0.075-0.19-0.465 0-0.465 0.685v5c0.204 0 0.389-0.124 0.465-0.315z"></path>
<path fill="#dddfe1" d="M16.465 12.684l1-2.5c0.047-0.119 0.047-0.251 0-0.37l-1-2.5c-0.075-0.19-0.465 0-0.465 0.685v5c0.204 0 0.389-0.124 0.465-0.315z"></path>
<path fill="#dddfe1" d="M16.815 13.964l2.5 1c0.119 0.047 0.251 0.047 0.37 0l2.5-1c0.191-0.076 0.315-0.26 0.315-0.465h-6c-0 0.205 0.125 0.389 0.315 0.465z"></path>
<path fill="#dddfe1" d="M9.815 13.964l2.5 1c0.119 0.047 0.251 0.047 0.37 0l2.5-1c0.191-0.076 0.315-0.26 0.315-0.465h-6c-0.001 0.205 0.124 0.389 0.315 0.465z"></path>
<path fill="#2d4961" d="M25 0h-17.999c-1.104 0-2 0.895-2 2v21.414c0.005 1.010 0.518 1.949 1.365 2.5l9.090 5.925c0.332 0.216 0.758 0.216 1.090 0l9.090-5.91c0.847-0.55 1.36-1.49 1.365-2.5v-21.429c0-1.105-0.895-2-2-2zM25 4.28c-0.43-0.39-0.962-0.647-1.535-0.74-0.093-0.575-0.352-1.11-0.745-1.54h2.28v2.28zM9.28 2c-0.392 0.429-0.65 0.962-0.745 1.535-0.573 0.095-1.106 0.353-1.535 0.745v-2.28h2.28zM16 29.803l-1.655-1.075c0.69-0.288 1.27-0.789 1.655-1.43 0.384 0.641 0.964 1.142 1.655 1.43l-1.655 1.075zM25 23.414c0 0.339-0.171 0.655-0.455 0.84l-5.735 3.745c-1.306-0.099-2.314-1.19-2.31-2.5 0-0.276-0.224-0.5-0.5-0.5s-0.5 0.224-0.5 0.5c0.004 1.31-1.004 2.4-2.31 2.5l-5.735-3.745c-0.285-0.185-0.455-0.501-0.455-0.84v-16.914c0-1.104 0.895-2 2-2 0.276 0 0.5-0.224 0.5-0.5 0-1.104 0.895-2 2-2h9c1.104 0 2 0.895 2 2 0 0.276 0.224 0.5 0.5 0.5 1.104 0 2 0.895 2 2v16.914z"></path>
<path fill="#44637f" d="M5.001 2v16.999c0.553 0 1-0.448 1-1v-15.999c0-0.552 0.447-1 1-1h16.999c0.552 0 1-0.448 1-1h-17.999c-1.105-0-2 0.895-2 2z"></path>
<path fill="#123247" d="M25.635 25.929c0.847-0.55 1.36-1.49 1.365-2.5v-19.929c-0.552 0-1 0.447-1 1v19.029c0 0.503-0.252 0.972-0.67 1.25l-8.5 5.665c-0.519 0.348-0.83 0.93-0.83 1.555v0c0.194 0 0.383-0.055 0.545-0.16l9.090-5.91z"></path>
</svg>
