<!-- Generated by IcoMoon.io -->
<svg version="1.1" xmlns="http://www.w3.org/2000/svg" width="32" height="32" viewBox="0 0 32 32">
<title>chevron-21</title>
<path fill="#e2e5e7" d="M7.455 24.254c-0.285-0.185-0.455-0.501-0.455-0.84v-21.414h17.999v21.414c0 0.339-0.171 0.655-0.455 0.84l-8.545 5.55-8.545-5.55z"></path>
<path fill="#d1d9e1" d="M24.25 6.5c-0.414 0-0.75 0.336-0.75 0.75v4.575c0 0.373-0.302 0.675-0.675 0.675-0.002 0-0.003 0-0.005 0h-0.070c-0.412-0.003-0.747 0.329-0.75 0.74 0 0.002 0 0.004 0 0.005v4.58c0 0.373-0.302 0.675-0.675 0.675-0.002 0-0.003 0-0.005 0h-0.065c-0.11-0-0.22 0.023-0.32 0.070-0.049-0.137-0.128-0.262-0.23-0.365l-2.705-2.705 1.645-1.645 0.5 0.5c0.209 0.179 0.526 0.155 0.705-0.055 0.16-0.187 0.16-0.463 0-0.65l-0.75-0.75 1.545-1.545c0.209 0.179 0.526 0.155 0.705-0.055 0.16-0.187 0.16-0.463 0-0.65l-1-1c-0.209-0.179-0.526-0.155-0.705 0.055-0.16 0.187-0.16 0.463 0 0.65l-1.545 1.545-0.75-0.75c-0.209-0.179-0.526-0.155-0.705 0.055-0.16 0.187-0.16 0.463 0 0.65l0.5 0.5-1.645 1.645-1.645-1.645 0.5-0.5c0.179-0.21 0.155-0.525-0.055-0.705-0.187-0.161-0.463-0.161-0.65 0l-0.75 0.75-1.545-1.545c0.179-0.21 0.155-0.525-0.055-0.705-0.187-0.161-0.463-0.161-0.65 0l-1 1c-0.179 0.21-0.155 0.525 0.055 0.705 0.187 0.161 0.463 0.161 0.65 0l1.545 1.545-0.75 0.75c-0.179 0.21-0.155 0.525 0.055 0.705 0.187 0.161 0.463 0.161 0.65 0l0.5-0.5 1.645 1.645-2.705 2.705c-0.189 0.188-0.295 0.444-0.295 0.71v1.085h1.085c0.265-0.001 0.518-0.107 0.705-0.295l2.71-2.705 2.705 2.705c0.186 0.188 0.44 0.294 0.705 0.295h0.59v1.5c-0.003 2.223-1.132 4.293-3 5.5-0.938 0.617-1.502 1.666-1.5 2.79l8.545-5.535c0.261-0.168 0.428-0.447 0.455-0.755v0-16.999h-0.75z"></path>
<path fill="#f1f2f2" d="M7 2v14.499h0.75c0.414 0 0.75-0.336 0.75-0.75v0-5.075c0.010-0.383 0.329-0.686 0.713-0.676 0.009 0 0.018 0.001 0.027 0.001v0c0.414 0.005 0.754-0.326 0.76-0.74 0-0.004 0-0.007 0-0.010v-3.75c0-1.104 0.895-2 2-2h9.5c0.828 0 1.5-0.671 1.5-1.5h-15.999z"></path>
<path fill="#2d4961" d="M25 0h-17.999c-1.104 0-2 0.895-2 2v21.414c0.005 1.010 0.518 1.949 1.365 2.5l9.090 5.925c0.332 0.216 0.758 0.216 1.090 0l9.090-5.91c0.847-0.55 1.36-1.49 1.365-2.5v-21.429c0-1.105-0.895-2-2-2zM25 4.28c-0.43-0.39-0.962-0.647-1.535-0.74-0.093-0.575-0.352-1.11-0.745-1.54h2.28v2.28zM9.28 2c-0.392 0.429-0.65 0.962-0.745 1.535-0.573 0.095-1.106 0.353-1.535 0.745v-2.28h2.28zM16 29.803l-1.655-1.075c0.69-0.288 1.27-0.789 1.655-1.43 0.384 0.641 0.964 1.142 1.655 1.43l-1.655 1.075zM25 23.414c0 0.339-0.171 0.655-0.455 0.84l-5.735 3.745c-1.306-0.099-2.314-1.19-2.31-2.5 0-0.276-0.224-0.5-0.5-0.5s-0.5 0.224-0.5 0.5c0.004 1.31-1.004 2.4-2.31 2.5l-5.735-3.745c-0.285-0.185-0.455-0.501-0.455-0.84v-16.914c0-1.104 0.895-2 2-2 0.276 0 0.5-0.224 0.5-0.5 0-1.104 0.895-2 2-2h9c1.104 0 2 0.895 2 2 0 0.276 0.224 0.5 0.5 0.5 1.104 0 2 0.895 2 2v16.914z"></path>
<path fill="#123247" d="M25.635 25.929c0.847-0.55 1.36-1.49 1.365-2.5v-19.929c-0.552 0-1 0.447-1 1v19.029c0 0.503-0.252 0.972-0.67 1.25l-8.5 5.665c-0.519 0.348-0.83 0.93-0.83 1.555v0c0.194 0 0.383-0.055 0.545-0.16l9.090-5.91z"></path>
<path fill="#2e485d" d="M16.499 23.499c0 0.276-0.224 0.5-0.5 0.5s-0.5-0.224-0.5-0.5c0-0.276 0.224-0.5 0.5-0.5s0.5 0.224 0.5 0.5z"></path>
<path fill="#2e485d" d="M10.499 5c0 0.276-0.224 0.5-0.5 0.5s-0.5-0.224-0.5-0.5c0-0.276 0.224-0.5 0.5-0.5s0.5 0.224 0.5 0.5z"></path>
<path fill="#2e485d" d="M22.499 5c0 0.276-0.224 0.5-0.5 0.5s-0.5-0.224-0.5-0.5c0-0.276 0.224-0.5 0.5-0.5s0.5 0.224 0.5 0.5z"></path>
<path fill="#44637f" d="M5.001 2v16.999c0.553 0 1-0.448 1-1v-15.999c0-0.552 0.447-1 1-1h16.999c0.552 0 1-0.448 1-1h-17.999c-1.105-0-2 0.895-2 2z"></path>
<path fill="#2e485d" d="M20.999 6.5c0 0.276-0.224 0.5-0.5 0.5s-0.5-0.224-0.5-0.5c0-0.276 0.224-0.5 0.5-0.5s0.5 0.224 0.5 0.5z"></path>
<path fill="#2e485d" d="M22.499 14.999c0 0.276-0.224 0.5-0.5 0.5s-0.5-0.224-0.5-0.5c0-0.276 0.224-0.5 0.5-0.5s0.5 0.224 0.5 0.5z"></path>
<path fill="#2e485d" d="M10.499 14.999c0 0.276-0.224 0.5-0.5 0.5s-0.5-0.224-0.5-0.5c0-0.276 0.224-0.5 0.5-0.5s0.5 0.224 0.5 0.5z"></path>
<path fill="#2e485d" d="M11.999 6.5c0 0.276-0.224 0.5-0.5 0.5s-0.5-0.224-0.5-0.5c0-0.276 0.224-0.5 0.5-0.5s0.5 0.224 0.5 0.5z"></path>
<path fill="#2e485d" d="M16.499 21.499c0 0.276-0.224 0.5-0.5 0.5s-0.5-0.224-0.5-0.5c0-0.276 0.224-0.5 0.5-0.5s0.5 0.224 0.5 0.5z"></path>
<path fill="#2d4961" d="M12.5 12.999l6.205 6.205c0.186 0.188 0.44 0.294 0.705 0.295h1.090v-1.085c-0.001-0.265-0.107-0.518-0.295-0.705l-6.205-6.21-1.5 1.5z"></path>
<path fill="#123247" d="M17.5 16.499c-0.181-0.192-0.181-0.492 0-0.685 0.223-0.226 0.223-0.589 0-0.815l-0.36-0.36-0.745 0.745-2.060-2.065c-0.194-0.195-0.194-0.51 0-0.705v0c0.217-0.216 0.217-0.568 0-0.785v0l-0.335-0.33-1.5 1.5 6.205 6.205c0.186 0.188 0.44 0.294 0.705 0.295h1.090l-3-3z"></path>
<path fill="#ee2c39" d="M12.748 12.747l-2.248-2.248 1.001-1.001 2.248 2.248-1.001 1.001z"></path>
<path fill="#2d4961" d="M18 11.499l-6.205 6.205c-0.189 0.188-0.295 0.444-0.295 0.71v1.085h1.085c0.265-0.001 0.518-0.107 0.705-0.295l6.21-6.205-1.5-1.5z"></path>
<path fill="#123247" d="M18.745 12.244l-0.745-0.745-0.315 0.315c-0.217 0.216-0.217 0.568 0 0.785v0 0c0.194 0.195 0.194 0.51 0 0.705l-6.185 6.195h1.085c0.265-0.001 0.518-0.107 0.705-0.295l6.21-6.205-0.755-0.755z"></path>
<path fill="#ee2c39" d="M18.252 11.749l2.248-2.248 1 1.001-2.248 2.248-1-1.001z"></path>
<path fill="#cc202c" d="M21 10l-0.5-0.5-0.605 0.605c0.276 0.274 0.277 0.721 0.003 0.997-0.001 0.001-0.002 0.002-0.003 0.003l-1.145 1.145 0.5 0.5 2.25-2.25-0.5-0.5z"></path>
<path fill="#cc202c" d="M11 10l0.5-0.5 0.605 0.605c-0.276 0.274-0.277 0.721-0.003 0.997 0.001 0.001 0.002 0.002 0.003 0.003l1.145 1.145-0.5 0.5-2.25-2.25 0.5-0.5z"></path>
<path fill="#2d4961" d="M15 10.999c0.001 0.133-0.052 0.261-0.145 0.355l-2.5 2.5c-0.21 0.179-0.525 0.155-0.705-0.055-0.161-0.187-0.161-0.463 0-0.65l2.5-2.5c0.197-0.194 0.514-0.19 0.707 0.007 0.090 0.091 0.141 0.214 0.143 0.343z"></path>
<path fill="#2d4961" d="M12 9.5c0.001 0.133-0.052 0.261-0.145 0.355l-1 1c-0.21 0.179-0.525 0.155-0.705-0.055-0.161-0.187-0.161-0.463 0-0.65l1-1c0.197-0.194 0.514-0.19 0.707 0.007 0.090 0.091 0.141 0.214 0.143 0.343z"></path>
<path fill="#123247" d="M11.645 13.144v0c0.195 0.194 0.51 0.194 0.705 0l2.15-2.145c0.094-0.102 0.253-0.109 0.355-0.015s0.109 0.253 0.015 0.355v0 0l-2.5 2.5c-0.192 0.2-0.51 0.207-0.71 0.015s-0.207-0.51-0.015-0.71v0z"></path>
<path fill="#44637f" d="M11.145 9.145l-1 1-0.060 0.070c-0.079 0.114-0.050 0.271 0.065 0.35s0.271 0.050 0.35-0.065l1-1c0.098-0.097 0.1-0.255 0.004-0.354-0.080-0.082-0.204-0.098-0.303-0.041l-0.055 0.040z"></path>
<path fill="#2d4961" d="M21.5 10.999c-0.133 0.001-0.261-0.052-0.355-0.145l-1-1c-0.18-0.21-0.155-0.525 0.055-0.705 0.187-0.161 0.463-0.161 0.651 0l1 1c0.194 0.197 0.19 0.514-0.007 0.707-0.092 0.090-0.215 0.141-0.343 0.143z"></path>
<path fill="#44637f" d="M21.835 10.129l-1-1-0.070-0.060c-0.119-0.069-0.273-0.028-0.341 0.091-0.057 0.098-0.040 0.223 0.041 0.303l1.035 1.035c0.096 0.098 0.255 0.1 0.354 0.004 0.081-0.080 0.099-0.204 0.041-0.303l-0.060-0.070z"></path>
<path fill="#2d4961" d="M20 13.999c-0.133 0.001-0.261-0.052-0.355-0.145l-2.5-2.5c-0.18-0.21-0.155-0.525 0.055-0.705 0.187-0.161 0.463-0.161 0.651 0l2.5 2.5c0.194 0.197 0.19 0.514-0.007 0.707-0.092 0.090-0.215 0.141-0.343 0.143z"></path>
<path fill="#123247" d="M20.355 13.144v0c-0.195 0.194-0.51 0.194-0.705 0l-2.15-2.145c-0.094-0.102-0.253-0.109-0.355-0.015s-0.109 0.253-0.015 0.355v0 0l2.5 2.5c0.192 0.2 0.51 0.207 0.71 0.015s0.207-0.51 0.015-0.71v0z"></path>
</svg>
