<!-- Generated by IcoMoon.io -->
<svg version="1.1" xmlns="http://www.w3.org/2000/svg" width="32" height="32" viewBox="0 0 32 32">
<title>chevron-10</title>
<path fill="#2d4961" d="M23.876 7.941c0.708-0.57 1.12-1.43 1.119-2.339v-3.603c0-1.104-0.895-1.999-1.999-1.999h-13.993c-1.104 0-1.999 0.895-1.999 1.999v3.603c-0 0.909 0.411 1.769 1.119 2.339l6.877 5.527v1.159c0.003 0.249-0.178 0.462-0.425 0.5-4.625 0.788-7.736 5.176-6.949 9.802s5.176 7.736 9.802 6.949c4.626-0.788 7.736-5.176 6.949-9.802-0.606-3.556-3.392-6.342-6.949-6.949-0.246-0.037-0.428-0.25-0.425-0.5v-1.159l6.872-5.527z"></path>
<path fill="#123247" d="M9.378 6.382c-0.237-0.189-0.375-0.476-0.375-0.78v-3.603h13.993v3.603c0 0.303-0.138 0.59-0.375 0.78l-6.622 5.322-6.622-5.322z"></path>
<path fill="#e2e5e7" d="M16 29.985c-3.588 0-6.497-2.909-6.497-6.497s2.909-6.497 6.497-6.497 6.497 2.909 6.497 6.497-2.909 6.497-6.497 6.497z"></path>
<path fill="#fff" d="M10.003 23.988c-0.276 0-0.5-0.224-0.5-0.5 0-3.588 2.909-6.497 6.497-6.497 0.276 0 0.5 0.224 0.5 0.5s-0.224 0.5-0.5 0.5c-3.036 0-5.497 2.461-5.497 5.497 0 0.276-0.224 0.5-0.5 0.5z"></path>
<path fill="#cad1d8" d="M16 29.985c-0.276 0-0.5-0.224-0.5-0.5s0.224-0.5 0.5-0.5c3.036 0 5.497-2.461 5.497-5.497 0-0.276 0.224-0.5 0.5-0.5s0.5 0.224 0.5 0.5c0 3.588-2.909 6.497-6.497 6.497z"></path>
<path fill="#123247" d="M16 31.984c-0.276 0-0.5-0.224-0.5-0.5s0.224-0.5 0.5-0.5c4.14 0 7.496-3.356 7.496-7.496 0-0.276 0.224-0.5 0.5-0.5s0.5 0.224 0.5 0.5c0 4.692-3.804 8.496-8.496 8.496v0z"></path>
<path fill="#44637f" d="M15.001 13.493v1.134c0.003 0.249-0.178 0.462-0.425 0.5-4.078 0.694-7.064 4.224-7.071 8.361 0 0.276 0.224 0.5 0.5 0.5s0.5-0.224 0.5-0.5c-0.001-3.77 2.798-6.954 6.537-7.436 0.541-0.060 0.953-0.515 0.96-1.059v0-0.5c0-0.552-0.448-0.999-0.999-0.999z"></path>
<path fill="#123247" d="M23.996 2.999v2.879c-0.001 0.455-0.209 0.886-0.565 1.169l-5.432 4.353c-0.631 0.502-0.998 1.263-1 2.069v0l6.877-5.527c0.708-0.57 1.12-1.43 1.119-2.339v-3.603c-0.552 0-1 0.447-1 0.999z"></path>
<path fill="#44637f" d="M9.003 0c-1.104 0-1.999 0.895-1.999 1.999v3.498c0.552 0 0.999-0.447 0.999-1v-2.499c0-0.552 0.447-1 0.999-1h12.993c0.552 0 1-0.447 1-1h-13.993z"></path>
<path fill="#ffcb5b" d="M20.498 8.091v-5.092h-1.999v6.697z"></path>
<path fill="#ffcb5b" d="M13.501 9.695v-6.697h-1.999v5.092z"></path>
<path fill="#ffcb5b" d="M15.001 10.9l0.999 0.805 1-0.805v-7.901h-1.999z"></path>
<path fill="#44637f" d="M9.005 1.999h13.993v1h-13.993v-1z"></path>
<path fill="#ffdb6f" d="M11.504 1.999h1.999v1h-1.999v-1z"></path>
<path fill="#ffdb6f" d="M15.002 1.999h1.999v1h-1.999v-1z"></path>
<path fill="#ffdb6f" d="M18.501 1.999h1.999v1h-1.999v-1z"></path>
<path fill="#cad1d8" d="M17.964 20.305l-1-2.499c-0.101-0.257-0.392-0.382-0.649-0.281-0.128 0.051-0.23 0.152-0.281 0.281l-0.999 2.499c-0.047 0.119-0.047 0.251 0 0.37l0.999 2.499c0.101 0.257 0.392 0.382 0.649 0.281 0.128-0.051 0.23-0.152 0.281-0.281l1-2.499c0.047-0.119 0.047-0.251 0-0.37z"></path>
<path fill="#cad1d8" d="M19.813 22.524l-2.499 1c-0.257 0.101-0.382 0.392-0.281 0.649 0.051 0.128 0.152 0.23 0.281 0.281l2.499 1c0.119 0.047 0.251 0.047 0.37 0l2.214-0.885c0.064-0.356 0.097-0.718 0.1-1.079 0 0 0-0.025 0-0.040l-2.309-0.925c-0.12-0.048-0.255-0.048-0.375 0z"></path>
<path fill="#cad1d8" d="M16.965 24.803c-0.101-0.257-0.392-0.382-0.649-0.281-0.128 0.051-0.23 0.152-0.281 0.281l-0.999 2.499c-0.047 0.119-0.047 0.251 0 0.37l0.925 2.314h0.040c0.36-0.002 0.72-0.034 1.074-0.095l0.885-2.214c0.047-0.119 0.047-0.251 0-0.37l-0.995-2.504z"></path>
<path fill="#cad1d8" d="M13.186 25.452l2.499-1c0.257-0.101 0.382-0.392 0.281-0.649-0.051-0.128-0.152-0.23-0.281-0.281l-2.499-1c-0.119-0.047-0.251-0.047-0.37 0l-2.499 1c-0.257 0.101-0.382 0.392-0.281 0.649 0.051 0.128 0.152 0.23 0.281 0.281l2.499 1c0.118 0.047 0.251 0.047 0.37 0z"></path>
<path fill="#2d4961" d="M17.464 19.805l-1-2.499c-0.101-0.257-0.392-0.382-0.649-0.281-0.128 0.051-0.23 0.152-0.281 0.281l-0.999 2.499c-0.047 0.119-0.047 0.251 0 0.37l0.999 2.499c0.101 0.257 0.392 0.382 0.649 0.281 0.128-0.051 0.23-0.152 0.281-0.281l1-2.499c0.047-0.119 0.047-0.251 0-0.37z"></path>
<path fill="#2d4961" d="M17.464 26.802l-1-2.499c-0.101-0.257-0.392-0.382-0.649-0.281-0.128 0.051-0.23 0.152-0.281 0.281l-0.999 2.499c-0.047 0.119-0.047 0.251 0 0.37l0.999 2.499c0.101 0.257 0.392 0.382 0.649 0.281 0.128-0.051 0.23-0.152 0.281-0.281l1-2.499c0.047-0.119 0.047-0.251 0-0.37z"></path>
<path fill="#2d4961" d="M19.683 24.953l2.499-1c0.257-0.101 0.382-0.392 0.281-0.649-0.051-0.128-0.152-0.23-0.281-0.281l-2.499-1c-0.119-0.047-0.251-0.047-0.37 0l-2.499 1c-0.257 0.101-0.382 0.392-0.281 0.649 0.051 0.128 0.152 0.23 0.281 0.281l2.499 1c0.118 0.047 0.251 0.047 0.37 0z"></path>
<path fill="#2d4961" d="M12.687 24.953l2.499-1c0.257-0.101 0.382-0.392 0.281-0.649-0.051-0.128-0.152-0.23-0.281-0.281l-2.499-1c-0.119-0.047-0.251-0.047-0.37 0l-2.499 1c-0.257 0.101-0.382 0.392-0.281 0.649 0.051 0.128 0.152 0.23 0.281 0.281l2.499 1c0.118 0.047 0.251 0.047 0.37 0z"></path>
<path fill="#123247" d="M16.465 29.67l1-2.499c0.047-0.119 0.047-0.251 0-0.37l-1-2.499c-0.075-0.19-0.465 0-0.465 0.685v4.997c0.204 0 0.389-0.124 0.465-0.315z"></path>
<path fill="#123247" d="M16.465 22.674l1-2.499c0.047-0.119 0.047-0.251 0-0.37l-1-2.499c-0.075-0.19-0.465 0-0.465 0.685v4.997c0.204 0 0.389-0.124 0.465-0.315z"></path>
<path fill="#123247" d="M16.815 23.953l2.499 1c0.119 0.047 0.251 0.047 0.37 0l2.499-1c0.19-0.076 0.315-0.26 0.315-0.465h-5.997c-0 0.205 0.124 0.389 0.315 0.465z"></path>
<path fill="#123247" d="M9.818 23.953l2.499 1c0.119 0.047 0.251 0.047 0.37 0l2.499-1c0.19-0.076 0.315-0.26 0.315-0.465h-5.997c-0.001 0.205 0.124 0.389 0.315 0.465z"></path>
</svg>
