<!-- Generated by IcoMoon.io -->
<svg version="1.1" xmlns="http://www.w3.org/2000/svg" width="32" height="32" viewBox="0 0 32 32">
<title>computer-mouse</title>
<path fill="#d4d4ff" d="M17.647 8.485c-0.668 0-1.209-0.541-1.209-1.209 0-1.91 0-3.29-1.996-4.579-0.561-0.362-0.722-1.11-0.36-1.671s1.11-0.722 1.671-0.36c3.102 2.003 3.102 4.557 3.102 6.61 0 0.668-0.541 1.209-1.209 1.209z"></path>
<path fill="#9ea2e3" d="M16.137 4.611c0.3 0.782 0.3 1.648 0.3 2.664 0 0.668 0.541 1.209 1.209 1.209s1.209-0.541 1.209-1.209c0-0.832-0-1.747-0.207-2.674h-2.273c-0.080 0-0.16 0.004-0.238 0.010z"></path>
<path fill="#a78cd6" d="M18.918 6.476h-2.542c-0.706 0-1.278 0.572-1.278 1.278v2.588h5.097v-2.588c0-0.706-0.572-1.278-1.278-1.278z"></path>
<path fill="#6171a3" d="M9.998 24.078h-2.755c-0.921 0-1.619-0.832-1.459-1.739l1.028-5.829c0.139-0.787 0.823-1.362 1.623-1.362h2.41z"></path>
<path fill="#6171a3" d="M9.054 25.204c0-3.726 0.689-8.446 1.059-11.519 0.194-1.61 1.278-2.973 2.802-3.528l2.473-0.9c1.459-0.531 3.059-0.531 4.518 0l2.473 0.9c1.524 0.555 2.607 1.918 2.802 3.528 0.371 3.072 1.059 7.793 1.059 11.519 0 3.495-3.847 6.328-8.593 6.328s-8.593-2.833-8.593-6.328z"></path>
<path fill="#475a99" d="M22.704 30.319c-10.195-1.177-9.543-15.915-8.159-20.756l-1.631 0.594c-1.524 0.555-2.607 1.918-2.802 3.528-0.371 3.072-1.059 7.793-1.059 11.519 0 3.495 3.847 6.328 8.593 6.328 1.891-0 3.639-0.45 5.058-1.212z"></path>
<path fill="#eda1ab" d="M14.509 26.139c0 0.807-0.821 1.461-1.835 1.461s-1.835-0.654-1.835-1.461c0-0.807 0.821-1.461 1.835-1.461s1.835 0.654 1.835 1.461z"></path>
<path fill="#eda1ab" d="M24.453 26.139c0 0.807-0.821 1.461-1.834 1.461s-1.834-0.654-1.834-1.461c0-0.807 0.821-1.461 1.834-1.461s1.834 0.654 1.834 1.461z"></path>
<path fill="#8ee2e1" d="M17.647 11.616c-0.909 0-1.647 0.737-1.647 1.647v2.234c0 0.909 0.737 1.647 1.647 1.647s1.647-0.737 1.647-1.647v-2.234c0-0.91-0.737-1.647-1.647-1.647z"></path>
<path fill="#000" d="M25.646 13.629c-0.216-1.794-1.407-3.294-3.107-3.912l-1.875-0.682v-1.28c0-0.831-0.583-1.527-1.362-1.703-0.1-1.932-0.651-4.072-3.295-5.779-1.2-0.775-2.742 0.215-2.576 1.607 0.031 0.257 0.264 0.441 0.521 0.41s0.441-0.264 0.41-0.521c-0.073-0.618 0.612-1.048 1.137-0.709 2.35 1.517 2.776 3.316 2.864 4.948h-1.482c-0.072-1.138-0.336-2.049-1.185-2.908-0.182-0.184-0.479-0.186-0.663-0.004s-0.186 0.479-0.004 0.663c0.65 0.658 0.856 1.365 0.916 2.303-0.755 0.192-1.316 0.878-1.316 1.692v1.28l-1.875 0.682c-1.7 0.619-2.89 2.118-3.107 3.912-0.040 0.332-0.084 0.684-0.13 1.051h-1.083c-1.029 0-1.906 0.736-2.084 1.749l-1.028 5.829c-0.211 1.195 0.709 2.289 1.921 2.289h1.349c-0.004 0.222-0.007 0.441-0.007 0.657 0 1.843 0.962 3.566 2.708 4.852 1.703 1.254 3.959 1.945 6.354 1.945 2.349 0 4.574-0.668 6.266-1.881 0.21-0.151 0.259-0.444 0.108-0.654s-0.444-0.259-0.654-0.108c-1.534 1.099-3.565 1.705-5.72 1.705-4.48 0-8.124-2.628-8.124-5.859 0-3.663 0.661-8.19 1.056-11.463 0.174-1.442 1.131-2.646 2.497-3.144l2.473-0.9c1.353-0.493 2.844-0.493 4.197 0l2.473 0.9c1.366 0.497 2.323 1.702 2.497 3.144 0.384 3.181 1.056 7.777 1.056 11.462 0 0.954-0.31 1.865-0.923 2.707-0.152 0.209-0.106 0.503 0.104 0.655s0.502 0.106 0.655-0.103c0.721-0.992 1.102-2.118 1.102-3.258-0-3.739-0.671-8.325-1.063-11.575zM8.621 23.609h-1.379c-0.63 0-1.107-0.569-0.997-1.189l1.028-5.829c0.1-0.565 0.588-0.974 1.161-0.974h0.965c-0.31 2.459-0.665 5.353-0.778 7.992zM19.727 8.703h-0.003c-1.352-0.415-2.802-0.415-4.154 0h-0.003v-0.949c0-0.446 0.363-0.809 0.809-0.809h2.542c0.446 0 0.809 0.363 0.809 0.809v0.949zM21.080 23.983v0.75c0 0.259 0.21 0.469 0.469 0.469s0.469-0.21 0.469-0.469v-0.75c0-0.259-0.21-0.469-0.469-0.469s-0.469 0.21-0.469 0.469zM19.762 13.262c0-1.166-0.949-2.116-2.115-2.116s-2.116 0.949-2.116 2.116v2.234c0 1.167 0.949 2.115 2.116 2.115s2.115-0.949 2.115-2.115zM18.825 15.496c0 0.65-0.529 1.178-1.178 1.178s-1.178-0.529-1.178-1.178v-2.234c0-0.65 0.529-1.178 1.178-1.178s1.178 0.528 1.178 1.178zM13.275 23.983v0.75c0 0.259 0.21 0.469 0.469 0.469s0.469-0.21 0.469-0.469v-0.75c0-0.259-0.21-0.469-0.469-0.469s-0.469 0.21-0.469 0.469zM16.31 24.357c-0.195 0.17-0.215 0.466-0.045 0.661 0.349 0.4 0.852 0.63 1.382 0.63s1.034-0.229 1.382-0.63c0.17-0.195 0.15-0.491-0.045-0.661s-0.491-0.15-0.661 0.045c-0.171 0.196-0.417 0.308-0.676 0.308s-0.505-0.112-0.676-0.308c-0.17-0.195-0.466-0.215-0.661-0.045zM17.271 19.719h0.751c0.259 0 0.469-0.21 0.469-0.469s-0.21-0.469-0.469-0.469h-0.751c-0.259 0-0.469 0.21-0.469 0.469s0.21 0.469 0.469 0.469zM17.271 21.814h0.751c0.259 0 0.469-0.21 0.469-0.469s-0.21-0.469-0.469-0.469h-0.751c-0.259 0-0.469 0.21-0.469 0.469s0.21 0.469 0.469 0.469z"></path>
</svg>
