<!-- Generated by IcoMoon.io -->
<svg version="1.1" xmlns="http://www.w3.org/2000/svg" width="32" height="32" viewBox="0 0 32 32">
<title>console</title>
<path fill="#6171a3" d="M7.179 21.564h-2.326c-0.371 0-0.671-0.3-0.671-0.671v-1.881h3.668v1.881c0 0.371-0.3 0.671-0.671 0.671z"></path>
<path fill="#6171a3" d="M24.821 21.564h2.326c0.371 0 0.671-0.3 0.671-0.671v-1.881h-3.668v1.881c-0 0.371 0.3 0.671 0.671 0.671z"></path>
<path fill="#8ee2e1" d="M26.773 11.722c0-4.142-4.823-7.5-10.773-7.5s-10.773 3.358-10.773 7.5 4.823 7.411 10.773 7.411 10.773-3.269 10.773-7.411z"></path>
<path fill="#6ad7d4" d="M5.227 11.722c0 4.142 4.823 7.411 10.773 7.411s10.773-3.269 10.773-7.411c0-0.897-0.227-1.758-0.642-2.556h-20.263c-0.415 0.798-0.642 1.658-0.642 2.556z"></path>
<path fill="#fff" d="M12.862 9.030c0 0.807-0.821 1.461-1.835 1.461s-1.835-0.654-1.835-1.461c0-0.807 0.821-1.461 1.835-1.461s1.835 0.654 1.835 1.461z"></path>
<path fill="#fff" d="M22.807 9.030c0 0.807-0.821 1.461-1.835 1.461s-1.835-0.654-1.835-1.461c0-0.807 0.821-1.461 1.835-1.461s1.835 0.654 1.835 1.461z"></path>
<path fill="#8ee2e1" d="M29.698 19.191h-27.396c-1.012 0-1.833-0.821-1.833-1.833v-4.608c0-1.012 0.821-1.833 1.833-1.833h27.396c1.012 0 1.833 0.821 1.833 1.833v4.608c0 1.012-0.821 1.833-1.833 1.833z"></path>
<path fill="#de5c6e" d="M5.749 13.641c0.782 0.324 1.153 1.221 0.829 2.003s-1.221 1.153-2.003 0.829c-0.782-0.324-1.153-1.221-0.829-2.003s1.221-1.153 2.003-0.829z"></path>
<path fill="#807bcf" d="M18.207 14.165h-4.414c-0.833 0-1.508 0.675-1.508 1.508v2.337h7.43v-2.337c-0-0.833-0.675-1.508-1.508-1.508z"></path>
<path fill="#a78cd6" d="M23.337 27.779c1.572 0 2.744-1.447 2.418-2.985l-1.21-5.703c-0.294-1.386-1.517-2.377-2.933-2.377h-11.224c-1.416 0-2.64 0.991-2.933 2.377l-1.21 5.703c-0.326 1.537 0.846 2.985 2.418 2.985 1.21 0 2.288-0.765 2.688-1.907l0.357-1.021c0.183-0.522 0.676-0.872 1.229-0.872h6.125c0.553 0 1.046 0.35 1.229 0.872l0.358 1.021c0.4 1.142 1.478 1.907 2.688 1.907z"></path>
<path fill="#000" d="M16.676 7.293c-0.171 0.196-0.417 0.308-0.676 0.308s-0.505-0.112-0.676-0.308c-0.17-0.195-0.466-0.215-0.661-0.045s-0.216 0.466-0.046 0.661c0.349 0.4 0.853 0.63 1.382 0.63s1.034-0.229 1.382-0.63c0.17-0.195 0.15-0.491-0.046-0.661s-0.491-0.15-0.661 0.045zM19.434 6.873v0.75c0 0.259 0.21 0.469 0.469 0.469s0.469-0.21 0.469-0.469v-0.75c0-0.259-0.21-0.469-0.469-0.469s-0.469 0.21-0.469 0.469zM5.159 13.052c-1.103 0-2.001 0.898-2.001 2.001s0.898 2.001 2.001 2.001c1.103 0 2.001-0.898 2.001-2.001s-0.898-2.001-2.001-2.001zM5.159 16.117c-0.587 0-1.064-0.477-1.064-1.064s0.477-1.064 1.064-1.064 1.064 0.477 1.064 1.064c0 0.587-0.477 1.064-1.064 1.064zM11.628 6.873v0.75c0 0.259 0.21 0.469 0.469 0.469s0.469-0.21 0.469-0.469v-0.75c0-0.259-0.21-0.469-0.469-0.469s-0.469 0.21-0.469 0.469zM28.165 13.392h-5.308c-0.259 0-0.469 0.21-0.469 0.469s0.21 0.469 0.469 0.469h5.308c0.259 0 0.469-0.21 0.469-0.469s-0.21-0.469-0.469-0.469zM28.165 15.956h-1.882c-0.259 0-0.469 0.21-0.469 0.469s0.21 0.469 0.469 0.469h1.882c0.259 0 0.469-0.21 0.469-0.469s-0.21-0.469-0.469-0.469zM11.455 18.853c-0.259 0-0.469 0.21-0.469 0.469v0.556h-0.556c-0.259 0-0.469 0.21-0.469 0.469s0.21 0.469 0.469 0.469h0.556v0.556c0 0.259 0.21 0.469 0.469 0.469s0.469-0.21 0.469-0.469v-0.556h0.556c0.259 0 0.469-0.21 0.469-0.469s-0.21-0.469-0.469-0.469h-0.556v-0.556c0-0.259-0.21-0.469-0.469-0.469zM29.698 10.447h-2.599c-0.226-1.008-0.716-1.961-1.46-2.838-0.168-0.197-0.463-0.222-0.661-0.054s-0.222 0.463-0.054 0.661c0.593 0.699 0.998 1.447 1.21 2.232h-20.267c0.403-1.486 1.506-2.852 3.159-3.893 1.909-1.202 4.386-1.864 6.974-1.864 2.797 0 5.416 0.757 7.375 2.131 0.212 0.149 0.504 0.097 0.653-0.115s0.097-0.504-0.115-0.653c-2.116-1.484-4.926-2.301-7.913-2.301-5.56 0-10.235 2.851-11.099 6.695h-2.599c-1.269 0-2.302 1.033-2.302 2.302v4.608c0 1.269 1.033 2.302 2.302 2.302h1.411v1.234c0 0.628 0.511 1.14 1.14 1.14h1.498l-0.516 2.435c-0.054 0.253 0.108 0.502 0.361 0.556s0.502-0.108 0.556-0.361l1.161-5.475c0.246-1.162 1.287-2.005 2.475-2.005h11.224c1.188 0 2.228 0.843 2.475 2.005l1.21 5.703c0.265 1.247-0.687 2.419-1.959 2.419-1.009 0-1.912-0.64-2.246-1.593l-0.358-1.021c-0.248-0.709-0.92-1.186-1.671-1.186h-6.125c-0.751 0-1.423 0.477-1.671 1.186l-0.358 1.021c-0.334 0.953-1.236 1.593-2.246 1.593-0.651 0-1.243-0.303-1.624-0.831-0.152-0.21-0.445-0.257-0.654-0.105s-0.257 0.445-0.105 0.654c0.56 0.775 1.429 1.219 2.384 1.219 1.407 0 2.665-0.892 3.13-2.221l0.358-1.021c0.117-0.334 0.433-0.558 0.787-0.558h6.125c0.354 0 0.67 0.224 0.787 0.558l0.358 1.021c0.465 1.328 1.723 2.221 3.13 2.221 1.871 0 3.264-1.724 2.877-3.551l-0.565-2.664h1.498c0.628 0 1.14-0.511 1.14-1.14v-1.234h1.411c1.269 0 2.302-1.033 2.302-2.302v-4.608c0-1.269-1.032-2.302-2.302-2.302zM6.55 21.096h-1.697c-0.112 0-0.202-0.091-0.202-0.202v-1.234h2.204zM19.246 16.245h-6.492v-0.572c0-0.573 0.466-1.039 1.039-1.039h4.414c0.573 0 1.039 0.466 1.039 1.039v0.572zM27.349 20.893c0 0.111-0.091 0.202-0.202 0.202h-1.697l-0.305-1.436h2.204v1.234zM31.063 17.357c0 0.752-0.612 1.364-1.364 1.364h-4.764c-0.434-1.451-1.789-2.477-3.322-2.477h-1.429v-0.572c0-1.090-0.887-1.977-1.977-1.977h-4.414c-1.090 0-1.977 0.887-1.977 1.977v0.572h-1.429c-1.534 0-2.888 1.026-3.322 2.477h-4.764c-0.752 0-1.365-0.612-1.365-1.364v-4.608c0-0.752 0.612-1.364 1.365-1.364h27.396c0.752 0 1.364 0.612 1.364 1.364zM16.54 20.815c0.259 0 0.469-0.21 0.469-0.469s-0.21-0.469-0.469-0.469h-1.079c-0.259 0-0.469 0.21-0.469 0.469s0.21 0.469 0.469 0.469zM20.545 18.853c-0.259 0-0.469 0.21-0.469 0.469v0.556h-0.556c-0.259 0-0.469 0.21-0.469 0.469s0.21 0.469 0.469 0.469h0.556v0.556c0 0.259 0.21 0.469 0.469 0.469s0.469-0.21 0.469-0.469v-0.556h0.556c0.259 0 0.469-0.21 0.469-0.469s-0.21-0.469-0.469-0.469h-0.556v-0.556c0-0.259-0.21-0.469-0.469-0.469z"></path>
</svg>
