<!-- Generated by IcoMoon.io -->
<svg version="1.1" xmlns="http://www.w3.org/2000/svg" width="32" height="32" viewBox="0 0 32 32">
<title>crown</title>
<path fill="#f3a977" d="M15.429 9.699c0 2.542-2.45 4.603-5.472 4.603s-5.472-2.061-5.472-4.603c0-2.542 2.45-4.603 5.472-4.603s5.472 2.061 5.472 4.603z"></path>
<path fill="#f3a977" d="M27.516 9.699c0 2.542-2.45 4.603-5.472 4.603s-5.472-2.061-5.472-4.603c0-2.542 2.45-4.603 5.472-4.603s5.472 2.061 5.472 4.603z"></path>
<path fill="#ee8c49" d="M11.767 5.354c-0.916 1.064-1.829 2.325-2.542 3.737-1.116-0.826-2.371-1.656-3.477-2.334-0.789 0.798-1.264 1.823-1.264 2.942 0 2.542 2.45 4.603 5.472 4.603s5.472-2.061 5.472-4.603c0-2.009-1.53-3.716-3.662-4.345z"></path>
<path fill="#ee8c49" d="M22.044 14.303c3.022 0 5.472-2.061 5.472-4.603 0-1.119-0.475-2.144-1.264-2.942-1.106 0.678-2.36 1.508-3.477 2.334-0.712-1.412-1.626-2.673-2.542-3.737-2.133 0.629-3.662 2.336-3.662 4.345 0 2.542 2.45 4.603 5.472 4.603z"></path>
<path fill="#f5ea72" d="M28.323 7.709c-1.821 1.038-4.383 2.736-5.902 4.056-0.213 0.185-0.544 0.093-0.632-0.175-0.888-2.725-2.88-5.081-4.568-6.678-0.684-0.647-1.757-0.647-2.441 0-1.689 1.597-3.68 3.953-4.568 6.678-0.088 0.268-0.419 0.36-0.632 0.175-1.519-1.32-4.081-3.018-5.902-4.056-0.92-0.524-2.050 0.193-1.968 1.248 0.258 3.326 1.507 8.094 2.269 9.276l12.021 2.161 12.021-2.161c0.763-1.182 2.012-5.95 2.27-9.276 0.082-1.056-1.048-1.773-1.968-1.248z"></path>
<path fill="#a78cd6" d="M16 27.573c-5.168 0-10.259-0.645-12.224-1.102-2.299-0.536-3.729-2.834-3.194-5.133s2.834-3.729 5.133-3.194c1.275 0.297 5.741 0.879 10.285 0.879s9.010-0.582 10.285-0.879c2.299-0.535 4.598 0.894 5.133 3.194s-0.894 4.598-3.194 5.133c-1.965 0.458-7.057 1.102-12.224 1.102z"></path>
<path fill="#807bcf" d="M10.651 18.788c-2.327-0.196-4.184-0.469-4.935-0.644-2.299-0.535-4.598 0.894-5.133 3.194s0.894 4.598 3.194 5.133c1.518 0.353 4.901 0.818 8.743 1.012-4.122-1.417-3.799-7.014-1.869-8.694z"></path>
<path fill="#de5c6e" d="M15.288 10.537l-2.048 2.048c-0.394 0.394-0.394 1.032 0 1.425l2.048 2.048c0.394 0.394 1.032 0.394 1.425 0l2.048-2.048c0.394-0.394 0.394-1.032 0-1.425l-2.048-2.048c-0.394-0.394-1.032-0.394-1.425 0z"></path>
<path fill="#de5c6e" d="M2.998 11.742l-1.016 1.305c-0.204 0.262-0.204 0.63 0 0.892l1.016 1.305c0.268 0.344 0.788 0.344 1.056 0l1.016-1.305c0.204-0.262 0.204-0.63 0-0.892l-1.016-1.305c-0.268-0.344-0.788-0.344-1.056 0z"></path>
<path fill="#de5c6e" d="M29.003 11.742l1.016 1.305c0.204 0.262 0.204 0.63 0 0.892l-1.016 1.305c-0.268 0.344-0.788 0.344-1.056 0l-1.016-1.305c-0.204-0.262-0.204-0.63 0-0.892l1.016-1.305c0.268-0.344 0.788-0.344 1.056 0z"></path>
<path fill="#fff" d="M12.694 24.258c0 0.85-0.866 1.54-1.934 1.54s-1.934-0.689-1.934-1.54c0-0.85 0.866-1.54 1.934-1.54s1.934 0.689 1.934 1.54z"></path>
<path fill="#fff" d="M23.174 24.258c0 0.85-0.866 1.54-1.934 1.54s-1.934-0.689-1.934-1.54c0-0.85 0.866-1.54 1.934-1.54s1.934 0.689 1.934 1.54z"></path>
<path fill="#565e75" d="M17.027 23.075c0 0.634-0.46 1.148-1.026 1.148s-1.026-0.514-1.026-1.148c0-0.634 0.46-1.148 1.026-1.148s1.026 0.514 1.026 1.148z"></path>
<path fill="#000" d="M19.417 22.388c0-0.216 0.176-0.392 0.392-0.392s0.392 0.176 0.392 0.392c0 0.259 0.21 0.469 0.469 0.469s0.469-0.21 0.469-0.469c0-0.733-0.596-1.329-1.329-1.329s-1.329 0.596-1.329 1.329c0 0.259 0.21 0.469 0.469 0.469s0.469-0.21 0.469-0.469zM17.496 23.075c0-0.892-0.671-1.617-1.495-1.617s-1.495 0.725-1.495 1.617c0 0.892 0.671 1.617 1.495 1.617s1.495-0.726 1.495-1.617zM15.443 23.075c0-0.375 0.25-0.68 0.558-0.68s0.558 0.305 0.558 0.68c0 0.375-0.25 0.68-0.558 0.68s-0.558-0.305-0.558-0.68zM11.727 22.388c0-0.216 0.176-0.392 0.392-0.392s0.392 0.176 0.392 0.392c0 0.259 0.21 0.469 0.469 0.469s0.469-0.21 0.469-0.469c0-0.733-0.596-1.329-1.329-1.329s-1.329 0.596-1.329 1.329c0 0.259 0.21 0.469 0.469 0.469s0.469-0.21 0.469-0.469zM17.045 10.206c-0.576-0.576-1.512-0.576-2.088 0l-2.048 2.048c-0.576 0.576-0.576 1.513 0 2.088l2.048 2.048c0.576 0.576 1.512 0.576 2.088 0l2.048-2.048c0.576-0.576 0.576-1.512 0-2.088zM18.429 13.679l-2.048 2.048c-0.21 0.21-0.552 0.21-0.762 0l-2.048-2.048c-0.21-0.21-0.21-0.552 0-0.763l2.048-2.048c0.21-0.21 0.552-0.21 0.762 0l2.048 2.048c0.21 0.21 0.21 0.552 0 0.763zM31.875 21.232c-0.387-1.66-1.607-2.913-3.115-3.421 0.346-0.804 0.665-1.89 0.854-2.588l0.775-0.995c0.337-0.432 0.337-1.036-0-1.468l-0.152-0.195c0.261-1.305 0.44-2.536 0.52-3.571 0.111-1.429-1.422-2.402-2.667-1.692-0.193 0.11-0.397 0.229-0.608 0.355-0.305-0.592-0.744-1.134-1.288-1.588-0.199-0.166-0.494-0.139-0.66 0.060s-0.139 0.494 0.060 0.66c0.467 0.389 0.837 0.853 1.086 1.357-1.52 0.947-3.264 2.148-4.481 3.192-0.653-1.935-1.821-3.655-3.004-5.034 1.365-0.783 3.077-0.94 4.571-0.486 0.247 0.075 0.509-0.065 0.585-0.312s-0.064-0.509-0.312-0.585c-1.805-0.548-3.864-0.327-5.48 0.672-0.35-0.374-0.693-0.715-1.015-1.020-0.865-0.818-2.22-0.818-3.085 0-0.323 0.305-0.665 0.647-1.015 1.020-1.009-0.624-2.23-0.965-3.486-0.965-2.39 0-4.502 1.197-5.44 3.028-0.211-0.126-0.415-0.245-0.608-0.354-1.245-0.709-2.778 0.263-2.667 1.692 0.080 1.036 0.26 2.266 0.52 3.571l-0.152 0.195c-0.337 0.432-0.337 1.036 0 1.468l0.775 0.995c0.19 0.698 0.508 1.784 0.854 2.588-1.508 0.508-2.728 1.76-3.115 3.421-0.529 2.27 0.648 4.564 2.797 5.456 0.239 0.099 0.513-0.014 0.613-0.253s-0.014-0.513-0.253-0.613c-1.724-0.715-2.668-2.556-2.243-4.378 0.476-2.044 2.526-3.32 4.57-2.844 1.293 0.301 5.81 0.892 10.391 0.892s9.098-0.59 10.391-0.892c2.044-0.476 4.094 0.8 4.57 2.844 0.477 2.049-0.794 4.093-2.843 4.57-1.943 0.453-6.987 1.090-12.118 1.090-4.17 0-8.239-0.419-10.656-0.812-0.256-0.041-0.496 0.132-0.538 0.388s0.132 0.496 0.388 0.538c2.453 0.398 6.58 0.824 10.806 0.824 5.205 0 10.344-0.652 12.331-1.114 2.553-0.595 4.139-3.142 3.544-5.696zM9.957 5.565c1.022 0 2.015 0.26 2.848 0.738-1.182 1.378-2.351 3.099-3.004 5.034-1.217-1.043-2.96-2.244-4.48-3.191 0.829-1.675 2.756-2.581 4.636-2.581zM3.367 14.957l-1.016-1.305c-0.073-0.093-0.073-0.223-0-0.316l1.016-1.305c0.080-0.103 0.236-0.103 0.316 0l1.016 1.305c0.073 0.093 0.073 0.223 0 0.316l-1.016 1.305c-0.080 0.103-0.236 0.104-0.316 0zM27.829 17.599c-0.537-0.066-1.093-0.041-1.65 0.089-1.258 0.293-5.672 0.867-10.179 0.867s-8.921-0.574-10.179-0.867c-0.556-0.13-1.113-0.155-1.65-0.089-0.181-0.392-0.385-0.951-0.594-1.628 0.333-0.015 0.639-0.172 0.845-0.437l1.016-1.305c0.337-0.432 0.337-1.036 0-1.469l-1.016-1.305c-0.455-0.585-1.339-0.586-1.796 0v0l-0.097 0.124c-0.172-0.967-0.293-1.872-0.353-2.658-0.053-0.682 0.675-1.143 1.268-0.805 1.763 1.004 4.33 2.701 5.827 4.003 0.465 0.405 1.193 0.205 1.385-0.383 0.888-2.722 2.907-5.028 4.445-6.483 0.504-0.476 1.293-0.476 1.797 0 1.538 1.455 3.557 3.76 4.445 6.483 0.192 0.589 0.92 0.788 1.385 0.383 1.497-1.301 4.064-2.998 5.827-4.003 0.594-0.338 1.321 0.123 1.268 0.805-0.061 0.785-0.182 1.69-0.354 2.657l-0.097-0.124c0-0 0-0 0-0-0.455-0.585-1.339-0.586-1.796 0l-1.016 1.305c-0.337 0.432-0.337 1.036 0 1.469l1.016 1.305c0.206 0.265 0.512 0.422 0.845 0.437-0.209 0.677-0.413 1.237-0.594 1.628zM28.317 14.957l-1.016-1.305c-0.073-0.093-0.073-0.223 0-0.316l1.016-1.305c0.081-0.103 0.236-0.103 0.316 0l1.016 1.305c0.073 0.093 0.073 0.223 0 0.316l-1.016 1.305c-0.080 0.103-0.235 0.104-0.316 0z"></path>
</svg>
