<!-- Generated by IcoMoon.io -->
<svg version="1.1" xmlns="http://www.w3.org/2000/svg" width="32" height="32" viewBox="0 0 32 32">
<title>esports</title>
<path fill="#8ee2e1" d="M20.75 20.062l0.78-7.024 7.399-3.297c0.556-0.248 1.14 0.287 0.943 0.863l-0.922 2.688c-0.138 0.401 0.269 0.773 0.656 0.6l0.942-0.42c0.556-0.248 1.14 0.287 0.943 0.863l-0.301 0.877c-0.8 2.331-2.87 3.993-5.318 4.27z"></path>
<path fill="#6ad7d4" d="M27.725 11.774c0.029-0.488-0.007-0.976-0.102-1.451l-6.092 2.715-0.78 7.024 4.823-0.546c1.248-2.552 2.005-5.26 2.152-7.741z"></path>
<path fill="#8ee2e1" d="M11.25 20.062l-0.78-7.024-7.399-3.297c-0.556-0.248-1.14 0.287-0.943 0.863l0.922 2.688c0.138 0.401-0.269 0.773-0.656 0.6l-0.942-0.42c-0.556-0.248-1.14 0.287-0.943 0.863l0.301 0.877c0.8 2.331 2.87 3.993 5.318 4.27z"></path>
<path fill="#6ad7d4" d="M11.25 20.062l-0.78-7.024-6.092-2.715c-0.095 0.475-0.131 0.963-0.102 1.451 0.154 2.595 0.957 5.293 2.153 7.742z"></path>
<path fill="#a78cd6" d="M17.268 23.97c3.015-2.059 6.394-7.511 6.695-12.581 0.028-0.471-0.144-0.932-0.466-1.277-1.826-1.955-4.813-3.816-7.497-3.816s-5.671 1.861-7.497 3.816c-0.322 0.345-0.494 0.806-0.466 1.277 0.3 5.071 3.679 10.522 6.694 12.581 0.764 0.522 1.772 0.522 2.536 0z"></path>
<path fill="#d4d4ff" d="M24.82 8.811c-1.883-2.016-5.322-4.37-8.82-4.37s-6.937 2.354-8.82 4.37c-0.719 0.77-1.095 1.809-1.034 2.852 0.153 2.581 1.047 5.453 2.517 8.085 1.365 2.443 3.144 4.525 4.881 5.711 0.726 0.496 1.575 0.758 2.455 0.758s1.729-0.262 2.455-0.758c1.737-1.186 3.516-3.268 4.881-5.711 1.471-2.633 2.365-5.504 2.517-8.085 0.062-1.043-0.315-2.083-1.034-2.853zM23.67 11.534c-0.289 4.885-3.544 10.136-6.449 12.119-0.736 0.503-1.707 0.503-2.443 0-2.905-1.983-6.16-7.235-6.449-12.119-0.027-0.454 0.139-0.898 0.449-1.23 1.759-1.883 4.636-3.676 7.221-3.676s5.463 1.792 7.221 3.676c0.31 0.332 0.476 0.776 0.449 1.23z"></path>
<path fill="#f5ea72" d="M19.091 14.024h-0.959c-0.281 0-0.476-0.279-0.38-0.543l1.061-2.914c0.133-0.364-0.137-0.749-0.524-0.749h-3.071c-0.427 0-0.809 0.267-0.956 0.669l-1.304 3.584c-0.133 0.364 0.137 0.749 0.524 0.749h0.96c0.281 0 0.476 0.279 0.38 0.543l-0.98 2.692c-0.172 0.473 0.382 0.875 0.778 0.565l4.77-3.728c0.364-0.284 0.163-0.868-0.299-0.868z"></path>
<path fill="#f5ea72" d="M16 21.305c2.617 0 4.864 0.488 6.673 1.178 0.596 0.227 0.99 0.8 0.99 1.438v2.356c0 0.873-0.854 1.491-1.683 1.216-1.679-0.557-3.687-0.931-5.979-0.931s-4.301 0.374-5.979 0.931c-0.829 0.275-1.683-0.343-1.683-1.216v-2.356c0-0.638 0.394-1.211 0.99-1.438 1.809-0.69 4.056-1.178 6.673-1.178z"></path>
<path fill="#ebca5f" d="M10.021 27.493c1.464-0.485 3.177-0.832 5.111-0.913-1.923-1.034-2.29-3.514-1.552-5.131-1.604 0.193-3.029 0.567-4.253 1.034-0.596 0.227-0.99 0.8-0.99 1.438v2.356c0 0.873 0.854 1.491 1.683 1.216z"></path>
<path fill="#000" d="M30.358 13.043c-0.992 0.441 0.764-0.339-0.951 0.423-0.005-0.001-0.015-0.009-0.016-0.014 1.415-4.128 0.729-2.126 0.924-2.696 0.331-0.964-0.647-1.857-1.577-1.443l-2.53 1.127c-0.174-0.722-0.531-1.398-1.046-1.949-1.947-2.085-5.514-4.519-9.163-4.519-1.604 0-3.29 0.459-5.012 1.364-0.229 0.12-0.317 0.404-0.197 0.633s0.404 0.317 0.633 0.197c1.585-0.833 3.125-1.256 4.575-1.256 2.092 0 5.568 1.106 8.477 4.221 0.631 0.676 0.963 1.589 0.908 2.505-0.204 3.455-1.738 7.15-3.802 9.985-0.429-0.128-0.866-0.239-1.309-0.336 1.803-2.349 3.64-5.957 3.863-9.724 0.034-0.576-0.175-1.151-0.574-1.578-1.778-1.904-4.806-3.824-7.564-3.824s-5.786 1.921-7.564 3.825c-0.399 0.427-0.608 1.002-0.574 1.578 0.223 3.767 2.060 7.375 3.863 9.724-0.443 0.096-0.88 0.208-1.309 0.336-2.065-2.837-3.597-6.534-3.802-9.986-0.054-0.916 0.277-1.829 0.908-2.505 0.579-0.62 1.278-1.237 2.019-1.782 0.209-0.153 0.253-0.447 0.1-0.655s-0.447-0.253-0.655-0.1c-0.787 0.579-1.53 1.235-2.148 1.897-0.515 0.552-0.873 1.228-1.046 1.949l-2.53-1.127c-0.931-0.415-1.907 0.48-1.577 1.443 0.074 0.216-0.303-0.884 0.924 2.696-0.001 0.005-0.011 0.014-0.016 0.014-0.004 0-0.707-0.314-0.951-0.423-0.931-0.415-1.907 0.48-1.577 1.443l0.301 0.877c0.854 2.488 3.095 4.288 5.709 4.584l2.311 0.262c0.341 0.593 0.707 1.168 1.095 1.718-0.108 0.039-0.215 0.078-0.322 0.118-0.773 0.295-1.292 1.049-1.292 1.876v2.356c0 1.194 1.166 2.037 2.3 1.661 3.654-1.211 8.008-1.212 11.664 0 0.613 0.203 1.285 0.053 1.755-0.392 0.188-0.178 0.196-0.475 0.018-0.663s-0.475-0.196-0.663-0.018c-0.222 0.21-0.526 0.278-0.815 0.183-3.845-1.274-8.406-1.275-12.254 0-0.526 0.174-1.067-0.216-1.067-0.771v-2.356c0-0.441 0.277-0.843 0.688-1 4.004-1.527 8.977-1.538 13.012 0 0.412 0.157 0.688 0.559 0.688 1v1.148c0 0.259 0.21 0.469 0.469 0.469s0.469-0.21 0.469-0.469v-1.148c0-0.827-0.519-1.581-1.292-1.876-0.107-0.041-0.215-0.080-0.323-0.119 0.388-0.549 0.755-1.124 1.096-1.718l2.311-0.262c2.614-0.296 4.855-2.096 5.709-4.584l0.301-0.877c0.331-0.964-0.647-1.857-1.577-1.443zM6.181 19.016c-2.256-0.256-4.191-1.809-4.928-3.957l-0.301-0.877c-0.064-0.188 0.125-0.364 0.308-0.282l0.942 0.42c0.761 0.34 1.561-0.393 1.29-1.181l-0.922-2.688c-0.065-0.189 0.126-0.364 0.308-0.282l2.792 1.244c-0.004 0.649 0.151 2.066 0.555 3.592l-1.344-0.599c-0.236-0.105-0.514 0.001-0.619 0.237s0.001 0.514 0.237 0.619l2.079 0.926c0.336 1.014 0.759 2.027 1.262 3.015zM12.764 21.089c-2.119-2.593-3.77-6.265-3.966-9.583-0.019-0.32 0.099-0.642 0.323-0.883 1.639-1.756 4.402-3.527 6.879-3.527s5.239 1.771 6.879 3.527c0.225 0.241 0.342 0.562 0.324 0.883-0.196 3.317-1.846 6.989-3.966 9.583-2.108-0.337-4.364-0.337-6.473 0zM31.048 14.182l-0.301 0.877c-0.737 2.148-2.671 3.701-4.928 3.957l-1.661 0.188c0.502-0.988 0.925-2.001 1.262-3.015l2.079-0.926c0.236-0.105 0.343-0.382 0.237-0.619s-0.382-0.343-0.619-0.237l-1.344 0.599c0.405-1.529 0.559-2.948 0.555-3.592l2.792-1.244c0.182-0.081 0.374 0.093 0.308 0.282l-0.922 2.688c-0.271 0.789 0.529 1.52 1.29 1.181l0.942-0.42c0.123-0.055 0.214 0.010 0.247 0.040s0.105 0.115 0.062 0.242zM11.917 23.873c-0.254 0.052-0.417 0.3-0.364 0.554s0.3 0.416 0.554 0.364c2.461-0.509 5.225-0.529 7.787 0 0.255 0.052 0.502-0.112 0.554-0.364 0.052-0.254-0.111-0.501-0.364-0.554-2.584-0.534-5.477-0.556-8.166 0zM19.091 13.555h-0.868l1.029-2.828c0.244-0.669-0.253-1.378-0.965-1.378h-3.071c-0.622 0-1.183 0.393-1.396 0.977l-1.304 3.584c-0.244 0.669 0.253 1.378 0.965 1.378h0.868l-0.948 2.606c-0.332 0.914 0.741 1.694 1.507 1.095l4.77-3.728c0.716-0.56 0.319-1.706-0.588-1.706zM14.331 18.25c-0.013 0.010-0.019 0.015-0.038 0.001s-0.017-0.022-0.011-0.037l0.98-2.692c0.207-0.569-0.215-1.172-0.821-1.172h-0.96c-0.062 0-0.105-0.061-0.084-0.12l1.304-3.584c0.079-0.216 0.285-0.361 0.515-0.361h3.071c0.062 0 0.105 0.061 0.084 0.12l-1.061 2.914c-0.207 0.569 0.215 1.172 0.821 1.172 0.010 0 0.96 0.001 0.969 0.001 0.005 0.004 0.009 0.018 0.008 0.022-0.004 0.006 0.137-0.107-4.778 3.735z"></path>
</svg>
