<!-- Generated by IcoMoon.io -->
<svg version="1.1" xmlns="http://www.w3.org/2000/svg" width="32" height="32" viewBox="0 0 32 32">
<title>game-over</title>
<path fill="#d4d4ff" d="M30.657 28.211c1.138-1.138 1.169-2.953 0.069-4.053-0.892-0.892-2.252-1.040-3.342-0.459-0.295 0.157-0.657 0.106-0.893-0.13l-18.058-18.058c-0.236-0.236-0.287-0.598-0.13-0.893 0.581-1.090 0.433-2.45-0.459-3.342-1.1-1.1-2.915-1.070-4.053 0.069-0.36 0.36-0.609 0.787-0.746 1.238-0.068 0.222-0.239 0.393-0.461 0.461-0.451 0.138-0.878 0.387-1.238 0.746-1.138 1.138-1.169 2.953-0.069 4.053 0.892 0.892 2.252 1.040 3.342 0.459 0.295-0.157 0.657-0.106 0.893 0.13l18.058 18.058c0.236 0.236 0.287 0.598 0.13 0.893-0.581 1.090-0.433 2.45 0.459 3.342 1.1 1.1 2.915 1.070 4.053-0.069 0.36-0.36 0.609-0.787 0.746-1.238 0.068-0.222 0.239-0.393 0.461-0.461 0.451-0.138 0.878-0.387 1.238-0.746z"></path>
<path fill="#d4d4ff" d="M1.346 28.211c-1.138-1.138-1.169-2.953-0.069-4.053 0.892-0.892 2.252-1.040 3.342-0.459 0.295 0.157 0.657 0.106 0.893-0.13l18.058-18.058c0.236-0.236 0.287-0.598 0.13-0.893-0.581-1.090-0.433-2.45 0.459-3.342 1.1-1.1 2.915-1.070 4.053 0.069 0.36 0.36 0.609 0.787 0.746 1.238 0.068 0.222 0.239 0.393 0.461 0.461 0.451 0.138 0.878 0.387 1.238 0.746 1.138 1.138 1.169 2.953 0.069 4.053-0.892 0.892-2.252 1.040-3.342 0.459-0.295-0.157-0.657-0.106-0.893 0.13l-18.058 18.058c-0.236 0.236-0.287 0.598-0.13 0.893 0.581 1.090 0.433 2.45-0.459 3.342-1.1 1.1-2.915 1.070-4.053-0.069-0.36-0.36-0.609-0.787-0.746-1.238-0.068-0.222-0.239-0.393-0.461-0.461-0.451-0.138-0.878-0.387-1.238-0.746z"></path>
<path fill="#9ea2e3" d="M26.492 8.433c0.069-0.069 0.148-0.121 0.234-0.158-0.824-1.124-1.86-2.104-3.049-2.901-0.030 0.049-0.066 0.095-0.108 0.137l-18.057 18.057c-0.078 0.078-0.171 0.136-0.269 0.173 0.382 1.598 1.518 2.905 3.011 3.523-0.089-0.268-0.023-0.568 0.182-0.773z"></path>
<path fill="#9ea2e3" d="M26.761 23.741c-0.099-0.037-0.191-0.094-0.269-0.173l-18.058-18.058c-0.042-0.042-0.078-0.088-0.108-0.137-1.189 0.798-2.224 1.778-3.048 2.902 0.085 0.037 0.165 0.089 0.234 0.158l18.058 18.058c0.205 0.205 0.27 0.505 0.182 0.773 1.492-0.618 2.629-1.925 3.011-3.523z"></path>
<path fill="#efedff" d="M26.634 14.612c0-5.163-4.76-9.348-10.632-9.348s-10.632 4.185-10.632 9.348c0 1.675 0.502 3.247 1.379 4.607 0.353 0.546 0.54 1.183 0.54 1.833v1.506c0 1.604 1.3 2.904 2.904 2.904s2.904-1.3 2.904-2.904v1.276c0 1.604 1.3 2.904 2.904 2.904s2.904-1.3 2.904-2.904v-1.275c0 1.604 1.3 2.904 2.904 2.904s2.904-1.3 2.904-2.904v-1.506c0-0.65 0.188-1.287 0.54-1.833 0.878-1.36 1.38-2.931 1.38-4.606z"></path>
<path fill="#d4d4ff" d="M16.002 26.737c1.157 0 2.156-0.677 2.623-1.656-8.727-3.229-8.837-15.121-6.598-19.141-3.902 1.384-6.657 4.745-6.657 8.672 0 1.675 0.502 3.247 1.38 4.607 0.353 0.546 0.54 1.183 0.54 1.833v1.506c0 1.604 1.3 2.904 2.904 2.904s2.904-1.3 2.904-2.904v1.276c-0 1.604 1.3 2.904 2.904 2.904z"></path>
<path fill="#eda1ab" d="M12.864 18.459c0 0.807-0.821 1.461-1.835 1.461s-1.835-0.654-1.835-1.461c0-0.807 0.821-1.461 1.835-1.461s1.835 0.654 1.835 1.461z"></path>
<path fill="#eda1ab" d="M22.808 18.459c0 0.807-0.821 1.461-1.835 1.461s-1.835-0.654-1.835-1.461c0-0.807 0.821-1.461 1.835-1.461s1.835 0.654 1.835 1.461z"></path>
<path fill="#000" d="M27.164 23.285c-0.114 0.061-0.251 0.041-0.341-0.048l-1.64-1.64c0.031-0.321-0.147-1.175 0.465-2.123 1.866-2.891 1.987-6.545 0.070-9.603l1.105-1.105c0.090-0.090 0.226-0.109 0.341-0.048 0.546 0.291 1.158 0.429 1.77 0.397 0.259-0.013 0.457-0.233 0.444-0.492s-0.234-0.457-0.492-0.444c-0.443 0.023-0.885-0.077-1.281-0.288-0.481-0.256-1.061-0.171-1.445 0.212l-0.987 0.987c-0.643-0.833-1.428-1.574-2.323-2.197l1.050-1.050c0.383-0.384 0.469-0.964 0.212-1.445-0.502-0.941-0.351-2.062 0.377-2.79 1.271-1.271 3.486-0.637 4.020 1.112 0.113 0.371 0.402 0.659 0.773 0.773 1.691 0.516 2.351 2.617 1.214 3.911-0.171 0.194-0.152 0.491 0.043 0.661s0.491 0.152 0.661-0.043c1.583-1.802 0.698-4.711-1.645-5.426-0.073-0.022-0.128-0.077-0.15-0.15-0.733-2.402-3.792-3.289-5.579-1.502-1.021 1.021-1.239 2.586-0.541 3.894 0.061 0.114 0.041 0.251-0.048 0.341l-1.199 1.199c-3.61-2.077-8.348-2.143-12.074 0l-1.199-1.199c-0.090-0.090-0.109-0.227-0.048-0.341 0.698-1.308 0.48-2.873-0.541-3.894-1.78-1.78-4.843-0.911-5.58 1.501-0.022 0.073-0.077 0.128-0.15 0.15-2.41 0.735-3.283 3.798-1.502 5.58 1.021 1.021 2.586 1.239 3.894 0.541 0.114-0.061 0.251-0.041 0.341 0.048l1.105 1.105c-1.917 3.058-1.796 6.712 0.070 9.603 0.612 0.948 0.434 1.799 0.465 2.123l-1.64 1.64c-0.090 0.090-0.227 0.109-0.341 0.048-0.636-0.339-1.373-0.47-2.078-0.367-0.256 0.037-0.434 0.275-0.396 0.531s0.275 0.433 0.531 0.396c0.508-0.074 1.041 0.021 1.502 0.267 0.48 0.256 1.061 0.171 1.445-0.212l0.995-0.995c0.12 1.171 0.842 2.165 1.85 2.67l-0.585 0.585c-0.383 0.384-0.469 0.964-0.212 1.445 0.502 0.941 0.351 2.062-0.377 2.79-1.274 1.275-3.488 0.633-4.020-1.112-0.113-0.371-0.402-0.659-0.773-0.773-1.56-0.476-2.297-2.348-1.385-3.69 0.145-0.214 0.090-0.506-0.124-0.651s-0.506-0.090-0.651 0.124c-1.263 1.858-0.283 4.452 1.887 5.114 0.073 0.022 0.128 0.077 0.15 0.15 0.732 2.398 3.793 3.288 5.579 1.502 1.021-1.021 1.239-2.586 0.541-3.894-0.061-0.114-0.041-0.251 0.048-0.341l0.929-0.929c1.183 0.176 2.322-0.282 3.060-1.144 0.4 1.416 1.704 2.457 3.246 2.457s2.846-1.041 3.246-2.457c0.741 0.864 1.881 1.32 3.060 1.144l0.929 0.929c0.090 0.090 0.109 0.227 0.048 0.341-0.698 1.308-0.48 2.873 0.541 3.894 1.778 1.778 4.843 0.912 5.579-1.501 0.022-0.073 0.077-0.128 0.15-0.15 2.412-0.736 3.277-3.804 1.502-5.579-1.021-1.021-2.586-1.239-3.894-0.541zM5.843 8.102c-0.384-0.383-0.964-0.469-1.445-0.212-0.941 0.502-2.062 0.351-2.79-0.377-1.274-1.273-0.633-3.487 1.112-4.020 0.371-0.113 0.659-0.402 0.773-0.773 0.53-1.737 2.741-2.391 4.020-1.112 0.727 0.727 0.879 1.849 0.377 2.79-0.256 0.481-0.171 1.061 0.212 1.445l1.050 1.050c-0.895 0.622-1.679 1.364-2.323 2.197zM21.81 24.993c-1.343 0-2.435-1.092-2.436-2.435-0-0.259-0.21-0.469-0.469-0.469s-0.469 0.21-0.469 0.469v1.275c0 1.343-1.092 2.435-2.435 2.435s-2.435-1.092-2.435-2.435v-1.276c0-0.259-0.21-0.469-0.469-0.469s-0.469 0.21-0.469 0.469c0 1.343-1.093 2.435-2.436 2.435s-2.435-1.093-2.435-2.435v-1.506c0-0.742-0.213-1.464-0.615-2.087-0.853-1.322-1.305-2.827-1.305-4.352 0-4.896 4.559-8.879 10.163-8.879s10.163 3.983 10.163 8.879c0 1.525-0.451 3.030-1.305 4.352-0.402 0.623-0.615 1.345-0.615 2.087v1.506c0 1.343-1.092 2.435-2.435 2.435zM29.282 28.509c-0.371 0.113-0.659 0.402-0.773 0.773-0.531 1.741-2.744 2.389-4.020 1.112-0.727-0.727-0.879-1.849-0.377-2.79 0.256-0.481 0.171-1.061-0.212-1.445l-0.585-0.585c1.008-0.505 1.729-1.499 1.85-2.67l0.995 0.995c0.384 0.383 0.964 0.469 1.445 0.212 0.941-0.502 2.062-0.351 2.79 0.377 1.281 1.281 0.622 3.491-1.112 4.020zM13.335 16.324c-0.195-0.17-0.491-0.15-0.661 0.045-0.18 0.206-0.439 0.324-0.712 0.324s-0.532-0.118-0.711-0.324c-0.17-0.195-0.466-0.215-0.661-0.045s-0.215 0.466-0.045 0.661c0.358 0.41 0.875 0.646 1.418 0.646s1.061-0.235 1.418-0.646c0.17-0.195 0.15-0.491-0.045-0.661zM21.413 16.324c-0.195-0.17-0.491-0.15-0.661 0.045-0.18 0.206-0.439 0.324-0.711 0.324s-0.532-0.118-0.712-0.324c-0.17-0.195-0.466-0.215-0.661-0.045s-0.215 0.466-0.045 0.661c0.358 0.41 0.875 0.646 1.418 0.646s1.060-0.235 1.418-0.646c0.17-0.195 0.15-0.491-0.045-0.661z"></path>
</svg>
