<!-- Generated by IcoMoon.io -->
<svg version="1.1" xmlns="http://www.w3.org/2000/svg" width="32" height="32" viewBox="0 0 32 32">
<title>gaming-chair</title>
<path fill="#807bcf" d="M13.475 23.222h5.049v4.721h-5.049z"></path>
<path fill="#a78cd6" d="M24.7 27.487h-17.401c-0.446 0-0.808 0.362-0.808 0.808v0.733c0 0.446 0.362 0.808 0.808 0.808h17.4c0.446 0 0.808-0.362 0.808-0.808v-0.733c0-0.446-0.361-0.808-0.808-0.808z"></path>
<path fill="#d4d4ff" d="M7 27.316c1.165 0.070 2.052 1.071 1.982 2.235s-1.071 2.052-2.235 1.982c-1.165-0.070-2.052-1.071-1.982-2.235s1.071-2.052 2.235-1.982z"></path>
<path fill="#d4d4ff" d="M27.23 29.282c0.070 1.165-0.817 2.165-1.982 2.235s-2.165-0.817-2.235-1.982c-0.070-1.165 0.817-2.165 1.982-2.235s2.165 0.817 2.235 1.982z"></path>
<path fill="#d4d4ff" d="M16.493 31.531h-0.987c-0.494 0-0.895-0.401-0.895-0.895v-2.436c0-0.494 0.401-0.895 0.895-0.895h0.987c0.494 0 0.895 0.401 0.895 0.895v2.436c0 0.494-0.401 0.895-0.895 0.895z"></path>
<path fill="#f5ea72" d="M20.794 21.403c1.538 0 4.054-0.24 4.054-3.032 0-4.394-2.332-6.116-2.332-14.976 0-2.663-3.272-2.926-6.516-2.926s-6.516 0.263-6.516 2.926c0 8.86-2.332 10.582-2.332 14.976 0 2.792 2.516 3.032 4.054 3.032h9.587z"></path>
<path fill="#ebca5f" d="M24.776 17.074c-0.246-0.043-0.498-0.066-0.756-0.066h-8.681c-0.301 0-0.572-0.178-0.694-0.453-1.621-3.645-1.83-8.963-0.599-16.036-2.485 0.156-4.562 0.754-4.562 2.876 0 8.86-2.332 10.582-2.332 14.976 0 2.792 2.516 3.032 4.054 3.032h9.587c1.538 0 4.054-0.24 4.054-3.032 0-0.458-0.026-0.886-0.071-1.297z"></path>
<path fill="#a78cd6" d="M8.198 14.92h-4.136v4.936c0 1.044 0.846 1.891 1.891 1.891h2.245z"></path>
<path fill="#d4d4ff" d="M8.522 15.205h-4.785c-0.441 0-0.798-0.357-0.798-0.798v-0.712c0-0.85 0.689-1.539 1.539-1.539h3.304c0.85 0 1.539 0.689 1.539 1.539v0.712c0 0.441-0.357 0.798-0.798 0.798z"></path>
<path fill="#a78cd6" d="M23.802 14.92h4.136v4.936c0 1.044-0.846 1.891-1.891 1.891h-2.245z"></path>
<path fill="#d4d4ff" d="M23.478 15.205h4.785c0.441 0 0.798-0.357 0.798-0.798v-0.712c0-0.85-0.689-1.539-1.539-1.539h-3.304c-0.85 0-1.539 0.689-1.539 1.539v0.712c0 0.441 0.357 0.798 0.798 0.798z"></path>
<path fill="#f5ea72" d="M24.764 23.496h-17.529c-0.806 0-1.46-0.654-1.46-1.46v-0.636c0-1.217 0.987-2.204 2.204-2.204h16.040c1.217 0 2.204 0.987 2.204 2.204v0.636c-0 0.806-0.654 1.46-1.46 1.46z"></path>
<path fill="#a78cd6" d="M18.947 3.746h-5.895c-0.518 0-0.938 0.42-0.938 0.938v0.473c0 0.518 0.42 0.938 0.938 0.938h5.895c0.518 0 0.938-0.42 0.938-0.938v-0.473c0-0.518-0.42-0.938-0.938-0.938z"></path>
<path fill="#807bcf" d="M13.053 6.094h0.294c0.052-0.756 0.126-1.538 0.223-2.348h-0.517c-0.518 0-0.938 0.42-0.938 0.938v0.473c-0 0.518 0.42 0.938 0.938 0.938z"></path>
<path fill="#000" d="M13.053 3.277c-0.775 0-1.406 0.631-1.406 1.406v0.473c0 0.775 0.631 1.406 1.406 1.406h5.895c0.775 0 1.406-0.631 1.406-1.406v-0.473c0-0.775-0.631-1.406-1.406-1.406zM19.416 4.683v0.473c0 0.258-0.21 0.469-0.469 0.469h-5.895c-0.258 0-0.469-0.21-0.469-0.469v-0.473c0-0.258 0.21-0.469 0.469-0.469h5.895c0.258 0 0.469 0.21 0.469 0.469zM27.523 11.688c-3.48 0.007-3.329-0.016-3.584 0.020-0.457-1.768-0.897-4.071-0.949-7.614-0.004-0.257-0.213-0.462-0.469-0.462-0.002 0-0.005 0-0.007 0-0.259 0.004-0.466 0.217-0.462 0.476 0.054 3.717 0.526 6.112 1.008 7.95-0.513 0.364-0.849 0.962-0.849 1.638v0.712c0 0.65 0.492 1.186 1.123 1.258v3.062h-14.667v-3.062c0.631-0.072 1.123-0.608 1.123-1.258v-0.712c0-0.676-0.336-1.274-0.849-1.638 0.516-1.968 1.013-4.552 1.013-8.662 0-0.994 0.546-1.634 1.718-2.016 1.194-0.389 2.858-0.442 4.329-0.442 2.429 0 4.799 0.155 5.678 1.277 0.16 0.204 0.454 0.24 0.658 0.080s0.24-0.454 0.080-0.658c-1.183-1.51-3.932-1.636-6.416-1.636-1.544 0-3.301 0.058-4.62 0.488-1.569 0.511-2.365 1.49-2.365 2.907 0 3.927-0.464 6.417-0.954 8.313-0.092-0.013-0.185-0.020-0.28-0.020h-3.304c-1.107 0-2.007 0.9-2.007 2.007v0.712c0 0.65 0.492 1.186 1.123 1.258v4.191c0 1.080 0.713 1.991 1.716 2.271 0.047 1.022 0.893 1.838 1.926 1.838h0.316c0.259 0 0.469-0.21 0.469-0.469s-0.21-0.469-0.469-0.469h-0.316c-0.547 0-0.991-0.445-0.991-0.991v-0.636c0-0.957 0.779-1.736 1.736-1.736h16.040c0.957 0 1.736 0.779 1.736 1.736v0.636c0 0.547-0.445 0.991-0.991 0.991h-14.941c-0.259 0-0.469 0.21-0.469 0.469s0.21 0.469 0.469 0.469h3.183v3.053h-5.18c-1.689-0.67-3.53 0.582-3.53 2.401 0 1.424 1.158 2.582 2.582 2.582 1.113 0 2.063-0.708 2.425-1.697h4.84v0.333c0 0.752 0.612 1.363 1.363 1.363h0.987c0.752 0 1.363-0.612 1.363-1.363v-0.333h4.84c0.362 0.989 1.313 1.697 2.425 1.697 1.424 0 2.582-1.158 2.582-2.582s-1.158-2.582-2.582-2.582c-0.335 0-0.654 0.065-0.948 0.181h-5.18v-3.053h5.771c1.033 0 1.879-0.817 1.926-1.839 1.003-0.28 1.716-1.191 1.716-2.27v-4.191c0.631-0.072 1.123-0.608 1.123-1.258v-0.712c0-1.107-0.9-2.007-2.007-2.007zM7.729 18.739c-1.268 0.119-2.281 1.126-2.408 2.392-0.473-0.232-0.79-0.716-0.79-1.275v-4.182h3.199zM3.737 14.736c-0.182 0-0.329-0.148-0.329-0.329v-0.712c0-0.59 0.48-1.070 1.070-1.070h3.304c0.59 0 1.070 0.48 1.070 1.070v0.712c0 0.181-0.148 0.329-0.329 0.329zM6.878 31.063c-0.907 0-1.644-0.738-1.644-1.644s0.738-1.644 1.644-1.644 1.644 0.738 1.644 1.644c-0 0.907-0.738 1.644-1.644 1.644zM25.122 27.774c0.907 0 1.644 0.738 1.644 1.644s-0.738 1.644-1.644 1.644-1.644-0.738-1.644-1.644c0-0.907 0.738-1.644 1.644-1.644zM14.143 29.366h-4.685c-0.011-0.523-0.177-1.008-0.455-1.41h5.162c-0.039 0.212-0.015 0.252-0.022 1.41zM16.919 30.637c0 0.235-0.191 0.426-0.426 0.426h-0.987c-0.235 0-0.426-0.191-0.426-0.426v-2.436c0-0.235 0.191-0.426 0.426-0.426h0.987c0.235 0 0.426 0.191 0.426 0.426zM17.171 27.018c-0.2-0.115-0.431-0.181-0.678-0.181h-0.987c-0.247 0-0.478 0.066-0.678 0.181h-0.885v-3.053h4.112v3.053zM22.996 27.955c-0.278 0.403-0.444 0.888-0.455 1.41h-4.685c-0.007-1.114 0.017-1.196-0.022-1.41zM27.47 19.856c0 0.559-0.318 1.041-0.79 1.273-0.128-1.265-1.141-2.271-2.408-2.39v-3.065h3.198zM28.592 14.407c0 0.181-0.148 0.329-0.329 0.329h-4.785c-0.182 0-0.329-0.148-0.329-0.329v-0.712c0-0.59 0.48-1.070 1.070-1.070h3.304c0.59 0 1.070 0.48 1.070 1.070v0.712z"></path>
</svg>
