<!-- Generated by IcoMoon.io -->
<svg version="1.1" xmlns="http://www.w3.org/2000/svg" width="32" height="32" viewBox="0 0 32 32">
<title>gift-box</title>
<path fill="#8ee2e1" d="M5.382 9.252c2.51 2.51 7.522 3.171 10.618 3.171 0-2.733-2.134-7.478-4.222-9.567-1.628-1.628-4.379-1.515-6.145 0.251s-1.878 4.517-0.251 6.145z"></path>
<path fill="#6ad7d4" d="M16 12.424c0-2.217-1.404-5.758-3.049-8.131l-1.857 2.381c-0.002 0.002-0.004 0.004-0.006 0.004l-2.962 1.076c-1.019 0.37-1.763 1.12-2.158 2.017 2.643 2.084 7.161 2.653 10.032 2.653z"></path>
<path fill="#8ee2e1" d="M26.618 9.252c-2.51 2.51-7.522 3.171-10.618 3.171 0-2.733 2.134-7.478 4.222-9.567 1.628-1.628 4.379-1.515 6.145 0.251s1.878 4.517 0.251 6.145z"></path>
<path fill="#6ad7d4" d="M16 12.424c2.871 0 7.389-0.569 10.032-2.653-0.395-0.897-1.14-1.647-2.158-2.017l-2.962-1.076c-0.003-0.001-0.005-0.002-0.006-0.005l-1.857-2.38c-1.645 2.373-3.049 5.914-3.049 8.131z"></path>
<path fill="#a78cd6" d="M25.309 30.295h-18.617c-1.934 0-3.501-1.567-3.501-3.501v-15.269h25.619v15.269c0 1.934-1.567 3.501-3.501 3.501z"></path>
<path fill="#807bcf" d="M26.348 11.525h-20.695c0.039 0.644 0.245 1.29 0.639 1.873l1.764 2.611c0.002 0.002 0.002 0.005 0.002 0.008l0.108 3.149c0.084 2.444 2.443 4.168 4.802 3.489l3.036-0.871 3.028 0.871c2.349 0.676 4.718-1.035 4.802-3.489l0.108-3.149c0-0.008-0.077 0.112 1.766-2.618 0.395-0.584 0.6-1.23 0.639-1.873z"></path>
<path fill="#8ee2e1" d="M13.441 14.404h5.118v15.891h-5.118z"></path>
<path fill="#d4d4ff" d="M0.469 12.253c0 1.069 0.736 1.996 1.776 2.239 2.856 0.665 7.791 1.536 13.755 1.536s10.899-0.871 13.755-1.536c1.041-0.242 1.776-1.17 1.776-2.239v-1.665c0-1.26-1.165-2.197-2.395-1.927-2.921 0.641-7.582 1.396-13.136 1.396s-10.215-0.755-13.136-1.396c-1.231-0.27-2.395 0.667-2.395 1.927z"></path>
<path fill="#9ea2e3" d="M25.777 9.29c-2.677 0.422-6.023 0.767-9.777 0.767s-7.101-0.345-9.778-0.767c-0.754 1.207-0.807 2.81 0.069 4.108l1.402 2.076c2.394 0.319 5.211 0.553 8.306 0.553s5.912-0.235 8.306-0.553c0.253-0.374 0.68-1.006 1.402-2.076 0.878-1.299 0.823-2.902 0.069-4.108z"></path>
<path fill="#6ad7d4" d="M18.559 14.404h-5.117v8.115l2.563-0.735 2.555 0.735z"></path>
<path fill="#f5ea72" d="M15.478 19.982l-3.028 0.871c-1.182 0.34-2.368-0.522-2.41-1.751l-0.108-3.149c-0.012-0.355-0.124-0.699-0.323-0.993l-1.764-2.611c-0.688-1.019-0.235-2.413 0.921-2.833l2.962-1.076c0.334-0.121 0.626-0.334 0.845-0.614l1.938-2.485c0.756-0.97 2.223-0.97 2.979 0l1.938 2.485c0.218 0.28 0.511 0.493 0.845 0.614l2.962 1.076c1.156 0.42 1.609 1.814 0.921 2.833l-1.764 2.611c-0.199 0.294-0.311 0.638-0.323 0.993l-0.108 3.149c-0.042 1.229-1.228 2.091-2.41 1.751l-3.028-0.871c-0.341-0.098-0.703-0.098-1.044 0z"></path>
<path fill="#eda1ab" d="M12.862 13.271c0 0.807-0.821 1.461-1.835 1.461s-1.835-0.654-1.835-1.461c0-0.807 0.821-1.461 1.835-1.461s1.835 0.654 1.835 1.461z"></path>
<path fill="#eda1ab" d="M22.807 13.271c0 0.807-0.821 1.461-1.835 1.461s-1.835-0.654-1.835-1.461c0-0.807 0.821-1.461 1.835-1.461s1.835 0.654 1.835 1.461z"></path>
<path fill="#000" d="M29.035 8.203c-0.421 0.092-0.848 0.18-1.28 0.264 0.909-1.79 0.534-4.1-1.057-5.691-1.946-1.946-5-2.058-6.808-0.251-0.652 0.652-1.318 1.556-1.947 2.637l-0.085-0.109c-0.944-1.209-2.773-1.211-3.718 0l-0.085 0.109c-0.629-1.081-1.295-1.984-1.947-2.637-1.663-1.663-4.402-1.724-6.371-0.141-0.202 0.162-0.234 0.457-0.072 0.659s0.457 0.234 0.659 0.072c1.595-1.282 3.796-1.251 5.121 0.074 0.65 0.65 1.349 1.628 1.986 2.773l-1.23 1.577c-0.267 0.342-0.586 0.435-0.636 0.462-0.948-0.983-1.854-1.821-2.694-2.49-0.203-0.161-0.497-0.128-0.659 0.075s-0.128 0.497 0.075 0.659c0.711 0.566 1.502 1.288 2.311 2.107-2.107 0.767-1.999 0.722-2.13 0.778-1.003-0.122-1.991-0.266-2.958-0.431-0.893-1.067-1.065-2.615-0.433-3.992 0.108-0.235 0.005-0.514-0.23-0.622s-0.514-0.005-0.622 0.23c-0.635 1.381-0.608 2.909 0.019 4.154-0.433-0.084-0.86-0.172-1.282-0.264-1.525-0.334-2.965 0.827-2.965 2.385v1.665c0 1.293 0.88 2.402 2.139 2.695 0.182 0.042 0.377 0.086 0.583 0.132v11.714c0 2.189 1.781 3.97 3.97 3.97h17.773c0.259 0 0.469-0.21 0.469-0.469s-0.21-0.469-0.469-0.469h-5.436v-8.636l0.393 0.113c1.474 0.424 2.956-0.65 3.008-2.186l0.101-2.962c2.311-0.24 4.288-0.572 5.811-0.879v11.517c0 1.224-0.729 2.321-1.857 2.796-0.239 0.1-0.351 0.375-0.25 0.614s0.376 0.351 0.614 0.25c1.477-0.621 2.431-2.058 2.431-3.66v-11.714c0.206-0.045 0.401-0.089 0.583-0.132 1.259-0.293 2.139-1.402 2.139-2.695v-1.665c0-1.561-1.443-2.719-2.965-2.385zM20.554 3.188c1.442-1.442 3.901-1.33 5.482 0.251 1.506 1.506 1.69 3.784 0.453 5.259-0.967 0.165-1.955 0.31-2.957 0.431-0.131-0.057-0.027-0.013-2.13-0.778 0.809-0.819 1.6-1.541 2.311-2.107 0.203-0.161 0.236-0.456 0.075-0.659s-0.456-0.236-0.659-0.075c-0.84 0.669-1.746 1.506-2.694 2.49-0.049-0.026-0.369-0.12-0.636-0.462l-1.23-1.577c0.637-1.146 1.336-2.123 1.986-2.773zM2.352 14.035c-0.833-0.194-1.414-0.927-1.414-1.782v-1.665c0-0.962 0.889-1.675 1.826-1.469 1.507 0.331 3.087 0.608 4.709 0.827-0.545 0.788-0.574 1.84-0.016 2.665l1.738 2.573c-2.958-0.324-5.331-0.797-6.843-1.149zM12.973 29.826h-6.281c-1.672 0-3.032-1.36-3.032-3.032v-11.517c1.523 0.307 3.5 0.639 5.811 0.879l0.101 2.962c0.052 1.533 1.531 2.61 3.008 2.186l0.393-0.113zM18.090 29.826h-4.18v-8.905l1.697-0.488c0.257-0.074 0.528-0.074 0.785 0l1.698 0.488v8.905zM22.002 14.697c-0.248 0.368-0.387 0.796-0.403 1.239l-0.108 3.149c-0.032 0.925-0.924 1.572-1.812 1.316l-3.028-0.871c-0.426-0.123-0.877-0.123-1.303 0l-3.028 0.871c-0.888 0.256-1.78-0.392-1.812-1.316l-0.108-3.149c-0.015-0.443-0.154-0.872-0.403-1.239l-1.764-2.611c-0.517-0.766-0.178-1.814 0.692-2.13l2.962-1.076c0.417-0.151 0.782-0.416 1.054-0.766l1.938-2.485c0.568-0.729 1.671-0.73 2.24 0l1.938 2.484c0.273 0.35 0.637 0.615 1.054 0.766l2.962 1.076c0.868 0.315 1.21 1.363 0.692 2.13zM31.063 12.253c0 0.855-0.581 1.588-1.414 1.782-1.512 0.352-3.885 0.825-6.843 1.149l1.738-2.573c0.559-0.827 0.527-1.879-0.016-2.665 1.622-0.22 3.203-0.496 4.709-0.827 0.939-0.206 1.826 0.509 1.826 1.469zM19.903 10.646c-0.259 0-0.469 0.21-0.469 0.469v0.75c0 0.259 0.21 0.469 0.469 0.469s0.469-0.21 0.469-0.469v-0.75c0-0.259-0.21-0.469-0.469-0.469zM12.097 10.646c-0.259 0-0.469 0.21-0.469 0.469v0.75c0 0.259 0.21 0.469 0.469 0.469s0.469-0.21 0.469-0.469v-0.75c0-0.259-0.21-0.469-0.469-0.469zM17.337 11.489c-0.195-0.17-0.491-0.15-0.661 0.045s-0.417 0.308-0.676 0.308-0.505-0.112-0.676-0.308c-0.17-0.195-0.466-0.216-0.661-0.045s-0.216 0.466-0.046 0.661c0.349 0.4 0.853 0.63 1.382 0.63s1.034-0.229 1.382-0.63c0.17-0.195 0.15-0.491-0.045-0.661z"></path>
</svg>
