<!-- Generated by IcoMoon.io -->
<svg version="1.1" xmlns="http://www.w3.org/2000/svg" width="32" height="32" viewBox="0 0 32 32">
<title>gun</title>
<path fill="#a78cd6" d="M5.472 30.045h-3.072c-1.2 0-2.11-1.084-1.901-2.266l1.934-10.969h8.054l-1.868 10.595c-0.269 1.527-1.596 2.64-3.146 2.64z"></path>
<path fill="#807bcf" d="M1.76 20.629c0.959 0.617 2.099 0.975 3.321 0.975h4.561l0.845-4.793h-8.054z"></path>
<path fill="#8ee2e1" d="M30.154 11.978h-6.293v4.644h6.293c0.761 0 1.378-0.617 1.378-1.378v-1.889c0-0.761-0.617-1.378-1.378-1.378z"></path>
<path fill="#6ad7d4" d="M23.861 11.978h2.851v4.644h-2.851z"></path>
<path fill="#a78cd6" d="M23.551 9.562h-2.495c-0.71 0-1.286 0.576-1.286 1.286v6.905c0 0.71 0.576 1.286 1.286 1.286h2.495c0.71 0 1.286-0.576 1.286-1.286v-6.905c-0-0.71-0.576-1.286-1.286-1.286z"></path>
<path fill="#f5ea72" d="M16.998 19.729h-11.917c-2.364 0-4.28-1.916-4.28-4.28v-2.297c0-2.364 1.916-4.28 4.28-4.28h11.917c2.364 0 4.28 1.916 4.28 4.28v2.297c0 2.364-1.916 4.28-4.28 4.28z"></path>
<path fill="#ebca5f" d="M5.081 8.871c-2.364 0-4.28 1.916-4.28 4.28v2.297c0 2.364 1.916 4.28 4.28 4.28h3.842c-4.061-1.501-4.448-7.125-2.885-10.858z"></path>
<path fill="#de5c6e" d="M22.903 2.031c1.392 0.329 2.254 1.725 1.925 3.117s-1.725 2.254-3.117 1.925c-1.392-0.329-2.254-1.725-1.925-3.117s1.725-2.254 3.117-1.925z"></path>
<path fill="#eda1ab" d="M6.040 13.737c1.019 0.002 1.844 0.662 1.843 1.473s-0.829 1.468-1.848 1.466c-1.019-0.002-1.844-0.662-1.843-1.473s0.829-1.468 1.848-1.466z"></path>
<path fill="#eda1ab" d="M16.041 13.759c1.019 0.002 1.844 0.662 1.843 1.473s-0.829 1.468-1.849 1.466c-1.019-0.002-1.844-0.662-1.843-1.473s0.829-1.468 1.848-1.466z"></path>
<path fill="#000" d="M30.154 11.51h-4.848v-0.662c0-0.967-0.787-1.755-1.755-1.755h-0.77v-1.525c1.665-0.262 2.846-1.854 2.533-3.573-0.046-0.255-0.291-0.424-0.545-0.377s-0.424 0.29-0.377 0.545c0.238 1.309-0.771 2.505-2.088 2.505-1.17 0-2.122-0.952-2.122-2.122s0.952-2.122 2.122-2.122c0.376 0 0.746 0.1 1.069 0.288 0.224 0.13 0.511 0.055 0.641-0.168s0.055-0.511-0.168-0.641c-0.466-0.272-0.999-0.416-1.541-0.416-1.687 0-3.060 1.373-3.060 3.060 0 1.531 1.13 2.802 2.599 3.025v1.523h-0.787c-0.392 0-0.769 0.133-1.073 0.369-0.816-0.662-1.855-1.059-2.985-1.059h-11.917c-2.619 0-4.749 2.13-4.749 4.749v2.297c0 1.257 0.492 2.4 1.292 3.251l-1.587 8.998c-0.259 1.47 0.873 2.816 2.363 2.816h1.862c0.259 0 0.469-0.21 0.469-0.469s-0.21-0.469-0.469-0.469h-1.862c-0.908 0-1.598-0.82-1.44-1.716l1.492-8.459c0.753 0.503 1.657 0.797 2.629 0.797h4.333l-1.256 7.126c-0.174 0.985-0.871 1.794-1.819 2.112-0.245 0.082-0.378 0.348-0.296 0.593s0.348 0.378 0.593 0.296c1.274-0.427 2.211-1.514 2.444-2.838l0.424-2.405h2.393c1.706 0 3.095-1.388 3.095-3.094v-1.789h2.006c1.13 0 2.168-0.397 2.985-1.059 0.304 0.235 0.681 0.368 1.073 0.368h2.495c0.968 0 1.755-0.787 1.755-1.755v-0.662h4.848c1.018 0 1.846-0.828 1.846-1.846v-1.889c-0-1.018-0.828-1.846-1.846-1.846zM14.055 21.987c0 1.189-0.968 2.157-2.157 2.157h-2.228l0.696-3.946h0.294c0.229 0.454 0.61 1.032 1.218 1.537 0.199 0.165 0.494 0.139 0.66-0.061s0.138-0.495-0.061-0.66c-0.275-0.229-0.524-0.508-0.732-0.816h2.31v1.79zM16.998 19.26h-11.917c-2.102 0-3.811-1.71-3.811-3.811v-2.297c0-2.102 1.71-3.811 3.811-3.811h11.917c2.102 0 3.811 1.71 3.811 3.811v2.297c0 2.102-1.71 3.811-3.811 3.811zM24.368 17.753c0 0.451-0.367 0.817-0.817 0.817h-2.495c-0.14 0-0.274-0.037-0.394-0.103 0.677-0.821 1.085-1.873 1.085-3.018v-2.297c0-1.145-0.407-2.197-1.085-3.018 0.119-0.066 0.254-0.103 0.394-0.103h2.495c0.451 0 0.817 0.367 0.817 0.817zM31.063 15.245c0 0.501-0.408 0.909-0.909 0.909h-4.848v-3.707h4.848c0.501 0 0.909 0.408 0.909 0.909zM7.119 12.394h-0.003c-0.742 0-1.346 0.603-1.348 1.345-0.001 0.259 0.209 0.469 0.468 0.47h0.001c0.258-0 0.468-0.209 0.469-0.468 0-0.226 0.184-0.409 0.41-0.409h0.001c0.226 0.001 0.41 0.185 0.409 0.411-0.001 0.259 0.209 0.469 0.468 0.47h0.001c0.258 0 0.468-0.209 0.469-0.468 0.002-0.743-0.601-1.349-1.345-1.351zM14.971 12.594h-0.001c-0.258 0-0.468 0.209-0.469 0.468l-0.001 0.75c-0.001 0.259 0.209 0.469 0.468 0.47h0.001c0.258 0 0.468-0.209 0.469-0.468l0.001-0.75c0-0.259-0.209-0.469-0.468-0.47zM11.015 12.546l-0.711 0.193c-0.25 0.068-0.397 0.325-0.329 0.575s0.326 0.397 0.575 0.329l0.711-0.193c0.021-0.006 0.055-0.015 0.082 0.035s0.001 0.074-0.015 0.088c-0.191 0.174-0.301 0.422-0.302 0.681s0.108 0.507 0.299 0.682c0.016 0.014 0.042 0.038 0.014 0.088s-0.062 0.040-0.082 0.034l-0.71-0.197c-0.249-0.069-0.508 0.077-0.577 0.327s0.077 0.508 0.327 0.577l0.71 0.197c1.015 0.281 1.727-0.986 0.963-1.707 0.767-0.717 0.061-1.988-0.956-1.711z"></path>
</svg>
