<!-- Generated by IcoMoon.io -->
<svg version="1.1" xmlns="http://www.w3.org/2000/svg" width="32" height="32" viewBox="0 0 32 32">
<title>headphones</title>
<path fill="#ebca5f" d="M11.649 2.52l-2.905 2.905 1.638 1.712c0.541 0.565 1.408 0.66 2.059 0.228 1.011-0.67 2.237-1.063 3.559-1.063s2.548 0.393 3.559 1.063c0.652 0.432 1.519 0.338 2.059-0.228l1.638-1.712-2.905-2.905z"></path>
<path fill="#a78cd6" d="M18.67 29.331c0 1.215-1.195 2.2-2.67 2.2s-2.67-0.985-2.67-2.2c0-1.215 1.195-2.2 2.67-2.2s2.67 0.985 2.67 2.2z"></path>
<path fill="#807bcf" d="M17.817 30.942c-3.42 0.012-2.893-2.983-2.343-3.768-1.223 0.201-2.144 1.090-2.144 2.157 0 1.215 1.195 2.2 2.67 2.2 0.702 0 1.341-0.224 1.817-0.589z"></path>
<path fill="#a78cd6" d="M23.961 20.41c-0.404 0-0.811-0.138-1.143-0.42-0.744-0.632-0.835-1.747-0.203-2.491 1.248-1.47 1.936-3.329 1.936-5.234 0-4.555-3.836-8.26-8.551-8.26s-8.551 3.705-8.551 8.26c0 1.905 0.688 3.764 1.936 5.234 0.632 0.744 0.541 1.86-0.203 2.491s-1.86 0.541-2.492-0.203c-1.79-2.108-2.776-4.78-2.776-7.523 0-6.504 5.422-11.796 12.086-11.796s12.086 5.291 12.086 11.796c0 2.743-0.986 5.414-2.777 7.523-0.35 0.412-0.847 0.623-1.348 0.623z"></path>
<path fill="#807bcf" d="M7.449 12.264c0-0.093 0.002-0.186 0.005-0.279l-2.268 0.887c-0.434 0.17-0.837 0.391-1.203 0.653 0.253 2.292 1.192 4.478 2.707 6.261 0.632 0.744 1.747 0.835 2.492 0.203s0.835-1.747 0.203-2.491c-1.248-1.47-1.936-3.329-1.936-5.234z"></path>
<path fill="#807bcf" d="M24.551 12.264c0-0.093-0.002-0.186-0.005-0.279l2.268 0.887c0.434 0.17 0.837 0.391 1.203 0.653-0.253 2.292-1.192 4.478-2.707 6.261-0.632 0.744-1.747 0.835-2.491 0.203s-0.835-1.747-0.203-2.491c1.248-1.47 1.936-3.329 1.936-5.234z"></path>
<path fill="#8ee2e1" d="M8.069 14.094l-2.085 0.815c-1.501 0.587-2.38 2.152-2.1 3.739l0.501 2.841c0.28 1.588 1.641 2.757 3.252 2.795l2.239 0.053z"></path>
<path fill="#d4d4ff" d="M7.299 15.506c-0.273-1.55 0.656-2.485 1.966-2.716s2.503 0.33 2.776 1.88l1.37 7.768c0.273 1.55-0.656 2.485-1.966 2.716s-2.503-0.33-2.776-1.88z"></path>
<path fill="#8ee2e1" d="M23.931 14.094l2.085 0.815c1.501 0.587 2.38 2.152 2.1 3.739l-0.501 2.841c-0.28 1.588-1.641 2.757-3.253 2.795l-2.239 0.053z"></path>
<path fill="#d4d4ff" d="M24.701 15.506c0.273-1.55-0.656-2.485-1.966-2.716s-2.503 0.33-2.776 1.88l-1.37 7.768c-0.273 1.55 0.656 2.485 1.966 2.716s2.503-0.33 2.776-1.88z"></path>
<path fill="#000" d="M27.983 15.92c2.535-7.925-3.572-15.92-11.983-15.92-2.575 0-5.051 0.759-7.162 2.196-0.214 0.146-0.269 0.437-0.124 0.651s0.437 0.269 0.651 0.124c1.954-1.33 4.248-2.033 6.634-2.033 7.552 0 13.158 6.976 11.246 14.162-0.311-0.259-0.666-0.473-1.059-0.627l-1.131-0.442c-0.044-0.12-0.097-0.235-0.158-0.346 0.912-5.33-3.363-10.15-8.898-10.15-5.538 0-9.809 4.823-8.898 10.15-0.061 0.11-0.114 0.225-0.158 0.346l-1.131 0.442c-0.393 0.153-0.748 0.367-1.058 0.627-1.002-3.769 0.027-7.853 2.956-10.763 0.184-0.183 0.185-0.479 0.002-0.663s-0.479-0.184-0.663-0.002c-3.329 3.308-4.386 8.017-3.033 12.248-0.538 0.805-0.773 1.806-0.595 2.81l0.501 2.841c0.292 1.655 1.632 2.919 3.266 3.146v2.119c0 1.634 1.329 2.964 2.964 2.964h2.759c0.261 1.249 1.547 2.2 3.089 2.2 1.731 0 3.138-1.197 3.138-2.669s-1.408-2.669-3.138-2.669c-1.542 0-2.827 0.951-3.089 2.2h-2.759c-1.117 0-2.026-0.909-2.026-2.026v-2.071l0.714 0.017c0.66 0.785 1.658 1.014 2.685 0.833 1.721-0.303 2.641-1.583 2.346-3.259l-1.37-7.768c-0.296-1.676-1.598-2.563-3.319-2.26-0.48 0.085-0.898 0.246-1.245 0.47-0.147-2.023 0.531-4.011 1.892-5.561l0.213 0.223c0.695 0.727 1.813 0.854 2.657 0.294 0.972-0.644 2.113-0.985 3.3-0.985s2.328 0.34 3.3 0.985c0.842 0.558 1.96 0.434 2.657-0.294l0.213-0.223c1.36 1.55 2.039 3.536 1.891 5.561-0.347-0.224-0.764-0.385-1.245-0.47-1.721-0.303-3.023 0.584-3.319 2.26l-1.37 7.768c-0.296 1.676 0.625 2.955 2.346 3.259 1.029 0.181 2.026-0.050 2.685-0.833l1.215-0.029c0.515-0.012 1.013-0.125 1.481-0.334 0.236-0.106 0.342-0.383 0.236-0.619s-0.383-0.342-0.619-0.236c-0.749 0.335-1.314 0.232-1.798 0.269 0.049-0.151 0.089-0.31 0.118-0.477 1.399-8.002 1.405-7.807 1.422-8.256l0.631 0.247c1.289 0.504 2.050 1.859 1.809 3.221l-0.501 2.841c-0.055 0.312-0.16 0.611-0.31 0.888-0.124 0.227-0.040 0.512 0.187 0.636s0.512 0.040 0.636-0.187c0.2-0.366 0.338-0.761 0.41-1.174l0.501-2.841c0.177-1.005-0.058-2.006-0.595-2.81zM16 27.6c1.213 0 2.201 0.777 2.201 1.731s-0.987 1.731-2.201 1.731c-1.214 0-2.201-0.777-2.201-1.731s0.987-1.731 2.201-1.731zM7.648 23.816c-1.383-0.033-2.562-1.046-2.802-2.408l-0.501-2.841c-0.24-1.363 0.521-2.717 1.809-3.221l0.631-0.247c0.016 0.44 0.013 0.199 1.422 8.256 0.029 0.167 0.069 0.326 0.118 0.477zM9.346 13.252c1.226-0.216 2.036 0.38 2.233 1.499l1.37 7.768c0.203 1.15-0.39 1.962-1.585 2.173s-2.030-0.35-2.233-1.5l-1.37-7.768c-0.203-1.15 0.39-1.962 1.585-2.173zM21.28 6.813c-0.383 0.401-0.998 0.468-1.462 0.161-1.126-0.746-2.446-1.141-3.818-1.141s-2.691 0.394-3.818 1.141c-0.464 0.307-1.079 0.24-1.462-0.161l-0.232-0.242c1.445-1.301 3.383-2.098 5.511-2.098s4.066 0.797 5.511 2.098zM24.24 15.425l-1.37 7.768c-0.203 1.15-1.038 1.71-2.233 1.5s-1.788-1.023-1.585-2.173l1.37-7.768c0.198-1.121 1.008-1.715 2.233-1.499 1.195 0.211 1.788 1.023 1.585 2.173z"></path>
</svg>
