<!-- Generated by IcoMoon.io -->
<svg version="1.1" xmlns="http://www.w3.org/2000/svg" width="32" height="32" viewBox="0 0 32 32">
<title>healthy-food</title>
<path fill="#daa985" d="M7.706 9.787c-0.12-2.529-0.772-4.508-1.836-5.572-0.651-0.651-0.651-1.705 0-2.356s1.705-0.651 2.356-0c2.117 2.117 2.695 5.394 2.808 7.77 0.043 0.919-0.666 1.699-1.585 1.743-0.913 0.044-1.699-0.662-1.743-1.585z"></path>
<path fill="#5abfd6" d="M14.418 8.146c-1.024 1.024-2.468 1.41-3.533 1.551-0.781 0.104-1.451-0.566-1.347-1.347 0.142-1.065 0.527-2.509 1.551-3.533s2.468-1.41 3.533-1.551c0.781-0.104 1.451 0.566 1.347 1.347-0.142 1.065-0.527 2.509-1.551 3.533z"></path>
<path fill="#8ee2e1" d="M0.469 13.465c-0.046-2.984 2.311-5.519 5.295-5.542 1.135-0.009 2.188 0.336 3.057 0.932 0.33 0.226 0.769 0.226 1.098 0 0.869-0.595 1.922-0.941 3.057-0.932 2.984 0.024 5.341 2.559 5.295 5.542-0.103 6.698-5.297 11.048-8.621 9.9-0.181-0.063-0.379-0.063-0.56 0-3.324 1.148-8.517-3.202-8.621-9.9z"></path>
<path fill="#6ad7d4" d="M10.761 23.548c3.256 0.016 7.417-4.095 7.509-10.083 0.027-1.723-0.748-3.296-1.982-4.322-0.349 0.272-0.683 0.568-1 0.885-3.795 3.795-2.872 7.997-2.768 9.948 0.011 0.203-0.061 0.401-0.195 0.555-0.781 0.891-1.302 1.93-1.565 3.018z"></path>
<path fill="#fff" d="M5.437 14.786c0 0.795-0.809 1.439-1.807 1.439s-1.807-0.644-1.807-1.439c0-0.795 0.809-1.439 1.807-1.439s1.807 0.644 1.807 1.439z"></path>
<path fill="#fff" d="M15.233 14.786c0 0.795-0.809 1.439-1.807 1.439s-1.807-0.644-1.807-1.439c0-0.795 0.809-1.439 1.807-1.439s1.807 0.644 1.807 1.439z"></path>
<path fill="#de5c6e" d="M15.18 23.764c-1.182 1.182-1.182 3.099 0 4.281 3.14 3.14 6.674 0.731 12.991-5.585 2.774-2.774 2.774-7.271 0-10.045s-7.271-2.774-10.045 0c-3.995 3.995 0.293 8.11-2.946 11.349z"></path>
<path fill="#d5364c" d="M19.009 11.665c-0.309 0.222-0.605 0.472-0.883 0.75-3.995 3.996 0.293 8.11-2.946 11.349-1.182 1.182-1.182 3.099 0 4.281 2.41 2.41 5.052 1.551 9.005-1.832-5.968-1.734-6.297-10.191-5.176-14.548z"></path>
<path fill="#efedff" d="M24.913 17.662c0 1.099-0.891 1.99-1.99 1.99s-1.99-0.891-1.99-1.99c0-1.099 0.891-1.99 1.99-1.99s1.99 0.891 1.99 1.99z"></path>
<path fill="#efedff" d="M29.011 11.574c-3.357-3.357-8.819-3.357-12.176 0-1.176 1.176-1.884 2.49-2.164 4.016-0.227 1.241-0.125 2.378-0.035 3.382 0.144 1.608 0.142 2.177-0.436 2.755-1.935 1.935-1.935 5.084 0 7.020 1.43 1.43 3.862 2.784 7.322 1.11 2.223-1.075 4.602-3.219 7.489-6.106 3.357-3.357 3.357-8.819 0-12.176zM15.795 27.151c-1.058-1.058-1.058-2.772 0-3.83 2.898-2.898-0.939-6.578 2.635-10.153 2.481-2.481 6.505-2.481 8.986 0s2.481 6.505 0 8.986c-5.65 5.65-8.812 7.805-11.621 4.996z"></path>
<path fill="#d4d4ff" d="M23.366 25.919c-3.27 2.686-5.515 3.289-7.571 1.233-1.058-1.058-1.058-2.772 0-3.83 2.898-2.898-0.939-6.578 2.635-10.153 0.106-0.106 0.214-0.206 0.325-0.303 0.24-1.42 0.627-2.581 1.064-3.234-1.088 0.419-2.108 1.066-2.984 1.942-1.176 1.176-1.884 2.49-2.164 4.016-0.227 1.241-0.125 2.378-0.035 3.382 0.144 1.608 0.142 2.177-0.436 2.755-1.935 1.935-1.935 5.084 0 7.020 1.43 1.43 3.862 2.784 7.322 1.11 1.437-0.695 2.939-1.837 4.602-3.337-1.045-0.044-1.96-0.255-2.758-0.6z"></path>
<path fill="#000" d="M29.343 11.243c-3.134-3.133-8.006-3.492-11.539-1.078-0.636-1.003-1.541-1.773-2.587-2.232 0.776-1.049 1.092-2.315 1.217-3.258 0.144-1.087-0.786-2.019-1.874-1.874-1.501 0.2-3.004 0.762-4.009 1.904-0.49-1.275-1.158-2.343-1.994-3.178-0.834-0.834-2.185-0.834-3.019 0-0.832 0.832-0.832 2.186 0 3.019 0.646 0.646 1.13 1.683 1.418 3.023-1.045-0.21-2.136-0.138-3.165 0.253-0.242 0.092-0.364 0.363-0.272 0.605s0.362 0.364 0.605 0.272c1.439-0.546 3.108-0.364 4.431 0.543 0.487 0.334 1.141 0.334 1.628 0 2.263-1.551 5.381-0.937 6.871 1.495-1.502 1.275-2.496 2.87-2.844 4.77-0.239 1.304-0.134 2.475-0.041 3.508 0.245 2.732-0.104 1.769-1.098 3.394-1.167 0.657-2.324 0.841-3.269 0.514-0.279-0.096-0.587-0.096-0.866 0-2.958 1.022-7.9-3.025-7.999-9.464-0.021-1.366 0.522-2.7 1.49-3.661 0.184-0.182 0.185-0.479 0.002-0.663s-0.479-0.185-0.663-0.002c-1.148 1.139-1.792 2.722-1.767 4.341 0.108 7.024 5.599 11.594 9.242 10.336 0.082-0.028 0.172-0.028 0.254 0 0.976 0.337 2.027 0.242 3.003-0.108-0.543 1.856-0.082 3.927 1.369 5.378 2.11 2.111 4.832 2.664 7.858 1.2 0.829-0.401 1.696-0.951 2.651-1.681 0.206-0.157 0.245-0.451 0.087-0.657s-0.451-0.245-0.657-0.087c-0.904 0.692-1.718 1.209-2.489 1.582-2.62 1.268-4.926 0.842-6.787-1.019-1.754-1.754-1.754-4.603 0-6.357 0.749-0.749 0.714-1.544 0.572-3.128-0.087-0.974-0.186-2.077 0.030-3.256 0.262-1.429 0.927-2.662 2.034-3.769 3.174-3.174 8.339-3.174 11.513 0 3.176 3.176 3.177 8.337 0 11.513-1.281 1.281-2.296 2.247-3.193 3.041-0.194 0.172-0.212 0.468-0.040 0.662s0.468 0.212 0.662 0.040c0.912-0.807 1.94-1.786 3.234-3.080 3.543-3.543 3.543-9.296 0-12.839zM9.073 8.288c-0.007 0.054-0.011 0.108-0.013 0.163-0.344-0.233-0.709-0.427-1.089-0.579-0.305-1.757-0.914-3.133-1.769-3.988-0.467-0.467-0.467-1.226 0-1.693 0.468-0.468 1.225-0.468 1.693 0 0.87 0.87 1.541 2.035 1.997 3.464-0.492 0.899-0.717 1.872-0.819 2.634zM10.028 8.232c0.148-0.953 0.511-2.201 1.392-3.083 0.938-0.938 2.292-1.289 3.263-1.418 0.475-0.063 0.884 0.345 0.821 0.821-0.12 0.903-0.433 2.139-1.232 3.063-1.406-0.341-2.936-0.14-4.244 0.618zM11.981 13.22c0-0.216 0.176-0.392 0.392-0.392s0.392 0.176 0.392 0.392c0 0.259 0.21 0.469 0.469 0.469s0.469-0.21 0.469-0.469c0-0.733-0.596-1.329-1.329-1.329s-1.329 0.596-1.329 1.329c0 0.259 0.21 0.469 0.469 0.469s0.469-0.21 0.469-0.469zM4.291 13.22c0-0.216 0.176-0.392 0.392-0.392s0.392 0.176 0.392 0.392c0 0.259 0.21 0.469 0.469 0.469s0.469-0.21 0.469-0.469c0-0.733-0.596-1.329-1.329-1.329s-1.329 0.596-1.329 1.329c0 0.259 0.21 0.469 0.469 0.469s0.469-0.21 0.469-0.469zM15.464 27.483c1.568 1.568 3.261 1.741 5.281 0.765 1.709-0.827 3.738-2.496 7.003-5.761 2.666-2.666 2.667-6.982 0-9.649s-6.982-2.667-9.649 0c-2.036 2.036-1.848 4.128-1.683 5.975 0.142 1.588 0.265 2.96-0.952 4.178-1.241 1.241-1.242 3.251 0 4.492zM16.127 23.653c1.528-1.528 1.373-3.255 1.223-4.925-0.161-1.801-0.314-3.502 1.412-5.228 2.3-2.3 6.023-2.3 8.323 0 2.295 2.295 2.295 6.028 0 8.323-2.329 2.329-4.759 4.617-6.749 5.58-1.713 0.828-2.972 0.654-4.21-0.584-0.875-0.875-0.875-2.292-0-3.167zM24.662 19.401c0.959-0.959 0.959-2.518 0-3.477s-2.518-0.959-3.477 0c-0.959 0.958-0.959 2.518 0 3.477s2.518 0.958 3.477 0zM21.848 16.587c0.593-0.593 1.558-0.593 2.151-0s0.593 1.558 0 2.151-1.558 0.593-2.151 0c-0.593-0.593-0.593-1.558 0-2.151zM8.528 15.11c0.485 0 0.947-0.21 1.266-0.577 0.17-0.195 0.15-0.491-0.045-0.661s-0.491-0.15-0.661 0.045c-0.141 0.162-0.345 0.255-0.559 0.255s-0.418-0.093-0.559-0.255c-0.17-0.195-0.466-0.215-0.661-0.045s-0.215 0.466-0.045 0.661c0.319 0.366 0.781 0.577 1.266 0.577z"></path>
</svg>
