<!-- Generated by IcoMoon.io -->
<svg version="1.1" xmlns="http://www.w3.org/2000/svg" width="32" height="32" viewBox="0 0 32 32">
<title>heart</title>
<path fill="#de5c6e" d="M0.474 14.301c-0.146-3.76 2.781-6.977 6.543-7.016 1.935-0.020 3.68 0.79 4.902 2.096 0.373 0.399 1.010 0.399 1.384 0 1.223-1.306 2.968-2.116 4.903-2.096 3.762 0.039 6.689 3.257 6.543 7.016-0.223 5.758-5.273 11.12-10.579 13.719-0.985 0.482-2.133 0.482-3.118 0-5.306-2.598-10.355-7.961-10.579-13.719z"></path>
<path fill="#d5364c" d="M18.206 7.284c-0.967-0.010-1.887 0.188-2.718 0.551 0.23 4.334 3.816 7.982 7.297 9.686 0.388 0.19 0.794 0.319 1.205 0.39 0.443-1.17 0.712-2.382 0.759-3.611 0.146-3.76-2.781-6.977-6.543-7.016z"></path>
<path fill="#d4d4ff" d="M31.12 9.591l-6.366-4.55c-0.141 0-0.282-0.056-0.386-0.167-0.682-0.729-1.656-1.181-2.736-1.17-2.1 0.022-3.733 1.818-3.652 3.916 0.125 3.213 2.943 6.206 5.904 7.657 0.55 0.269 1.191 0.269 1.74 0 2.343-1.148 4.596-3.261 5.497-5.686z"></path>
<path fill="#efedff" d="M27.901 3.704c-1.089-0.018-2.073 0.435-2.76 1.17-0.104 0.111-0.245 0.167-0.386 0.167v4.057c0 0.273 0.221 0.494 0.494 0.494h5.872c0.236-0.635 0.38-1.292 0.408-1.958 0.086-2.091-1.534-3.893-3.627-3.928z"></path>
<path fill="#fff" d="M9.305 18.526c0 0.85-0.866 1.54-1.934 1.54s-1.934-0.689-1.934-1.54c0-0.85 0.866-1.54 1.934-1.54s1.934 0.689 1.934 1.54z"></path>
<path fill="#fff" d="M19.786 18.526c0 0.85-0.866 1.54-1.934 1.54s-1.934-0.689-1.934-1.54c0-0.85 0.866-1.54 1.934-1.54s1.934 0.689 1.934 1.54z"></path>
<path fill="#565e75" d="M13.638 17.343c0 0.634-0.46 1.149-1.026 1.149s-1.026-0.514-1.026-1.149c0-0.634 0.46-1.149 1.026-1.149s1.026 0.514 1.026 1.149z"></path>
<path fill="#d4d4ff" d="M22.935 26.213l-0.442 0.848c-0.377 0.724-1.412 0.724-1.79 0l-0.442-0.848c-0.096-0.183-0.245-0.333-0.428-0.428l-0.848-0.442c-0.724-0.377-0.724-1.412 0-1.79l0.848-0.442c0.183-0.096 0.333-0.245 0.428-0.428l0.442-0.848c0.377-0.724 1.412-0.724 1.79 0l0.442 0.848c0.096 0.183 0.245 0.333 0.428 0.428l0.848 0.442c0.724 0.377 0.724 1.412 0 1.79l-0.848 0.442c-0.183 0.096-0.333 0.245-0.428 0.428z"></path>
<path fill="#d4d4ff" d="M6.837 8.537l-0.442 0.848c-0.377 0.723-1.412 0.723-1.79 0l-0.442-0.848c-0.096-0.183-0.245-0.333-0.428-0.428l-0.848-0.442c-0.724-0.377-0.724-1.412 0-1.79l0.848-0.442c0.183-0.096 0.333-0.245 0.428-0.428l0.442-0.848c0.377-0.724 1.412-0.724 1.79 0l0.442 0.848c0.096 0.183 0.245 0.333 0.428 0.428l0.848 0.442c0.723 0.377 0.723 1.412 0 1.79l-0.848 0.442c-0.183 0.096-0.333 0.245-0.428 0.428z"></path>
<path fill="#000" d="M7.694 15.449c-0.259 0-0.469 0.21-0.469 0.469v0.75c0 0.259 0.21 0.469 0.469 0.469s0.469-0.21 0.469-0.469v-0.75c0-0.259-0.21-0.469-0.469-0.469zM17.997 16.668v-0.75c0-0.259-0.21-0.469-0.469-0.469s-0.469 0.21-0.469 0.469v0.75c0 0.259 0.21 0.469 0.469 0.469s0.469-0.21 0.469-0.469zM12.612 18.96c0.824 0 1.495-0.726 1.495-1.617s-0.671-1.617-1.495-1.617c-0.824 0-1.495 0.726-1.495 1.617s0.671 1.617 1.495 1.617zM12.612 16.663c0.307 0 0.558 0.305 0.558 0.68s-0.25 0.68-0.558 0.68-0.558-0.305-0.558-0.68 0.25-0.68 0.558-0.68zM31.392 5.269c-0.133-0.222-0.421-0.294-0.643-0.161s-0.294 0.421-0.161 0.643c0.334 0.558 0.497 1.198 0.472 1.851-0.020 0.518-0.115 1.026-0.272 1.521-5.81-0.012-5.565 0.024-5.565-0.025v-3.706c0.096-0.051 0.184-0.117 0.259-0.197 0.617-0.659 1.489-1.032 2.389-1.022 0.446 0.005 0.876 0.1 1.278 0.284 0.236 0.108 0.514 0.004 0.621-0.232s0.004-0.514-0.232-0.621c-0.522-0.238-1.080-0.362-1.658-0.368-1.161-0.013-2.288 0.469-3.083 1.318-0.023 0.025-0.065 0.025-0.088 0-0.796-0.85-1.92-1.329-3.083-1.318-2.1 0.022-3.769 1.602-4.070 3.605-1.759 0.141-3.378 0.92-4.596 2.22-0.187 0.2-0.509 0.203-0.699 0-0.875-0.934-1.964-1.603-3.175-1.957 0.152-0.665-0.164-1.332-0.757-1.641l-0.848-0.442c-0.099-0.051-0.178-0.131-0.229-0.229l-0.442-0.848c-0.552-1.058-2.069-1.059-2.621 0l-0.442 0.848c-0.051 0.099-0.131 0.178-0.229 0.229l-0.848 0.442c-1.058 0.552-1.059 2.069-0 2.621l0.237 0.123c-1.898 1.412-2.995 3.686-2.901 6.113 0.181 4.664 3.36 8.914 7.043 11.752 0.206 0.159 0.5 0.119 0.657-0.085s0.12-0.499-0.085-0.657c-3.452-2.66-6.509-6.672-6.678-11.046-0.087-2.234 0.982-4.317 2.807-5.524l0.44 0.843c0.552 1.058 2.069 1.059 2.621 0l0.442-0.848c0.051-0.099 0.131-0.178 0.229-0.229 0.801-0.426 0.892-0.444 1.081-0.594 1.155 0.284 2.193 0.892 3.014 1.77 0.564 0.602 1.517 0.589 2.068 0 1.031-1.101 2.392-1.771 3.874-1.917 0.211 3.372 3.126 6.427 6.159 7.912 0.135 0.066 0.274 0.119 0.416 0.159-0.328 1.68-1.063 3.357-2.193 4.998-0.64-0.133-1.301 0.166-1.613 0.764l-0.442 0.848c-0.051 0.099-0.131 0.178-0.229 0.229l-0.848 0.442c-0.666 0.347-0.959 1.129-0.703 1.824-1.272 1.035-2.682 1.943-4.1 2.637-0.86 0.421-1.846 0.421-2.706 0-0.618-0.302-1.236-0.646-1.838-1.021-0.22-0.137-0.509-0.070-0.646 0.15s-0.070 0.509 0.15 0.646c0.629 0.391 1.275 0.75 1.921 1.067 1.122 0.549 2.409 0.549 3.53 0 1.48-0.725 2.951-1.671 4.276-2.749 0.115 0.073 0.098 0.056 0.963 0.509 0.099 0.051 0.178 0.131 0.229 0.229l0.442 0.848c0.552 1.058 2.069 1.059 2.621 0l0.442-0.848c0.051-0.099 0.131-0.178 0.229-0.229l0.848-0.442c1.058-0.552 1.059-2.069-0-2.621l-0.848-0.442c-0.099-0.051-0.178-0.131-0.229-0.229-0.418-0.779-0.446-0.913-0.639-1.136 1.204-1.763 1.985-3.576 2.323-5.398 0.272-0.032 0.541-0.11 0.796-0.235 3.079-1.508 6.033-4.633 6.166-8.059 0.032-0.835-0.177-1.654-0.604-2.369zM7.897 7.251l-0.848 0.442c-0.27 0.141-0.487 0.357-0.627 0.627-0 0-0 0-0 0l-0.442 0.848c-0.202 0.388-0.756 0.388-0.958 0l-0.442-0.848c-0.141-0.27-0.357-0.487-0.627-0.627l-0.848-0.442c-0.388-0.202-0.388-0.756 0-0.958l0.848-0.442c0.27-0.141 0.487-0.358 0.627-0.627l0.442-0.848c0.202-0.388 0.756-0.388 0.958 0l0.442 0.848c0.141 0.27 0.357 0.487 0.627 0.627l0.848 0.442c0.388 0.202 0.388 0.756 0 0.958zM23.147 23.526l0.848 0.442c0.388 0.202 0.388 0.756 0 0.958l-0.848 0.442c-0.27 0.141-0.487 0.358-0.627 0.627l-0.442 0.848c-0.202 0.388-0.756 0.388-0.958 0l-0.442-0.848c-0.141-0.27-0.358-0.487-0.627-0.627l-0.848-0.442c-0.388-0.202-0.388-0.756-0-0.958l0.848-0.442c0.27-0.141 0.487-0.358 0.627-0.627l0.442-0.848c0.202-0.388 0.756-0.388 0.958 0l0.442 0.848c0.14 0.27 0.357 0.487 0.627 0.627zM25.418 14.855c-0.422 0.207-0.906 0.207-1.328 0-2.632-1.289-5.52-4.108-5.642-7.254-0.070-1.812 1.332-3.41 3.188-3.429 0.899-0.010 1.772 0.363 2.389 1.022 0.075 0.080 0.164 0.146 0.259 0.197v3.706c0 0.531 0.432 0.962 0.962 0.962h5.165c-1.019 2.101-3.075 3.856-4.995 4.796z"></path>
</svg>
