<!-- Generated by IcoMoon.io -->
<svg version="1.1" xmlns="http://www.w3.org/2000/svg" width="32" height="32" viewBox="0 0 32 32">
<title>hourglass</title>
<path fill="#8ee2e1" d="M2.295 16.604c0.773-2.184 3.173-5.534 5.974-8.334s6.15-5.201 8.334-5.974c0.738-0.261 1.548 0.125 1.809 0.864s-0.126 1.548-0.864 1.809c-2 0.708-5.174 3.205-7.275 5.306s-4.598 5.275-5.306 7.275c-0.261 0.738-1.071 1.125-1.809 0.864-0.735-0.26-1.126-1.068-0.864-1.809z"></path>
<path fill="#8ee2e1" d="M15.396 29.705c2.184-0.773 5.534-3.173 8.334-5.974s5.201-6.15 5.974-8.334c0.261-0.738-0.125-1.548-0.864-1.809s-1.548 0.126-1.809 0.864c-0.707 2-3.205 5.174-5.306 7.275s-5.275 4.598-7.275 5.306c-0.738 0.261-1.125 1.071-0.864 1.809 0.26 0.735 1.068 1.126 1.809 0.863z"></path>
<path fill="#efedff" d="M15.181 26.72c2.702-2.702 3.421-6.53 1.977-9.309-0.084-0.163 0.089-0.336 0.252-0.252 2.779 1.444 6.607 0.725 9.309-1.977l-4.468-5.434-5.433-4.468c-2.702 2.702-3.421 6.53-1.977 9.309 0.084 0.163-0.089 0.336-0.252 0.252-2.779-1.444-6.607-0.725-9.309 1.977l4.468 5.433z"></path>
<path fill="#f3a977" d="M17.41 17.159c2.779 1.444 6.607 0.725 9.309-1.977l-1.91-2.323-0.285 0.128c1.148 1.148-1.614 2.419-5.087 0.496-1.789-0.991-3.871-1.13-5.249-0.943 0.106 0.721 0.322 1.413 0.653 2.050 0.084 0.163-0.089 0.336-0.252 0.252-2.779-1.444-6.607-0.725-9.309 1.977l4.468 5.434 5.434 4.468c2.702-2.702 3.421-6.53 1.977-9.309-0.084-0.163 0.089-0.336 0.252-0.252z"></path>
<path fill="#ee8c49" d="M24.523 12.986c1.148 1.148-1.614 2.419-5.087 0.496 1.025-0.786 4.028-1.555 5.087-0.496z"></path>
<path fill="#6ad7d4" d="M15.142 6.256c0.881-0.583 1.714-1.043 2.406-1.288 0.738-0.261 1.125-1.071 0.864-1.809s-1.071-1.125-1.809-0.864c-0.983 0.348-2.202 1.026-3.501 1.921z"></path>
<path fill="#6ad7d4" d="M28.84 13.588c-0.738-0.261-1.548 0.126-1.809 0.864-0.245 0.693-0.705 1.526-1.288 2.406l2.039 2.039c0.895-1.299 1.573-2.518 1.921-3.501 0.261-0.738-0.125-1.548-0.863-1.809z"></path>
<path fill="#a78cd6" d="M31.073 14.553l-13.626-13.626c-0.61-0.61-1.598-0.61-2.207 0l-0.285 0.285c-0.61 0.61-0.61 1.598 0 2.207l13.626 13.626c0.61 0.61 1.598 0.61 2.207 0l0.285-0.285c0.61-0.61 0.61-1.598 0-2.207z"></path>
<path fill="#807bcf" d="M22.080 5.559l-4.633-4.633c-0.61-0.61-1.598-0.61-2.207 0l-0.285 0.285c-0.61 0.609-0.61 1.598 0 2.207l6.415 6.415c-0.428-1.209-0.056-3.221 0.71-4.273z"></path>
<path fill="#6ad7d4" d="M4.216 13.103c-0.895 1.299-1.573 2.518-1.921 3.501-0.262 0.741 0.129 1.549 0.864 1.809 0.738 0.261 1.548-0.126 1.809-0.864 0.245-0.692 0.705-1.526 1.288-2.406z"></path>
<path fill="#6ad7d4" d="M16.857 25.744c-0.881 0.583-1.714 1.043-2.406 1.288-0.738 0.261-1.125 1.071-0.864 1.809 0.26 0.735 1.068 1.126 1.809 0.864 0.983-0.348 2.202-1.026 3.501-1.921z"></path>
<path fill="#a78cd6" d="M14.552 31.074l-13.626-13.626c-0.61-0.61-0.61-1.598 0-2.207l0.285-0.285c0.609-0.61 1.598-0.61 2.207 0l13.626 13.626c0.61 0.61 0.61 1.598 0 2.207l-0.285 0.285c-0.61 0.61-1.598 0.61-2.207 0z"></path>
<path fill="#807bcf" d="M8.050 19.589l-4.633-4.633c-0.61-0.61-1.598-0.61-2.207 0l-0.285 0.285c-0.61 0.61-0.61 1.598 0 2.207l6.415 6.415c-0.428-1.209-0.057-3.221 0.71-4.273z"></path>
<path fill="#000" d="M31.405 14.221l-10.82-10.82c-0.183-0.183-0.48-0.183-0.663 0s-0.183 0.48 0 0.663l10.82 10.82c0.427 0.427 0.427 1.118-0 1.544l-0.285 0.285c-0.427 0.427-1.117 0.427-1.544 0l-13.626-13.626c-0.426-0.426-0.426-1.119 0-1.544l0.285-0.285c0.427-0.427 1.118-0.427 1.544 0l1.184 1.184c0.183 0.183 0.48 0.183 0.663 0s0.183-0.48 0-0.663l-1.184-1.184c-0.793-0.793-2.077-0.793-2.87 0l-0.285 0.285c-0.383 0.383-0.594 0.893-0.594 1.435 0 0.233 0.039 0.459 0.114 0.672-1.971 1.182-4.261 3.006-6.206 4.952s-3.77 4.235-4.952 6.206c-0.713-0.249-1.538-0.089-2.107 0.48l-0.285 0.285c-0.791 0.791-0.791 2.079 0 2.87l11.111 11.111c0.183 0.183 0.48 0.183 0.663 0s0.183-0.48 0-0.663l-11.111-11.111c-0.427-0.427-0.427-1.118 0-1.544l0.285-0.285c0.426-0.426 1.119-0.426 1.544 0l13.626 13.626c0.427 0.427 0.427 1.118-0 1.544l-0.285 0.285c-0.427 0.427-1.117 0.427-1.544 0l-0.926-0.926c-0.183-0.183-0.48-0.183-0.663 0s-0.183 0.48 0 0.663l0.926 0.926c0.383 0.383 0.893 0.594 1.435 0.594 1.069 0 1.561-0.76 1.72-0.879 0.578-0.578 0.727-1.405 0.481-2.107 1.971-1.182 4.261-3.006 6.206-4.952s3.769-4.234 4.951-6.206c0.702 0.246 1.528 0.099 2.107-0.481l0.285-0.285c0.793-0.793 0.793-2.077 0-2.87zM24.192 13.318c0.174 0.174 0.126 0.237 0.094 0.279-0.275 0.365-1.758 0.756-3.84-0.14 0.469-0.199 1.041-0.365 1.593-0.451 0.997-0.156 1.801-0.039 2.152 0.312zM22.876 12.002c-1.195-0.006-2.626 0.411-3.471 0.934-1.892-0.958-3.82-0.982-4.806-0.91-0.161-2.063 0.628-4.304 2.228-6.073zM14.114 14.115c-2.218-0.85-4.859-0.527-7.13 0.8 0.909-1.304 2.16-2.849 3.62-4.309s3.005-2.711 4.309-3.62c-1.327 2.271-1.65 4.912-0.8 7.13zM3.775 14.651c1.143-1.913 2.922-4.147 4.825-6.050s4.137-3.682 6.050-4.825l1.384 1.384c-2.033 1.131-4.466 3.156-6.093 4.782s-3.652 4.060-4.782 6.093zM5.952 16.828c2.476-2.239 5.878-2.892 8.421-1.571 0.568 0.295 1.179-0.316 0.884-0.884-0.233-0.449-0.404-0.925-0.516-1.418 1.279-0.084 2.997 0.122 4.469 0.937 1.112 0.615 2.393 1.050 3.655 1.050 1.689-0 2.153-0.77 2.17-0.781l1.012 1.012c-2.476 2.239-5.878 2.892-8.421 1.571-0.568-0.295-1.179 0.316-0.884 0.884 1.321 2.543 0.668 5.945-1.571 8.421zM17.884 17.886c2.307 0.884 4.955 0.472 7.129-0.799-0.909 1.304-2.16 2.848-3.619 4.308s-3.005 2.711-4.309 3.62c1.327-2.27 1.65-4.912 0.8-7.13zM23.398 23.399c-1.903 1.903-4.137 3.682-6.050 4.825l-1.385-1.385c2.033-1.13 4.466-3.155 6.093-4.782s3.651-4.060 4.782-6.093l1.385 1.385c-1.143 1.913-2.923 4.147-4.825 6.050zM9.679 16.138l-0.53 0.53c-0.183 0.183-0.183 0.48 0 0.663s0.48 0.183 0.663 0l0.53-0.53c0.183-0.183 0.183-0.48 0-0.663s-0.48-0.183-0.663-0zM15.199 21.658l-0.53 0.53c-0.183 0.183-0.183 0.48 0 0.663s0.48 0.183 0.663 0l0.53-0.53c0.183-0.183 0.183-0.48 0-0.663s-0.48-0.183-0.663 0zM12.951 20.004c-0.259 0.018-0.513-0.077-0.695-0.26s-0.278-0.436-0.26-0.696c0.018-0.258-0.177-0.482-0.436-0.5s-0.482 0.177-0.5 0.436c-0.036 0.529 0.158 1.048 0.532 1.423s0.893 0.569 1.423 0.532c0.258-0.018 0.453-0.241 0.436-0.5s-0.242-0.453-0.5-0.436z"></path>
</svg>
