<!-- Generated by IcoMoon.io -->
<svg version="1.1" xmlns="http://www.w3.org/2000/svg" width="32" height="32" viewBox="0 0 32 32">
<title>internet</title>
<path fill="#efedff" d="M25.024 22.223c3.54 0 6.471-2.829 6.507-6.368 0.044-4.345-4.080-7.359-8.072-6.3-0.466 0.124-0.945-0.13-1.121-0.578-0.991-2.532-3.455-4.326-6.339-4.326s-5.348 1.793-6.339 4.326c-0.176 0.449-0.655 0.702-1.121 0.578-3.988-1.058-8.113 1.949-8.072 6.295 0.034 3.542 2.965 6.373 6.507 6.373z"></path>
<path fill="#d4d4ff" d="M16 14.896c-4.884 0-9.14 2.827-11.171 6.966 0.674 0.234 1.397 0.361 2.147 0.361h18.048c0.75 0 1.473-0.128 2.147-0.361-2.029-4.135-6.281-6.966-11.171-6.966z"></path>
<path fill="#6ad7d4" d="M14.651 27.331l1.349-0.595 0.019-4.671-6.313-1.028-1.815 3.147 1.166 3.147z"></path>
<path fill="#de5c6e" d="M17.908 27.331l-1.889-5.265 6.275-1.028 1.815 3.147-1.166 3.147z"></path>
<path fill="#f5ea72" d="M9.745 21.076l5.843 5.843 1.454-0.628 5.252-5.252-6.294-2.273z"></path>
<path fill="#475a99" d="M17.908 27.331l1.128-1.128c0.527-0.527 0.527-1.381 0-1.908s-1.381-0.527-1.908 0l-2.083 2.083c-0.264 0.264-0.395 0.609-0.395 0.954z"></path>
<path fill="#a78cd6" d="M16 20.388c3.835 0 6.943 3.109 6.943 6.943 0 0.006-0 0.013-0 0.019l1.722-0.010c0.907-0.005 1.591-0.822 1.441-1.716-0.813-4.847-5.028-8.541-10.107-8.541s-9.294 3.694-10.107 8.541c-0.15 0.894 0.534 1.711 1.441 1.716l1.722 0.010c0-0.006-0-0.013-0-0.019 0-3.835 3.109-6.943 6.943-6.943z"></path>
<path fill="#eda1ab" d="M12.693 13.697c0 0.85-0.866 1.54-1.934 1.54s-1.934-0.689-1.934-1.54c0-0.85 0.866-1.54 1.934-1.54s1.934 0.689 1.934 1.54z"></path>
<path fill="#eda1ab" d="M23.174 13.697c0 0.85-0.866 1.54-1.934 1.54s-1.934-0.689-1.934-1.54c0-0.85 0.866-1.54 1.934-1.54s1.934 0.689 1.934 1.54z"></path>
<path fill="#565e75" d="M17.026 12.514c0 0.634-0.46 1.149-1.026 1.149s-1.026-0.514-1.026-1.149c0-0.634 0.46-1.149 1.026-1.149s1.026 0.514 1.026 1.149z"></path>
<path fill="#000" d="M20.448 11.089v0.75c0 0.259 0.21 0.469 0.469 0.469s0.469-0.21 0.469-0.469v-0.75c0-0.259-0.21-0.469-0.469-0.469s-0.469 0.21-0.469 0.469zM11.083 10.62c-0.259 0-0.469 0.21-0.469 0.469v0.75c0 0.259 0.21 0.469 0.469 0.469s0.469-0.21 0.469-0.469v-0.75c0-0.259-0.21-0.469-0.469-0.469zM32 15.859c0.024-2.326-1.057-4.419-2.966-5.743-0.213-0.147-0.505-0.095-0.652 0.118s-0.095 0.505 0.118 0.652c1.649 1.144 2.584 2.953 2.563 4.963-0.033 3.214-2.673 5.836-5.912 5.903-1.941-3.179-5.393-5.138-9.15-5.138-3.907 0-7.272 2.068-9.148 5.138-3.242-0.066-5.883-2.69-5.914-5.907-0.038-3.982 3.736-6.831 7.483-5.837 0.692 0.184 1.414-0.186 1.677-0.861 0.934-2.386 3.245-4.028 5.902-4.028 2.655 0 4.968 1.64 5.902 4.028 0.264 0.674 0.985 1.044 1.677 0.861 1.006-0.267 2.070-0.262 3.076 0.015 0.25 0.068 0.508-0.078 0.576-0.328s-0.078-0.508-0.328-0.576c-1.166-0.321-2.399-0.327-3.565-0.018-0.232 0.061-0.474-0.066-0.564-0.296-1.072-2.739-3.725-4.623-6.775-4.623-3.049 0-5.702 1.883-6.775 4.623-0.090 0.23-0.332 0.358-0.564 0.296-4.335-1.15-8.704 2.141-8.661 6.752 0.034 3.563 2.83 6.497 6.353 6.809-0.321 0.661-0.575 1.355-0.753 2.071-0.063 0.251 0.090 0.506 0.342 0.568s0.505-0.090 0.568-0.342c1.040-4.178 4.829-7.409 9.49-7.409 4.844 0 8.869 3.525 9.644 8.15 0.102 0.61-0.365 1.166-0.981 1.17l-1.264 0.007c-0.235-3.877-3.463-6.96-7.398-6.96s-7.164 3.083-7.399 6.96l-1.264-0.007c-0.262-0.002-0.509-0.103-0.695-0.287-0.184-0.182-0.481-0.18-0.663 0.005s-0.18 0.481 0.005 0.663c0.361 0.356 0.84 0.554 1.348 0.557 2.149 0.012 10.225 0.011 17.337 0 1.194-0.007 2.098-1.083 1.901-2.262-0.169-1.005-0.481-1.976-0.921-2.883 3.52-0.313 6.315-3.245 6.352-6.804zM14.238 26.881h-4.697c0.099-1.441 0.672-2.753 1.563-3.783l3.322 3.322c-0.084 0.144-0.147 0.299-0.188 0.461zM18.705 25.871l-1.010 1.010h-2.451c0.105-0.176 0.021-0.046 2.216-2.256 0.343-0.343 0.902-0.343 1.245 0s0.344 0.901-0 1.245zM16.797 23.963l-1.751 1.751-3.279-3.279c1.136-0.983 2.616-1.579 4.233-1.579s3.097 0.596 4.233 1.579l-1.239 1.239c-0.695-0.402-1.602-0.306-2.196 0.288zM19.021 26.881l0.347-0.347c0.6-0.6 0.689-1.506 0.288-2.197l1.239-1.239c0.891 1.030 1.464 2.342 1.563 3.783zM14.505 12.514c0 0.892 0.671 1.617 1.495 1.617s1.495-0.726 1.495-1.617-0.671-1.617-1.495-1.617c-0.824 0-1.495 0.726-1.495 1.617zM16.558 12.514c0 0.375-0.25 0.68-0.558 0.68s-0.558-0.305-0.558-0.68 0.25-0.68 0.558-0.68c0.308 0 0.558 0.305 0.558 0.68z"></path>
</svg>
