<!-- Generated by IcoMoon.io -->
<svg version="1.1" xmlns="http://www.w3.org/2000/svg" width="32" height="32" viewBox="0 0 32 32">
<title>inventory</title>
<path fill="#a78cd6" d="M28.034 11.59l-3.17-3.17 3.080-3.080c0.558-0.558 1.463-0.558 2.021 0l1.149 1.149c0.558 0.558 0.558 1.463 0 2.021z"></path>
<path fill="#8ee2e1" d="M27.084 12.603l-3.233-3.233-5.754 4.096c-0.575 0.409-0.929 1.061-0.959 1.766l-0.129 2.997c-0.029 0.684 0.533 1.246 1.217 1.217l2.997-0.129c0.705-0.030 1.357-0.384 1.766-0.959z"></path>
<path fill="#d4d4ff" d="M27.379 14.66c-0.619-1-1.793-2.205-2.618-3.029-0.515-0.516-1.885-1.885-2.967-2.556-0.754-0.466-0.986-1.455-0.52-2.209s1.455-0.986 2.209-0.52c1.263 0.782 2.573 2.041 3.617 3.085 0.999 0.999 2.242 2.303 3.007 3.54 0.466 0.753 0.234 1.742-0.52 2.209-0.756 0.468-1.744 0.231-2.209-0.52z"></path>
<path fill="#f5ea72" d="M21.005 10.752c2.829 1.984 3.884 8.702 3.884 11.819s-4.316 4.508-10.624 4.508-10.624-1.391-10.624-4.508 1.055-9.834 3.884-11.819z"></path>
<path fill="#ebca5f" d="M23.288 14.052c-0.578-1.424-1.33-2.631-2.283-3.299h-13.479c-0.953 0.669-1.705 1.875-2.283 3.299 0.529 0.495 1.171 0.935 1.913 1.301 1.847 0.912 4.239 1.374 7.109 1.374s5.262-0.462 7.109-1.374c0.742-0.366 1.384-0.805 1.913-1.301z"></path>
<path fill="#daa985" d="M15.829 13.588h-3.158v8.345c0 0.357 0.142 0.699 0.394 0.951l0.613 0.613c0.316 0.316 0.828 0.316 1.144 0l0.613-0.613c0.252-0.252 0.394-0.594 0.394-0.951v-8.345z"></path>
<path fill="#de5c6e" d="M15.948 20.696h-3.396c-0.531 0-0.961-0.43-0.961-0.961v-1.066c0-0.531 0.43-0.961 0.961-0.961h3.396c0.531 0 0.961 0.43 0.961 0.961v1.066c0 0.531-0.43 0.961-0.961 0.961z"></path>
<path fill="#d2896f" d="M12.671 16.676c0.514 0.034 1.045 0.051 1.594 0.051 0.538 0 1.060-0.016 1.564-0.049v-3.090h-3.158z"></path>
<path fill="#f5ea72" d="M14.265 14.852c8.942 0 10.481-4.896 7.332-6.659-2.357-1.319-4.956-1.54-7.332-1.54s-4.975 0.221-7.332 1.54c-3.149 1.762-1.61 6.659 7.332 6.659z"></path>
<path fill="#eda1ab" d="M11.124 11.853c0 0.808-0.822 1.463-1.837 1.463s-1.837-0.655-1.837-1.463c0-0.808 0.822-1.463 1.837-1.463s1.837 0.655 1.837 1.463z"></path>
<path fill="#eda1ab" d="M21.080 11.853c0 0.808-0.822 1.463-1.837 1.463s-1.837-0.655-1.837-1.463c0-0.808 0.822-1.463 1.837-1.463s1.837 0.655 1.837 1.463z"></path>
<path fill="#565e75" d="M15.746 10.73c0-0.915-0.663-1.001-1.481-1.001s-1.481 0.086-1.481 1.001 0.663 1.657 1.481 1.657 1.481-0.742 1.481-1.657z"></path>
<path fill="#a78cd6" d="M8.109 12.68v2.25c0 0.969-0.786 1.755-1.755 1.755h-2.25c-0.482 0-0.944-0.191-1.284-0.532l-1.82-1.82c-0.341-0.341-0.532-0.803-0.532-1.284v-2.25c0-0.969 0.786-1.755 1.755-1.755h2.249c0.482 0 0.944 0.191 1.284 0.532l1.82 1.82c0.341 0.341 0.532 0.803 0.532 1.284z"></path>
<path fill="#daa985" d="M3.861 19.609c-0.15 1.13-0.22 2.164-0.22 2.962 0 2.248 2.246 3.598 5.864 4.176-0.056-3.724-3.293-6.391-5.644-7.138z"></path>
<path fill="#daa985" d="M24.639 19.609c0.15 1.13 0.22 2.164 0.22 2.962 0 2.248-2.245 3.598-5.864 4.176 0.056-3.724 3.293-6.391 5.644-7.138z"></path>
<path fill="#000" d="M14.265 12.855c1.075 0 1.95-0.954 1.95-2.126 0-0.754-0.376-1.102-0.691-1.262-0.341-0.173-0.75-0.208-1.259-0.208s-0.919 0.035-1.259 0.208c-0.315 0.16-0.69 0.508-0.69 1.262-0 1.172 0.875 2.126 1.95 2.126zM14.265 10.197c0.971 0 1.012 0.163 1.012 0.533 0 0.655-0.454 1.188-1.012 1.188s-1.012-0.533-1.012-1.188c-0-0.369 0.041-0.533 1.012-0.533zM18.936 10.576c0.259 0 0.469-0.21 0.469-0.469v-0.75c0-0.259-0.21-0.469-0.469-0.469s-0.469 0.21-0.469 0.469v0.75c0 0.259 0.21 0.469 0.469 0.469zM31.445 6.158l-1.149-1.149c-0.578-0.578-1.458-0.721-2.189-0.357-0.232 0.116-0.326 0.397-0.21 0.629s0.397 0.326 0.629 0.21c0.37-0.184 0.815-0.112 1.107 0.181l1.149 1.149c0.374 0.374 0.374 0.983 0 1.358l-2.157 2.157c-0.716-0.779-1.772-1.829-2.508-2.506l0.924-0.924c0.183-0.183 0.183-0.48 0-0.663s-0.48-0.183-0.663 0l-0.964 0.964c-0.556-0.475-1.125-0.911-1.685-1.258-1.185-0.734-2.759-0.108-3.101 1.26-2.164-0.888-4.403-1.023-6.363-1.023-2.325 0-5.042 0.19-7.561 1.6-0.493 0.276-0.897 0.631-1.191 1.041-0.318-0.163-0.673-0.25-1.041-0.25h-2.249c-1.226-0-2.224 0.997-2.224 2.224v2.25c0 0.61 0.238 1.184 0.669 1.616l1.82 1.82c0.364 0.364 0.83 0.59 1.333 0.651-0.475 2.142-0.649 4.182-0.649 5.436 0 2.131 1.764 3.275 3.243 3.859 1.879 0.742 4.519 1.118 7.849 1.118s5.971-0.376 7.85-1.118c2.68-1.058 3.243-2.683 3.243-3.859 0-1.391-0.213-3.565-0.718-5.727l1.862-2.616c0.182 0.234 0.345 0.462 0.479 0.678 0.602 0.974 1.879 1.276 2.854 0.672s1.275-1.88 0.672-2.854c-0.348-0.563-0.788-1.135-1.258-1.685l2.197-2.197c0.74-0.74 0.74-1.944-0-2.684zM7.163 8.602c2.331-1.305 4.899-1.481 7.103-1.481s4.772 0.176 7.103 1.481c2.787 1.56 1.138 5.781-7.103 5.781-2.265 0-4.222-0.33-5.687-0.957v-0.746c0-0.61-0.238-1.184-0.669-1.616l-1.658-1.658c0.215-0.313 0.525-0.587 0.912-0.803zM12.552 20.227c-0.271 0-0.492-0.221-0.492-0.492v-1.066c0-0.271 0.221-0.492 0.492-0.492h3.396c0.271 0 0.492 0.221 0.492 0.492v1.066c0 0.271-0.221 0.492-0.492 0.492zM15.36 21.165v0.769c0 0.234-0.091 0.454-0.257 0.619l-0.613 0.613c-0.132 0.133-0.348 0.133-0.481 0l-0.613-0.613c-0.165-0.165-0.256-0.385-0.256-0.619v-0.769zM13.14 17.239v-1.946c0.748 0.036 1.493 0.036 2.22 0.003v1.944zM3.152 15.821l-1.82-1.82c-0.254-0.255-0.395-0.593-0.395-0.953v-2.25c0-0.709 0.577-1.286 1.286-1.286h2.25c0.36 0 0.698 0.14 0.953 0.395l1.82 1.82c0.255 0.255 0.395 0.593 0.395 0.953v2.25c0 0.709-0.577 1.286-1.286 1.286h-2.25c-0.36 0-0.698-0.14-0.953-0.395zM9.956 26.339c-0.052-0.71-0.213-1.41-0.481-2.087-0.095-0.241-0.368-0.358-0.609-0.263s-0.358 0.368-0.263 0.608c0.204 0.515 0.337 1.046 0.396 1.583-2.206-0.423-4.889-1.373-4.889-3.609 0-0.607 0.043-1.406 0.144-2.314 1.016 0.434 2.285 1.265 3.285 2.522 0.161 0.203 0.456 0.236 0.659 0.075s0.236-0.456 0.075-0.659c-1.027-1.292-2.46-2.355-3.894-2.902 0.1-0.684 0.232-1.407 0.401-2.141h1.575c1.226 0 2.224-0.998 2.224-2.224v-0.492c1.041 0.397 2.254 0.661 3.624 0.79v2.056c-0.62 0.156-1.080 0.719-1.080 1.386v1.066c0 0.668 0.46 1.23 1.080 1.386v0.812c0 0.484 0.189 0.94 0.531 1.282l0.613 0.613c0.498 0.498 1.308 0.498 1.807 0l0.613-0.613c0.343-0.342 0.531-0.798 0.531-1.282v-0.812c0.62-0.156 1.080-0.719 1.080-1.386v-1.066c0-0.668-0.46-1.23-1.080-1.386v-2.052c2.946-0.271 4.879-1.133 6.005-2.177 0.97 1.789 1.548 4.199 1.847 6.23-1.257 0.476-2.558 1.377-3.542 2.463-0.876 0.967-1.915 2.53-2.064 4.596-2.534 0.355-6 0.361-8.588-0.004zM19.5 26.186c0.187-1.692 1.062-2.99 1.804-3.81 0.834-0.921 1.915-1.691 2.972-2.133 0.094 0.833 0.145 1.633 0.145 2.327-0 2.251-2.718 3.198-4.921 3.615zM24.332 15.661c-0.352-1.22-0.805-2.388-1.374-3.356 0.264-0.383 0.454-0.799 0.545-1.246 0.643 0.602 1.702 1.663 2.378 2.426zM29.709 13.217c0.33 0.534 0.166 1.233-0.368 1.564-0.537 0.332-1.235 0.162-1.564-0.368-0.616-0.995-1.703-2.133-2.684-3.114-0.307-0.308-0.928-0.93-1.624-1.534-0.212-0.794-0.78-1.497-1.643-1.98-0.106-0.059-0.212-0.116-0.319-0.171 0.069-0.833 1.004-1.318 1.729-0.869 1.191 0.737 2.454 1.939 3.533 3.018 0.979 0.979 2.199 2.257 2.94 3.455zM3.258 10.981c-0.259 0-0.469 0.21-0.469 0.469v0.744c0 0.259 0.21 0.469 0.469 0.469s0.469-0.21 0.469-0.469v-0.744c0-0.259-0.21-0.469-0.469-0.469zM9.595 10.576c0.259 0 0.469-0.21 0.469-0.469v-0.75c0-0.259-0.21-0.469-0.469-0.469s-0.469 0.21-0.469 0.469v0.75c0 0.259 0.21 0.469 0.469 0.469z"></path>
</svg>
