<!-- Generated by IcoMoon.io -->
<svg version="1.1" xmlns="http://www.w3.org/2000/svg" width="32" height="32" viewBox="0 0 32 32">
<title>key</title>
<path fill="#ebca5f" d="M15.757 24.743l-1.316-1.315c-0.479-0.48-0.479-1.257 0-1.736l2.917-2.917 3.052 3.052-2.917 2.917c-0.479 0.479-1.257 0.479-1.736-0z"></path>
<path fill="#ebca5f" d="M19.86 31.171l-1.315-1.315c-0.48-0.48-0.48-1.257 0-1.736l4.278-4.278 3.052 3.052-4.278 4.278c-0.48 0.479-1.257 0.479-1.736-0z"></path>
<path fill="#f5ea72" d="M24.98 28.061l-13.959-13.959 4.417-4.417 13.959 13.959c1.063 1.063 1.063 2.786 0 3.849l-0.569 0.569c-1.063 1.063-2.786 1.063-3.849 0z"></path>
<path fill="#ebca5f" d="M15.438 9.684l-4.417 4.417 3.684 3.684c1.035-0.361 1.981-0.96 2.772-1.77 0.748-0.767 1.304-1.668 1.645-2.647z"></path>
<path fill="#a78cd6" d="M1.805 10.855l0.001-1.891c0.001-1.38 0.538-2.678 1.514-3.654l3.326-3.326c0.976-0.976 2.274-1.514 3.654-1.514l1.891-0.001c2.557-0.001 4.622 2.038 4.684 4.568l0.143 5.849c0.065 2.672-2.123 4.861-4.796 4.796l-5.849-0.143c-2.525-0.062-4.569-2.123-4.568-4.684z"></path>
<path fill="#807bcf" d="M12.222 15.682c0.951 0.023 1.839-0.24 2.588-0.707-7.133-1.361-8.25-10.655-6.686-14.025-0.542 0.252-1.042 0.6-1.477 1.035l-3.326 3.326c-0.976 0.976-1.514 2.274-1.514 3.654l-0.001 1.891c-0.001 2.561 2.043 4.622 4.568 4.684z"></path>
<path fill="#8ee2e1" d="M13.743 5.114l0.143 5.849c0.022 0.885-0.702 1.609-1.587 1.587l-5.849-0.143c-0.841-0.021-1.512-0.709-1.512-1.55l0.001-1.891c0-0.54 0.215-1.058 0.597-1.44l3.326-3.326c0.382-0.382 0.9-0.596 1.44-0.597l1.891-0.001c0.841-0 1.529 0.671 1.55 1.512z"></path>
<path fill="#6ad7d4" d="M5.374 11.933c0.273 0.283 0.653 0.463 1.077 0.473l5.849 0.143c0.885 0.022 1.609-0.702 1.587-1.587l-0.143-5.849c-0.010-0.423-0.19-0.803-0.473-1.077z"></path>
<path fill="#8ee2e1" d="M25.056 9.358l-0.447 0.858c-0.382 0.732-1.429 0.732-1.81 0l-0.447-0.858c-0.097-0.185-0.248-0.337-0.433-0.433l-0.858-0.447c-0.732-0.382-0.732-1.429 0-1.81l0.858-0.447c0.185-0.097 0.337-0.248 0.433-0.433l0.447-0.858c0.382-0.732 1.429-0.732 1.81 0l0.447 0.858c0.097 0.185 0.248 0.337 0.433 0.433l0.858 0.447c0.732 0.382 0.732 1.429 0 1.81l-0.858 0.447c-0.185 0.097-0.337 0.248-0.433 0.433z"></path>
<path fill="#a78cd6" d="M9.228 25.082l-0.404 0.775c-0.345 0.661-1.29 0.661-1.635 0l-0.404-0.775c-0.087-0.167-0.224-0.304-0.391-0.391l-0.775-0.404c-0.661-0.345-0.661-1.29 0-1.635l0.775-0.404c0.167-0.087 0.304-0.224 0.391-0.391l0.404-0.775c0.345-0.661 1.29-0.661 1.635 0l0.404 0.775c0.087 0.167 0.224 0.304 0.391 0.391l0.775 0.404c0.661 0.345 0.661 1.29 0 1.635l-0.775 0.404c-0.167 0.087-0.304 0.224-0.391 0.391z"></path>
<path fill="#000" d="M4.471 8.965l-0.001 1.891c-0.001 1.105 0.864 1.992 1.969 2.019 6.231 0.152 5.85 0.144 5.9 0.144 1.129 0 2.044-0.929 2.016-2.068l-0.143-5.849c-0.027-1.104-0.913-1.969-2.018-1.969-0.010 0-1.886 0.001-1.892 0.001-0.669 0-1.298 0.261-1.771 0.734l-3.326 3.326c-0.473 0.473-0.734 1.102-0.734 1.771zM13.418 10.974c0.015 0.618-0.489 1.123-1.107 1.107-6.175-0.174-5.887-0.093-6.208-0.214l7.101-7.101c0.125 0.332 0.042 0.128 0.214 6.208zM5.408 8.965c0-0.419 0.163-0.812 0.46-1.108l3.326-3.326c0.296-0.296 0.69-0.459 1.108-0.46 1.787 0.014 1.935-0.040 2.221 0.050l-7.065 7.065c-0.088-0.28-0.034-0.328-0.050-2.221zM20.84 19.503c-0.183 0.183-0.183 0.48 0 0.663l4.655 4.655c0.183 0.183 0.48 0.183 0.663 0s0.183-0.48 0-0.663l-4.655-4.655c-0.183-0.183-0.48-0.183-0.663 0zM20.842 8.893l0.858 0.447c0.101 0.053 0.182 0.134 0.234 0.234l0.447 0.858c0.438 0.84 1.315 0.799 1.321 0.801 0.557 0 1.063-0.307 1.321-0.801l0.447-0.858c0.053-0.101 0.134-0.182 0.234-0.234l0.858-0.447c1.067-0.556 1.067-2.085 0-2.642l-0.858-0.447c-0.101-0.053-0.182-0.134-0.234-0.234l-0.447-0.858c-0.556-1.067-2.085-1.067-2.642 0l-0.447 0.858c-0.053 0.101-0.134 0.182-0.234 0.234l-0.858 0.447c-1.067 0.556-1.067 2.085-0 2.642zM21.276 7.082l0.858-0.447c0.272-0.142 0.49-0.36 0.632-0.632l0.447-0.858c0.207-0.397 0.773-0.396 0.979 0l0.447 0.858c0.142 0.272 0.36 0.49 0.632 0.632l0.858 0.447c0.396 0.207 0.396 0.772-0 0.979l-0.858 0.447c-0.272 0.142-0.49 0.36-0.632 0.632-0 0-0 0-0 0l-0.447 0.858c-0.207 0.397-0.772 0.396-0.979 0l-0.447-0.858c-0.142-0.272-0.36-0.49-0.632-0.632l-0.858-0.447c-0.396-0.207-0.396-0.772-0-0.979zM29.729 23.312l-12.242-12.242c0.003-0.267 0.008 0.23-0.143-6.044-0.068-2.789-2.341-5.026-5.152-5.026l-1.891 0.001c-0.259 0-0.469 0.21-0.469 0.469s0.21 0.469 0.469 0.469c0.041 0 1.826-0.001 1.893-0.001 2.297 0 4.157 1.829 4.213 4.111l0.143 5.849c0.059 2.409-1.914 4.378-4.316 4.316l-5.849-0.143c-2.276-0.055-4.112-1.911-4.111-4.215l0.001-1.891c0.001-1.255 0.49-2.435 1.377-3.322l3.326-3.326c0.394-0.394 0.846-0.711 1.343-0.942 0.235-0.109 0.337-0.388 0.227-0.623s-0.388-0.337-0.623-0.227c-0.597 0.278-1.139 0.658-1.611 1.129l-3.326 3.326c-1.065 1.064-1.651 2.48-1.652 3.985l-0.001 1.891c-0.001 2.817 2.243 5.085 5.025 5.152 1.723 0.041 5.809 0.146 6.045 0.143l3.457 3.457-1.753 1.753c-0.663 0.663-0.663 1.736 0 2.399l1.315 1.315c0.663 0.663 1.736 0.663 2.399 0l1.753-1.753 1.551 1.551-2.916 2.916c-0.661 0.662-0.661 1.738 0 2.399l1.315 1.315c0.663 0.663 1.736 0.663 2.399 0l2.925-2.925c0.7 0.588 1.637 0.858 2.564 0.707 0.256-0.041 0.429-0.282 0.388-0.538s-0.282-0.43-0.538-0.388c-0.714 0.116-1.445-0.12-1.955-0.631l-11.728-11.728c1.823-0.451 3.296-1.903 3.754-3.755l11.729 11.729c0.426 0.425 0.66 0.991 0.66 1.593 0 1.129-0.77 1.676-0.839 1.772-0.183 0.183-0.183 0.48 0 0.663s0.48 0.183 0.663-0c0.063-0.089 1.113-0.883 1.113-2.435-0-0.852-0.332-1.653-0.934-2.256zM24.18 27.924l-2.916 2.916c-0.297 0.297-0.777 0.297-1.073 0l-1.315-1.315c-0.296-0.296-0.296-0.777 0-1.073l2.916-2.916zM18.915 22.659l-1.753 1.753c-0.297 0.297-0.777 0.297-1.073 0l-1.315-1.315c-0.297-0.297-0.297-0.777 0-1.073l1.753-1.753zM10.611 22.237l-0.775-0.404c-0.083-0.043-0.149-0.11-0.192-0.192l-0.404-0.775c-0.24-0.461-0.713-0.748-1.233-0.748 0 0 0 0-0 0-0.52 0-0.993 0.287-1.233 0.748l-0.404 0.775c-0.043 0.083-0.11 0.149-0.192 0.192l-0.775 0.404c-0.996 0.519-0.996 1.946 0 2.466l0.775 0.404c0.083 0.043 0.149 0.11 0.192 0.192l0.404 0.775c0.519 0.996 1.947 0.996 2.466 0l0.404-0.775c0.043-0.083 0.11-0.149 0.192-0.192l0.775-0.404c0.996-0.519 0.996-1.947 0-2.466zM10.177 23.871l-0.775 0.404c-0.254 0.132-0.458 0.336-0.59 0.59l-0.404 0.775c-0.169 0.325-0.634 0.325-0.803 0l-0.404-0.775c-0.132-0.254-0.337-0.458-0.59-0.59l-0.775-0.404c-0.325-0.169-0.325-0.634 0-0.803l0.775-0.404c0.254-0.132 0.458-0.336 0.59-0.59l0.404-0.775c0.167-0.32 0.632-0.329 0.803 0l0.404 0.775c0.132 0.254 0.336 0.458 0.59 0.59l0.775 0.404c0.22 0.115 0.243 0.319 0.243 0.402s-0.024 0.287-0.243 0.402z"></path>
</svg>
