<!-- Generated by IcoMoon.io -->
<svg version="1.1" xmlns="http://www.w3.org/2000/svg" width="32" height="32" viewBox="0 0 32 32">
<title>lose</title>
<path fill="#6ad7d4" d="M7.717 28.905c-1.636 0-2.961-1.326-2.961-2.961v-6.474h5.923v6.474c0 1.636-1.326 2.961-2.961 2.961z"></path>
<path fill="#6ad7d4" d="M18.745 31.146c-1.772 0-3.208-1.436-3.208-3.208v-8.468h6.417v8.468c0 1.772-1.436 3.208-3.208 3.208z"></path>
<path fill="#efedff" d="M26.002 9.039c0 4.521-4.478 8.185-10.002 8.185s-10.002-3.665-10.002-8.185c0-4.521 4.478-8.185 10.002-8.185s10.002 3.665 10.002 8.185z"></path>
<path fill="#d4d4ff" d="M13.106 1.202c-4.112 1.016-7.107 4.14-7.107 7.837 0 4.393 4.229 7.978 9.538 8.176v-6.117c-4.836-0.242-4.998-7.57-2.431-9.896z"></path>
<path fill="#eda1ab" d="M12.863 6.841c0 0.807-0.821 1.461-1.835 1.461s-1.835-0.654-1.835-1.461c0-0.807 0.821-1.461 1.835-1.461s1.835 0.654 1.835 1.461z"></path>
<path fill="#eda1ab" d="M22.807 6.841c0 0.807-0.821 1.461-1.835 1.461s-1.835-0.654-1.835-1.461c0-0.807 0.821-1.461 1.835-1.461s1.835 0.654 1.835 1.461z"></path>
<path fill="#5abfd6" d="M4.755 25.341c0.831 0.13 1.709 0.038 2.543-0.317 1.090-0.464 2.174-0.859 3.38-1.154v-4.399h-5.923z"></path>
<path fill="#5abfd6" d="M15.536 23.292c0.153-0.002 0.306-0.004 0.464-0.004 1.087 0 2.089 0.056 3.040 0.172v2.251c0 1.747 0.881 3.293 2.222 4.216 0.433-0.547 0.692-1.237 0.692-1.988v-8.468h-6.417z"></path>
<path fill="#8ee2e1" d="M29.039 12.101c-3.43-1.365-7.404-2.418-13.039-2.418s-9.609 1.053-13.039 2.418c-2.114 0.841-3.082 3.29-2.115 5.349l2.101 4.473c0.638 1.358 2.236 1.963 3.616 1.375 2.562-1.091 5.262-1.886 9.437-1.886 1.559 0 2.911 0.111 4.128 0.307 0.453 0.073 0.787 0.462 0.787 0.921v3.070c0 1.79 1.451 3.241 3.241 3.241s3.241-1.451 3.241-3.241v-1.697c0-0.356 0.199-0.677 0.509-0.852 0.486-0.274 0.893-0.696 1.148-1.238l2.101-4.473c0.967-2.059-0.001-4.508-2.115-5.349z"></path>
<path fill="#000" d="M8.6 18.781c-0.427 0.158-1.035 0.382-1.437 0.528l-1.796-4.934c-0.089-0.243-0.357-0.369-0.601-0.28s-0.369 0.358-0.28 0.601l1.955 5.37c0.078 0.214 0.298 0.342 0.524 0.301 0.049-0.009 0.104-0.019 1.961-0.707 0.243-0.090 0.367-0.36 0.277-0.602s-0.36-0.367-0.602-0.277zM16 5.822c-0.79 0-1.534 0.418-2.040 1.146-0.148 0.213-0.095 0.505 0.117 0.652s0.505 0.095 0.652-0.117c0.329-0.473 0.792-0.744 1.271-0.744s0.942 0.271 1.271 0.744c0.147 0.212 0.439 0.266 0.652 0.117s0.265-0.44 0.117-0.652c-0.507-0.728-1.25-1.146-2.040-1.146zM12.367 11.985c-1.835 0-3.328 1.493-3.328 3.329s1.493 3.329 3.328 3.329c1.835 0 3.329-1.493 3.329-3.329s-1.493-3.329-3.329-3.329zM12.367 17.704c-1.318 0-2.391-1.073-2.391-2.391s1.073-2.391 2.391-2.391c1.318 0 2.391 1.073 2.391 2.391s-1.073 2.391-2.391 2.391zM12.673 4.752c-0.18 0.206-0.439 0.324-0.711 0.324s-0.532-0.118-0.711-0.324c-0.17-0.195-0.466-0.215-0.661-0.045s-0.216 0.466-0.045 0.661c0.358 0.41 0.875 0.646 1.418 0.646s1.060-0.235 1.418-0.646c0.17-0.195 0.15-0.491-0.045-0.661s-0.491-0.15-0.661 0.045zM27.235 14.178l-2.244-0.817c-0.243-0.088-0.512 0.037-0.601 0.28l-1.938 5.326c-0.088 0.243 0.037 0.512 0.28 0.601l2.244 0.817c0.246 0.089 0.513-0.039 0.601-0.28 0.089-0.243-0.037-0.512-0.28-0.601l-1.803-0.656 0.649-1.782 1.638 0.596c0.246 0.089 0.513-0.039 0.601-0.28 0.089-0.243-0.037-0.512-0.28-0.601l-1.638-0.596 0.649-1.782 1.803 0.656c0.243 0.088 0.512-0.037 0.601-0.28s-0.037-0.512-0.28-0.601zM18.978 12.957c0.961-0.2 1.743 0.55 1.759 0.565 0.183 0.182 0.479 0.182 0.661-0.001s0.183-0.48 0.001-0.663c-0.046-0.046-1.143-1.125-2.612-0.819-1.523 0.317-1.913 2.079-0.841 2.92 0.146 0.114 1.362 0.718 1.688 0.872 0.629 0.297 0.925 0.708 0.812 1.128-0.11 0.406-0.606 0.803-1.311 0.742-0.634-0.055-1.225-0.368-1.579-0.835-0.156-0.206-0.45-0.247-0.657-0.090s-0.247 0.45-0.090 0.657c0.583 0.768 1.573 1.211 2.457 1.211 0.981-0 1.856-0.592 2.085-1.44 0.283-1.046-0.495-1.833-1.317-2.22-0.716-0.338-1.376-0.696-1.535-0.783-0.405-0.35-0.258-1.089 0.479-1.243zM20.751 4.752c-0.18 0.206-0.439 0.324-0.711 0.324s-0.532-0.118-0.712-0.324c-0.17-0.195-0.466-0.215-0.661-0.045s-0.215 0.466-0.045 0.661c0.358 0.41 0.875 0.646 1.418 0.646s1.061-0.235 1.418-0.646c0.17-0.195 0.15-0.491-0.045-0.661s-0.491-0.15-0.661 0.045zM29.213 11.665c-0.856-0.341-1.823-0.696-2.922-1.028 0.354-1.567 0.193-3.232-0.555-4.792-0.112-0.233-0.392-0.332-0.625-0.22s-0.332 0.392-0.22 0.625c0.639 1.332 0.794 2.765 0.498 4.128-5.75-1.549-12.94-1.572-18.775-0-1.045-4.8 3.565-9.057 9.387-9.057 3.025 0 5.902 1.183 7.695 3.165 0.174 0.192 0.47 0.207 0.662 0.033s0.207-0.47 0.033-0.662c-1.877-2.074-4.907-3.473-8.39-3.473-2.779 0-5.396 0.889-7.369 2.503-2.597 2.125-3.532 5.045-2.921 7.749-1.099 0.332-2.066 0.687-2.922 1.028-2.363 0.941-3.451 3.673-2.366 5.984l2.101 4.473c0.37 0.788 1.013 1.359 1.764 1.651v2.17c0 1.891 1.539 3.43 3.43 3.43 0.59 0 1.173-0.153 1.684-0.442 0.225-0.127 0.305-0.413 0.178-0.639s-0.413-0.305-0.639-0.178c-0.371 0.21-0.794 0.32-1.224 0.32-1.374 0-2.493-1.118-2.493-2.493v-1.959c0.504 0.037 1.024-0.043 1.523-0.255 1.027-0.437 2.144-0.86 3.463-1.19v3.404c0 0.248-0.036 0.493-0.108 0.728-0.075 0.248 0.064 0.51 0.312 0.585s0.51-0.065 0.585-0.312c0.099-0.324 0.149-0.661 0.149-1.002v-3.615c1.139-0.228 2.427-0.385 3.921-0.432v6.041c0 2.028 1.65 3.677 3.677 3.677 1.691 0 3.118-1.135 3.545-2.7 0.549 0.321 1.186 0.505 1.866 0.505 2.046 0 3.71-1.664 3.71-3.71v-1.697c0-0.18 0.104-0.35 0.271-0.444 0.589-0.333 1.053-0.833 1.341-1.447l2.101-4.473c1.081-2.302 0.006-5.040-2.366-5.984zM18.745 30.678c-1.511 0-2.74-1.229-2.74-2.74v-6.056c1.467 0 2.791 0.099 4.048 0.301 0.227 0.037 0.392 0.229 0.392 0.458v3.070c0 0.987 0.388 1.884 1.019 2.55-0.16 1.371-1.318 2.417-2.72 2.417zM30.73 17.251l-2.101 4.473c-0.205 0.437-0.535 0.793-0.954 1.029-0.461 0.26-0.747 0.743-0.747 1.26v1.697c0 1.529-1.244 2.772-2.772 2.772s-2.772-1.244-2.772-2.772v-3.070c0-0.692-0.497-1.274-1.181-1.384-1.308-0.21-2.683-0.313-4.202-0.313-3.735 0-6.502 0.595-9.621 1.923-1.155 0.492-2.476-0.011-3.008-1.143l-2.101-4.473c-0.852-1.814-0.005-3.971 1.864-4.715 2.79-1.111 6.774-2.385 12.866-2.385 3.2 0 7.555 0.271 12.866 2.385v-0c1.862 0.741 2.719 2.894 1.864 4.715z"></path>
</svg>
