<!-- Generated by IcoMoon.io -->
<svg version="1.1" xmlns="http://www.w3.org/2000/svg" width="32" height="32" viewBox="0 0 32 32">
<title>map</title>
<path fill="#8ee2e1" d="M23.224 5.606c4.502 4.502 4.502 11.802-0 16.305s-11.802 4.503-16.305 0c-4.502-4.502-4.502-11.802 0-16.305s11.802-4.503 16.305-0z"></path>
<path fill="#6ad7d4" d="M15.074 25.289c5.475 0 10.059-3.816 11.237-8.934h-1.954c-0.694 0-1.377 0.12-2.029 0.358l-5.092 1.853c-0.019 0.007-0.038 0.010-0.058 0.010s-0.039-0.003-0.058-0.010l-4.187-1.524c-2.177-0.793-4.461 0.831-4.461 3.124v3.046c1.87 1.308 4.146 2.077 6.602 2.077z"></path>
<path fill="#daa985" d="M14.42 25.020c3.103-3.051 0.625-9.487-1.953-9.74-2.231-0.219-0.914-1.883-2.356-4.024s-2.508-2.107-6.179-0.577c-1.291 2.896-0.044 8.011 1.797 10.138s4.349 4.070 8.691 4.203z"></path>
<path fill="#d2896f" d="M8.472 20.167v3.102c1.515 0.983 3.42 1.675 5.947 1.752 1.891-1.859 1.709-4.975 0.695-7.183l-2.182-0.794c-2.177-0.793-4.461 0.831-4.461 3.124z"></path>
<path fill="#daa985" d="M21.797 4.795c-2.797-1.158-4.938 3.802-7.117 3.758s-3.324-3.574-3.324-5.497c0.859-0.528 3.313-1.96 6.157-1.182s4.042 2.084 4.284 2.921z"></path>
<path fill="#efedff" d="M20.717 16.301h-1.754c-0.452 0-0.799-0.4-0.735-0.848l0.53-3.697h2.163l0.53 3.697c0.064 0.447-0.283 0.848-0.735 0.848z"></path>
<path fill="#fff" d="M21.318 9.747h-2.955c-0.631 0-1.041 0.664-0.759 1.228l0.3 0.601c0.097 0.194 0.295 0.316 0.511 0.316h2.851c0.216 0 0.414-0.122 0.511-0.316l0.3-0.601c0.282-0.564-0.128-1.228-0.759-1.228z"></path>
<path fill="#f5ea72" d="M15.074 0.469c-7.34 0-13.29 5.95-13.29 13.29s5.95 13.29 13.29 13.29 13.29-5.95 13.29-13.29-5.95-13.29-13.29-13.29zM15.074 24.461c-5.911 0-10.702-4.792-10.702-10.702s4.792-10.702 10.702-10.702 10.702 4.792 10.702 10.702-4.792 10.702-10.702 10.702z"></path>
<path fill="#ebca5f" d="M28.109 16.356h-2.651c-1.161 4.656-5.369 8.105-10.384 8.105-2.491 0-4.783-0.851-6.602-2.278v3.112c1.945 1.115 4.199 1.753 6.602 1.753 6.451 0 11.827-4.596 13.035-10.692z"></path>
<path fill="#d4d4ff" d="M23.076 18.769l-5.092 1.853c-0.521 0.189-1.091 0.189-1.612 0l-4.187-1.524c-0.741-0.27-1.525 0.279-1.525 1.068v8.348c0 0.478 0.299 0.905 0.748 1.068l4.965 1.807c0.521 0.189 1.091 0.189 1.612 0l5.092-1.853c0.411-0.149 0.844-0.226 1.281-0.226h4.722c0.628 0 1.137-0.509 1.137-1.137v-8.494c0-0.628-0.509-1.137-1.137-1.137h-4.722c-0.437-0-0.87 0.076-1.281 0.226z"></path>
<path fill="#efedff" d="M17.984 31.389l5.092-1.853c0.202-0.074 0.41-0.129 0.621-0.167v-10.767c-0.211 0.038-0.419 0.093-0.621 0.167l-5.092 1.853c-0.26 0.095-0.533 0.142-0.806 0.142v10.767c0.273 0 0.546-0.047 0.806-0.142z"></path>
<path fill="#000" d="M29.079 18.075h-0.939c0.459-1.389 0.693-2.837 0.693-4.316 0-7.604-6.153-13.758-13.758-13.758-2.728 0-5.364 0.797-7.624 2.304-0.215 0.144-0.274 0.435-0.13 0.65s0.435 0.274 0.65 0.13c2.105-1.404 4.562-2.146 7.104-2.146 7.069 0 12.821 5.751 12.821 12.821 0 1.483-0.251 2.933-0.746 4.316h-1.771c0.575-1.365 0.866-2.813 0.866-4.316 0-6.16-5.011-11.171-11.171-11.171s-11.171 5.011-11.171 11.171c0 4.275 2.458 8.186 6.288 10.050v1.807c-4.774-1.966-7.938-6.649-7.938-11.857 0-3.587 1.478-6.927 4.029-9.332 0.188-0.178 0.197-0.474 0.020-0.663s-0.474-0.197-0.663-0.020c-2.74 2.582-4.324 6.169-4.324 10.014 0 5.717 3.553 10.845 8.875 12.865v1.891c0 0.672 0.425 1.279 1.056 1.509l4.965 1.807c0.623 0.227 1.309 0.227 1.933 0l5.092-1.853c0.36-0.131 0.737-0.198 1.121-0.198h2.017c0.259 0 0.469-0.21 0.469-0.469s-0.21-0.469-0.469-0.469c-2.121 0.002-2.032-0.003-2.208 0.004v-9.828c0.206-0.012-0.056-0.004 4.913-0.006 0.368 0 0.668 0.3 0.668 0.668v8.494c0 0.368-0.3 0.668-0.668 0.668h-0.474c-0.259 0-0.469 0.21-0.469 0.469s0.21 0.469 0.469 0.469h0.474c0.885 0 1.605-0.72 1.605-1.605v-8.494c-0-0.885-0.72-1.605-1.605-1.605zM15.074 3.525c1.584 0 3.085 0.362 4.425 1.007-1.86 0.958-3.486 3.578-4.81 3.553-1.579-0.032-2.527-2.468-2.78-4.058 0.997-0.325 2.061-0.502 3.165-0.502zM10.191 20.167v2.584c-3.272-1.78-5.351-5.231-5.351-8.992 0-1.092 0.173-2.145 0.491-3.133 2.642-0.989 3.33-0.681 4.39 0.892 0.541 0.804 0.651 1.527 0.747 2.165 0.141 0.934 0.287 1.9 1.952 2.064 1.15 0.113 2.385 1.913 2.815 3.963l-2.89-1.052c-1.046-0.381-2.154 0.395-2.154 1.509zM16.71 31.003c-0.177-0.045 0.080 0.036-5.142-1.861-0.263-0.096-0.439-0.348-0.439-0.628v-8.348c0-0.465 0.461-0.786 0.896-0.628 4.361 1.571 4.234 1.579 4.685 1.655zM23.228 28.996c-0.105 0.029-0.209 0.062-0.312 0.099-5.363 1.948-5.093 1.863-5.269 1.908v-9.81c0.479-0.080 0.485-0.142 5.581-1.981zM24.355 18.075c-0.492 0-0.977 0.086-1.439 0.254l-5.092 1.853c-0.812 0.296-1.43-0.071-1.572-0.102-0.171-1.21-0.611-2.43-1.229-3.387-0.725-1.124-1.617-1.791-2.511-1.879-0.939-0.092-0.98-0.366-1.117-1.271-0.1-0.662-0.237-1.569-0.896-2.549-1.213-1.801-2.301-2.301-4.717-1.521 1.056-2.28 2.926-4.108 5.235-5.109 0.375 2.063 1.589 4.658 3.692 4.658 2.098 0 3.839-3.469 5.86-3.893 4.403 2.814 5.916 8.381 3.785 12.945zM21.318 9.278h-2.955c-0.98 0-1.616 1.031-1.178 1.906l0.3 0.601c0.145 0.29 0.409 0.49 0.717 0.553l-0.437 3.048c-0.105 0.728 0.461 1.383 1.199 1.383h1.754c0.736 0 1.303-0.652 1.199-1.383l-0.437-3.048c0.308-0.064 0.573-0.264 0.717-0.553l0.3-0.601c0.438-0.877-0.2-1.906-1.178-1.906zM20.717 15.832h-1.754c-0.166 0-0.294-0.147-0.271-0.312l0.453-3.159h1.389l0.453 3.159c0.024 0.165-0.104 0.312-0.271 0.312zM21.658 10.766l-0.3 0.601c-0.017 0.035-0.053 0.057-0.092 0.057h-2.851c-0.039 0-0.074-0.022-0.092-0.057l-0.3-0.601c-0.126-0.253 0.058-0.55 0.34-0.55h2.955c0.283 0 0.466 0.298 0.34 0.55z"></path>
</svg>
