<!-- Generated by IcoMoon.io -->
<svg version="1.1" xmlns="http://www.w3.org/2000/svg" width="32" height="32" viewBox="0 0 32 32">
<title>medal</title>
<path fill="#a78cd6" d="M24.658 3.047l-2.353 15.034h-12.608l-2.353-15.034c-0.212-1.355 0.835-2.579 2.206-2.579h12.902c1.371 0 2.418 1.224 2.206 2.579z"></path>
<path fill="#807bcf" d="M8.732 11.925l0.964 6.156h12.608l0.964-6.156-0.51-0.185-2.112-2.707c-1.125-1.442-2.818-2.268-4.645-2.268s-3.522 0.827-4.646 2.268l-2.112 2.707z"></path>
<path fill="#efedff" d="M18.101 18.081h-4.203l-0.919-17.613h6.041z"></path>
<path fill="#d4d4ff" d="M13.899 18.081h4.203l0.558-10.687c-0.811-0.41-1.717-0.63-2.659-0.63s-1.848 0.22-2.659 0.63z"></path>
<path fill="#f5ea72" d="M15.368 28.967l-3.665 1.054c-1.43 0.411-2.865-0.632-2.916-2.119l-0.13-3.811c-0.015-0.429-0.15-0.846-0.39-1.202l-2.135-3.16c-0.833-1.233-0.285-2.92 1.114-3.428l3.584-1.301c0.404-0.147 0.758-0.404 1.022-0.743l2.345-3.006c0.915-1.173 2.689-1.173 3.605 0l2.345 3.006c0.264 0.339 0.618 0.596 1.022 0.743l3.584 1.301c1.399 0.508 1.947 2.195 1.114 3.428l-2.135 3.16c-0.24 0.356-0.376 0.772-0.39 1.202l-0.13 3.811c-0.051 1.487-1.486 2.53-2.916 2.119l-3.665-1.054c-0.413-0.119-0.851-0.119-1.263 0z"></path>
<path fill="#eda1ab" d="M12.909 21.088c0 0.795-0.809 1.439-1.807 1.439s-1.807-0.644-1.807-1.439c0-0.795 0.809-1.439 1.807-1.439s1.807 0.644 1.807 1.439z"></path>
<path fill="#eda1ab" d="M22.706 21.088c0 0.795-0.809 1.439-1.807 1.439s-1.807-0.644-1.807-1.439c0-0.795 0.809-1.439 1.807-1.439s1.807 0.644 1.807 1.439z"></path>
<path fill="#f3a977" d="M7.37 27.95l-0.13-3.811c-0.006-0.163-0.057-0.321-0.148-0.456l-2.135-3.16c-1.349-1.997-0.464-4.732 1.805-5.556l3.584-1.301c0.153-0.056 0.287-0.153 0.388-0.282l2.345-3.006c1.482-1.9 4.357-1.903 5.842 0l2.345 3.006c0.1 0.129 0.234 0.226 0.388 0.282l3.584 1.301c2.265 0.823 3.157 3.556 1.805 5.556l-2.135 3.16c-0.091 0.135-0.142 0.293-0.148 0.456l-0.13 3.811c-0.082 2.409-2.406 4.101-4.726 3.434l-3.665-1.054c-0.157-0.045-0.322-0.045-0.479 0h-0l-3.665 1.054c-2.319 0.667-4.644-1.024-4.726-3.434zM15.316 12.124l-2.345 3.006c-0.429 0.55-1.002 0.966-1.657 1.204l-3.584 1.301c-0.53 0.192-0.739 0.831-0.423 1.3l2.135 3.16c0.39 0.577 0.609 1.251 0.633 1.947l0.13 3.811c0.019 0.562 0.561 0.96 1.106 0.804l3.665-1.054c0.67-0.193 1.378-0.193 2.048 0l3.665 1.054c0.542 0.156 1.087-0.238 1.106-0.804l0.13-3.811c0.024-0.697 0.243-1.37 0.633-1.947l2.135-3.16c0.316-0.467 0.11-1.107-0.422-1.3l-3.584-1.301c-0.655-0.238-1.228-0.654-1.657-1.204l-2.345-3.006c-0.347-0.445-1.019-0.446-1.367-0z"></path>
<path fill="#ee8c49" d="M14.278 27.804l-2.966 0.853c-0.545 0.157-1.087-0.241-1.106-0.804l-0.13-3.811c-0.024-0.697-0.243-1.37-0.633-1.947l-2.135-3.16c-0.317-0.469-0.108-1.108 0.423-1.3l3.507-1.274c0.020-1.786 0.31-3.463 0.948-4.839l-1.452 1.862c-0.1 0.129-0.234 0.226-0.388 0.282l-3.584 1.301c-2.269 0.824-3.155 3.559-1.805 5.556l2.135 3.16c0.091 0.135 0.143 0.293 0.148 0.456l0.13 3.811c0.082 2.41 2.408 4.101 4.726 3.434l3.665-1.054c0.157-0.045 0.322-0.045 0.479 0l0.357 0.103c-0.815-0.534-1.605-1.456-2.319-2.629z"></path>
<path fill="#000" d="M12.155 18.192c-0.733 0-1.329 0.596-1.329 1.329 0 0.259 0.21 0.469 0.469 0.469s0.469-0.21 0.469-0.469c0-0.216 0.176-0.392 0.392-0.392s0.392 0.176 0.392 0.392c0 0.259 0.21 0.469 0.469 0.469s0.469-0.21 0.469-0.469c0-0.733-0.596-1.329-1.329-1.329zM25.398 14.527l-1.952-0.709 1.675-10.699c0.257-1.64-1.012-3.12-2.67-3.12h-12.093c-0.259 0-0.469 0.21-0.469 0.469s0.21 0.469 0.469 0.469h2.176l0.46 8.824c-0.281 0.293-0.2 0.231-2.631 3.335-0.046 0.059-0.108 0.104-0.178 0.129l-0.734 0.266-1.646-10.517c-0.102-0.653 0.165-1.302 0.699-1.695 0.208-0.154 0.253-0.447 0.099-0.655s-0.447-0.253-0.655-0.099c-0.815 0.601-1.225 1.596-1.068 2.595l1.675 10.699-1.952 0.709c-2.553 0.927-3.556 4.005-2.034 6.259l2.135 3.16c0.042 0.062 0.065 0.134 0.068 0.209l0.13 3.811c0.093 2.711 2.707 4.621 5.324 3.868l3.665-1.054c0.072-0.021 0.148-0.021 0.22 0l3.665 1.054c1.904 0.548 3.949-0.331 4.861-2.090 0.119-0.23 0.030-0.513-0.2-0.632s-0.513-0.030-0.632 0.2c-0.708 1.364-2.293 2.045-3.77 1.62l-3.665-1.054c-0.241-0.069-0.497-0.069-0.738 0l-3.665 1.054c-2.024 0.582-4.056-0.892-4.128-3l-0.13-3.811c-0.009-0.251-0.088-0.494-0.228-0.702l-2.135-3.16c-1.179-1.745-0.405-4.133 1.577-4.853l3.584-1.301c0.236-0.086 0.443-0.236 0.597-0.434l2.345-3.006c1.295-1.66 3.806-1.663 5.103 0l2.345 3.006c0.155 0.198 0.361 0.348 0.597 0.434l3.584 1.301c1.979 0.719 2.758 3.106 1.577 4.853l-2.135 3.16c-0.141 0.208-0.22 0.451-0.228 0.702l-0.111 3.247c-0.009 0.265 0.203 0.485 0.469 0.485 0.251 0 0.46-0.199 0.468-0.453l0.111-3.247c0.003-0.075 0.026-0.147 0.068-0.209l2.135-3.16c1.52-2.25 0.523-5.331-2.034-6.259zM18.103 9.051c-1.293-0.756-2.911-0.757-4.206 0l-0.423-8.113h5.053zM21.814 13.226c-0.070-0.026-0.132-0.070-0.178-0.129-2.441-3.115-2.349-3.041-2.631-3.335l0.46-8.824h2.986c1.084 0 1.911 0.968 1.743 2.037l-1.646 10.518zM17.221 20.174c-0.195-0.17-0.491-0.15-0.661 0.045-0.141 0.162-0.345 0.255-0.559 0.255s-0.418-0.093-0.559-0.255c-0.17-0.195-0.466-0.215-0.661-0.045s-0.216 0.466-0.045 0.661c0.319 0.366 0.781 0.577 1.266 0.577s0.947-0.21 1.266-0.577c0.17-0.195 0.15-0.491-0.045-0.661zM24.43 17.195l-3.584-1.301c-0.572-0.208-1.072-0.571-1.447-1.051l-2.345-3.006c-0.535-0.685-1.571-0.687-2.106 0l-2.345 3.006c-0.374 0.48-0.875 0.844-1.447 1.051l-3.584 1.301c-0.817 0.297-1.139 1.281-0.651 2.003l2.135 3.16c0.341 0.504 0.532 1.093 0.553 1.701l0.13 3.811c0.030 0.868 0.865 1.479 1.704 1.238l3.664-1.054c0.585-0.168 1.204-0.168 1.789 0l3.665 1.054c0.836 0.24 1.674-0.367 1.704-1.238l0.13-3.811c0.021-0.608 0.212-1.197 0.553-1.701l2.135-3.16c0.487-0.721 0.168-1.706-0.651-2.003zM24.304 18.673l-2.135 3.16c-0.439 0.651-0.686 1.409-0.713 2.194l-0.13 3.811c-0.009 0.263-0.261 0.44-0.508 0.369l-3.665-1.054c-0.755-0.217-1.552-0.217-2.307 0l-3.664 1.054c-0.255 0.073-0.499-0.114-0.508-0.369l-0.13-3.811c-0.027-0.785-0.273-1.543-0.713-2.194l-2.135-3.16c-0.147-0.218-0.048-0.509 0.194-0.597l3.584-1.301c0.738-0.268 1.383-0.737 1.866-1.356l2.345-3.006c0.164-0.21 0.472-0.2 0.628 0l2.345 3.006c0.483 0.619 1.128 1.088 1.866 1.356l3.584 1.301c0.247 0.090 0.338 0.384 0.194 0.597zM19.845 18.192c-0.733 0-1.329 0.596-1.329 1.329 0 0.259 0.21 0.469 0.469 0.469s0.469-0.21 0.469-0.469c0-0.216 0.176-0.392 0.392-0.392s0.392 0.176 0.392 0.392c0 0.259 0.21 0.469 0.469 0.469s0.469-0.21 0.469-0.469c0-0.733-0.596-1.329-1.329-1.329z"></path>
</svg>
