<!-- Generated by IcoMoon.io -->
<svg version="1.1" xmlns="http://www.w3.org/2000/svg" width="32" height="32" viewBox="0 0 32 32">
<title>money-bag</title>
<path fill="#d2896f" d="M17.319 11.286c-0.862-0.561-1.106-1.715-0.545-2.577s1.715-1.106 2.577-0.545c1.113 0.724 3.436 1.499 6.318 1.297 1.025-0.072 1.916 0.702 1.988 1.728s-0.702 1.916-1.728 1.988c-3.567 0.25-6.692-0.643-8.61-1.891z"></path>
<path fill="#f5ea72" d="M19.654 10.676c0-1.284 0.69-4.315 1.755-6.365 0.461-0.888 0.040-1.998-0.91-2.309-1.174-0.384-2.631-0.082-3.802 1.081-0.386 0.383-1.005 0.383-1.391 0-1.171-1.164-2.628-1.465-3.802-1.081-0.951 0.311-1.371 1.421-0.911 2.309 1.065 2.050 1.755 5.081 1.755 6.365z"></path>
<path fill="#ebca5f" d="M19.253 5.404c-0.447 0.128-2.022 0.364-3.253 0.364s-2.805-0.236-3.252-0.364c-0.575-0.165-1.153-0.195-1.703-0.113 0.803 1.941 1.302 4.294 1.302 5.386h7.307c0-1.091 0.499-3.445 1.302-5.386-0.55-0.082-1.128-0.052-1.703 0.114z"></path>
<path fill="#f5ea72" d="M22.532 30.154c4.97 0 8.999-2.902 8.999-6.482 0-10.609-11.542-7.184-11.542-14.367h-7.978c0 7.184-11.542 3.758-11.542 14.367 0 3.58 4.029 6.482 8.999 6.482z"></path>
<path fill="#ebca5f" d="M19.989 9.306h-7.978c0 7.184-11.542 3.758-11.542 14.367 0 3.58 4.029 6.482 8.999 6.482h4.979c-9.003-2.351-5.415-11.227-1.786-16.047 0.207-0.274 0.542-0.421 0.883-0.384 0.815 0.088 1.669 0.144 2.456 0.144 1.954 0 4.324-0.345 5.485-0.678 0.104-0.030 0.206-0.065 0.306-0.102-1.081-0.855-1.802-1.987-1.802-3.782z"></path>
<path fill="#daa985" d="M16 11.68c-1.739 0-3.888-0.308-4.882-0.593-0.989-0.284-1.561-1.315-1.277-2.304s1.315-1.561 2.304-1.277c0.653 0.187 2.436 0.449 3.856 0.449s3.202-0.261 3.856-0.449c0.989-0.284 2.020 0.288 2.304 1.277s-0.288 2.020-1.277 2.304c-0.994 0.285-3.144 0.593-4.882 0.593z"></path>
<path fill="#8ee2e1" d="M20.115 24.032l-3.219 3.381c-0.487 0.512-1.304 0.512-1.791 0l-3.219-3.381c-0.463-0.486-0.453-1.253 0.022-1.727l1.068-1.067c0.305-0.305 0.718-0.476 1.149-0.476h3.753c0.431 0 0.844 0.171 1.149 0.476l1.068 1.067c0.475 0.474 0.485 1.241 0.022 1.727z"></path>
<path fill="#6ad7d4" d="M11.545 23.158c-0.005 0.314 0.108 0.63 0.341 0.874l3.219 3.381c0.487 0.512 1.304 0.512 1.791 0l3.219-3.381c0.233-0.245 0.346-0.56 0.341-0.874z"></path>
<path fill="#eda1ab" d="M12.859 18.095c0 0.808-0.822 1.463-1.837 1.463s-1.837-0.655-1.837-1.463c0-0.808 0.822-1.463 1.837-1.463s1.837 0.655 1.837 1.463z"></path>
<path fill="#eda1ab" d="M22.814 18.095c0 0.808-0.822 1.463-1.837 1.463s-1.837-0.655-1.837-1.463c0-0.808 0.822-1.463 1.837-1.463s1.837 0.655 1.837 1.463z"></path>
<path fill="#565e75" d="M17.481 16.971c0-0.915-0.663-1.001-1.481-1.001s-1.481 0.086-1.481 1.001 0.663 1.657 1.481 1.657 1.481-0.742 1.481-1.657z"></path>
<path fill="#000" d="M29.74 17.277c-1.768-1.833-4.193-2.604-6.172-3.628 0.789 0.054 1.588 0.052 2.393-0.004 1.285-0.090 2.253-1.203 2.163-2.488-0.032-0.461-0.198-0.897-0.48-1.262-0.158-0.205-0.453-0.242-0.658-0.084s-0.242 0.453-0.084 0.658c0.168 0.217 0.267 0.478 0.287 0.754 0.054 0.768-0.525 1.434-1.293 1.488-1.396 0.098-2.775 0.021-4.1-0.229-0.308-0.28-0.571-0.59-0.781-0.944 0.849-0.245 1.453-0.933 1.632-1.742 0.849 0.137 1.714 0.189 2.592 0.158 0.259-0.009 0.461-0.227 0.451-0.485s-0.227-0.461-0.485-0.451c-0.867 0.032-1.723-0.025-2.548-0.169-0.19-0.963-0.933-1.652-1.819-1.835 0.23-0.748 0.559-1.661 0.987-2.485 0.598-1.151 0.038-2.572-1.181-2.97-1.428-0.467-3.067-0.009-4.278 1.194-0.205 0.203-0.525 0.203-0.73 0-1.211-1.204-2.851-1.661-4.278-1.194-1.218 0.398-1.779 1.819-1.181 2.97 0.428 0.825 0.757 1.738 0.987 2.486-0.821 0.169-1.524 0.776-1.773 1.642-0.354 1.235 0.362 2.527 1.596 2.883-1.523 2.561-5.97 2.882-8.726 5.739-1.521 1.577-2.26 3.669-2.26 6.396 0 1.622 0.772 3.199 2.174 4.44 1.348 1.193 3.223 2.029 5.282 2.354 0.259 0.041 0.496-0.137 0.536-0.39 0.040-0.256-0.134-0.496-0.39-0.536-1.884-0.298-3.591-1.055-4.807-2.13s-1.858-2.368-1.858-3.738c0-9.007 8.662-7.324 10.999-11.919 1.138 0.215 2.722 0.395 4.063 0.395s2.925-0.18 4.063-0.395c2.337 4.593 10.999 2.914 10.999 11.919 0 3.315-3.827 6.013-8.53 6.013h-12.719c-0.259 0-0.469 0.21-0.469 0.469s0.21 0.469 0.469 0.469h12.719c2.501 0 4.858-0.706 6.637-1.987 1.825-1.315 2.831-3.077 2.831-4.963 0-2.727-0.739-4.82-2.26-6.396zM11.008 4.095c-0.325-0.625-0.042-1.424 0.64-1.647 1.091-0.357 2.366 0.014 3.326 0.968 0.566 0.562 1.486 0.562 2.052 0 0.96-0.954 2.235-1.325 3.326-0.968 0.683 0.223 0.965 1.022 0.64 1.647-0.516 0.993-0.893 2.095-1.137 2.928-0.043 0.010-0.086 0.021-0.129 0.033-0.612 0.175-2.368 0.43-3.726 0.43s-3.114-0.255-3.726-0.43c-0.043-0.012-0.086-0.023-0.129-0.033-0.244-0.833-0.621-1.935-1.137-2.928zM16 11.212c-1.698 0-3.789-0.298-4.753-0.575-0.739-0.212-1.168-0.985-0.956-1.724 0.212-0.74 0.984-1.168 1.724-0.956 0.665 0.191 2.467 0.467 3.985 0.467s3.32-0.276 3.985-0.467c0.74-0.213 1.512 0.215 1.724 0.956 0.212 0.739-0.217 1.512-0.956 1.724-0.964 0.276-3.055 0.575-4.753 0.575zM11.329 15.13c-0.259 0-0.469 0.21-0.469 0.469v0.75c0 0.259 0.21 0.469 0.469 0.469s0.469-0.21 0.469-0.469v-0.75c0-0.259-0.21-0.469-0.469-0.469zM21.14 16.349v-0.75c0-0.259-0.21-0.469-0.469-0.469s-0.469 0.21-0.469 0.469v0.75c0 0.259 0.21 0.469 0.469 0.469s0.469-0.21 0.469-0.469zM16 19.097c1.075 0 1.95-0.954 1.95-2.126 0-0.754-0.375-1.102-0.69-1.262-0.341-0.173-0.75-0.208-1.259-0.208s-0.919 0.035-1.259 0.208c-0.315 0.16-0.69 0.508-0.69 1.262 0 1.172 0.875 2.126 1.95 2.126zM16 16.439c0.971 0 1.012 0.163 1.012 0.532 0 0.655-0.454 1.188-1.012 1.188s-1.012-0.533-1.012-1.188c0-0.369 0.041-0.532 1.012-0.532zM11.575 21.973c-0.66 0.66-0.673 1.706-0.030 2.382l3.219 3.381c0.67 0.704 1.795 0.709 2.47 0l3.219-3.381c0.644-0.676 0.631-1.723-0.030-2.382l-1.068-1.067c-0.395-0.395-0.921-0.613-1.48-0.613h-3.753c-0.559 0-1.085 0.218-1.48 0.613zM16.556 27.090c-0.302 0.317-0.808 0.319-1.112 0-3.421-3.598-3.219-3.37-3.287-3.463h7.685c-0.067 0.093 0.132-0.132-3.287 3.463zM14.123 21.232h3.753c0.309 0 0.599 0.12 0.818 0.338 1.123 1.124 1.068 1.063 1.116 1.119h-7.62c0.046-0.055-0.005 0.002 1.116-1.119 0.218-0.218 0.509-0.338 0.818-0.338z"></path>
</svg>
