<!-- Generated by IcoMoon.io -->
<svg version="1.1" xmlns="http://www.w3.org/2000/svg" width="32" height="32" viewBox="0 0 32 32">
<title>money</title>
<path fill="#d4d4ff" d="M30.797 12.589l-17.198 17.198c-0.981 0.981-2.572 0.981-3.554 0l-6.825-6.825c-0.981-0.981-0.981-2.572 0-3.554l17.198-17.198c0.981-0.981 2.572-0.981 3.554 0l6.825 6.825c0.981 0.981 0.981 2.572 0 3.554z"></path>
<path fill="#9ea2e3" d="M12.467 20.54c2.011 2.011 4.311 3.363 6.435 3.943l6.591-6.591c-0.58-2.124-1.933-4.425-3.943-6.435s-4.311-3.363-6.435-3.943l-6.591 6.591c0.58 2.124 1.933 4.424 3.943 6.435z"></path>
<path fill="#8ee2e1" d="M27.303 26.464h-24.321c-1.388 0-2.513-1.125-2.513-2.513v-9.652c0-1.388 1.125-2.513 2.513-2.513h24.321c1.388 0 2.513 1.125 2.513 2.513v9.652c-0 1.388-1.125 2.513-2.513 2.513z"></path>
<path fill="#6ad7d4" d="M2.982 11.786c-0.164 0-0.324 0.016-0.479 0.046 1.074 2.738 3.743 4.682 6.857 4.682 3.132 0 5.812-1.966 6.874-4.728z"></path>
<path fill="#6ad7d4" d="M8.72 19.125c0 2.843 0.67 5.427 1.762 7.339h9.321c1.092-1.912 1.762-4.495 1.762-7.339s-0.67-5.427-1.762-7.339h-9.321c-1.092 1.912-1.762 4.495-1.762 7.339z"></path>
<path fill="#5abfd6" d="M8.916 16.5c0.147 0.009 0.294 0.014 0.443 0.014 3.132 0 5.812-1.966 6.874-4.728h-5.752c-0.744 1.303-1.292 2.918-1.566 4.714z"></path>
<path fill="#f5ea72" d="M14.846 9.152c0 3.030-2.457 5.487-5.487 5.487s-5.487-2.457-5.487-5.487c0-3.030 2.457-5.487 5.487-5.487s5.487 2.457 5.487 5.487z"></path>
<path fill="#ebca5f" d="M12.452 9.014c0.079 1.71-1.244 3.16-2.954 3.239s-3.16-1.244-3.239-2.954c-0.079-1.71 1.244-3.16 2.954-3.239s3.16 1.244 3.239 2.954z"></path>
<path fill="#000" d="M26.714 18.656h-2.048c-0.259 0-0.469 0.21-0.469 0.469s0.21 0.469 0.469 0.469h2.048c0.259 0 0.469-0.21 0.469-0.469s-0.21-0.469-0.469-0.469zM5.619 18.656h-2.048c-0.259 0-0.469 0.21-0.469 0.469s0.21 0.469 0.469 0.469h2.048c0.259 0 0.469-0.21 0.469-0.469s-0.21-0.469-0.469-0.469zM31.128 8.704l-6.825-6.825c-1.163-1.163-3.054-1.163-4.217 0l-5.159 5.159c-0.854-2.244-3.028-3.843-5.568-3.843-0.838 0-1.648 0.171-2.408 0.507-0.237 0.105-0.344 0.382-0.239 0.618s0.382 0.344 0.618 0.239c0.64-0.283 1.323-0.427 2.029-0.427 2.767 0 5.018 2.251 5.018 5.018s-2.251 5.018-5.018 5.018-5.018-2.251-5.018-5.018c0-1.273 0.478-2.487 1.345-3.419 0.176-0.189 0.166-0.486-0.024-0.663s-0.486-0.166-0.663 0.024c-1.029 1.105-1.596 2.546-1.596 4.058 0 0.764 0.145 1.494 0.408 2.166h-0.829c-1.644 0-2.982 1.338-2.982 2.982v9.652c0 1.644 1.337 2.982 2.982 2.982h3.547l3.186 3.186c1.165 1.165 3.051 1.165 4.217 0l3.186-3.186h8.772c0.259 0 0.469-0.21 0.469-0.469s-0.21-0.469-0.469-0.469h-5.311c0.942-1.951 1.456-4.357 1.456-6.87s-0.514-4.919-1.456-6.87h6.725c1.127 0 2.044 0.917 2.044 2.044v9.652c0 0.884-0.564 1.665-1.403 1.942-0.246 0.081-0.379 0.346-0.298 0.592s0.346 0.379 0.592 0.298c1.224-0.404 2.047-1.542 2.047-2.832-0.015-10.013 0.036-9.68-0.041-10.145l0.885-0.885c1.163-1.162 1.163-3.054 0-4.217zM2.982 25.995c-1.127 0-2.044-0.917-2.044-2.044v-9.652c0-1.127 0.917-2.044 2.044-2.044h1.296c0.942 1.537 2.561 2.616 4.44 2.818-0.309 1.288-0.466 2.648-0.466 4.052 0 2.513 0.514 4.919 1.456 6.87h-6.726zM13.268 29.456c-0.799 0.799-2.092 0.799-2.891 0l-2.523-2.523h7.937zM21.096 19.125c0 2.555-0.558 4.981-1.572 6.87h-8.764c-1.014-1.889-1.572-4.314-1.572-6.87 0-1.401 0.164-2.753 0.488-4.026 2.015-0.106 3.768-1.219 4.764-2.844h5.083c1.014 1.889 1.572 4.314 1.572 6.87zM14.907 11.318c0.263-0.672 0.408-1.402 0.408-2.166 0-0.368-0.034-0.728-0.098-1.077l0.034-0.034c1.869 0.563 3.785 1.711 5.477 3.276zM30.465 12.258l-0.571 0.571c-0.513-0.901-1.483-1.511-2.592-1.511h-5.233c-1.673-1.727-3.804-3.228-6.075-4.020l4.756-4.756c0.797-0.797 2.094-0.797 2.891 0l6.825 6.825c0.799 0.799 0.799 2.092 0 2.891zM9.359 12.72c1.967 0 3.568-1.601 3.568-3.568s-1.601-3.568-3.568-3.568-3.568 1.601-3.568 3.568 1.601 3.568 3.568 3.568zM9.359 6.522c1.45 0 2.63 1.18 2.63 2.63s-1.18 2.63-2.63 2.63-2.63-1.18-2.63-2.63c0-1.45 1.18-2.63 2.63-2.63zM24.86 7.485l-1.448 1.448c-0.183 0.183-0.183 0.48 0 0.663s0.48 0.183 0.663 0l1.448-1.448c0.183-0.183 0.183-0.48 0-0.663s-0.48-0.183-0.663 0zM15.983 18.645c-0.136-0.048-0.275-0.099-0.414-0.151v-2.217c0.349 0.083 0.556 0.259 0.575 0.276 0.19 0.173 0.485 0.16 0.659-0.030 0.176-0.19 0.164-0.487-0.027-0.662-0.027-0.025-0.475-0.428-1.208-0.538v-0.453c0-0.259-0.21-0.469-0.469-0.469s-0.469 0.21-0.469 0.469v0.489c-0.070 0.015-0.14 0.033-0.212 0.055-1.422 0.428-1.779 2.352-0.757 3.154 0.246 0.193 0.551 0.369 0.97 0.555v2.811c-0.362-0.027-0.613-0.115-1.024-0.384-0.217-0.142-0.507-0.081-0.649 0.136s-0.081 0.507 0.136 0.649c0.599 0.392 1.009 0.509 1.537 0.539v0.507c0 0.259 0.21 0.469 0.469 0.469s0.469-0.21 0.469-0.469v-0.544c2.058-0.404 2.636-3.405 0.414-4.191zM14.631 18.080c-0.147-0.080-0.28-0.163-0.391-0.25-0.408-0.32-0.258-1.253 0.391-1.498zM15.569 21.862v-2.369c0.034 0.012 0.067 0.024 0.102 0.036 1.212 0.428 0.918 1.968-0.102 2.333z"></path>
</svg>
