<!-- Generated by IcoMoon.io -->
<svg version="1.1" xmlns="http://www.w3.org/2000/svg" width="32" height="32" viewBox="0 0 32 32">
<title>monster</title>
<path fill="#6ad7d4" d="M12.821 31.531c-0.698 0-1.264-0.566-1.264-1.264 0-2.503 1.224-4.334 2.37-5.213 0.554-0.425 1.348-0.32 1.773 0.234s0.321 1.348-0.234 1.773c-0.636 0.488-1.38 1.621-1.38 3.206-0 0.698-0.566 1.265-1.265 1.265z"></path>
<path fill="#6ad7d4" d="M19.179 31.531c-0.698 0-1.265-0.566-1.265-1.264 0-1.585-0.743-2.718-1.38-3.206-0.554-0.425-0.659-1.219-0.234-1.773s1.219-0.659 1.773-0.234c1.145 0.879 2.369 2.71 2.369 5.213 0 0.698-0.566 1.264-1.265 1.264z"></path>
<path fill="#6ad7d4" d="M6.029 24.296c-0.341-0.61-0.123-1.38 0.487-1.721 0.931-0.52 3.344-1.723 5.648-1.659 0.698 0.019 1.248 0.601 1.229 1.299s-0.599 1.248-1.299 1.229c-0.435-0.012-2.036 0.049-4.343 1.338-0.61 0.341-1.38 0.123-1.721-0.487z"></path>
<path fill="#6ad7d4" d="M25.971 24.296c0.341-0.61 0.123-1.38-0.487-1.721-0.931-0.52-3.344-1.723-5.648-1.659-0.698 0.019-1.248 0.601-1.229 1.299s0.599 1.248 1.299 1.229c0.435-0.012 2.036 0.049 4.343 1.338 0.61 0.341 1.38 0.123 1.721-0.487z"></path>
<path fill="#6ad7d4" d="M9.286 10.819c-0.801-0.796-1.585-1.391-2.335-1.955-0.878-0.66-2.125 0.001-2.076 1.099 0.080 1.775 0.348 3.199 1.238 4.089s2.334 0.884 3.217-0.015c0.865-0.88 0.831-2.347-0.044-3.218z"></path>
<path fill="#6ad7d4" d="M22.714 10.819c0.801-0.796 1.585-1.391 2.335-1.955 0.878-0.66 2.125 0.001 2.076 1.099-0.080 1.775-0.348 3.199-1.238 4.089s-2.334 0.884-3.217-0.015c-0.865-0.88-0.831-2.347 0.044-3.218z"></path>
<path fill="#8ee2e1" d="M22.039 23.029c0 2.668-2.704 4.831-6.039 4.831s-6.039-2.163-6.039-4.831c0-2.668 2.704-4.831 6.039-4.831s6.039 2.163 6.039 4.831z"></path>
<path fill="#a78cd6" d="M10.567 25.141c0.98 1.61 3.044 2.719 5.433 2.719s4.453-1.109 5.433-2.719z"></path>
<path fill="#6ad7d4" d="M16 21.947c2.048 0 3.89-0.359 5.422-1.048-0.984-1.6-3.042-2.701-5.422-2.701s-4.438 1.101-5.422 2.701c1.532 0.689 3.374 1.048 5.422 1.048z"></path>
<path fill="#a78cd6" d="M18.507 6.548c0-1.847-0.656-3.973-1.581-5.549-0.415-0.707-1.436-0.707-1.851 0-0.925 1.576-1.581 3.702-1.581 5.549z"></path>
<path fill="#8ee2e1" d="M24.020 13.427c0-4.43-3.591-8.020-8.020-8.020s-8.020 3.591-8.020 8.020c0 4.43 3.591 6.332 8.020 6.332s8.020-1.903 8.020-6.332z"></path>
<path fill="#f5ea72" d="M21.87 7.4c0.38-0.099 0.487-0.591 0.182-0.838-1.19-0.965-3.444-2.132-6.052-2.132s-4.862 1.166-6.052 2.132c-0.305 0.247-0.198 0.739 0.182 0.838 0.917 0.239 2.325 0.389 3.638 0.075 0.246-0.059 0.493 0.085 0.558 0.329 0.197 0.732 0.566 1.557 1.217 2.184 0.256 0.247 0.658 0.247 0.914 0 0.651-0.628 1.020-1.452 1.217-2.184 0.066-0.244 0.313-0.388 0.558-0.329 1.313 0.314 2.72 0.164 3.638-0.075z"></path>
<path fill="#fff" d="M12.862 14.879c0 0.807-0.821 1.461-1.835 1.461s-1.835-0.654-1.835-1.461c0-0.807 0.821-1.461 1.835-1.461s1.835 0.654 1.835 1.461z"></path>
<path fill="#fff" d="M22.807 14.879c0 0.807-0.821 1.461-1.835 1.461s-1.835-0.654-1.835-1.461c0-0.807 0.821-1.461 1.835-1.461s1.835 0.654 1.835 1.461z"></path>
<path fill="#fff" d="M18.411 13.545c0-1.043-1.079-1.14-2.411-1.14s-2.411 0.098-2.411 1.14 1.079 1.888 2.411 1.888 2.411-0.845 2.411-1.888z"></path>
<path fill="#d4d4ff" d="M14.699 15.133c0.271 0.136 0.579 0.232 0.91 0.274v-2.999c-0.331 0.007-0.639 0.027-0.91 0.074z"></path>
<path fill="#d4d4ff" d="M16.391 15.408c0.331-0.042 0.639-0.137 0.91-0.274v-2.651c-0.271-0.047-0.579-0.067-0.91-0.074z"></path>
<path fill="#000" d="M24.286 15.183c0.719-0.001 1.418-0.285 1.933-0.8 0.609-0.609 1.249-1.608 1.374-4.399 0.067-1.493-1.63-2.393-2.826-1.495-0.44 0.331-0.849 0.642-1.26 0.982-0.332-0.63-0.743-1.219-1.226-1.751 0.515-0.349 0.567-1.115 0.065-1.523-0.11-0.089-0.227-0.178-0.347-0.266-0.21-0.152-0.503-0.105-0.655 0.105s-0.105 0.503 0.105 0.655c0.107 0.077 0.21 0.156 0.309 0.237 0.001 0.004-0.001 0.014-0.008 0.018-0.417 0.109-1.895 0.435-3.41 0.072-0.497-0.119-0.988 0.173-1.12 0.663-0.152 0.565-0.464 1.366-1.090 1.969-0.075 0.072-0.188 0.072-0.263 0-0.625-0.603-0.938-1.403-1.090-1.969-0.132-0.491-0.624-0.782-1.12-0.663-1.515 0.362-2.994 0.036-3.415-0.074-0.003-0.003-0.005-0.013-0.001-0.019 1.208-0.98 3.355-2.027 5.757-2.027 1.193 0 2.446 0.266 3.625 0.77 0.238 0.102 0.514-0.009 0.615-0.247s-0.009-0.513-0.247-0.615c-0.417-0.178-0.843-0.329-1.272-0.452-0.278-1.264-0.767-2.53-1.391-3.593-0.28-0.477-0.777-0.761-1.33-0.761s-1.050 0.285-1.33 0.761c-0.624 1.063-1.113 2.329-1.391 3.594-1.5 0.431-2.774 1.151-3.626 1.842-0.502 0.407-0.45 1.173 0.065 1.523-0.483 0.532-0.894 1.121-1.226 1.751-0.411-0.34-0.82-0.652-1.26-0.982-1.195-0.898-2.893 0.001-2.826 1.495 0.071 1.566 0.289 3.314 1.374 4.399 0.515 0.515 1.214 0.799 1.933 0.8 0.446 1.823 1.625 3.284 3.602 4.164-0.463 0.389-0.846 0.829-1.139 1.305-1.664 0.359-3.141 1.096-3.889 1.514-0.836 0.467-1.135 1.522-0.667 2.359 0.466 0.834 1.52 1.136 2.359 0.667 0.585-0.327 1.165-0.595 1.732-0.801 0.345 1.056 1.082 1.984 2.076 2.674-0.285 0.61-0.486 1.259-0.597 1.939-0.042 0.256 0.132 0.496 0.387 0.538s0.496-0.132 0.538-0.387c0.092-0.563 0.254-1.102 0.482-1.609 0.463 0.233 0.965 0.419 1.495 0.552-0.258 0.54-0.475 1.264-0.475 2.171 0 0.439-0.357 0.796-0.796 0.796-0.219 0-0.423-0.087-0.575-0.245-0.179-0.187-0.476-0.193-0.663-0.014s-0.193 0.476-0.014 0.663c0.33 0.344 0.774 0.534 1.251 0.534 0.956 0 1.733-0.777 1.733-1.733 0-0.72 0.177-1.417 0.501-1.994 0.616 0.073 1.249 0.076 1.888 0 0.325 0.577 0.501 1.274 0.501 1.994 0 0.956 0.777 1.733 1.733 1.733s1.733-0.777 1.733-1.733c0-1.124-0.24-2.222-0.697-3.203 0.993-0.689 1.73-1.616 2.075-2.673 0.566 0.206 1.147 0.474 1.732 0.801 0.838 0.468 1.892 0.167 2.359-0.667 0.467-0.836 0.169-1.891-0.667-2.359-0.749-0.419-2.225-1.155-3.889-1.514-0.293-0.476-0.676-0.916-1.139-1.305 1.971-0.878 3.155-2.335 3.602-4.163zM15.479 1.236c0.111-0.19 0.301-0.298 0.521-0.298s0.41 0.109 0.521 0.298c0.503 0.858 0.911 1.86 1.178 2.881-0.57-0.103-1.14-0.156-1.699-0.156-0.583 0-1.152 0.056-1.7 0.155 0.267-1.021 0.675-2.023 1.178-2.88zM9.514 23.465c-0.653 0.229-1.322 0.533-1.993 0.908-0.384 0.215-0.868 0.078-1.083-0.306s-0.078-0.868 0.306-1.083c0.596-0.333 1.68-0.88 2.938-1.242-0.165 0.545-0.229 1.128-0.169 1.723zM25.256 22.985c0.384 0.215 0.521 0.699 0.306 1.083s-0.699 0.521-1.083 0.306c-0.671-0.375-1.34-0.679-1.993-0.908 0.058-0.58 0.001-1.163-0.169-1.723 1.258 0.362 2.343 0.909 2.939 1.242zM25.331 9.239c0.562-0.422 1.358-0.002 1.326 0.703-0.089 1.965-0.418 3.095-1.101 3.778-0.299 0.299-0.694 0.479-1.108 0.517 0.128-1.25-0.041-2.603-0.537-3.88 0.461-0.393 0.92-0.742 1.42-1.118zM7.551 14.238c-0.414-0.038-0.808-0.218-1.108-0.517-0.683-0.683-1.012-1.813-1.101-3.778-0.032-0.704 0.763-1.127 1.326-0.703 0.5 0.376 0.958 0.725 1.42 1.118-0.496 1.276-0.666 2.629-0.537 3.88zM19.179 31.063c-0.439 0-0.796-0.357-0.796-0.796 0-0.907-0.217-1.63-0.475-2.171 0.53-0.133 1.032-0.319 1.495-0.552 0.374 0.835 0.571 1.767 0.571 2.722 0 0.439-0.357 0.796-0.796 0.796zM11.511 25.61h8.977c-2.235 2.377-6.746 2.373-8.977 0zM21.16 24.672h-10.32c-0.85-1.632-0.394-3.643 1.518-4.939 1.078 0.327 2.304 0.496 3.642 0.496s2.565-0.169 3.642-0.496c1.915 1.298 2.367 3.31 1.518 4.939zM16 19.291c-4.137 0-7.552-1.693-7.552-5.864 0-2.041 0.835-4.004 2.297-5.423 0.76 0.123 1.93 0.212 3.13-0.074 0.183 0.68 0.565 1.644 1.343 2.395 0.439 0.423 1.126 0.423 1.565 0 0.778-0.75 1.159-1.715 1.343-2.395 1.199 0.286 2.369 0.196 3.13 0.074 1.462 1.418 2.297 3.382 2.297 5.423 0 4.171-3.414 5.864-7.552 5.864zM17.861 12.142c-0.482-0.171-1.093-0.206-1.861-0.206s-1.379 0.035-1.861 0.206c-0.841 0.299-1.018 0.928-1.018 1.403 0 1.299 1.292 2.356 2.879 2.356s2.879-1.057 2.879-2.356c0-0.475-0.177-1.104-1.018-1.403zM16 14.964c-1.071 0-1.942-0.636-1.942-1.419 0-0.446 0.3-0.672 1.942-0.672s1.942 0.226 1.942 0.672c0 0.782-0.871 1.419-1.942 1.419zM20.121 11.386l-0.773 0.136c-0.255 0.045-0.425 0.288-0.38 0.543 0.040 0.227 0.238 0.387 0.461 0.387 0.061 0 0.098-0.011 0.153-0.020-0.090 0.085-0.147 0.206-0.147 0.34v0.648c0 0.259 0.21 0.469 0.469 0.469s0.469-0.21 0.469-0.469v-0.648c0-0.193-0.116-0.358-0.282-0.43l0.195-0.034c0.255-0.045 0.425-0.288 0.38-0.543s-0.288-0.425-0.543-0.38zM12.652 11.522l-0.773-0.136c-0.255-0.045-0.498 0.125-0.543 0.38s0.125 0.498 0.38 0.543l0.195 0.034c-0.166 0.072-0.282 0.237-0.282 0.43v0.648c0 0.259 0.21 0.469 0.469 0.469s0.469-0.21 0.469-0.469v-0.648c0-0.134-0.057-0.255-0.147-0.34 0.055 0.009 0.092 0.020 0.153 0.020 0.223 0 0.421-0.16 0.461-0.387 0.045-0.255-0.125-0.498-0.38-0.543z"></path>
</svg>
