<!-- Generated by IcoMoon.io -->
<svg version="1.1" xmlns="http://www.w3.org/2000/svg" width="32" height="32" viewBox="0 0 32 32">
<title>mute</title>
<path fill="#8ee2e1" d="M17.38 21.825h-12.243c-0.995 0-1.801-0.806-1.801-1.801v-8.044c0-0.995 0.806-1.801 1.801-1.801h12.243z"></path>
<path fill="#a78cd6" d="M2.109 18.909h3.182v-5.816h-3.182c-0.906 0-1.641 0.735-1.641 1.641v2.535c0 0.906 0.734 1.641 1.641 1.641z"></path>
<path fill="#6ad7d4" d="M5.137 10.178c-0.995 0-1.801 0.806-1.801 1.801v8.044c0 0.995 0.806 1.801 1.801 1.801h4.633c-3.505-1.424-4.369-7.73-3.816-11.646h-0.817z"></path>
<path fill="#efedff" d="M16.587 22.647l4.422 4.422c2.056 2.056 5.572 0.6 5.572-2.308v-17.521c0-2.908-3.516-4.364-5.572-2.308l-4.422 4.422c-0.527 0.527-0.823 1.241-0.823 1.986v9.319c0 0.745 0.296 1.459 0.823 1.986z"></path>
<path fill="#d4d4ff" d="M26.465 10.069c-1.608-1.608-4.209-1.607-5.817-0-1.604 1.604-1.604 4.213-0 5.817l0.116 0.116-0.116 0.116c-1.608 1.608-1.607 4.209 0 5.817s4.21 1.607 5.817-0l0.116-0.116v-11.634z"></path>
<path fill="#de5c6e" d="M29.304 16.001l1.662-1.662c0.752-0.752 0.752-1.971-0-2.723s-1.971-0.752-2.723 0l-1.662 1.662-1.662-1.662c-0.752-0.752-1.971-0.752-2.723-0s-0.752 1.971-0 2.723l1.662 1.662-1.662 1.662c-0.752 0.752-0.752 1.971 0 2.723s1.971 0.752 2.723-0l1.662-1.662 1.662 1.662c0.752 0.752 1.971 0.752 2.723 0s0.752-1.971 0-2.723z"></path>
<path fill="#5abfd6" d="M7.826 16.444h3.447c0.854 0 1.546 0.692 1.546 1.546s-0.692 1.546-1.546 1.546h-3.447z"></path>
<path fill="#efedff" d="M9.372 17.99c0 0.854-0.692 1.546-1.546 1.546s-1.546-0.692-1.546-1.546c0-0.854 0.692-1.546 1.546-1.546s1.546 0.692 1.546 1.546z"></path>
<path fill="#000" d="M5.812 17.99c0 1.111 0.904 2.015 2.015 2.015h3.447c1.111 0 2.015-0.904 2.015-2.015s-0.904-2.015-2.015-2.015h-3.447c-1.111 0-2.015 0.904-2.015 2.015zM9.528 16.913h1.746c0.594 0 1.077 0.483 1.077 1.077s-0.483 1.077-1.077 1.077h-1.746c0.198-0.312 0.313-0.681 0.313-1.077s-0.115-0.765-0.313-1.077zM7.826 16.913c0.594 0 1.077 0.483 1.077 1.077s-0.483 1.077-1.077 1.077-1.077-0.483-1.077-1.077 0.483-1.077 1.077-1.077zM29.967 16.001l1.331-1.331c0.936-0.936 0.936-2.45-0-3.386s-2.45-0.936-3.386 0l-0.862 0.862v-4.906c0-3.325-4.018-4.993-6.372-2.639l-4.422 4.423c-0.207 0.207-0.383 0.438-0.525 0.685h-7.197c-0.259 0-0.469 0.21-0.469 0.469s0.21 0.469 0.469 0.469h6.837c-0.049 0.226-0.074 0.458-0.074 0.695 0.026 9.883-0.058 9.398 0.074 10.014h-10.233c-0.735 0-1.333-0.598-1.333-1.333v-8.044c0-0.735 0.598-1.333 1.333-1.333h1.143c0.259 0 0.469-0.21 0.469-0.469s-0.21-0.469-0.469-0.469h-1.143c-1.252 0-2.27 1.018-2.27 2.27v0.645h-0.758c-1.163 0-2.109 0.946-2.109 2.109v2.535c0 1.163 0.946 2.109 2.109 2.109h0.758v0.645c0 1.252 1.018 2.27 2.27 2.27h10.593c0.143 0.247 0.318 0.478 0.525 0.685l4.422 4.422c2.094 2.094 5.574 1.010 6.257-1.696 0.063-0.251-0.089-0.506-0.34-0.569s-0.506 0.089-0.569 0.34c-0.495 1.962-3.075 2.872-4.685 1.262l-4.422-4.422c-0.442-0.442-0.686-1.030-0.686-1.655v-9.319c0-0.625 0.243-1.213 0.686-1.655l4.422-4.423c1.76-1.76 4.771-0.517 4.771 1.976v4.906l-0.862-0.862c-0.933-0.933-2.453-0.933-3.386-0-0.936 0.936-0.936 2.45-0 3.386l1.331 1.331-1.331 1.331c-0.936 0.936-0.936 2.45 0 3.386s2.45 0.936 3.386-0l0.862-0.862v3.488c0 0.259 0.21 0.469 0.469 0.469s0.469-0.21 0.469-0.469v-3.488l0.862 0.862c0.935 0.935 2.45 0.936 3.386 0s0.936-2.45 0-3.386zM2.867 18.441h-0.758c-0.646 0-1.172-0.526-1.172-1.172v-2.535c0-0.646 0.526-1.172 1.172-1.172h0.758zM30.635 20.056c-0.568 0.568-1.492 0.568-2.060-0l-1.662-1.662c-0.183-0.183-0.48-0.183-0.663 0l-1.662 1.662c-0.568 0.568-1.492 0.568-2.060 0-0.569-0.569-0.57-1.491-0-2.060l1.663-1.663c0.183-0.183 0.183-0.48 0-0.663l-1.663-1.663c-0.569-0.569-0.569-1.491 0-2.060 0.568-0.568 1.492-0.568 2.060 0l1.662 1.662c0.183 0.183 0.48 0.183 0.663 0l1.662-1.662c0.569-0.569 1.491-0.57 2.060-0s0.57 1.491 0 2.060l-1.663 1.663c-0.183 0.183-0.183 0.48 0 0.663l1.663 1.663c0.569 0.569 0.57 1.491-0 2.060zM10.593 14.477h0c0.259 0 0.469-0.21 0.469-0.468s-0.21-0.469-0.468-0.469l-2.086-0.002c-0 0-0 0-0 0-0.259 0-0.469 0.21-0.469 0.468s0.21 0.469 0.468 0.469zM6.064 12.932c0-0.259-0.21-0.469-0.468-0.469-0 0-0 0-0 0-0.259 0-0.469 0.21-0.469 0.468l-0.001 0.742c-0 0.259 0.21 0.469 0.468 0.469h0c0.259 0 0.469-0.21 0.469-0.468zM13.507 14.151c0.259 0 0.469-0.21 0.469-0.468l0.001-0.742c0-0.259-0.21-0.469-0.468-0.469-0 0-0 0-0 0-0.259 0-0.469 0.21-0.469 0.468l-0.001 0.742c-0 0.259 0.21 0.469 0.468 0.469z"></path>
</svg>
