<!-- Generated by IcoMoon.io -->
<svg version="1.1" xmlns="http://www.w3.org/2000/svg" width="32" height="32" viewBox="0 0 32 32">
<title>online-game</title>
<path fill="#efedff" d="M25.024 21.139c3.54 0 6.471-2.829 6.507-6.368 0.044-4.345-4.080-7.359-8.072-6.3-0.466 0.124-0.945-0.13-1.121-0.578-0.991-2.532-3.455-4.326-6.339-4.326s-5.348 1.793-6.339 4.326c-0.176 0.449-0.655 0.702-1.121 0.578-3.988-1.058-8.113 1.949-8.072 6.295 0.034 3.542 2.965 6.373 6.507 6.373z"></path>
<path fill="#d4d4ff" d="M6.976 21.139h18.048c0.736 0 1.445-0.123 2.108-0.348l-0.384-1.809c-0.237-1.118-0.857-2.13-1.745-2.849-1.57-1.272-3.252-1.101-3.345-1.116-0.358-1.522-1.727-2.659-3.357-2.659h-4.604c-1.63 0-2.999 1.136-3.357 2.659-0.093 0.015-1.775-0.156-3.345 1.116-0.888 0.719-1.508 1.731-1.745 2.849l-0.384 1.809c0.663 0.226 1.372 0.348 2.108 0.348z"></path>
<path fill="#807bcf" d="M18.302 14.233h-4.604c-0.869 0-1.573 0.704-1.573 1.573v2.438h7.75v-2.438c0-0.869-0.704-1.573-1.573-1.573z"></path>
<path fill="#a78cd6" d="M23.653 28.433c1.639 0 2.862-1.51 2.522-3.113l-1.262-5.949c-0.306-1.445-1.582-2.479-3.060-2.479h-11.708c-1.477 0-2.753 1.034-3.060 2.479l-1.262 5.949c-0.34 1.604 0.883 3.113 2.522 3.113 1.262 0 2.387-0.798 2.804-1.989l0.373-1.065c0.191-0.545 0.705-0.91 1.282-0.91h6.389c0.577 0 1.091 0.365 1.282 0.91l0.373 1.065c0.417 1.191 1.542 1.989 2.804 1.989z"></path>
<path fill="#807bcf" d="M10.146 16.891c-1.477 0-2.753 1.034-3.060 2.479l-1.262 5.949c-0.34 1.604 0.883 3.113 2.522 3.113 1.262 0 2.387-0.798 2.804-1.989l0.373-1.065c0.191-0.545 0.705-0.91 1.282-0.91h0.114c-1.834-0.982-2.131-5.339-1.416-7.578z"></path>
<path fill="#eda1ab" d="M12.862 11.313c0 0.807-0.821 1.461-1.835 1.461s-1.835-0.654-1.835-1.461c0-0.807 0.821-1.461 1.835-1.461s1.835 0.654 1.835 1.461z"></path>
<path fill="#eda1ab" d="M22.807 11.313c0 0.807-0.821 1.461-1.835 1.461s-1.835-0.654-1.835-1.461c0-0.807 0.821-1.461 1.835-1.461s1.835 0.654 1.835 1.461z"></path>
<path fill="#000" d="M20.741 22.218c0.259 0 0.469-0.21 0.469-0.469v-0.6h0.6c0.259 0 0.469-0.21 0.469-0.469s-0.21-0.469-0.469-0.469h-0.6v-0.6c0-0.259-0.21-0.469-0.469-0.469s-0.469 0.21-0.469 0.469v0.6h-0.6c-0.259 0-0.469 0.21-0.469 0.469s0.21 0.469 0.469 0.469h0.6v0.6c0 0.259 0.21 0.469 0.469 0.469zM15.437 20.212c-0.259 0-0.469 0.21-0.469 0.469s0.21 0.469 0.469 0.469h1.126c0.259 0 0.469-0.21 0.469-0.469s-0.21-0.469-0.469-0.469zM32 14.775c0.047-4.613-4.324-7.908-8.661-6.758-0.231 0.061-0.474-0.066-0.564-0.296-1.072-2.739-3.725-4.623-6.775-4.623-3.049 0-5.702 1.883-6.775 4.623-0.090 0.23-0.333 0.357-0.564 0.296-0.668-0.177-1.355-0.252-2.042-0.222-0.259 0.011-0.459 0.23-0.448 0.489s0.228 0.459 0.489 0.448c0.592-0.026 1.184 0.039 1.761 0.192 0.692 0.184 1.413-0.186 1.677-0.861 0.933-2.384 3.243-4.028 5.902-4.028 2.661 0 4.97 1.645 5.902 4.028 0.264 0.674 0.985 1.044 1.677 0.861 3.744-0.994 7.524 1.854 7.483 5.842-0.031 3.049-2.373 5.556-5.401 5.87l-0.289-1.363c-0.35-1.652-1.83-2.851-3.518-2.851h-1.51v-0.617c0-1.126-0.916-2.042-2.042-2.042h-4.604c-1.126 0-2.042 0.916-2.042 2.042v0.617h-1.51c-1.688 0-3.168 1.199-3.518 2.851l-0.289 1.363c-3.030-0.314-5.372-2.824-5.401-5.875-0.023-2.445 1.426-4.634 3.693-5.576 0.239-0.099 0.352-0.374 0.253-0.613s-0.374-0.352-0.613-0.253c-2.621 1.090-4.298 3.622-4.271 6.451 0.033 3.514 2.722 6.382 6.143 6.787l-0.777 3.665c-0.402 1.897 1.046 3.679 2.981 3.679 1.459 0 2.764-0.925 3.246-2.303l0.373-1.065c0.125-0.356 0.462-0.596 0.84-0.596h6.389c0.378 0 0.715 0.239 0.84 0.596l0.373 1.065c0.482 1.377 1.787 2.303 3.246 2.303 1.235 0 2.34-0.738 2.815-1.879 0.1-0.239-0.013-0.513-0.252-0.613s-0.513 0.013-0.613 0.252c-0.33 0.791-1.095 1.302-1.95 1.302-1.062 0-2.011-0.673-2.361-1.675l-0.373-1.065c-0.256-0.732-0.949-1.223-1.724-1.223h-6.389c-0.775 0-1.468 0.492-1.724 1.223l-0.373 1.065c-0.351 1.002-1.3 1.675-2.361 1.675-1.343 0-2.342-1.237-2.064-2.547l1.262-5.949c0.259-1.221 1.353-2.108 2.601-2.108h11.708c1.248 0 2.342 0.886 2.601 2.108l1.106 5.216c0.054 0.253 0.303 0.415 0.556 0.361s0.415-0.303 0.361-0.556l-0.622-2.931c3.451-0.406 6.107-3.287 6.143-6.782zM19.406 16.423h-6.812v-0.617c0-0.609 0.495-1.104 1.104-1.104h4.604c0.609 0 1.104 0.495 1.104 1.104zM12.097 10.375c0.259 0 0.469-0.21 0.469-0.469v-0.75c0-0.259-0.21-0.469-0.469-0.469s-0.469 0.21-0.469 0.469v0.75c0 0.259 0.21 0.469 0.469 0.469zM20.372 9.906v-0.75c0-0.259-0.21-0.469-0.469-0.469s-0.469 0.21-0.469 0.469v0.75c0 0.259 0.21 0.469 0.469 0.469s0.469-0.21 0.469-0.469zM11.259 22.218c0.259 0 0.469-0.21 0.469-0.469v-0.6h0.6c0.259 0 0.469-0.21 0.469-0.469s-0.21-0.469-0.469-0.469h-0.6v-0.6c0-0.259-0.21-0.469-0.469-0.469s-0.469 0.21-0.469 0.469v0.6h-0.6c-0.259 0-0.469 0.21-0.469 0.469s0.21 0.469 0.469 0.469h0.6v0.6c0 0.259 0.21 0.469 0.469 0.469zM16 10.821c0.53 0 1.034-0.229 1.382-0.63 0.17-0.195 0.15-0.491-0.045-0.661s-0.491-0.15-0.661 0.045c-0.171 0.196-0.417 0.308-0.676 0.308s-0.505-0.112-0.676-0.308c-0.17-0.195-0.466-0.215-0.661-0.045s-0.216 0.466-0.045 0.661c0.349 0.4 0.853 0.63 1.382 0.63z"></path>
</svg>
