<!-- Generated by IcoMoon.io -->
<svg version="1.1" xmlns="http://www.w3.org/2000/svg" width="32" height="32" viewBox="0 0 32 32">
<title>online-game1</title>
<path fill="#8ee2e1" d="M27.382 11.85c0 6.286-5.096 11.381-11.381 11.381s-11.381-5.096-11.381-11.381c0-6.286 5.096-11.381 11.381-11.381s11.381 5.096 11.381 11.381z"></path>
<path fill="#6ad7d4" d="M26.746 15.606c-18.195 3.831-16.987-10.527-13.898-14.695-4.752 1.367-8.229 5.747-8.229 10.939 0 6.286 5.096 11.381 11.381 11.381 4.969 0 9.194-3.185 10.746-7.625z"></path>
<path fill="#807bcf" d="M18.736 14.654h-5.472c-1.032 0-1.869 0.837-1.869 1.869v2.897h9.21v-2.897c-0-1.032-0.837-1.869-1.869-1.869z"></path>
<path fill="#a78cd6" d="M25.096 31.531c1.948 0 3.402-1.794 2.998-3.7l-1.499-7.071c-0.364-1.718-1.881-2.946-3.636-2.946h-13.915c-1.756 0-3.272 1.229-3.637 2.946l-1.499 7.071c-0.404 1.906 1.049 3.7 2.998 3.7 1.5 0 2.837-0.948 3.332-2.364l0.443-1.266c0.227-0.647 0.838-1.081 1.524-1.081h7.593c0.686 0 1.297 0.433 1.524 1.081l0.443 1.266c0.496 1.416 1.832 2.364 3.332 2.364z"></path>
<path fill="#807bcf" d="M9.043 17.814c-1.756 0-3.272 1.229-3.637 2.946l-1.499 7.071c-0.404 1.906 1.049 3.7 2.998 3.7 1.5 0 2.837-0.948 3.332-2.364l0.443-1.266c0.227-0.647 0.838-1.081 1.524-1.081h0.135c-2.179-1.167-2.532-6.345-1.682-9.006z"></path>
<path fill="#000" d="M15.331 21.848c-0.259 0-0.469 0.21-0.469 0.469s0.21 0.469 0.469 0.469h1.338c0.259 0 0.469-0.21 0.469-0.469s-0.21-0.469-0.469-0.469zM10.366 24.056c0.259 0 0.469-0.21 0.469-0.469v-0.801h0.801c0.259 0 0.469-0.21 0.469-0.469s-0.21-0.469-0.469-0.469h-0.801v-0.801c0-0.259-0.21-0.469-0.469-0.469s-0.469 0.21-0.469 0.469v0.801h-0.801c-0.259 0-0.469 0.21-0.469 0.469s0.21 0.469 0.469 0.469h0.801v0.801c0 0.259 0.21 0.469 0.469 0.469zM21.635 24.056c0.259 0 0.469-0.21 0.469-0.469v-0.801h0.801c0.259 0 0.469-0.21 0.469-0.469s-0.21-0.469-0.469-0.469h-0.801v-0.801c0-0.259-0.21-0.469-0.469-0.469s-0.469 0.21-0.469 0.469v0.801h-0.801c-0.259 0-0.469 0.21-0.469 0.469s0.21 0.469 0.469 0.469h0.801v0.801c0 0.259 0.21 0.469 0.469 0.469zM28.552 27.733l-1.499-7.071c-0.182-0.856-0.625-1.608-1.233-2.178 1.33-1.962 2.031-4.247 2.031-6.634-0-6.534-5.316-11.85-11.85-11.85-2.17 0-4.293 0.592-6.139 1.712-0.221 0.134-0.292 0.423-0.158 0.644s0.423 0.292 0.644 0.158c1.699-1.031 3.654-1.576 5.653-1.576 6.017 0 10.913 4.895 10.913 10.913 0 2.184-0.637 4.274-1.845 6.073-0.626-0.368-1.349-0.578-2.11-0.578h-1.883v-0.785c0.47-1.406 0.75-2.891 0.803-4.242h3.035c0.259 0 0.469-0.21 0.469-0.469s-0.21-0.469-0.469-0.469h-3.035c-0.034-0.844-0.171-2.129-0.61-3.639h2.451c0.259 0 0.469-0.21 0.469-0.469s-0.21-0.469-0.469-0.469h-2.755c-0.436-1.218-1.072-2.542-2-3.878-0.148-0.212-0.44-0.265-0.652-0.118s-0.265 0.44-0.118 0.652c0.793 1.142 1.359 2.282 1.763 3.343h-7.912c0.404-1.061 0.97-2.201 1.763-3.343 0.148-0.213 0.095-0.505-0.118-0.652s-0.505-0.095-0.652 0.118c-0.928 1.336-1.564 2.66-2 3.878h-2.755c-0.259 0-0.469 0.21-0.469 0.469s0.21 0.469 0.469 0.469h2.451c-0.44 1.51-0.576 2.795-0.61 3.639h-3.035c-0.259 0-0.469 0.21-0.469 0.469s0.21 0.469 0.469 0.469h3.035c0.054 1.35 0.334 2.836 0.803 4.242v0.785h-1.883c-0.76 0-1.484 0.21-2.109 0.577-1.209-1.799-1.846-3.888-1.846-6.072 0-3.036 1.28-5.959 3.512-8.020 0.19-0.176 0.202-0.472 0.026-0.662s-0.472-0.202-0.662-0.026c-2.424 2.238-3.814 5.412-3.814 8.709 0 2.388 0.701 4.672 2.031 6.634-0.609 0.57-1.052 1.322-1.233 2.178l-1.499 7.070c-0.466 2.2 1.212 4.266 3.456 4.266 1.697 0 3.214-1.076 3.775-2.678l0.443-1.266c0.161-0.459 0.595-0.767 1.081-0.767h7.593c0.486 0 0.921 0.308 1.081 0.767l0.443 1.266c0.819 2.34 3.57 3.354 5.549 2.201 0.224-0.13 0.299-0.417 0.169-0.641s-0.417-0.3-0.641-0.169c-1.463 0.852-3.564 0.093-4.193-1.701l-0.443-1.266c-0.292-0.834-1.082-1.395-1.966-1.395h-7.593c-0.884 0-1.674 0.561-1.966 1.395l-0.443 1.266c-0.429 1.226-1.591 2.050-2.89 2.050-1.652 0-2.881-1.521-2.539-3.134l1.499-7.070c0.316-1.492 1.653-2.575 3.178-2.575h13.915c1.525 0 2.862 1.083 3.178 2.575l1.499 7.071c0.095 0.448 0.071 0.912-0.069 1.342-0.080 0.246 0.054 0.511 0.3 0.591s0.511-0.054 0.591-0.3c0.192-0.586 0.224-1.218 0.095-1.828zM11.721 7.742h8.559c0.482 1.555 0.622 2.864 0.659 3.639h-9.876c0.037-0.775 0.177-2.084 0.659-3.639zM20.137 17.345h-8.273v-0.821c0-0.772 0.628-1.401 1.401-1.401h5.472c0.772 0 1.401 0.628 1.401 1.401zM20.539 15.037c-0.429-0.52-1.078-0.851-1.803-0.851h-5.472c-0.725 0-1.374 0.332-1.803 0.851-0.274-1.119-0.371-2.062-0.4-2.718h9.878c-0.029 0.656-0.126 1.599-0.4 2.718z"></path>
</svg>
