<!-- Generated by IcoMoon.io -->
<svg version="1.1" xmlns="http://www.w3.org/2000/svg" width="32" height="32" viewBox="0 0 32 32">
<title>placeholder</title>
<path fill="#ffd4be" d="M22.877 17.935c-1.009-0.234-1.637-1.242-1.402-2.25s1.242-1.636 2.25-1.402c2.1 0.488 3.219 0.099 4.548-0.789 0.861-0.575 2.025-0.344 2.601 0.517s0.344 2.025-0.517 2.601c-2.285 1.527-4.461 2.025-7.479 1.324z"></path>
<path fill="#ffbf9e" d="M27.257 14.078c-0.962 0.446-1.978 0.565-3.532 0.204-1.008-0.234-2.016 0.394-2.25 1.402s0.394 2.016 1.402 2.25c1.661 0.385 3.066 0.407 4.375 0.096 0.003-0.088 0.005-0.175 0.005-0.264z"></path>
<path fill="#ffd4be" d="M1.127 18.916c-0.575-0.861-0.344-2.025 0.517-2.601 2.275-1.52 4.449-2.028 7.479-1.324 1.009 0.234 1.637 1.242 1.402 2.25s-1.242 1.637-2.25 1.402c-2.101-0.488-3.219-0.099-4.548 0.789-0.861 0.576-2.025 0.344-2.601-0.517z"></path>
<path fill="#ffbf9e" d="M9.123 14.991c-1.665-0.387-3.072-0.407-4.38-0.094v2.871c0 0.354 0.024 0.704 0.071 1.049 0.941-0.419 1.945-0.524 3.461-0.172 1.009 0.234 2.016-0.394 2.25-1.402s-0.394-2.016-1.402-2.25z"></path>
<path fill="#807bcf" d="M23.025 28.121c0 1.884-3.145 3.41-7.025 3.41s-7.025-1.527-7.025-3.41c0-1.884 3.145-3.41 7.025-3.41s7.025 1.527 7.025 3.41z"></path>
<path fill="#d4d4ff" d="M23.443 21.693l-5.262 5.261c-1.205 1.205-3.158 1.205-4.363 0l-5.261-5.261c-1.041-1.041-1.626-2.453-1.626-3.926v-7.15c0-1.769 1.434-3.204 3.204-3.204h11.73c1.769 0 3.204 1.434 3.204 3.204v7.15c0 1.472-0.585 2.884-1.626 3.926z"></path>
<path fill="#9ea2e3" d="M21.865 7.413h-11.73c-1.77 0-3.204 1.434-3.204 3.204v3.375c1.812 2.847 5.196 4.778 9.069 4.778 3.875 0 7.258-1.931 9.069-4.778v-3.375c0-1.769-1.434-3.204-3.204-3.204z"></path>
<path fill="#ffbf9e" d="M10.095 9.099c0 1.487-1.263 2.692-2.821 2.692s-2.821-1.205-2.821-2.692c0-1.487 1.263-2.692 2.821-2.692s2.821 1.205 2.821 2.692z"></path>
<path fill="#ffbf9e" d="M27.547 9.099c0 1.487-1.263 2.692-2.821 2.692s-2.821-1.205-2.821-2.692c0-1.487 1.263-2.692 2.821-2.692s2.821 1.205 2.821 2.692z"></path>
<path fill="#ffd4be" d="M24.323 9.093c0 4.136-3.727 7.49-8.323 7.49s-8.323-3.353-8.323-7.49c0-4.136 3.727-7.49 8.323-7.49s8.323 3.353 8.323 7.49z"></path>
<path fill="#6171a3" d="M16.248 0.795c4.251-1.458 9.001 2.263 8.655 5.351-0.048 0.425-0.417 0.739-0.845 0.731-2.698-0.048-6.581-1.581-7.861-2.623-0.114-0.093-0.278-0.093-0.393 0-1.28 1.042-5.163 2.575-7.861 2.623-0.428 0.008-0.798-0.306-0.845-0.731-0.346-3.088 4.404-6.809 8.655-5.351 0.16 0.055 0.335 0.055 0.495 0z"></path>
<path fill="#eda1ab" d="M12.862 10.429c0 0.807-0.821 1.461-1.835 1.461s-1.835-0.654-1.835-1.461c0-0.807 0.821-1.461 1.835-1.461s1.835 0.654 1.835 1.461z"></path>
<path fill="#eda1ab" d="M22.807 10.429c0 0.807-0.821 1.461-1.835 1.461s-1.835-0.654-1.835-1.461c0-0.807 0.821-1.461 1.835-1.461s1.835 0.654 1.835 1.461z"></path>
<path fill="#000" d="M19.903 9.491c0.259 0 0.469-0.21 0.469-0.469v-0.75c0-0.259-0.21-0.469-0.469-0.469s-0.469 0.21-0.469 0.469v0.75c0 0.259 0.21 0.469 0.469 0.469zM16 9.938c0.53 0 1.034-0.229 1.382-0.63 0.17-0.195 0.15-0.491-0.045-0.661s-0.491-0.15-0.661 0.045c-0.171 0.196-0.417 0.308-0.676 0.308s-0.505-0.112-0.676-0.308c-0.17-0.195-0.466-0.216-0.661-0.045s-0.216 0.466-0.045 0.661c0.349 0.4 0.853 0.63 1.382 0.63zM31.263 13.75c-0.718-1.074-2.176-1.365-3.251-0.647-0.799 0.534-1.515 0.881-2.475 0.918v-1.859c1.423-0.348 2.478-1.589 2.478-3.063 0-1.533-1.119-2.805-2.631-3.096 0.048-0.907-0.264-1.864-0.911-2.781-0.149-0.212-0.442-0.262-0.653-0.113s-0.262 0.442-0.113 0.653c0.559 0.794 0.812 1.6 0.73 2.332-0.021 0.188-0.187 0.319-0.371 0.315-2.613-0.046-6.396-1.559-7.573-2.518-0.285-0.232-0.699-0.232-0.984-0-1.178 0.958-4.961 2.471-7.574 2.518-0.194 0.005-0.351-0.132-0.371-0.315-0.303-2.706 4.082-6.212 8.037-4.855 0.258 0.088 0.541 0.088 0.799 0 1.864-0.639 4.044-0.246 5.832 1.052 0.209 0.152 0.503 0.106 0.655-0.104s0.105-0.503-0.104-0.655c-2.035-1.477-4.535-1.919-6.687-1.18-0.062 0.021-0.129 0.021-0.191 0-4.481-1.537-9.467 2.254-9.288 5.651-1.513 0.291-2.632 1.563-2.632 3.096 0 1.474 1.055 2.715 2.478 3.063v2.050c-1.777 0.028-3.363 0.566-5.079 1.713-1.077 0.72-1.366 2.174-0.647 3.251 0.718 1.075 2.176 1.364 3.251 0.646 0.827-0.553 1.569-0.905 2.581-0.92 0.223 1.176 0.792 2.257 1.657 3.122l3.060 3.060c-1.754 0.723-2.78 1.828-2.78 3.037 0 0.837 0.478 1.625 1.383 2.279 0.209 0.151 0.502 0.105 0.655-0.105s0.104-0.503-0.105-0.654c-0.454-0.328-0.995-0.858-0.995-1.519 0-0.873 0.976-1.745 2.567-2.311l1.476 1.476c1.389 1.389 3.637 1.389 5.026 0l1.476-1.476c1.591 0.566 2.568 1.438 2.568 2.311 0 0.711-0.654 1.436-1.794 1.99-1.264 0.614-2.956 0.952-4.763 0.952-1.32 0-2.596-0.183-3.69-0.53-0.247-0.078-0.51 0.059-0.588 0.305s0.059 0.51 0.305 0.588c1.185 0.375 2.559 0.573 3.973 0.573 4.202 0 7.494-1.704 7.494-3.879 0-1.209-1.026-2.314-2.78-3.036l3.060-3.060c0.911-0.911 1.493-2.062 1.689-3.31 1.807-0.015 3.414-0.552 5.153-1.714 1.077-0.72 1.366-2.174 0.647-3.251zM8.397 7.326c2.73-0.19 6.276-1.623 7.603-2.63 1.326 1.007 4.873 2.44 7.603 2.63 0.167 0.575 0.252 1.167 0.252 1.767 0 3.871-3.524 7.021-7.855 7.021s-7.855-3.15-7.855-7.021c0-0.599 0.085-1.192 0.252-1.767zM3.467 19.043c-0.645 0.431-1.52 0.257-1.951-0.388-0.432-0.646-0.258-1.519 0.388-1.95 1.55-1.036 2.974-1.524 4.558-1.554 0.001 2.746-0.003 2.606 0.004 2.815-1.19 0.036-2.074 0.46-2.999 1.078zM4.922 9.099c0-1.123 0.868-2.047 2.017-2.2 0.136 0.157 0.309 0.28 0.506 0.357-0.157 0.599-0.237 1.215-0.237 1.837 0 0.768 0.121 1.511 0.346 2.214-1.402 0.159-2.632-0.881-2.632-2.207zM24.6 17.767c0 1.358-0.529 2.634-1.489 3.594l-5.262 5.261c-1.022 1.023-2.678 1.023-3.7 0l-5.261-5.261c-0.96-0.96-1.489-2.236-1.489-3.594v-5.51c0.17-0.006 0.34-0.025 0.506-0.057 1.34 2.848 4.463 4.851 8.094 4.851s6.754-2.002 8.094-4.851c0.167 0.031 0.336 0.051 0.506 0.057zM24.446 11.307c0.225-0.703 0.346-1.446 0.346-2.214 0-0.622-0.080-1.237-0.237-1.837 0.197-0.077 0.369-0.2 0.505-0.357 1.149 0.153 2.017 1.077 2.017 2.2-0 1.325-1.228 2.367-2.632 2.207zM30.096 16.221c-1.55 1.035-2.975 1.524-4.558 1.554 0-0.007 0-2.806 0-2.816 1.188-0.037 2.071-0.459 2.995-1.077 0.645-0.431 1.52-0.257 1.951 0.388 0.432 0.646 0.258 1.519-0.388 1.951zM12.097 9.491c0.259 0 0.469-0.21 0.469-0.469v-0.75c0-0.259-0.21-0.469-0.469-0.469s-0.469 0.21-0.469 0.469v0.75c0 0.259 0.21 0.469 0.469 0.469zM17.939 21.408h-3.879c-0.259 0-0.469 0.21-0.469 0.469s0.21 0.469 0.469 0.469h3.879c0.259 0 0.469-0.21 0.469-0.469s-0.21-0.469-0.469-0.469z"></path>
</svg>
