<!-- Generated by IcoMoon.io -->
<svg version="1.1" xmlns="http://www.w3.org/2000/svg" width="32" height="32" viewBox="0 0 32 32">
<title>poker-cards</title>
<path fill="#d4d4ff" d="M14.216 30.696l-9.864-9.864c-0.782-0.782-0.782-2.050 0-2.832l13.896-13.896c0.782-0.782 2.050-0.782 2.832 0l9.864 9.864c0.782 0.782 0.782 2.050 0 2.832l-13.896 13.896c-0.782 0.782-2.050 0.782-2.832 0z"></path>
<path fill="#9ea2e3" d="M20.612 22.373v-18.617c-0.759-0.409-1.725-0.293-2.365 0.348l-13.896 13.896c-0.782 0.782-0.782 2.050 0 2.832l5.732 5.732h6.34c2.311 0 4.19-1.88 4.19-4.19z"></path>
<path fill="#de5c6e" d="M20.583 12.12l-5.517 1.18c-0.761 0.163-1.355 0.757-1.518 1.518l-1.18 5.517c-0.3 1.4 0.944 2.644 2.344 2.344l5.517-1.18c0.761-0.163 1.355-0.757 1.518-1.518l1.18-5.517c0.299-1.4-0.944-2.644-2.344-2.344z"></path>
<path fill="#d5364c" d="M20.612 21.375v-9.26c-0.010 0.002-0.019 0.003-0.029 0.005l-5.517 1.18c-0.761 0.163-1.355 0.757-1.518 1.518l-1.18 5.517c-0.3 1.4 0.944 2.644 2.344 2.344l5.517-1.18c0.134-0.029 0.261-0.071 0.383-0.125z"></path>
<path fill="#efedff" d="M16.422 24.376h-13.951c-1.106 0-2.003-0.897-2.003-2.003v-19.652c0-1.106 0.897-2.003 2.003-2.003h13.951c1.106 0 2.003 0.897 2.003 2.003v19.652c0 1.106-0.897 2.003-2.003 2.003z"></path>
<path fill="#6171a3" d="M12.084 11.645c-0.124-0.009-0.21-0.127-0.182-0.247 0.354-1.55-0.823-3.071-2.455-3.071s-2.809 1.523-2.454 3.071c0.028 0.121-0.059 0.238-0.182 0.247-1.305 0.099-2.322 1.189-2.322 2.508 0 1.872 1.958 3.053 3.591 2.276 0.061-0.029 0.131 0.015 0.13 0.083-0.013 0.711-0.097 1.484-0.318 2.113-0.116 0.33 0.128 0.675 0.477 0.675h2.158c0.35 0 0.593-0.345 0.477-0.675-0.222-0.63-0.305-1.403-0.318-2.113-0.001-0.067 0.069-0.111 0.13-0.083 1.629 0.774 3.591-0.399 3.591-2.276 0-1.318-1.017-2.409-2.322-2.508z"></path>
<path fill="#eda1ab" d="M6.151 6.118c0 0.848-0.863 1.535-1.927 1.535s-1.927-0.687-1.927-1.535c0-0.848 0.863-1.535 1.927-1.535s1.927 0.687 1.927 1.535z"></path>
<path fill="#eda1ab" d="M16.597 6.118c0 0.848-0.863 1.535-1.927 1.535s-1.927-0.687-1.927-1.535c0-0.848 0.863-1.535 1.927-1.535s1.927 0.687 1.927 1.535z"></path>
<path fill="#000" d="M5.347 5.090c0.259 0 0.469-0.21 0.469-0.469v-0.75c0-0.259-0.21-0.469-0.469-0.469s-0.469 0.21-0.469 0.469v0.75c0 0.259 0.21 0.469 0.469 0.469zM7.715 17.055c-0.042 0.553-0.133 1.035-0.266 1.415-0.223 0.633 0.247 1.299 0.919 1.299h2.158c0.671 0 1.143-0.665 0.919-1.299-0.133-0.379-0.224-0.862-0.266-1.415 1.828 0.45 3.695-0.924 3.695-2.901 0-1.453-1.061-2.691-2.465-2.939 0.224-1.754-1.146-3.357-2.963-3.357-1.822 0-3.186 1.608-2.963 3.357-1.403 0.248-2.465 1.486-2.465 2.939-0 1.977 1.866 3.352 3.695 2.901zM6.846 12.113c0.41-0.031 0.695-0.42 0.604-0.819-0.289-1.264 0.675-2.498 1.998-2.498s2.287 1.234 1.998 2.498c-0.092 0.4 0.195 0.788 0.604 0.819 1.059 0.080 1.889 0.977 1.889 2.041 0 1.545-1.613 2.474-2.921 1.852-0.375-0.178-0.808 0.099-0.8 0.515 0.017 0.897 0.133 1.657 0.345 2.26 0.002 0.006 0.007 0.019-0.005 0.035-0.016 0.023 0.183 0.016-2.188 0.016-0.026 0-0.044-0.025-0.035-0.051 0.212-0.603 0.328-1.363 0.345-2.26 0.008-0.415-0.424-0.693-0.8-0.515-0.632 0.301-1.369 0.254-1.97-0.126-0.604-0.382-0.951-1.011-0.951-1.726 0-1.064 0.83-1.96 1.889-2.041zM12.822 5.069c0.259 0 0.469-0.21 0.469-0.469 0-0.221 0.18-0.4 0.4-0.4s0.4 0.18 0.4 0.4c0 0.259 0.21 0.469 0.469 0.469s0.469-0.21 0.469-0.469c0-0.738-0.6-1.338-1.338-1.338s-1.338 0.6-1.338 1.338c0 0.259 0.21 0.469 0.469 0.469zM31.276 13.636l-9.864-9.864c-0.675-0.675-1.655-0.884-2.517-0.601v-0.45c0-1.363-1.109-2.472-2.472-2.472h-11.094c-0.259 0-0.469 0.21-0.469 0.469s0.21 0.469 0.469 0.469h11.094c0.846 0 1.534 0.688 1.534 1.534v19.652c0 0.846-0.688 1.534-1.534 1.534h-13.951c-0.846 0-1.534-0.688-1.534-1.534v-19.652c0-0.846 0.688-1.534 1.534-1.534h0.563c0.259 0 0.469-0.21 0.469-0.469s-0.21-0.469-0.469-0.469h-0.563c-1.363 0-2.472 1.109-2.472 2.472v19.652c0 1.363 1.109 2.472 2.472 2.472h5.229l6.183 6.183c0.963 0.964 2.532 0.964 3.495 0l0.818-0.818c0.183-0.183 0.183-0.48 0-0.663s-0.48-0.183-0.663 0l-0.818 0.818c-0.598 0.598-1.571 0.598-2.17 0l-5.52-5.52h7.395c1.363 0 2.472-1.109 2.472-2.472v-0.109l1.434-0.307c0.94-0.201 1.677-0.938 1.878-1.878l1.18-5.517c0.371-1.733-1.17-3.271-2.901-2.901l-1.591 0.34v-7.808c0.593-0.345 1.356-0.258 1.854 0.24l9.864 9.864c0.6 0.6 0.6 1.57 0 2.17l-11.498 11.498c-0.183 0.183-0.183 0.48 0 0.663s0.48 0.183 0.663 0l11.498-11.498c0.966-0.966 0.966-2.529 0-3.495zM20.681 12.578c1.069-0.229 2.017 0.717 1.788 1.788l-1.18 5.517c-0.124 0.579-0.578 1.034-1.158 1.158l-1.237 0.265v-8.345zM9.447 5.578c0.55 0 1.072-0.238 1.434-0.653 0.17-0.195 0.15-0.491-0.045-0.661s-0.491-0.15-0.661 0.045c-0.184 0.211-0.449 0.332-0.728 0.332s-0.544-0.121-0.727-0.332c-0.17-0.195-0.466-0.215-0.661-0.045s-0.215 0.466-0.045 0.661c0.362 0.415 0.885 0.653 1.434 0.653z"></path>
</svg>
