<!-- Generated by IcoMoon.io -->
<svg version="1.1" xmlns="http://www.w3.org/2000/svg" width="32" height="32" viewBox="0 0 32 32">
<title>potion</title>
<path fill="#daa985" d="M20.118 2.38h-8.237c-0.804 0-1.439 0.681-1.383 1.483l0.218 3.118h10.567l0.218-3.118c0.056-0.802-0.579-1.483-1.383-1.483z"></path>
<path fill="#d2896f" d="M14.662 2.38h-2.78c-0.804 0-1.439 0.681-1.383 1.483l0.218 3.118h5.003c-1.118-0.836-1.447-3.534-1.058-4.601z"></path>
<path fill="#efedff" d="M5.735 18.914c3.138 3.053 7.978 3.053 12.072 1.508l8.791-0.845c-1.029-2.262-2.897-4.124-5.249-5.26-0.694-0.335-1.072-1.099-0.922-1.855l0.805-4.063h-10.465l0.805 4.063c0.15 0.756-0.228 1.519-0.922 1.855-2.118 1.023-3.844 2.635-4.918 4.597z"></path>
<path fill="#d4d4ff" d="M5.735 18.914c1.524 1.483 3.451 2.245 5.498 2.46 0.316-1.812 0.999-3.505 1.875-4.805 0.979-1.453 1.227-2.9 0.925-4.091-0.079-0.313 0.161-0.615 0.484-0.604 0.479 0.016 0.975 0.025 1.483 0.025 1.739 0 3.335-0.104 4.583-0.222l0.649-3.277h-10.465l0.805 4.063c0.15 0.756-0.228 1.519-0.922 1.855-2.118 1.023-3.844 2.635-4.918 4.597z"></path>
<path fill="#efedff" d="M16 9.712c-2.676 0-4.998-0.259-6.143-0.414-0.926-0.125-1.575-0.976-1.45-1.902s0.976-1.575 1.902-1.45c1.062 0.143 3.213 0.383 5.691 0.383s4.63-0.24 5.691-0.383c0.925-0.125 1.777 0.524 1.902 1.45s-0.524 1.777-1.45 1.902c-1.146 0.154-3.467 0.414-6.143 0.414z"></path>
<path fill="#8ee2e1" d="M26.597 19.577l-8.79 0.845c-1.798-0.813-3.795-1.43-5.81-1.735-4.842 4.113-3.969 10.983 3.196 12.844h7.312c1.31 0 2.542-0.645 3.27-1.735 1.161-1.736 1.698-3.875 1.698-6.19 0-1.428-0.313-2.789-0.877-4.029z"></path>
<path fill="#6ad7d4" d="M11.997 18.687c-2.139-0.324-4.298-0.296-6.262 0.226-0.773 1.412-1.209 3.006-1.209 4.693 0 2.315 0.537 4.455 1.698 6.19 0.729 1.089 1.96 1.735 3.27 1.735h5.699c-4.717-3.032-4.838-8.77-3.196-12.844z"></path>
<path fill="#6ad7d4" d="M26.538 19.448c1.294 2.62-4.366 2.948-8.731 0.974 2.533-1.834 7.589-3.286 8.731-0.974z"></path>
<path fill="#6ad7d4" d="M30.826 10.981c0 1.426-1.156 2.581-2.581 2.581s-2.581-1.156-2.581-2.581c0-1.426 1.156-2.581 2.581-2.581s2.581 1.156 2.581 2.581z"></path>
<path fill="#6ad7d4" d="M4.863 12.845c0.397 0.979-0.075 2.094-1.053 2.491s-2.094-0.075-2.491-1.053c-0.397-0.979 0.075-2.094 1.053-2.491s2.094 0.075 2.491 1.053z"></path>
<path fill="#8ee2e1" d="M28.637 2.38c0 1.056-0.856 1.911-1.911 1.911s-1.911-0.856-1.911-1.911c0-1.056 0.856-1.911 1.911-1.911s1.911 0.856 1.911 1.911z"></path>
<path fill="#fff" d="M12.859 27.145c0 0.808-0.822 1.463-1.837 1.463s-1.837-0.655-1.837-1.463c0-0.808 0.822-1.463 1.837-1.463s1.837 0.655 1.837 1.463z"></path>
<path fill="#fff" d="M22.814 27.145c0 0.808-0.822 1.463-1.837 1.463s-1.837-0.655-1.837-1.463c0-0.808 0.822-1.463 1.837-1.463s1.837 0.655 1.837 1.463z"></path>
<path fill="#565e75" d="M17.481 26.021c0-0.915-0.663-1.001-1.481-1.001s-1.481 0.086-1.481 1.001 0.663 1.657 1.481 1.657c0.818 0 1.481-0.742 1.481-1.657z"></path>
<path fill="#000" d="M26.726 4.76c1.312 0 2.38-1.068 2.38-2.38s-1.068-2.38-2.38-2.38c-1.312 0-2.38 1.068-2.38 2.38s1.068 2.38 2.38 2.38zM26.726 0.938c0.796 0 1.443 0.647 1.443 1.443s-0.647 1.443-1.443 1.443-1.443-0.647-1.443-1.443 0.647-1.443 1.443-1.443zM5.465 13.562c0-1.312-1.068-2.38-2.38-2.38s-2.38 1.068-2.38 2.38 1.068 2.38 2.38 2.38c1.312-0 2.38-1.068 2.38-2.38zM3.085 15.005c-0.796 0-1.443-0.647-1.443-1.443s0.647-1.443 1.443-1.443 1.443 0.647 1.443 1.443-0.647 1.443-1.443 1.443zM28.245 7.931c-1.682 0-3.050 1.368-3.050 3.050s1.368 3.050 3.050 3.050c1.682 0 3.050-1.368 3.050-3.050s-1.368-3.050-3.050-3.050zM28.245 13.093c-1.165 0-2.112-0.948-2.112-2.112s0.948-2.112 2.112-2.112 2.112 0.948 2.112 2.112-0.948 2.112-2.112 2.112zM17.259 24.759c-0.341-0.173-0.75-0.208-1.259-0.208s-0.919 0.035-1.259 0.208c-0.315 0.16-0.69 0.508-0.69 1.262 0 1.172 0.875 2.126 1.95 2.126s1.95-0.954 1.95-2.126c0-0.754-0.375-1.102-0.69-1.262zM16 27.209c-0.558 0-1.012-0.533-1.012-1.188 0-0.369 0.041-0.532 1.012-0.532s1.012 0.163 1.012 0.532c0 0.655-0.454 1.188-1.012 1.188zM21.553 13.895c-0.501-0.242-0.774-0.793-0.666-1.341l0.534-2.693c0.301-0.035 0.565-0.068 0.785-0.098 1.18-0.159 2.011-1.249 1.852-2.429-0.149-1.103-1.11-1.9-2.198-1.87l0.11-1.567c0.075-1.072-0.776-1.984-1.851-1.984h-6.509c-0.259 0-0.469 0.21-0.469 0.469s0.21 0.469 0.469 0.469h6.509c0.529 0 0.953 0.447 0.915 0.982l-0.122 1.74c-3.237 0.375-6.416 0.394-9.824 0l-0.122-1.74c-0.028-0.405 0.207-0.775 0.585-0.921 0.242-0.093 0.362-0.365 0.269-0.606s-0.365-0.362-0.606-0.269c-0.765 0.295-1.24 1.043-1.183 1.861l0.11 1.567c-1.088-0.030-2.050 0.768-2.198 1.87-0.159 1.18 0.672 2.27 1.852 2.429 0.22 0.030 0.484 0.063 0.785 0.098l0.534 2.693c0.109 0.548-0.165 1.1-0.666 1.341-3.941 1.904-6.39 5.625-6.39 9.712 0 2.518 0.598 4.688 1.777 6.451 0.814 1.216 2.182 1.942 3.66 1.942h11.786c0.259 0 0.469-0.21 0.469-0.469s-0.21-0.469-0.469-0.469h-11.786c-1.164 0-2.241-0.571-2.881-1.526-1.074-1.606-1.619-3.601-1.619-5.93 0-1.513 0.371-2.971 1.053-4.288 3.319-0.819 7.624-0.253 11.566 1.53 1.628 0.736 3.559 1.209 5.297 1.297 1.197 0.061 2.932-0.036 3.794-0.869 0.197 0.753 0.3 1.534 0.3 2.33 0 2.329-0.545 4.324-1.619 5.93-0.469 0.701-1.182 1.204-2.009 1.416-0.251 0.064-0.402 0.32-0.337 0.571s0.32 0.402 0.571 0.337c1.050-0.27 1.957-0.91 2.555-1.803 1.18-1.763 1.777-3.933 1.777-6.451 0-4.087-2.448-7.808-6.39-9.711zM9.919 8.834c-0.668-0.090-1.138-0.707-1.048-1.375 0.083-0.613 0.609-1.059 1.211-1.059 0.054 0 0.109 0.004 0.164 0.011 3.814 0.514 7.694 0.514 11.508 0 0.668-0.090 1.285 0.38 1.375 1.048s-0.38 1.285-1.048 1.375c-3.99 0.538-8.091 0.549-12.161-0zM26.118 19.655c0.168 0.34 0.219 0.656-0.041 0.925-0.448 0.463-1.642 0.704-3.119 0.629-1.347-0.068-2.819-0.385-4.152-0.884 2.165-1.296 4.816-1.83 6.159-1.497 0.933 0.231 1.097 0.761 1.152 0.826zM17.755 19.886c-3.385-1.483-7.445-2.294-11.042-1.665 1.006-1.44 2.418-2.649 4.142-3.482 0.885-0.427 1.369-1.401 1.178-2.368l-0.477-2.408c3.017 0.287 5.836 0.29 8.889 0l-0.477 2.408c-0.192 0.967 0.293 1.94 1.178 2.368 1.589 0.768 2.913 1.854 3.898 3.148-2.103-0.434-5.317 0.66-7.289 2zM20.202 24.648v0.75c0 0.259 0.21 0.469 0.469 0.469s0.469-0.21 0.469-0.469v-0.75c0-0.259-0.21-0.469-0.469-0.469s-0.469 0.21-0.469 0.469zM10.861 24.648v0.75c0 0.259 0.21 0.469 0.469 0.469s0.469-0.21 0.469-0.469v-0.75c0-0.259-0.21-0.469-0.469-0.469s-0.469 0.21-0.469 0.469z"></path>
</svg>
