<!-- Generated by IcoMoon.io -->
<svg version="1.1" xmlns="http://www.w3.org/2000/svg" width="32" height="32" viewBox="0 0 32 32">
<title>profile</title>
<path fill="#efedff" d="M29.82 14.413c0 7.701-6.243 13.944-13.944 13.944s-13.944-6.243-13.944-13.944c0-7.701 6.243-13.944 13.944-13.944s13.944 6.243 13.944 13.944z"></path>
<path fill="#a78cd6" d="M22.571 21.697c0 3.254-2.998 5.892-6.696 5.892s-6.696-2.638-6.696-5.892c0-3.254 2.998-5.892 6.696-5.892s6.696 2.638 6.696 5.892z"></path>
<path fill="#807bcf" d="M21.419 18.392c-1.204-1.561-3.238-2.587-5.544-2.587s-4.339 1.026-5.544 2.587c1.554 0.865 3.478 1.332 5.544 1.332s3.99-0.468 5.544-1.332z"></path>
<path fill="#a78cd6" d="M23.656 11.622c0-4.097-3.484-7.1-7.781-7.1s-7.781 3.003-7.781 7.1 3.484 6.352 7.781 6.352c4.297 0 7.781-2.255 7.781-6.352z"></path>
<path fill="#fff" d="M12.737 12.8c0 0.807-0.821 1.461-1.835 1.461s-1.835-0.654-1.835-1.461c0-0.807 0.821-1.461 1.835-1.461s1.835 0.654 1.835 1.461z"></path>
<path fill="#fff" d="M22.682 12.8c0 0.807-0.821 1.461-1.835 1.461s-1.835-0.654-1.835-1.461c0-0.807 0.821-1.461 1.835-1.461s1.835 0.654 1.835 1.461z"></path>
<path fill="#f5ea72" d="M27.163 31.531h-22.576c-1.91 0-3.458-1.548-3.458-3.458v-3.357c0-1.91 1.548-3.458 3.458-3.458h22.576c1.91 0 3.458 1.548 3.458 3.458v3.357c-0 1.91-1.548 3.458-3.458 3.458z"></path>
<path fill="#ebca5f" d="M4.587 21.26c-1.91 0-3.458 1.548-3.458 3.458v3.357c0 1.91 1.548 3.458 3.458 3.458h8.373c-3.134-2.594-2.852-8.47-2.278-10.272z"></path>
<path fill="#de5c6e" d="M6.621 24.29l-1.562 1.562c-0.3 0.3-0.3 0.787 0 1.087l1.562 1.562c0.3 0.3 0.787 0.3 1.087 0l1.562-1.562c0.3-0.3 0.3-0.787 0-1.087l-1.562-1.562c-0.3-0.3-0.787-0.3-1.087 0z"></path>
<path fill="#000" d="M26.404 25.021c0-0.259-0.21-0.469-0.469-0.469h-12.679c-0.259 0-0.469 0.21-0.469 0.469s0.21 0.469 0.469 0.469h12.679c0.259 0 0.469-0.21 0.469-0.469zM19.903 11.863c0.259 0 0.469-0.21 0.469-0.469v-0.75c0-0.259-0.21-0.469-0.469-0.469s-0.469 0.21-0.469 0.469v0.75c0 0.259 0.21 0.469 0.469 0.469zM12.097 10.175c-0.259 0-0.469 0.21-0.469 0.469v0.75c0 0.259 0.21 0.469 0.469 0.469s0.469-0.21 0.469-0.469v-0.75c0-0.259-0.21-0.469-0.469-0.469zM13.257 27.301c-0.259 0-0.469 0.21-0.469 0.469s0.21 0.469 0.469 0.469h4.246c0.259 0 0.469-0.21 0.469-0.469s-0.21-0.469-0.469-0.469zM6.415 23.959c-0.967 0.967-0.595 0.595-1.562 1.562-0.484 0.483-0.484 1.266-0 1.75l1.562 1.562c0.482 0.482 1.267 0.482 1.75-0l1.562-1.562c0.482-0.483 0.482-1.267 0-1.75l-1.562-1.562c-0.482-0.483-1.268-0.482-1.75 0zM9.064 26.608l-1.562 1.562c-0.117 0.117-0.307 0.117-0.424 0l-1.562-1.562c-0.117-0.117-0.117-0.307 0-0.424l1.562-1.562c0.117-0.117 0.307-0.117 0.424-0l1.562 1.562c0.117 0.117 0.117 0.307 0 0.424zM17.382 11.68c0.17-0.195 0.15-0.491-0.046-0.661s-0.491-0.15-0.661 0.045c-0.171 0.196-0.417 0.308-0.676 0.308s-0.505-0.112-0.676-0.308c-0.17-0.195-0.466-0.216-0.661-0.045s-0.216 0.466-0.046 0.661c0.349 0.4 0.853 0.63 1.382 0.63s1.034-0.229 1.382-0.63zM28.778 21.085c1.071-2.049 1.635-4.344 1.635-6.672 0-7.966-6.446-14.413-14.413-14.413-2.588 0-5.126 0.694-7.34 2.006-0.223 0.132-0.296 0.42-0.164 0.642s0.42 0.296 0.642 0.164c2.069-1.227 4.442-1.875 6.862-1.875 7.448 0 13.476 6.027 13.476 13.476 0 2.246-0.561 4.458-1.624 6.419-0.504-0.073-0.461-0.027-4.76-0.041-0.22-1.36-0.938-2.627-2.032-3.597 2.001-1.171 3.19-3.099 3.19-5.572 0-4.375-3.712-7.569-8.249-7.569-4.545 0-8.249 3.2-8.249 7.569 0 2.467 1.184 4.397 3.19 5.572-1.094 0.971-1.812 2.238-2.032 3.597-4.317 0.014-4.26-0.031-4.76 0.041-1.063-1.961-1.624-4.172-1.624-6.419 0-3.997 1.759-7.764 4.826-10.334 0.198-0.166 0.224-0.462 0.058-0.66s-0.462-0.225-0.66-0.058c-3.28 2.749-5.162 6.777-5.162 11.053 0 2.329 0.564 4.623 1.635 6.672-1.428 0.588-2.436 1.994-2.436 3.632v3.357c0 2.165 1.761 3.926 3.926 3.926h19.681c0.259 0 0.469-0.21 0.469-0.469s-0.21-0.469-0.469-0.469h-19.681c-1.648 0-2.989-1.341-2.989-2.989v-3.357c0-1.648 1.341-2.989 2.989-2.989h22.576c1.648 0 2.989 1.341 2.989 2.989v3.357c0 1.648-1.341 2.989-2.989 2.989h-0.656c-0.259 0-0.469 0.21-0.469 0.469s0.21 0.469 0.469 0.469h0.656c2.165 0 3.926-1.761 3.926-3.926v-3.357c0-1.638-1.008-3.044-2.436-3.632zM8.688 11.622c0-3.835 3.272-6.631 7.312-6.631 4.051 0 7.312 2.807 7.312 6.631 0 3.94-3.434 5.883-7.312 5.883s-7.312-1.943-7.312-5.883zM9.86 20.791c0.236-1.204 0.941-2.319 1.995-3.139 2.473 1.053 5.798 1.060 8.289 0 1.054 0.821 1.759 1.935 1.995 3.139z"></path>
</svg>
