<!-- Generated by IcoMoon.io -->
<svg version="1.1" xmlns="http://www.w3.org/2000/svg" width="32" height="32" viewBox="0 0 32 32">
<title>ranking</title>
<path fill="#f5ea72" d="M15.586 13.27l-2.523 0.725c-0.984 0.283-1.973-0.435-2.008-1.459l-0.090-2.623c-0.010-0.296-0.103-0.582-0.269-0.827l-1.469-2.175c-0.573-0.849-0.196-2.010 0.767-2.36l2.467-0.896c0.278-0.101 0.522-0.278 0.704-0.511l1.614-2.070c0.63-0.808 1.852-0.808 2.482 0l1.615 2.070c0.182 0.233 0.426 0.41 0.704 0.511l2.467 0.896c0.963 0.35 1.34 1.511 0.767 2.36l-1.469 2.175c-0.166 0.245-0.259 0.532-0.269 0.827l-0.090 2.623c-0.035 1.024-1.023 1.742-2.008 1.459l-2.523-0.725c-0.284-0.082-0.586-0.082-0.87 0z"></path>
<path fill="#ebca5f" d="M10.991 10.654l0.064 1.883c0.035 1.024 1.023 1.742 2.008 1.459l2.523-0.725c0.284-0.082 0.586-0.082 0.87 0l2.523 0.725c0.984 0.283 1.973-0.435 2.008-1.459l0.064-1.883z"></path>
<path fill="#d4d4ff" d="M1.313 27.998v-11.623c0-1.951 1.582-3.533 3.533-3.533h22.308c1.951 0 3.533 1.582 3.533 3.533v11.623c0 1.951-1.582 3.533-3.533 3.533h-22.308c-1.951 0-3.533-1.582-3.533-3.533z"></path>
<path fill="#9ea2e3" d="M4.846 12.842c-1.951 0-3.533 1.582-3.533 3.533v11.623c0 1.951 1.582 3.533 3.533 3.533h11.164c-5.513-3.233-5.174-14.976-4.253-18.69h-6.911z"></path>
<path fill="#f5ea72" d="M8.494 22.186h-2.64c-1.061 0-1.921-0.86-1.921-1.921v-2.883c0-1.061 0.86-1.921 1.921-1.921h9.365l-1.461 3.362z"></path>
<path fill="#a78cd6" d="M26.146 22.186h-17.651l6.724-6.724h10.927c1.061 0 1.921 0.86 1.921 1.921v2.883c0 1.061-0.86 1.921-1.921 1.921z"></path>
<path fill="#8ee2e1" d="M8.494 28.911h-2.64c-1.061 0-1.921-0.86-1.921-1.921v-2.883c0-1.061 0.86-1.921 1.921-1.921h9.365l-1.461 3.362z"></path>
<path fill="#6171a3" d="M26.146 28.911h-17.651l6.724-6.724h10.927c1.061 0 1.921 0.86 1.921 1.921v2.883c0 1.061-0.86 1.921-1.921 1.921z"></path>
<path fill="#000" d="M23.063 25.080h-2.562c-0.259 0-0.469 0.21-0.469 0.469s0.21 0.469 0.469 0.469h2.562c0.259 0 0.469-0.21 0.469-0.469s-0.21-0.469-0.469-0.469zM16.193 10.508c0.259 0 0.469-0.21 0.469-0.469v-4.556c0-0.259-0.21-0.469-0.469-0.469h-0.974c-0.259 0-0.469 0.21-0.469 0.469s0.21 0.469 0.469 0.469h0.505v4.088c0 0.259 0.21 0.469 0.469 0.469zM27.154 12.373h-5.693l0.084-2.443c0.007-0.208 0.072-0.409 0.189-0.581l1.469-2.175c0.744-1.101 0.256-2.609-0.995-3.063l-2.467-0.896c-0.195-0.071-0.366-0.195-0.494-0.359l-1.614-2.070c-0.817-1.048-2.402-1.049-3.221 0l-1.614 2.070c-0.128 0.164-0.299 0.288-0.494 0.359l-0.866 0.314c-0.243 0.088-0.369 0.357-0.281 0.601s0.357 0.369 0.601 0.281l0.866-0.314c0.361-0.131 0.677-0.361 0.913-0.663l1.615-2.070c0.442-0.567 1.3-0.568 1.742 0l1.614 2.070c0.236 0.303 0.552 0.532 0.913 0.663l2.467 0.896c0.676 0.245 0.941 1.061 0.538 1.657l-1.469 2.175c-0.215 0.318-0.336 0.69-0.349 1.074l-0.085 2.475h-9.003l-0.085-2.475c-0.013-0.384-0.134-0.755-0.349-1.074l-1.469-2.175c-0.322-0.477-0.222-1.129 0.229-1.485 0.203-0.16 0.238-0.455 0.077-0.658s-0.455-0.238-0.658-0.077c-0.833 0.658-1.020 1.864-0.424 2.745l1.47 2.175c0.116 0.172 0.182 0.373 0.189 0.581l0.084 2.443h-5.735c-2.207 0-4.002 1.795-4.002 4.002v11.623c0 2.207 1.795 4.002 4.002 4.002h18.364c0.259 0 0.469-0.21 0.469-0.469s-0.21-0.469-0.469-0.469h-18.364c-1.69 0-3.064-1.375-3.064-3.064v-11.623c0-1.69 1.375-3.064 3.064-3.064h22.308c1.69 0 3.064 1.375 3.064 3.064v11.623c0 1.69-1.375 3.064-3.064 3.064h-1.644c-0.259 0-0.469 0.21-0.469 0.469s0.21 0.469 0.469 0.469h1.644c2.207 0 4.002-1.795 4.002-4.002v-11.623c0-2.207-1.795-4.002-4.002-4.002zM3.465 24.107v2.883c0 1.318 1.072 2.39 2.39 2.39h20.292c1.318 0 2.39-1.072 2.39-2.39v-2.883c0-0.787-0.382-1.485-0.971-1.921 0.588-0.436 0.971-1.135 0.971-1.921v-2.883c0-1.318-1.072-2.39-2.39-2.39h-20.292c-1.318 0-2.39 1.072-2.39 2.39v2.883c0 0.787 0.382 1.485 0.971 1.921-0.588 0.436-0.971 1.134-0.971 1.921zM27.598 24.107v2.883c0 0.801-0.651 1.452-1.452 1.452h-16.52l5.787-5.787h10.733c0.801 0 1.452 0.651 1.452 1.452zM26.146 15.931c0.801 0 1.452 0.651 1.452 1.452v2.883c0 0.801-0.651 1.452-1.452 1.452h-16.52l5.787-5.787h10.733zM4.402 20.266v-2.883c0-0.801 0.651-1.452 1.452-1.452h8.233l-5.787 5.787h-2.446c-0.801-0-1.452-0.651-1.452-1.452zM4.402 24.107c0-0.801 0.651-1.452 1.452-1.452h8.233l-5.787 5.787h-2.446c-0.801 0-1.452-0.651-1.452-1.452zM20.502 19.293h2.562c0.259 0 0.469-0.21 0.469-0.469s-0.21-0.469-0.469-0.469h-2.562c-0.259 0-0.469 0.21-0.469 0.469s0.21 0.469 0.469 0.469z"></path>
</svg>
