<!-- Generated by IcoMoon.io -->
<svg version="1.1" xmlns="http://www.w3.org/2000/svg" width="32" height="32" viewBox="0 0 32 32">
<title>security</title>
<path fill="#f5ea72" d="M16.656 20.793c8.162-2.994 9.39-11.363 8.972-15.771-0.068-0.718-0.706-1.24-1.423-1.166-3.209 0.329-5.715-0.707-7.277-1.627-0.572-0.337-1.283-0.337-1.855 0-1.562 0.92-4.068 1.956-7.277 1.627-0.711-0.073-1.353 0.438-1.421 1.15-0.423 4.404 0.798 12.79 8.97 15.788 0.423 0.155 0.888 0.155 1.311 0z"></path>
<path fill="#fff" d="M20.287 18.205l1.197-1.197c1.175-1.175 1.227-3.090 0.072-4.285-1.18-1.221-3.127-1.233-4.323-0.037l-0.909 0.909c-0.178 0.178-0.467 0.178-0.645 0l-0.909-0.909c-1.196-1.196-3.143-1.184-4.323 0.037-1.156 1.195-1.104 3.11 0.072 4.285l1.197 1.197-0.337 0.337c1.093 0.904 2.402 1.677 3.968 2.251 0.423 0.155 0.889 0.155 1.311 0 1.566-0.574 2.875-1.347 3.968-2.251z"></path>
<path fill="#efedff" d="M22.009 16.309c-0.481-1.441-1.842-2.482-3.442-2.482h-5.132c-1.6 0-2.961 1.041-3.442 2.482 0.138 0.251 0.313 0.487 0.525 0.699l1.197 1.197-0.337 0.337c1.093 0.904 2.402 1.677 3.968 2.251 0.423 0.155 0.889 0.155 1.311 0 1.566-0.574 2.875-1.347 3.968-2.251l-0.337-0.337 1.197-1.197c0.212-0.212 0.386-0.448 0.525-0.699z"></path>
<path fill="#8ee2e1" d="M27.109 5.381c-0.187-1.974-1.927-3.393-3.892-3.191-1.741 0.178-3.497-0.177-5.173-1.164-0.619-0.364-1.326-0.557-2.044-0.557s-1.425 0.193-2.044 0.557c-1.686 0.993-3.442 1.341-5.173 1.164-1.962-0.201-3.701 1.211-3.89 3.174-0.133 1.387-0.271 5.022 1.322 8.802 1.608 3.814 4.503 6.58 8.374 8 0.453 0.166 0.928 0.25 1.411 0.25s0.958-0.084 1.411-0.25c3.866-1.418 6.76-4.18 8.369-7.988 1.595-3.775 1.461-7.409 1.329-8.796zM16.596 19.943c-0.384 0.141-0.808 0.141-1.192 0-7.429-2.725-8.54-10.349-8.155-14.353 0.062-0.647 0.646-1.112 1.292-1.045 2.917 0.299 5.196-0.643 6.616-1.479 0.52-0.306 1.166-0.306 1.686 0 1.42 0.836 3.698 1.778 6.616 1.479 0.652-0.067 1.232 0.407 1.294 1.060 0.381 4.008-0.737 11.616-8.157 14.338z"></path>
<path fill="#6ad7d4" d="M24.181 17.055c-0.532-0.173-1.091-0.264-1.655-0.264h-0.392c-0.044-0.235-0.111-0.462-0.198-0.679-1.241 1.591-2.968 2.961-5.339 3.831-0.384 0.141-0.808 0.141-1.192 0-2.372-0.87-4.099-2.24-5.339-3.831-0.087 0.217-0.154 0.444-0.198 0.679h-0.392c-0.565 0-1.123 0.091-1.655 0.264 1.663 2.337 3.959 4.079 6.77 5.11 0.453 0.166 0.928 0.25 1.411 0.25s0.958-0.084 1.411-0.25c2.811-1.031 5.107-2.773 6.769-5.11z"></path>
<path fill="#807bcf" d="M18.567 15.703h-5.132c-0.968 0-1.753 0.785-1.753 1.753v2.717h8.639v-2.717c0-0.968-0.785-1.753-1.753-1.753z"></path>
<path fill="#a78cd6" d="M24.532 31.531c1.827 0 3.191-1.683 2.811-3.47l-1.406-6.632c-0.342-1.611-1.764-2.763-3.411-2.763h-13.051c-1.647 0-3.069 1.152-3.411 2.763l-1.406 6.632c-0.379 1.788 0.984 3.47 2.811 3.47 1.407 0 2.66-0.889 3.125-2.217l0.416-1.187c0.213-0.607 0.786-1.014 1.429-1.014h7.122c0.643 0 1.216 0.407 1.429 1.014l0.416 1.187c0.465 1.328 1.718 2.217 3.125 2.217z"></path>
<path fill="#807bcf" d="M9.475 18.666c-1.647 0-3.069 1.152-3.411 2.763l-1.406 6.632c-0.379 1.788 0.984 3.47 2.811 3.47 1.407 0 2.66-0.889 3.125-2.217l0.416-1.187c0.213-0.607 0.786-1.014 1.429-1.014h0.127c-2.044-1.094-2.375-5.951-1.578-8.447z"></path>
<path fill="#eda1ab" d="M12.705 9.514c0 0.848-0.863 1.535-1.927 1.535s-1.927-0.687-1.927-1.535c0-0.848 0.863-1.535 1.927-1.535s1.927 0.687 1.927 1.535z"></path>
<path fill="#eda1ab" d="M23.151 9.514c0 0.848-0.863 1.535-1.927 1.535s-1.927-0.687-1.927-1.535c0-0.848 0.863-1.535 1.927-1.535s1.927 0.687 1.927 1.535z"></path>
<path fill="#000" d="M16 8.974c0.55 0 1.073-0.238 1.434-0.653 0.17-0.195 0.15-0.491-0.045-0.661s-0.491-0.15-0.661 0.045c-0.184 0.211-0.449 0.332-0.727 0.332s-0.544-0.121-0.727-0.332c-0.17-0.195-0.466-0.215-0.661-0.045s-0.216 0.466-0.045 0.661c0.362 0.415 0.885 0.653 1.434 0.653zM19.376 8.465c0.259 0 0.469-0.21 0.469-0.469 0-0.221 0.18-0.4 0.4-0.4s0.4 0.18 0.4 0.4c0 0.259 0.21 0.469 0.469 0.469s0.469-0.21 0.469-0.469c0-0.738-0.6-1.338-1.338-1.338s-1.338 0.6-1.338 1.338c0 0.259 0.21 0.469 0.469 0.469zM11.901 8.486c0.259 0 0.469-0.21 0.469-0.469v-0.75c0-0.259-0.21-0.469-0.469-0.469s-0.469 0.21-0.469 0.469v0.75c0 0.259 0.21 0.469 0.469 0.469zM15.373 22.421c-0.259 0-0.469 0.21-0.469 0.469s0.21 0.469 0.469 0.469h1.255c0.259 0 0.469-0.21 0.469-0.469s-0.21-0.469-0.469-0.469zM27.802 27.964l-1.406-6.632c-0.299-1.409-1.345-2.517-2.665-2.944 1.015-1.179 1.849-2.53 2.482-4.028 1.637-3.873 1.499-7.6 1.364-9.023-0.212-2.23-2.176-3.842-4.406-3.613-1.705 0.175-3.35-0.196-4.888-1.102-0.691-0.407-1.48-0.622-2.282-0.622s-1.591 0.215-2.282 0.622c-1.538 0.906-3.182 1.276-4.888 1.102-0.293-0.030-0.589-0.029-0.879 0.005-0.257 0.029-0.442 0.262-0.412 0.519s0.261 0.442 0.519 0.413c0.223-0.025 0.451-0.027 0.677-0.003 1.909 0.196 3.745-0.217 5.459-1.227 0.547-0.322 1.171-0.492 1.806-0.492s1.259 0.17 1.806 0.492c1.714 1.009 3.55 1.423 5.459 1.227 1.71-0.175 3.215 1.056 3.377 2.769 0.128 1.352 0.259 4.893-1.294 8.569-0.672 1.591-1.584 3.005-2.709 4.205-0.174-0.005 0.088-0.001-1.851-0.003v-0.187c1.811-1.598 3.105-3.707 3.843-6.277 0.768-2.672 0.698-5.015 0.588-6.173-0.086-0.907-0.892-1.577-1.808-1.482-2.763 0.283-4.967-0.614-6.33-1.417-0.667-0.393-1.495-0.393-2.162 0-1.363 0.803-3.567 1.7-6.33 1.417-0.905-0.092-1.72 0.559-1.807 1.467-0.111 1.159-0.184 3.502 0.583 6.178 0.738 2.574 2.032 4.687 3.846 6.287v0.187c-1.935 0.002-1.675-0.003-1.851 0.003-1.128-1.203-2.041-2.62-2.714-4.217-1.552-3.682-1.418-7.223-1.288-8.575 0.072-0.754 0.417-1.449 0.969-1.958 0.19-0.175 0.203-0.472 0.027-0.662s-0.472-0.203-0.662-0.027c-0.723 0.665-1.173 1.574-1.267 2.558-0.137 1.423-0.278 5.15 1.357 9.029 0.634 1.503 1.469 2.858 2.487 4.040-1.32 0.427-2.366 1.536-2.665 2.944l-1.406 6.632c-0.441 2.081 1.147 4.036 3.27 4.036 1.604 0 3.038-1.017 3.568-2.531l0.416-1.187c0.147-0.419 0.543-0.7 0.987-0.7h7.122c0.444 0 0.84 0.281 0.987 0.7l0.416 1.187c0.53 1.514 1.964 2.531 3.568 2.531 0.329 0 0.653-0.047 0.963-0.14 0.248-0.074 0.389-0.336 0.314-0.584s-0.336-0.389-0.584-0.314c-0.223 0.067-0.457 0.101-0.694 0.101-1.206 0-2.284-0.765-2.683-1.903l-0.416-1.187c-0.278-0.794-1.030-1.328-1.872-1.328h-7.122c-0.841 0-1.594 0.534-1.871 1.328l-0.416 1.187c-0.399 1.138-1.477 1.903-2.683 1.903-1.531 0-2.67-1.41-2.353-2.904l1.406-6.632c0.294-1.386 1.535-2.392 2.952-2.392h13.051c1.417 0 2.658 1.006 2.952 2.392l1.406 6.632c0.12 0.565 0.033 1.153-0.244 1.656-0.125 0.227-0.042 0.512 0.184 0.637s0.512 0.042 0.637-0.185c0.385-0.7 0.506-1.517 0.339-2.302zM7.716 5.635c0.037-0.39 0.391-0.663 0.778-0.624 2.387 0.245 4.774-0.288 6.902-1.542 0.373-0.22 0.837-0.22 1.21 0 2.128 1.253 4.514 1.786 6.901 1.542 0.395-0.040 0.742 0.245 0.779 0.638 0.257 2.705-0.242 5.802-1.532 8.311-0.653-2.614-3.932-3.526-5.853-1.605l-0.901 0.9-0.9-0.9c-1.924-1.924-5.201-1.005-5.853 1.605-1.29-2.508-1.792-5.61-1.531-8.325zM19.851 18.197h-7.701v-0.741c0-0.708 0.576-1.285 1.284-1.285h5.132c0.708 0 1.285 0.576 1.285 1.285v0.741zM18.567 15.234h-5.132c-1.002 0-1.851 0.667-2.127 1.58-0.418-0.421-0.801-0.875-1.151-1.363-0.215-0.862 0.020-1.776 0.626-2.402 1-1.034 2.644-1.042 3.655-0.031l0.909 0.91c0.361 0.36 0.947 0.36 1.308-0l0.909-0.909c1.014-1.014 2.657-1 3.655 0.031 0.606 0.626 0.841 1.54 0.626 2.402-0.349 0.487-0.733 0.942-1.151 1.362-0.276-0.913-1.125-1.58-2.127-1.58zM10.715 24.549c0.259 0 0.469-0.21 0.469-0.469v-0.722h0.722c0.259 0 0.469-0.21 0.469-0.469s-0.21-0.469-0.469-0.469h-0.722v-0.722c0-0.259-0.21-0.469-0.469-0.469s-0.469 0.21-0.469 0.469v0.722h-0.722c-0.259 0-0.469 0.21-0.469 0.469s0.21 0.469 0.469 0.469h0.722v0.722c0 0.259 0.21 0.469 0.469 0.469zM21.286 24.549c0.259 0 0.469-0.21 0.469-0.469v-0.722h0.722c0.259 0 0.469-0.21 0.469-0.469s-0.21-0.469-0.469-0.469h-0.722v-0.722c0-0.259-0.21-0.469-0.469-0.469s-0.469 0.21-0.469 0.469v0.722h-0.722c-0.259 0-0.469 0.21-0.469 0.469s0.21 0.469 0.469 0.469h0.722v0.722c0 0.259 0.21 0.469 0.469 0.469z"></path>
</svg>
