<!-- Generated by IcoMoon.io -->
<svg version="1.1" xmlns="http://www.w3.org/2000/svg" width="32" height="32" viewBox="0 0 32 32">
<title>servers</title>
<path fill="#a78cd6" d="M11.038 31.531h-1.887c-0.463 0-0.837-0.375-0.837-0.837v-1.469h3.562v1.469c0 0.462-0.375 0.837-0.837 0.837z"></path>
<path fill="#a78cd6" d="M24.726 31.531h1.887c0.462 0 0.837-0.375 0.837-0.837v-1.469h-3.562v1.469c0 0.462 0.375 0.837 0.837 0.837z"></path>
<path fill="#475a99" d="M27.451 29.225h-19.138c-1.16 0-2.1-0.94-2.1-2.1v-5.123c0-1.16 0.94-2.1 2.1-2.1h19.138c1.16 0 2.1 0.94 2.1 2.1v5.123c0 1.16-0.94 2.1-2.1 2.1z"></path>
<path fill="#8ee2e1" d="M21.615 24.225c0.181 0.765-0.293 1.531-1.057 1.712s-1.531-0.293-1.712-1.057c-0.181-0.765 0.293-1.531 1.057-1.712s1.531 0.293 1.712 1.057z"></path>
<path fill="#f5ea72" d="M26.543 23.557c0.556 0.556 0.556 1.456 0 2.012s-1.456 0.556-2.012 0c-0.556-0.556-0.556-1.456 0-2.012s1.456-0.556 2.012 0z"></path>
<path fill="#6171a3" d="M27.451 19.901h-19.138c-1.16 0-2.1-0.94-2.1-2.1v-5.123c0-1.16 0.94-2.1 2.1-2.1h19.138c1.16 0 2.1 0.94 2.1 2.1v5.123c0 1.16-0.94 2.1-2.1 2.1z"></path>
<path fill="#475a99" d="M8.313 10.578c-1.16 0-2.1 0.94-2.1 2.1v0.662c0.103 0.005 0.207 0.008 0.311 0.008h11.303c2.112 0 3.979-1.109 5.036-2.771h-14.551z"></path>
<path fill="#f5ea72" d="M21.232 14.234c0.556 0.556 0.556 1.457 0 2.012s-1.456 0.556-2.012 0c-0.556-0.556-0.556-1.457 0-2.012s1.456-0.556 2.012 0z"></path>
<path fill="#8ee2e1" d="M26.924 14.902c0.181 0.765-0.293 1.531-1.057 1.712s-1.531-0.293-1.712-1.057c-0.181-0.765 0.293-1.531 1.057-1.712s1.531 0.293 1.712 1.057z"></path>
<path fill="#efedff" d="M17.827 11.474c2.217 0 4.053-1.771 4.075-3.988 0.028-2.721-2.555-4.609-5.055-3.945-0.292 0.077-0.592-0.081-0.702-0.362-0.621-1.586-2.164-2.709-3.97-2.709s-3.349 1.123-3.97 2.709c-0.11 0.281-0.41 0.44-0.702 0.362-2.498-0.663-5.081 1.221-5.055 3.942 0.021 2.218 1.857 3.992 4.075 3.992z"></path>
<path fill="#d4d4ff" d="M10.973 0.642c-1.268 0.372-2.29 1.317-2.767 2.536-0.11 0.281-0.41 0.44-0.702 0.362-2.498-0.663-5.081 1.221-5.055 3.942 0.021 2.218 1.857 3.991 4.075 3.991h7.312c-3.792-1.541-4.040-8.536-2.863-10.832z"></path>
<path fill="#000" d="M12.784 13.69c-0.259 0-0.469 0.21-0.469 0.469v2.163c0 0.259 0.21 0.469 0.469 0.469s0.469-0.21 0.469-0.469v-2.163c0-0.259-0.21-0.469-0.469-0.469zM10.121 13.69c-0.259 0-0.469 0.21-0.469 0.469v2.163c0 0.259 0.21 0.469 0.469 0.469s0.469-0.21 0.469-0.469v-2.163c0-0.259-0.21-0.469-0.469-0.469zM20.23 13.348c-1.043 0-1.892 0.849-1.892 1.892s0.849 1.892 1.892 1.892c1.043 0 1.892-0.849 1.892-1.892s-0.849-1.892-1.892-1.892zM20.23 16.194c-0.526 0-0.954-0.428-0.954-0.954s0.428-0.954 0.954-0.954c0.526 0 0.954 0.428 0.954 0.954s-0.428 0.954-0.954 0.954zM25.542 13.348c-1.043 0-1.892 0.849-1.892 1.892s0.849 1.892 1.892 1.892 1.892-0.849 1.892-1.892-0.849-1.892-1.892-1.892zM25.542 16.194c-0.526 0-0.954-0.428-0.954-0.954s0.428-0.954 0.954-0.954 0.954 0.428 0.954 0.954-0.428 0.954-0.954 0.954zM15.446 13.69c-0.259 0-0.469 0.21-0.469 0.469v2.163c0 0.259 0.21 0.469 0.469 0.469s0.469-0.21 0.469-0.469v-2.163c0-0.259-0.21-0.469-0.469-0.469zM30.020 17.801v-5.123c0-1.416-1.152-2.569-2.569-2.569h-5.97c0.55-0.736 0.881-1.641 0.891-2.619 0.031-3.006-2.818-5.154-5.644-4.403-0.059 0.015-0.121-0.019-0.145-0.080-0.715-1.827-2.445-3.007-4.406-3.007s-3.691 1.18-4.406 3.007c-0.024 0.061-0.086 0.095-0.145 0.080-0.444-0.118-0.901-0.166-1.358-0.144-0.259 0.013-0.458 0.233-0.445 0.491s0.234 0.458 0.491 0.445c0.36-0.018 0.721 0.020 1.071 0.113 0.52 0.138 1.061-0.139 1.259-0.644 0.573-1.465 1.96-2.411 3.533-2.411s2.96 0.946 3.533 2.411c0.198 0.505 0.739 0.783 1.259 0.644 2.216-0.588 4.491 1.091 4.466 3.488-0.020 1.943-1.638 3.525-3.607 3.525h-11.303c-1.97 0-3.588-1.582-3.607-3.527-0.011-1.214 0.557-2.3 1.56-2.981 0.214-0.145 0.27-0.437 0.125-0.651s-0.437-0.27-0.651-0.125c-1.249 0.847-1.986 2.255-1.972 3.765 0.021 2.236 1.712 4.092 3.887 4.408-0.080 0.251-0.123 0.514-0.123 0.784v5.123c0 0.867 0.432 1.635 1.092 2.1-0.66 0.465-1.092 1.233-1.092 2.1v5.123c0 1.256 0.907 2.304 2.1 2.525v1.044c0 0.72 0.586 1.306 1.306 1.306h1.887c0.72 0 1.306-0.586 1.306-1.306v-1h11.076v1c0 0.72 0.586 1.306 1.306 1.306h1.887c0.72 0 1.306-0.586 1.306-1.306v-1.043c0.627-0.114 1.188-0.457 1.582-0.979 0.156-0.207 0.115-0.501-0.092-0.657s-0.5-0.115-0.657 0.091c-0.312 0.413-0.787 0.649-1.303 0.649h-19.138c-0.9 0-1.631-0.732-1.631-1.631v-5.123c0-0.9 0.732-1.631 1.631-1.631h19.138c0.9 0 1.631 0.732 1.631 1.631v4.25c0 0.259 0.21 0.469 0.469 0.469s0.469-0.21 0.469-0.469v-4.25c0-0.867-0.432-1.635-1.093-2.1 0.66-0.465 1.093-1.233 1.093-2.101zM24.358 29.693h2.625v1c0 0.203-0.165 0.369-0.369 0.369h-1.887c-0.203 0-0.369-0.165-0.369-0.369zM8.782 29.693h2.625v1c0 0.203-0.165 0.369-0.369 0.369h-1.887c-0.203 0-0.369-0.165-0.369-0.369zM29.083 17.801c0 0.9-0.732 1.631-1.631 1.631h-19.138c-0.9 0-1.631-0.732-1.631-1.631v-5.123c0-0.258 0.061-0.509 0.176-0.736h10.97c1.014 0 1.953-0.334 2.712-0.896h6.912c0.9 0 1.631 0.732 1.631 1.632v5.123zM9.653 23.482v2.163c0 0.259 0.21 0.469 0.469 0.469s0.469-0.21 0.469-0.469v-2.163c0-0.259-0.21-0.469-0.469-0.469s-0.469 0.21-0.469 0.469zM10.484 7.761c-0.183 0.183-0.183 0.48 0 0.663s0.48 0.183 0.663 0c0.568-0.568 1.491-0.568 2.059 0 0.183 0.183 0.48 0.183 0.663 0s0.183-0.48 0-0.663c-0.933-0.933-2.451-0.933-3.385 0zM12.315 23.482v2.163c0 0.259 0.21 0.469 0.469 0.469s0.469-0.21 0.469-0.469v-2.163c0-0.259-0.21-0.469-0.469-0.469s-0.469 0.21-0.469 0.469zM15.598 6.694c0.183-0.183 0.183-0.48 0-0.663-1.892-1.892-4.953-1.892-6.845 0-0.183 0.183-0.183 0.48 0 0.663s0.48 0.183 0.663-0c1.525-1.525 3.994-1.525 5.519 0 0.183 0.183 0.48 0.183 0.663 0zM23.651 24.563c0 1.043 0.849 1.892 1.892 1.892s1.892-0.849 1.892-1.892c0-1.043-0.849-1.892-1.892-1.892s-1.892 0.849-1.892 1.892zM26.497 24.563c0 0.526-0.428 0.954-0.954 0.954s-0.954-0.428-0.954-0.954 0.428-0.954 0.954-0.954 0.954 0.428 0.954 0.954zM18.338 24.563c0 1.043 0.849 1.892 1.892 1.892s1.892-0.849 1.892-1.892c0-1.043-0.849-1.892-1.892-1.892s-1.892 0.849-1.892 1.892zM21.184 24.563c0 0.526-0.428 0.954-0.954 0.954s-0.954-0.428-0.954-0.954 0.428-0.954 0.954-0.954 0.954 0.428 0.954 0.954zM14.977 23.482v2.163c0 0.259 0.21 0.469 0.469 0.469s0.469-0.21 0.469-0.469v-2.163c0-0.259-0.21-0.469-0.469-0.469s-0.469 0.21-0.469 0.469z"></path>
</svg>
