<!-- Generated by IcoMoon.io -->
<svg version="1.1" xmlns="http://www.w3.org/2000/svg" width="32" height="32" viewBox="0 0 32 32">
<title>settings</title>
<path fill="#a78cd6" d="M8.458 11.944l-0.044-1.819c-0.015-0.612 0.477-1.116 1.089-1.116h5.111c0.612 0 1.104 0.504 1.089 1.116l-0.044 1.819c-0.008 0.312 0.139 0.607 0.391 0.79l1.98 1.438c0.252 0.183 0.578 0.231 0.872 0.127l1.716-0.604c0.577-0.203 1.209 0.109 1.398 0.691l1.579 4.861c0.189 0.582-0.138 1.206-0.725 1.381l-1.743 0.52c-0.299 0.089-0.534 0.319-0.631 0.616l-0.756 2.327c-0.096 0.296-0.041 0.621 0.148 0.869l1.104 1.446c0.372 0.486 0.27 1.183-0.225 1.543l-4.135 3.004c-0.495 0.36-1.19 0.241-1.537-0.262l-1.034-1.497c-0.177-0.256-0.469-0.41-0.78-0.41h-2.447c-0.312 0-0.603 0.153-0.78 0.41l-1.034 1.497c-0.348 0.504-1.042 0.622-1.537 0.262l-4.135-3.004c-0.495-0.36-0.597-1.057-0.225-1.543l1.104-1.446c0.189-0.248 0.245-0.572 0.148-0.869l-0.756-2.327c-0.096-0.296-0.332-0.526-0.631-0.616l-1.743-0.52c-0.587-0.175-0.914-0.799-0.725-1.381l1.579-4.861c0.189-0.582 0.821-0.894 1.398-0.691l1.716 0.604c0.294 0.103 0.62 0.056 0.872-0.127l1.98-1.438c0.252-0.183 0.398-0.479 0.391-0.79z"></path>
<path fill="#807bcf" d="M20.769 27.949c0.23-0.167 0.374-0.407 0.426-0.665-9.368-0.457-13.301-7.907-12.907-14.778-0.060 0.086-0.133 0.164-0.221 0.227l-1.98 1.438c-0.252 0.183-0.578 0.231-0.872 0.127l-1.716-0.604c-0.577-0.203-1.209 0.109-1.398 0.691l-1.579 4.861c-0.189 0.582 0.138 1.206 0.725 1.381l1.743 0.52c0.299 0.089 0.534 0.319 0.631 0.616l0.756 2.327c0.096 0.296 0.041 0.621-0.148 0.869l-1.104 1.446c-0.372 0.486-0.27 1.183 0.225 1.543l4.135 3.004c0.495 0.36 1.19 0.241 1.537-0.262l1.034-1.497c0.177-0.256 0.469-0.41 0.78-0.41h2.447c0.312 0 0.603 0.153 0.78 0.41l1.034 1.497c0.348 0.504 1.042 0.622 1.537 0.262z"></path>
<path fill="#8ee2e1" d="M17.569 20.309c0 3.043-2.467 5.51-5.51 5.51s-5.51-2.467-5.51-5.51c0-3.043 2.467-5.51 5.51-5.51s5.51 2.467 5.51 5.51z"></path>
<path fill="#6ad7d4" d="M8.483 16.12c-1.183 1.011-1.934 2.512-1.934 4.19 0 3.043 2.467 5.51 5.51 5.51 0.831 0 1.618-0.185 2.325-0.514-3.375-2.076-5.285-5.524-5.901-9.185z"></path>
<path fill="#efedff" d="M31.443 6.292c-0.14-0.838-1.161-1.174-1.762-0.573l-2.609 2.609c-0.195 0.195-0.478 0.271-0.744 0.199l-1.531-0.41c-0.266-0.071-0.473-0.279-0.545-0.545l-0.41-1.531c-0.071-0.266 0.005-0.549 0.199-0.744l2.609-2.609c0.599-0.599 0.268-1.622-0.567-1.762-1.962-0.329-4.044 0.24-5.586 1.708-1.721 1.639-2.349 4.019-1.858 6.194 0.064 0.285-0.020 0.584-0.227 0.79l-8.521 8.521c-1.198 1.198-1.198 3.14 0 4.337s3.14 1.198 4.337 0l8.514-8.514c0.208-0.208 0.508-0.292 0.795-0.226 2.119 0.485 4.432-0.098 6.083-1.748 1.551-1.551 2.158-3.687 1.823-5.697z"></path>
<path fill="#000" d="M31.905 6.215c-0.203-1.215-1.688-1.696-2.556-0.828l-2.609 2.609c-0.076 0.076-0.188 0.106-0.291 0.078l-1.531-0.41c-0.104-0.028-0.185-0.109-0.213-0.213l-0.41-1.531c-0.028-0.104 0.002-0.215 0.078-0.291l1.329-1.329c0.183-0.183 0.183-0.48 0-0.663s-0.48-0.183-0.663 0l-1.329 1.329c-0.312 0.312-0.435 0.771-0.321 1.197l0.41 1.531c0.114 0.426 0.45 0.762 0.876 0.876l1.531 0.41c0.426 0.114 0.885-0.009 1.197-0.321l2.609-2.609c0.331-0.331 0.891-0.146 0.968 0.319 0.322 1.93-0.311 3.907-1.692 5.289-1.485 1.485-3.596 2.092-5.647 1.623-0.448-0.102-0.908 0.029-1.231 0.352l-8.514 8.514c-1.015 1.015-2.659 1.015-3.674 0s-1.015-2.659 0-3.674l8.521-8.521c0.322-0.322 0.454-0.78 0.353-1.225-0.471-2.087 0.189-4.291 1.724-5.752 1.393-1.326 3.283-1.904 5.185-1.585 0.381 0.064 0.569 0.458 0.443 0.774-0.096 0.24 0.021 0.513 0.262 0.609s0.513-0.021 0.609-0.262c0.348-0.873-0.19-1.883-1.159-2.046-2.164-0.362-4.402 0.322-5.986 1.831-1.772 1.687-2.535 4.23-1.992 6.637 0.029 0.13-0.009 0.263-0.102 0.356l-1.933 1.933 0.026-1.085c0.021-0.876-0.682-1.596-1.558-1.596h-5.111c-0.874 0-1.579 0.718-1.558 1.596l0.044 1.819c0.004 0.158-0.070 0.307-0.197 0.4l-1.98 1.438c-0.127 0.093-0.292 0.117-0.441 0.064l-1.716-0.604c-0.827-0.291-1.729 0.155-1.999 0.989l-1.579 4.861c-0.271 0.833 0.197 1.724 1.036 1.975l1.743 0.52c0.151 0.045 0.27 0.161 0.319 0.311l0.756 2.327c0.049 0.15 0.021 0.314-0.075 0.439l-1.104 1.446c-0.532 0.696-0.386 1.692 0.322 2.207l2.197 1.596c0.209 0.152 0.502 0.106 0.655-0.104s0.106-0.503-0.104-0.655l-2.197-1.596c-0.282-0.205-0.341-0.602-0.128-0.879l1.104-1.446c0.283-0.37 0.365-0.855 0.222-1.298l-0.756-2.327c-0.144-0.443-0.496-0.787-0.942-0.92l-1.743-0.52c-0.335-0.1-0.521-0.455-0.413-0.787l1.579-4.861c0.108-0.332 0.467-0.51 0.797-0.394l1.716 0.604c0.439 0.155 0.926 0.083 1.303-0.19l1.98-1.438c0.377-0.274 0.595-0.715 0.584-1.181l-0.044-1.819c-0.008-0.348 0.271-0.636 0.621-0.636h5.111c0.348 0 0.629 0.286 0.621 0.636-0.038 1.876-0.060 1.826-0.029 2.048l-2.238 2.238c-3.644-0.556-6.888 2.274-6.888 5.909 0 3.297 2.682 5.979 5.979 5.979s5.979-2.682 5.979-5.979c0-0.304-0.024-0.609-0.069-0.909l3.913-3.913 1.269 3.905c0.108 0.332-0.078 0.687-0.413 0.787l-1.743 0.52c-0.446 0.133-0.798 0.477-0.942 0.92l-0.756 2.327c-0.144 0.443-0.061 0.928 0.222 1.298l1.104 1.446c0.212 0.277 0.154 0.674-0.128 0.879l-4.135 3.004c-0.282 0.205-0.678 0.138-0.876-0.15l-1.034-1.497c-0.264-0.383-0.7-0.612-1.166-0.612h-2.447c-0.466 0-0.902 0.229-1.166 0.612l-1.034 1.497c-0.198 0.287-0.594 0.355-0.876 0.15l-0.152-0.111c-0.209-0.152-0.503-0.106-0.655 0.104s-0.106 0.503 0.104 0.655l0.152 0.111c0.709 0.515 1.7 0.346 2.199-0.375l1.034-1.497c0.089-0.13 0.237-0.207 0.395-0.207h2.447c0.158 0 0.305 0.077 0.395 0.207l1.034 1.497c0.498 0.721 1.49 0.89 2.199 0.375l4.135-3.004c0.709-0.515 0.854-1.511 0.322-2.207l-1.104-1.446c-0.096-0.125-0.124-0.29-0.075-0.439l0.756-2.327c0.049-0.15 0.168-0.266 0.319-0.311l1.743-0.52c0.84-0.251 1.307-1.142 1.036-1.975l-1.416-4.359 0.448-0.448c0.093-0.093 0.227-0.131 0.359-0.101 2.367 0.541 4.804-0.159 6.519-1.874 1.595-1.595 2.325-3.877 1.954-6.105zM12.059 25.351c-2.78 0-5.041-2.262-5.041-5.041 0-2.775 2.265-5.063 5.081-5.040l-2.54 2.54c-1.382 1.382-1.382 3.618 0 5s3.618 1.382 5 0l2.54-2.54c0 0.013 0.001 0.027 0.001 0.040 0 2.78-2.262 5.041-5.041 5.041z"></path>
</svg>
