<!-- Generated by IcoMoon.io -->
<svg version="1.1" xmlns="http://www.w3.org/2000/svg" width="32" height="32" viewBox="0 0 32 32">
<title>slot-machine</title>
<path fill="#de5c6e" d="M21.991 10.054c0-5.286-4.3-9.586-9.586-9.586s-9.586 4.3-9.586 9.586v6.7h19.171v-6.7z"></path>
<path fill="#d5364c" d="M5.219 8.179c-0.804 0-1.574 0.144-2.288 0.407-0.074 0.479-0.112 0.969-0.112 1.468v6.7h19.171v-6.7c0-0.499-0.038-0.989-0.112-1.468-0.713-0.263-1.484-0.407-2.288-0.407h-14.372z"></path>
<path fill="#f5ea72" d="M19.52 10.054c0 3.93-3.186 7.115-7.115 7.115s-7.115-3.186-7.115-7.115c0-3.93 3.186-7.115 7.115-7.115s7.115 3.186 7.115 7.115z"></path>
<path fill="#f3a977" d="M15.312 10.889l1.355-2.475c0.197-0.36-0.058-0.8-0.468-0.809l-2.165-0.047-1.16-1.954c-0.212-0.357-0.728-0.357-0.94 0l-1.16 1.954-2.165 0.047c-0.41 0.009-0.665 0.449-0.468 0.809l1.355 2.475z"></path>
<path fill="#de5c6e" d="M21.991 18.263h-19.171v11.143c0 1.174 0.951 2.125 2.125 2.125h14.922c1.174 0 2.125-0.951 2.125-2.125v-11.143z"></path>
<path fill="#d4d4ff" d="M26.535 17.954h-5.965c-0.821 0-1.487-0.666-1.487-1.487s0.666-1.487 1.487-1.487h5.965c0.3 0 0.544-0.244 0.544-0.544v-5.968c0-0.821 0.666-1.487 1.487-1.487s1.487 0.666 1.487 1.487v5.968c-0 1.939-1.578 3.517-3.517 3.517z"></path>
<path fill="#f3a977" d="M31.531 8.090c0 1.638-1.328 2.965-2.965 2.965s-2.965-1.328-2.965-2.965c0-1.638 1.328-2.965 2.965-2.965s2.965 1.328 2.965 2.965z"></path>
<path fill="#d5364c" d="M2.819 24.306c0.744 0.29 1.554 0.45 2.4 0.45h14.372c0.846 0 1.655-0.16 2.4-0.45v-6.043h-19.171z"></path>
<path fill="#a78cd6" d="M5.219 22.881c-2.619 0-4.75-2.131-4.75-4.75v-3.326c0-2.619 2.131-4.75 4.75-4.75h14.372c2.619 0 4.75 2.131 4.75 4.75v3.326c0 2.619-2.131 4.75-4.75 4.75z"></path>
<path fill="#fff" d="M19.591 19.667h-14.372c-0.848 0-1.536-0.688-1.536-1.536v-3.326c0-0.848 0.688-1.536 1.536-1.536h14.372c0.848 0 1.536 0.688 1.536 1.536v3.326c0 0.848-0.688 1.536-1.536 1.536z"></path>
<path fill="#d4d4ff" d="M9.498 13.269h5.815v6.398h-5.815z"></path>
<path fill="#eda1ab" d="M9.139 28.029c0 0.84-0.854 1.521-1.909 1.522s-1.91-0.68-1.91-1.52c-0-0.84 0.854-1.521 1.909-1.522s1.91 0.68 1.91 1.52z"></path>
<path fill="#eda1ab" d="M15.671 28.026c0 0.84 0.856 1.52 1.91 1.52s1.909-0.682 1.909-1.522c-0-0.84-0.856-1.52-1.91-1.52s-1.909 0.682-1.909 1.522z"></path>
<path fill="#565e75" d="M14.276 27.339c-0.001-1.157-0.839-1.265-1.873-1.265s-1.872 0.11-1.871 1.266 0.839 2.094 1.873 2.094c1.034-0 1.871-0.939 1.871-2.096z"></path>
<path fill="#000" d="M16.511 26.754c0.259 0 0.468-0.209 0.469-0.468l0.001-0.75c0-0.259-0.209-0.469-0.468-0.47-0 0-0.001 0-0.001 0-0.259 0-0.468 0.209-0.469 0.468l-0.001 0.75c-0 0.259 0.209 0.469 0.468 0.47zM12.405 29.903h0.001c1.275-0.001 2.34-1.128 2.339-2.564-0-0.714-0.271-1.214-0.806-1.484-0.407-0.206-0.906-0.249-1.528-0.249-0.002 0-0.005 0-0.007 0-0.626 0-1.127 0.043-1.536 0.25-0.534 0.271-0.805 0.771-0.804 1.485 0.001 1.385 1.019 2.562 2.341 2.562zM11.293 26.692c0.257-0.13 0.686-0.149 1.111-0.149h0.008c0.423 0 0.848 0.018 1.104 0.148 0.151 0.077 0.292 0.208 0.292 0.648 0 0.867-0.605 1.626-1.402 1.627-0 0-0 0-0.001 0-0.806 0-1.403-0.768-1.403-1.625-0-0.44 0.14-0.572 0.291-0.649zM11.763 15.77h0.566l-0.737 1.676c-0.104 0.237 0.004 0.514 0.241 0.618 0.236 0.104 0.513-0.002 0.618-0.241l1.026-2.334c0.136-0.309-0.091-0.657-0.429-0.657h-1.284c-0.259 0-0.469 0.21-0.469 0.469s0.21 0.469 0.469 0.469zM6.004 15.77h0.566l-0.737 1.676c-0.104 0.237 0.003 0.514 0.24 0.618 0.236 0.104 0.513-0.002 0.618-0.241l1.026-2.334c0.136-0.309-0.091-0.657-0.429-0.657h-1.284c-0.259 0-0.469 0.21-0.469 0.469s0.21 0.469 0.469 0.469zM19.591 12.8h-14.372c-1.106 0-2.005 0.899-2.005 2.005v3.326c0 1.105 0.899 2.005 2.005 2.005h14.372c1.105 0 2.005-0.899 2.005-2.005v-3.326c0-1.105-0.899-2.005-2.005-2.005zM9.029 19.198h-3.81c-0.589 0-1.067-0.479-1.067-1.067v-3.326c0-0.589 0.479-1.067 1.067-1.067h3.81zM14.843 19.198h-4.877v-5.461h4.877zM20.658 18.131c0 0.589-0.479 1.067-1.067 1.067h-3.81v-5.461h3.81c0.589 0 1.067 0.479 1.067 1.067zM28.566 4.656c-1.894 0-3.434 1.54-3.434 3.434 0 1.167 0.586 2.2 1.479 2.821v3.526c0 0.041-0.034 0.075-0.075 0.075h-1.734c-0.094-1.697-1.003-3.18-2.342-4.065-0.033-0.219 0.304-3.407-2.077-6.508-0.158-0.205-0.452-0.244-0.657-0.086s-0.244 0.452-0.086 0.657c1.212 1.578 1.862 3.459 1.882 5.446-0.484-0.194-1.004-0.316-1.546-0.356-0.235-3.972-3.54-7.131-7.57-7.131s-7.335 3.159-7.57 7.131c-0.542 0.040-1.062 0.162-1.546 0.356 0.052-4.982 4.121-9.020 9.116-9.020 2.085 0 4.124 0.725 5.742 2.041 0.201 0.163 0.496 0.133 0.659-0.068s0.133-0.496-0.068-0.659c-1.785-1.452-4.035-2.251-6.334-2.251-5.544 0-10.054 4.51-10.054 10.054v0.393c-1.415 0.935-2.35 2.538-2.35 4.357v3.326c0 1.819 0.936 3.422 2.35 4.357v6.919c0 1.217 0.828 2.257 2.013 2.528 0.253 0.058 0.504-0.1 0.562-0.352s-0.1-0.504-0.352-0.561c-0.756-0.173-1.285-0.837-1.285-1.614v-6.429c0.598 0.239 1.249 0.372 1.931 0.372h14.372c0.682 0 1.333-0.133 1.931-0.372v6.429c0 0.913-0.743 1.656-1.656 1.656h-13.194c-0.259 0-0.469 0.21-0.469 0.469s0.21 0.469 0.469 0.469h13.194c1.43 0 2.594-1.163 2.594-2.594v-6.919c1.338-0.884 2.248-2.367 2.342-4.064h1.734c2.198 0 3.986-1.788 3.986-3.986v-3.526c0.893-0.621 1.479-1.653 1.479-2.821 0-1.894-1.541-3.434-3.434-3.434zM12.405 3.408c3.507 0 6.388 2.731 6.63 6.178h-2.474l0.518-0.947c0.366-0.669-0.108-1.487-0.869-1.503l-1.905-0.041-1.027-1.73c-0.185-0.311-0.511-0.497-0.873-0.497-0.006 0.002-0.564-0.023-0.873 0.497l-1.027 1.73-1.905 0.041c-0.763 0.016-1.234 0.835-0.869 1.503l0.518 0.947h-2.474c0.241-3.447 3.122-6.178 6.63-6.178zM16.256 8.189l-0.765 1.397h-6.173l-0.765-1.397c-0.028-0.052 0.008-0.114 0.067-0.116l2.165-0.047c0.162-0.004 0.31-0.090 0.393-0.229l1.16-1.954c0.031-0.051 0.104-0.051 0.134 0l1.16 1.954c0.083 0.139 0.231 0.226 0.393 0.229l2.165 0.047c0.059 0.001 0.095 0.063 0.067 0.116zM23.872 18.131c0 2.361-1.921 4.282-4.282 4.282h-14.372c-2.361 0-4.282-1.921-4.282-4.282v-3.326c0-2.361 1.921-4.282 4.282-4.282h14.372c2.361 0 4.282 1.921 4.282 4.282zM29.584 14.437c0 1.681-1.367 3.048-3.048 3.048h-1.726v-2.036h1.726c0.558 0 1.013-0.454 1.013-1.013v-3.067c0.322 0.1 0.664 0.154 1.018 0.154s0.696-0.054 1.018-0.154zM28.566 10.587c-1.377 0-2.497-1.12-2.497-2.497s1.12-2.497 2.497-2.497 2.497 1.12 2.497 2.497-1.12 2.497-2.497 2.497zM18.806 14.832h-1.284c-0.259 0-0.469 0.21-0.469 0.469s0.21 0.469 0.469 0.469h0.566l-0.737 1.676c-0.104 0.237 0.004 0.514 0.241 0.618s0.513-0.003 0.618-0.241l1.026-2.334c0.136-0.309-0.091-0.657-0.429-0.657zM7.78 26.682c0.258 0 0.468-0.209 0.469-0.468 0.001-0.226 0.183-0.409 0.41-0.409h0.001c0.227 0 0.41 0.185 0.409 0.411-0.001 0.259 0.209 0.469 0.468 0.47h0.001c0.258 0 0.468-0.209 0.469-0.468 0.002-0.745-0.6-1.349-1.345-1.351-0.001 0-0.002 0-0.003 0-0.741 0-1.346 0.598-1.348 1.345-0.001 0.259 0.209 0.469 0.468 0.47 0-0 0.001-0 0.001-0z"></path>
</svg>
