<!-- Generated by IcoMoon.io -->
<svg version="1.1" xmlns="http://www.w3.org/2000/svg" width="32" height="32" viewBox="0 0 32 32">
<title>smartphone</title>
<path fill="#ffd4be" d="M3.936 27.204c1.224-0.132 2.11-1.232 1.977-2.456l-0.793-7.342c-0.057-0.527 0.128-1.052 0.503-1.427l1.67-1.67c0.871-0.871 0.871-2.283 0-3.153s-2.283-0.871-3.153 0l-3.018 3.018c-0.477 0.477-0.713 1.145-0.64 1.816l0.998 9.237c0.132 1.226 1.233 2.109 2.456 1.977z"></path>
<path fill="#ffbf9e" d="M4.282 19.338h1.047l-0.209-1.931c-0.057-0.527 0.128-1.052 0.503-1.427l1.67-1.67c0.871-0.871 0.871-2.283 0-3.153s-2.283-0.871-3.153 0l-2.356 2.356c0.459 2.244 1.464 4.7 2.498 5.826z"></path>
<path fill="#ffd4be" d="M28.064 27.204c-1.224-0.132-2.11-1.232-1.977-2.456l0.793-7.342c0.057-0.527-0.128-1.052-0.503-1.427l-1.67-1.67c-0.871-0.871-0.871-2.283 0-3.153s2.283-0.871 3.153 0l3.018 3.018c0.477 0.477 0.713 1.145 0.64 1.816l-0.998 9.237c-0.132 1.226-1.233 2.109-2.456 1.977z"></path>
<path fill="#ffbf9e" d="M27.718 19.338h-1.047l0.209-1.931c0.057-0.527-0.128-1.052-0.503-1.427l-1.67-1.67c-0.871-0.871-0.871-2.283 0-3.153s2.283-0.871 3.153 0l2.356 2.356c-0.459 2.244-1.464 4.7-2.498 5.826z"></path>
<path fill="#6171a3" d="M4.051 18.411v-9.798c0-1.088 0.882-1.97 1.97-1.97h19.959c1.088 0 1.97 0.882 1.97 1.97v9.798c0 1.088-0.882 1.97-1.97 1.97h-19.959c-1.088 0-1.97-0.882-1.97-1.97z"></path>
<path fill="#f3a977" d="M6.777 18.91v-10.795c0-0.813 0.659-1.471 1.471-1.471h15.503c0.813 0 1.471 0.659 1.471 1.471v10.796c0 0.813-0.659 1.471-1.471 1.471h-15.503c-0.813 0-1.471-0.659-1.471-1.471z"></path>
<path fill="#ee8c49" d="M9.771 8.525l0.675 1 0.041 1.206c0.063 1.848 1.56 3.296 3.408 3.296 0.732 0 1.127-0.211 2.104-0.467 0.981 0.256 1.372 0.467 2.104 0.467 1.848 0 3.345-1.448 3.408-3.296l0.041-1.206 0.675-1c0.383-0.567 0.581-1.219 0.585-1.881h-13.628c0.004 0.643 0.191 1.297 0.585 1.881z"></path>
<path fill="#de5c6e" d="M12.858 16.105c0 1.236-1.002 2.237-2.237 2.237s-2.237-1.002-2.237-2.237c0-1.236 1.002-2.237 2.237-2.237s2.237 1.002 2.237 2.237z"></path>
<path fill="#de5c6e" d="M23.616 16.105c0 1.236-1.002 2.237-2.237 2.237s-2.237-1.002-2.237-2.237c0-1.236 1.002-2.237 2.237-2.237s2.237 1.002 2.237 2.237z"></path>
<path fill="#ffd4be" d="M21.691 16.464c0.871-0.871 2.283-0.871 3.153 0l4.103 4.103c0.87 0.87 1.777 1.314 1.777 1.863v4.839c0 1.001-0.812 1.813-1.813 1.813h-2.404c-1.001 0-1.813-0.812-1.813-1.813v-2.922c0-0.17-0.063-0.334-0.18-0.457-0.688-0.725-0.922-1.628-0.999-2.234-0.020-0.159-0.094-0.307-0.207-0.42l-1.617-1.617c-0.871-0.871-0.871-2.283 0-3.153z"></path>
<path fill="#ffd4be" d="M10.309 16.464c-0.871-0.871-2.283-0.871-3.153 0l-4.103 4.103c-0.87 0.87-1.777 1.314-1.777 1.863v4.839c0 1.001 0.812 1.813 1.813 1.813h2.404c1.001 0 1.813-0.812 1.813-1.813v-2.922c0-0.17 0.063-0.334 0.18-0.457 0.688-0.725 0.922-1.628 0.999-2.234 0.020-0.159 0.094-0.307 0.207-0.42l1.617-1.617c0.871-0.871 0.871-2.282 0-3.153z"></path>
<path fill="#f5ea72" d="M15.662 11.38l-1.425 0.41c-0.766 0.22-1.535-0.338-1.562-1.135l-0.051-1.482c-0.008-0.23-0.080-0.453-0.209-0.644l-0.83-1.229c-0.446-0.66-0.152-1.564 0.597-1.836l1.394-0.506c0.216-0.079 0.406-0.216 0.548-0.398l0.912-1.169c0.49-0.628 1.441-0.628 1.931 0l0.912 1.169c0.142 0.181 0.331 0.319 0.548 0.398l1.394 0.506c0.749 0.272 1.043 1.176 0.597 1.836l-0.83 1.229c-0.129 0.191-0.201 0.414-0.209 0.644l-0.051 1.482c-0.027 0.797-0.796 1.355-1.562 1.135l-1.425-0.41c-0.221-0.064-0.456-0.064-0.677 0z"></path>
<path fill="#000" d="M31.209 13.842l-2.792-2.792v-1.559c0-0.259-0.21-0.469-0.469-0.469s-0.469 0.21-0.469 0.469c-0 2.031 0 8.873-0.001 8.944l-1.788-1.788v-8.534c0-0.367-0.103-0.71-0.28-1.002h0.568c0.457 0 0.883 0.204 1.17 0.56 0.163 0.202 0.458 0.233 0.659 0.071s0.233-0.457 0.071-0.659c-0.466-0.578-1.158-0.91-1.9-0.91h-4.943c-0.147-0.542-0.538-0.963-1.057-1.152l-1.394-0.506c-0.134-0.048-0.251-0.133-0.338-0.246l-0.912-1.169c-0.678-0.869-1.992-0.87-2.67 0l-0.912 1.169c-0.087 0.112-0.204 0.197-0.338 0.246l-1.394 0.506c-0.518 0.188-0.91 0.608-1.057 1.152h-4.943c-1.345 0-2.438 1.094-2.438 2.438v2.438l-2.792 2.792c-0.58 0.581-0.863 1.382-0.775 2.198l0.791 7.325v3.903c0 1.258 1.024 2.282 2.282 2.282h1.349c0.259 0 0.469-0.21 0.469-0.469s-0.21-0.469-0.469-0.469h-1.349c-0.741 0-1.344-0.603-1.344-1.344v-3.928c0-0.017-0.001-0.034-0.003-0.050l-0.794-7.35c-0.058-0.533 0.127-1.055 0.506-1.434l2.129-2.129v6.035c0 0.584 0.232 1.12 0.367 1.256 0.182 0.185 0.485 0.185 0.668-0.002l2.87-2.87c0.688-0.688 1.802-0.688 2.49 0 0.687 0.687 0.687 1.804 0 2.49l-1.617 1.617c-0.187 0.187-0.308 0.433-0.341 0.692-0.070 0.553-0.279 1.344-0.875 1.971-0.199 0.21-0.308 0.487-0.308 0.78v2.922c0 0.413-0.186 0.797-0.51 1.054-0.203 0.161-0.237 0.456-0.076 0.659 0.162 0.204 0.457 0.236 0.659 0.076 0.549-0.436 0.864-1.088 0.864-1.788v-2.922c0-0.052 0.019-0.101 0.051-0.135 0.77-0.811 1.036-1.806 1.124-2.498 0.007-0.055 0.033-0.107 0.074-0.148l0.716-0.716h12.521l0.716 0.716c0.041 0.041 0.067 0.093 0.074 0.148 0.088 0.692 0.355 1.686 1.124 2.498 0.032 0.034 0.051 0.083 0.051 0.135v2.922c0 1.258 1.024 2.282 2.282 2.282h2.404c1.258 0 2.282-1.024 2.282-2.282v-3.903l0.791-7.325c0.088-0.816-0.194-1.617-0.775-2.198zM12.341 5.904l1.394-0.506c0.299-0.109 0.561-0.299 0.757-0.55l0.912-1.169c0.303-0.388 0.889-0.388 1.192 0l0.912 1.169c0.196 0.251 0.458 0.441 0.757 0.55l1.394 0.506c0.462 0.168 0.644 0.725 0.368 1.134l-0.83 1.229c-0.178 0.264-0.278 0.572-0.289 0.89l-0.051 1.482c-0.017 0.491-0.491 0.837-0.964 0.701-2.328-0.638-1.461-0.637-3.787 0-0.473 0.136-0.947-0.209-0.964-0.701l-0.051-1.482c-0.011-0.318-0.111-0.626-0.289-0.89l-0.83-1.229c-0.275-0.407-0.095-0.966 0.368-1.134zM6.309 8.114v8.534l-1.788 1.788c-0.001-0.071-0.001-7.793-0.001-9.823 0-0.828 0.673-1.501 1.501-1.501h0.568c-0.177 0.293-0.28 0.636-0.28 1.002zM9.018 15.357c0.283-0.607 0.9-1.021 1.603-1.021 0.975 0 1.769 0.793 1.769 1.769 0 0.683-0.398 1.291-0.983 1.584-0.074-0.57-0.329-1.12-0.766-1.557-0.442-0.442-1.010-0.711-1.622-0.775zM10.675 19.912c0.334-0.347 0.558-0.762 0.67-1.2 1.151-0.321 1.982-1.387 1.982-2.607 0-1.492-1.214-2.706-2.706-2.706-1.253 0-2.326 0.858-2.623 2.044-0.266 0.075-0.52 0.19-0.751 0.344v-7.673c0-0.553 0.45-1.002 1.002-1.002h2.731c0.123 0.399 0.286 0.52 1.046 1.679 0.080 0.118 0.124 0.255 0.129 0.397l0.051 1.482c0.038 1.101 1.1 1.874 2.16 1.569l1.425-0.41c0.137-0.039 0.281-0.039 0.418 0 1.368 0.375 1.502 0.477 1.897 0.477 0.885-0 1.657-0.702 1.689-1.636l0.051-1.482c0.005-0.142 0.049-0.28 0.129-0.397 0.769-1.174 0.923-1.281 1.046-1.679h2.731c0.553 0 1.002 0.45 1.002 1.002v7.673c-0.232-0.154-0.485-0.269-0.751-0.344-0.298-1.186-1.371-2.044-2.623-2.044-1.492 0-2.706 1.214-2.706 2.706 0 1.22 0.832 2.286 1.982 2.607 0.112 0.438 0.335 0.853 0.67 1.2zM20.594 17.689c-0.586-0.293-0.983-0.902-0.983-1.584 0-0.975 0.793-1.769 1.769-1.769 0.703 0 1.319 0.413 1.603 1.021-0.613 0.064-1.181 0.334-1.622 0.775-0.437 0.437-0.692 0.987-0.766 1.557zM31.052 15.94l-0.794 7.35c-0.002 0.017-0.003 0.034-0.003 0.050v3.928c0 0.741-0.603 1.344-1.344 1.344h-2.404c-0.741 0-1.344-0.603-1.344-1.344v-2.922c0-0.293-0.11-0.57-0.308-0.78-0.595-0.627-0.804-1.418-0.875-1.971-0.033-0.26-0.154-0.506-0.341-0.693l-1.617-1.617c-0.687-0.687-0.687-1.804 0-2.49 0.688-0.688 1.802-0.688 2.49 0 2.822 2.822 2.868 2.868 2.875 2.875 0.224 0.223 0.605 0.163 0.748-0.12 0.185-0.349 0.282-0.742 0.282-1.138v-6.035l2.129 2.129c0.379 0.379 0.563 0.902 0.506 1.434z"></path>
</svg>
