<!-- Generated by IcoMoon.io -->
<svg version="1.1" xmlns="http://www.w3.org/2000/svg" width="32" height="32" viewBox="0 0 32 32">
<title>sports</title>
<path fill="#daa985" d="M19.671 16.158c-0.145 2.156-1.866 3.877-4.022 4.022-3.053 0.206-7.583-0.271-11.226-3.914s-4.119-8.173-3.914-11.226c0.145-2.156 1.866-3.877 4.022-4.022 3.053-0.206 7.583 0.271 11.226 3.914s4.119 8.173 3.914 11.226z"></path>
<path fill="#d2896f" d="M4.167 4.675c0.988-0.988 1.201-2.502 1.254-3.695-0.308 0.005-0.605 0.018-0.889 0.038-2.156 0.145-3.877 1.866-4.022 4.022-0.019 0.284-0.032 0.581-0.038 0.889 1.193-0.053 2.706-0.266 3.695-1.254z"></path>
<path fill="#d2896f" d="M19.671 16.158c0.090-1.343 0.049-2.972-0.336-4.686l-4.021 5.237c-0.721 0.117-1.386 0.507-1.835 1.093l-1.691 2.202c1.409 0.234 2.735 0.251 3.861 0.176 2.156-0.145 3.877-1.866 4.022-4.022z"></path>
<path fill="#fff" d="M13.483 14.653l0.661-0.661c0.431-0.431 0.431-1.13 0-1.561l-5.886-5.886c-0.431-0.431-1.13-0.431-1.561 0l-0.661 0.661c-0.431 0.431-0.431 1.13 0 1.561l5.886 5.886c0.431 0.431 1.13 0.431 1.561 0z"></path>
<path fill="#a78cd6" d="M16.265 26.805l-3.362-3.362 10.332-13.458c1.702-2.217 4.966-2.431 6.942-0.454s1.763 5.24-0.454 6.942z"></path>
<path fill="#fff" d="M22.539 19.143c0.599 0.599 0.475 1.695-0.277 2.448s-1.848 0.877-2.448 0.277c-0.599-0.599-0.475-1.695 0.277-2.448s1.848-0.877 2.448-0.277z"></path>
<path fill="#fff" d="M29.926 11.758c0.599 0.599 0.475 1.695-0.277 2.448s-1.848 0.877-2.448 0.277c-0.599-0.599-0.475-1.695 0.277-2.448s1.848-0.877 2.448-0.277z"></path>
<path fill="#efedff" d="M18.589 21.119c-0.618-0.618-1.509-1.408-2.384-2.107-0.306-0.244-0.752-0.188-0.991 0.122l-3.361 4.377 4.343 4.343 4.377-3.361c0.31-0.238 0.366-0.685 0.122-0.991-0.699-0.875-1.489-1.766-2.107-2.384z"></path>
<path fill="#d4d4ff" d="M13.292 21.637l-1.439 1.874 4.343 4.343 1.874-1.439c-0.629-0.813-1.348-1.619-2.254-2.525s-1.711-1.625-2.525-2.254z"></path>
<path fill="#a78cd6" d="M13.272 30.246c-0.478-0.627-1.049-1.267-1.796-2.014s-1.387-1.318-2.014-1.796c-0.868-0.662-1.035-1.902-0.373-2.769s1.902-1.035 2.769-0.373c0.771 0.588 1.537 1.269 2.412 2.144s1.556 1.641 2.144 2.412c0.662 0.868 0.495 2.107-0.373 2.769s-2.107 0.495-2.769-0.373z"></path>
<path fill="#000" d="M30.508 9.2c-2.173-2.172-5.769-1.944-7.646 0.5l-2.763 3.599c-0.336-3.448-1.706-6.395-4.010-8.699-1.018-1.018-2.17-1.859-3.425-2.502-0.23-0.118-0.513-0.027-0.631 0.204s-0.027 0.513 0.204 0.631c1.168 0.598 2.241 1.382 3.189 2.331 2.464 2.464 3.692 5.626 3.807 9.164l-3.091 4.026c-0.46-0.155-0.985-0.014-1.3 0.396l-0.691 0.899c-2.651-0.050-6.354-0.771-9.397-3.814-3.018-3.018-3.793-6.672-3.816-9.564 3.066-0.239 4.669-1.643 4.924-4.923 1.538 0.012 3.005 0.234 4.374 0.666 0.247 0.078 0.51-0.059 0.588-0.306s-0.059-0.51-0.306-0.588c-1.863-0.588-3.888-0.813-6.019-0.669-2.381 0.16-4.298 2.077-4.458 4.458-0.217 3.222 0.31 7.849 4.050 11.589 3.008 3.008 6.603 3.899 9.361 4.061l-1.593 2.075c-1.025-0.58-2.379-0.353-3.143 0.648-0.819 1.074-0.613 2.607 0.461 3.426 1.202 0.916 2.803 2.518 3.722 3.722v0c0.815 1.068 2.351 1.281 3.426 0.461 0.984-0.75 1.239-2.098 0.648-3.143l1.569-1.205c0.205-0.158 0.244-0.452 0.086-0.657s-0.452-0.244-0.657-0.086l-1.556 1.194c-1.016-1.25-2.552-2.786-3.803-3.803l2.973-3.872c0.078-0.102 0.226-0.122 0.326-0.041 0.852 0.681 1.728 1.455 2.345 2.072s1.392 1.494 2.072 2.345c0.080 0.1 0.061 0.247-0.041 0.326l-0.527 0.405c-0.205 0.158-0.244 0.452-0.086 0.657 0.157 0.204 0.451 0.245 0.657 0.086l0.527-0.405c0.409-0.314 0.551-0.84 0.396-1.3l8.753-6.72c2.437-1.871 2.679-5.467 0.5-7.646zM0.977 5.072c0.129-1.915 1.671-3.457 3.586-3.586 0.119-0.008 0.238-0.015 0.357-0.020-0.227 2.612-1.35 3.736-3.963 3.963 0.006-0.121 0.012-0.24 0.020-0.357zM16.041 28.134c0.505 0.662 0.378 1.607-0.284 2.112-0.661 0.504-1.608 0.376-2.112-0.284v0c-0.964-1.264-2.622-2.925-3.899-3.899-0.662-0.505-0.79-1.45-0.284-2.112s1.45-0.789 2.112-0.284c1.484 1.132 3.335 2.983 4.468 4.468zM29.437 16.102l-8.715 6.691c-0.611-0.739-1.263-1.466-1.802-2.005s-1.265-1.191-2.005-1.802l6.691-8.715c1.527-1.989 4.461-2.186 6.239-0.408 1.773 1.773 1.586 4.708-0.408 6.239zM10.307 7.322c0.183-0.183 0.183-0.48 0-0.663s-0.48-0.183-0.663 0l-0.305 0.305-0.75-0.75c-0.613-0.613-1.611-0.613-2.224 0l-0.661 0.661c-0.613 0.613-0.613 1.611 0 2.224l0.75 0.75-0.305 0.305c-0.183 0.183-0.183 0.48 0 0.663s0.48 0.183 0.663 0l0.305-0.305 1.199 1.199-0.305 0.305c-0.183 0.183-0.183 0.48 0 0.663s0.48 0.183 0.663 0l0.305-0.305 1.199 1.199-0.305 0.305c-0.183 0.183-0.183 0.48 0 0.663s0.48 0.183 0.663 0l0.305-0.305 0.75 0.75c0.614 0.615 1.609 0.615 2.224 0v0l0.661-0.661c0.615-0.615 0.615-1.609 0-2.224l-0.75-0.75 0.305-0.305c0.183-0.183 0.183-0.48 0-0.663s-0.48-0.183-0.663 0l-0.305 0.305-1.199-1.199 0.305-0.305c0.183-0.183 0.183-0.48 0-0.663s-0.48-0.183-0.663 0l-0.305 0.305-1.199-1.199zM7.118 9.185l-0.75-0.75c-0.248-0.248-0.248-0.651-0-0.898l0.661-0.661c0.248-0.248 0.651-0.248 0.898 0l0.75 0.75zM13.063 12.013l0.75 0.75c0.248 0.248 0.248 0.65 0 0.898l-0.661 0.661c-0.248 0.248-0.65 0.248-0.898-0l-0.75-0.75zM11.201 10.151l1.199 1.199-1.559 1.559-1.199-1.199zM10.538 9.488l-1.559 1.559-1.199-1.199 1.559-1.559zM24.545 14.519c-0.258 0.018-0.453 0.242-0.436 0.5 0.019 0.279-0.083 0.552-0.28 0.749s-0.47 0.299-0.749 0.28c-0.258-0.017-0.482 0.177-0.5 0.436s0.177 0.482 0.436 0.5c0.554 0.038 1.091-0.167 1.476-0.552 0.389-0.389 0.59-0.927 0.552-1.476-0.018-0.258-0.242-0.453-0.5-0.436zM25.857 11.792c-0.522 0.522-0.522 1.37 0 1.892 0.183 0.183 0.48 0.183 0.663 0s0.183-0.48 0-0.663c-0.156-0.156-0.157-0.409 0-0.566 0.156-0.156 0.41-0.156 0.566 0 0.183 0.183 0.48 0.183 0.663 0s0.183-0.48 0-0.663c-0.522-0.522-1.37-0.522-1.892 0zM20.719 17.791c-0.183-0.183-0.48-0.183-0.663 0s-0.183 0.48 0 0.663l0.53 0.53c0.183 0.183 0.48 0.183 0.663 0s0.183-0.48 0-0.663z"></path>
</svg>
