<!-- Generated by IcoMoon.io -->
<svg version="1.1" xmlns="http://www.w3.org/2000/svg" width="32" height="32" viewBox="0 0 32 32">
<title>strategy</title>
<path fill="#807bcf" d="M24.79 25.461c-2.995-2.995-6.334-7.16-10.377-10.028-3.165-2.245-6.282-3.336-9.528-3.336-1.397 0-2.529-1.132-2.529-2.529s1.132-2.529 2.529-2.529c4.33 0 8.404 1.396 12.454 4.268 4.562 3.236 8.078 7.627 11.028 10.577 0.987 0.987 0.987 2.589 0 3.576s-2.589 0.987-3.576 0z"></path>
<path fill="#a78cd6" d="M31.531 21.154v5.043c0 1.342-1.088 2.43-2.43 2.43h-5.043c-2.165 0-3.249-2.617-1.718-4.148l5.043-5.043c1.531-1.531 4.148-0.447 4.148 1.718z"></path>
<path fill="#6ad7d4" d="M4.884 26.978c-1.397 0-2.529-1.132-2.529-2.529s1.132-2.529 2.529-2.529c3.246 0 6.363-1.091 9.528-3.336 4.044-2.868 7.382-7.032 10.377-10.028 0.987-0.987 2.589-0.987 3.576 0s0.987 2.589 0 3.576c-2.957 2.957-6.461 7.338-11.028 10.577-4.050 2.872-8.123 4.268-12.454 4.268z"></path>
<path fill="#8ee2e1" d="M31.531 12.864v-5.043c0-1.342-1.088-2.43-2.43-2.43h-5.043c-2.165 0-3.249 2.617-1.718 4.148l5.043 5.043c1.531 1.531 4.148 0.447 4.148-1.718z"></path>
<path fill="#f5ea72" d="M10.045 20.706c2.067 2.067 2.067 5.417 0 7.484s-5.417 2.067-7.484 0c-2.067-2.067-2.067-5.417 0-7.484s5.417-2.067 7.484 0z"></path>
<path fill="#ebca5f" d="M10.923 27.036c-6.769 0.903-8.825-4.644-6.986-7.319-1.733 0.869-2.924 2.661-2.924 4.733 0 2.923 2.37 5.293 5.293 5.293 1.983 0 3.711-1.092 4.617-2.706z"></path>
<path fill="#de5c6e" d="M4.951 2.823l-3.917 3.917c-0.753 0.753-0.753 1.973 0 2.726l3.917 3.917c0.753 0.753 1.973 0.753 2.726 0l3.917-3.917c0.753-0.753 0.753-1.973 0-2.726l-3.917-3.917c-0.753-0.753-1.973-0.753-2.726 0z"></path>
<path fill="#d5364c" d="M9.357 11.704c-3.636-1.026-4.556-7.002-3.728-9.318-0.247 0.094-0.479 0.239-0.677 0.437l-3.917 3.917c-0.753 0.753-0.753 1.973 0 2.726l3.917 3.917c0.753 0.753 1.973 0.753 2.726 0z"></path>
<path fill="#000" d="M26.696 14.558l0.356 0.356c1.828 1.828 4.948 0.532 4.948-2.050v-5.043c0-1.598-1.3-2.899-2.899-2.899h-5.043c-2.582 0-3.878 3.12-2.050 4.948l0.446 0.446c-0.861 0.922-1.575 1.698-2.379 2.539-2.243-1.914-4.698-3.583-7.45-4.725 0.008-0.668-0.253-1.274-0.701-1.722l-3.917-3.917c-0.936-0.937-2.453-0.937-3.389 0l-1.604 1.604c-0.183 0.183-0.183 0.48 0 0.663s0.48 0.183 0.663 0l1.604-1.604c0.57-0.57 1.493-0.57 2.063 0l3.917 3.917c0.57 0.57 0.57 1.493 0 2.063l-3.917 3.917c-0.57 0.57-1.493 0.57-2.063 0l-3.917-3.917c-0.57-0.57-0.57-1.493 0-2.063l0.73-0.73c0.183-0.183 0.183-0.48 0-0.663s-0.48-0.183-0.663 0l-0.73 0.73c-0.937 0.937-0.937 2.453 0 3.389l3.917 3.917c0.936 0.937 2.453 0.937 3.389 0l0.628-0.628c2.641 0.741 4.959 2.195 7.061 3.922-1.639 1.346-3.406 2.522-5.359 3.331-1.040-1.021-2.464-1.652-4.033-1.652-3.177 0-5.761 2.585-5.761 5.761s2.585 5.761 5.761 5.761c2.562 0 4.739-1.681 5.485-3.999 3.054-1.121 5.78-2.913 8.286-5.049 0.827 0.866 1.562 1.664 2.378 2.538l-0.446 0.446c-1.826 1.826-0.536 4.948 2.050 4.948h3.079c0.259 0 0.469-0.21 0.469-0.469s-0.21-0.469-0.469-0.469h-3.079c-1.746 0-2.622-2.113-1.387-3.348l5.043-5.043c1.234-1.234 3.348-0.36 3.348 1.387v5.043c0 1.010-0.757 1.849-1.76 1.951-0.258 0.026-0.445 0.256-0.419 0.514s0.256 0.445 0.514 0.419c1.484-0.151 2.603-1.39 2.603-2.884v-5.043c0-2.582-3.12-3.878-4.948-2.050l-0.356 0.356c-0.774-0.83-1.502-1.619-2.295-2.451 0.791-0.83 1.515-1.614 2.295-2.452zM24.059 5.86h5.043c1.081 0 1.961 0.88 1.961 1.961v5.043c0 1.746-2.113 2.622-3.348 1.387l-5.043-5.043c-1.234-1.234-0.36-3.348 1.387-3.348zM9.391 12.333l2.535-2.535c0.215-0.215 0.383-0.463 0.502-0.734 2.581 1.097 4.884 2.668 6.997 4.467-0.954 0.979-1.954 1.953-2.999 2.862-2.121-1.761-4.429-3.235-7.035-4.060zM6.306 29.273c-2.66 0-4.824-2.164-4.824-4.824s2.164-4.824 4.824-4.824 4.824 2.164 4.824 4.824-2.164 4.824-4.824 4.824zM26.033 20.123l-2.915 2.915c-0.802-0.859-1.522-1.639-2.334-2.491 1.047-0.934 2.032-1.9 2.966-2.861 0.81 0.85 1.546 1.647 2.283 2.437zM12.028 25.117c0.17-1.465-0.222-2.888-1.048-4.032 4.821-2.1 8.571-6.283 12.138-10.105l2.915 2.915c-4.151 4.454-8.284 8.929-14.005 11.223z"></path>
</svg>
