<!-- Generated by IcoMoon.io -->
<svg version="1.1" xmlns="http://www.w3.org/2000/svg" width="32" height="32" viewBox="0 0 32 32">
<title>streaming</title>
<path fill="#f5ea72" d="M7.201 6.652l-3.765-1.855c-1.368-0.674-2.967 0.322-2.967 1.846v9.525c0 1.525 1.6 2.52 2.967 1.846l3.765-1.855v-9.509z"></path>
<path fill="#ebca5f" d="M5.014 17.238l2.188-1.078v-9.509l-2.188-1.078z"></path>
<path fill="#8ee2e1" d="M28.712 2.606h-18.692c-1.557 0-2.819 1.262-2.819 2.819v11.962c0 1.557 1.262 2.819 2.819 2.819h18.692c1.557 0 2.819-1.262 2.819-2.819v-11.962c0-1.557-1.262-2.819-2.819-2.819z"></path>
<path fill="#6ad7d4" d="M10.020 2.606c-1.557 0-2.819 1.262-2.819 2.819v11.962c0 1.557 1.262 2.819 2.819 2.819h11.167c-6.512-2.704-5.927-13.205-4.388-17.6h-6.779z"></path>
<path fill="#807bcf" d="M21.921 13.634h-5.11c-0.964 0-1.746 0.782-1.746 1.746v2.705h8.601v-2.705c0-0.964-0.782-1.746-1.746-1.746z"></path>
<path fill="#a78cd6" d="M27.86 29.394c1.819 0 3.177-1.675 2.799-3.455l-1.4-6.603c-0.34-1.604-1.756-2.751-3.396-2.751h-12.994c-1.64 0-3.056 1.147-3.396 2.751l-1.4 6.603c-0.377 1.78 0.98 3.455 2.799 3.455 1.401 0 2.649-0.885 3.112-2.207l0.414-1.182c0.212-0.605 0.782-1.009 1.423-1.009h7.091c0.641 0 1.211 0.405 1.423 1.009l0.414 1.182c0.463 1.322 1.711 2.207 3.112 2.207z"></path>
<path fill="#807bcf" d="M12.869 16.585c-1.64 0-3.056 1.147-3.396 2.751l-1.4 6.603c-0.377 1.78 0.98 3.455 2.799 3.455 1.401 0 2.649-0.885 3.112-2.207l0.414-1.182c0.212-0.605 0.782-1.009 1.423-1.009h0.126c-2.035-1.090-2.365-5.925-1.571-8.41z"></path>
<path fill="#000" d="M19.366 6.196c-1.848 0-3.585 0.719-4.891 2.026-0.183 0.183-0.183 0.48 0 0.663s0.48 0.183 0.663 0c1.129-1.129 2.631-1.751 4.228-1.751s3.099 0.622 4.228 1.751c0.183 0.183 0.48 0.183 0.663 0s0.183-0.48 0-0.663c-1.306-1.306-3.043-2.026-4.891-2.026zM19.366 9.806c-0.883 0-1.714 0.344-2.339 0.969-0.183 0.183-0.183 0.48 0 0.663s0.48 0.183 0.663 0c0.448-0.448 1.043-0.694 1.676-0.694s1.228 0.246 1.676 0.694c0.183 0.183 0.48 0.183 0.663 0s0.183-0.48 0-0.663c-0.625-0.625-1.455-0.969-2.339-0.969zM14.104 22.445c0.259 0 0.469-0.21 0.469-0.469v-0.717h0.717c0.259 0 0.469-0.21 0.469-0.469s-0.21-0.469-0.469-0.469h-0.717v-0.717c0-0.259-0.21-0.469-0.469-0.469s-0.469 0.21-0.469 0.469v0.717h-0.717c-0.259 0-0.469 0.21-0.469 0.469s0.21 0.469 0.469 0.469h0.717v0.717c0 0.259 0.21 0.469 0.469 0.469zM18.741 20.321c-0.259 0-0.469 0.21-0.469 0.469s0.21 0.469 0.469 0.469h1.25c0.259 0 0.469-0.21 0.469-0.469s-0.21-0.469-0.469-0.469zM28.712 2.137h-18.692c-1.813 0-3.288 1.475-3.288 3.288v0.473l-3.089-1.522c-1.36-0.67-2.912 0.004-3.449 1.288-0.1 0.239 0.013 0.513 0.251 0.613s0.513-0.013 0.613-0.252c0.337-0.806 1.314-1.231 2.17-0.809l3.503 1.726v8.925l-3.503 1.726c-1.057 0.521-2.292-0.25-2.292-1.426v-8.108c0-0.259-0.21-0.469-0.469-0.469s-0.469 0.21-0.469 0.469v8.108c0 1.874 1.966 3.093 3.643 2.267l3.089-1.522v0.473c0 1.344 0.816 2.537 2.031 3.038l-1.149 5.417c-0.44 2.073 1.143 4.021 3.258 4.021 1.598 0 3.026-1.013 3.554-2.521l0.414-1.182c0.146-0.416 0.54-0.695 0.98-0.695h7.091c0.441 0 0.835 0.279 0.98 0.696l0.414 1.182c0.528 1.508 1.956 2.521 3.554 2.521 1.412 0 2.676-0.896 3.145-2.23 0.086-0.244-0.043-0.512-0.287-0.598s-0.512 0.043-0.598 0.287c-0.337 0.959-1.245 1.604-2.26 1.604-1.2 0-2.273-0.761-2.669-1.894l-0.414-1.182c-0.277-0.791-1.027-1.323-1.865-1.323h-7.091c-0.839 0-1.588 0.532-1.865 1.323l-0.414 1.182c-0.397 1.133-1.469 1.894-2.669 1.894-1.523 0-2.656-1.403-2.341-2.889l1.4-6.603c0.293-1.379 1.528-2.38 2.937-2.38h12.994c1.41 0 2.645 1.001 2.937 2.38l1.26 5.941c0.054 0.253 0.303 0.415 0.556 0.361s0.415-0.303 0.361-0.556l-1.009-4.756c1.215-0.502 2.031-1.694 2.031-3.038v-11.962c0-1.813-1.475-3.288-3.288-3.288zM23.198 16.116h-7.664v-0.736c0-0.704 0.573-1.277 1.277-1.277h5.11c0.704 0 1.277 0.573 1.277 1.277v0.736zM31.063 17.387c0 0.901-0.512 1.707-1.292 2.1l-0.052-0.247c-0.384-1.809-2.005-3.123-3.855-3.123h-1.728v-0.736c0-1.221-0.993-2.214-2.214-2.214h-5.11c-1.221 0-2.214 0.993-2.214 2.214v0.736h-1.728c-1.85 0-3.471 1.313-3.855 3.123l-0.053 0.247c-0.78-0.393-1.292-1.198-1.292-2.1v-11.962c0-1.296 1.054-2.35 2.35-2.35h18.692c1.296 0 2.35 1.054 2.35 2.35v11.962zM24.628 22.445c0.259 0 0.469-0.21 0.469-0.469v-0.717h0.717c0.259 0 0.469-0.21 0.469-0.469s-0.21-0.469-0.469-0.469h-0.717v-0.717c0-0.259-0.21-0.469-0.469-0.469s-0.469 0.21-0.469 0.469v0.717h-0.717c-0.259 0-0.469 0.21-0.469 0.469s0.21 0.469 0.469 0.469h0.717v0.717c0 0.259 0.21 0.469 0.469 0.469z"></path>
</svg>
