<!-- Generated by IcoMoon.io -->
<svg version="1.1" xmlns="http://www.w3.org/2000/svg" width="32" height="32" viewBox="0 0 32 32">
<title>sword</title>
<path fill="#8ee2e1" d="M31.531 10.562l-0.037-7.493c-0.007-1.414-1.152-2.559-2.566-2.566l-7.493-0.037c-1.497-0.007-2.88 0.797-3.615 2.102l-6.787 12.063 6.333 6.333 12.063-6.787c1.305-0.734 2.109-2.118 2.102-3.615z"></path>
<path fill="#6ad7d4" d="M22.514 0.472l-1.079-0.005c-1.497-0.007-2.88 0.797-3.615 2.102l-6.787 12.063 6.333 6.333 4.116-2.316c-6.419-3.42-2.882-14.298 1.032-18.177z"></path>
<path fill="#a78cd6" d="M9.074 19.092l3.83 3.83-5.662 5.662-3.83-3.83z"></path>
<path fill="#807bcf" d="M9.073 19.094l-2.129 2.129c0.634 0.703 1.264 1.353 1.871 1.959s1.256 1.236 1.96 1.871l2.129-2.129z"></path>
<path fill="#f5ea72" d="M6.971 30.6c1.359-1.359 1.251-2.373-0.975-4.599s-3.24-2.334-4.599-0.975c-1.359 1.359-1.212 3.708 0.327 5.247s3.888 1.686 5.247 0.327z"></path>
<path fill="#d4d4ff" d="M10.362 21.635c-2.054-2.054-4.391-4.626-6.151-8.124-0.865-1.719-0.172-3.814 1.548-4.679s3.814-0.172 4.679 1.548c1.311 2.607 3.107 4.582 4.852 6.327s3.72 3.541 6.327 4.852c1.719 0.865 2.412 2.96 1.548 4.679s-2.96 2.412-4.679 1.548c-3.498-1.759-6.070-4.096-8.124-6.151z"></path>
<path fill="#fff" d="M20.939 3.93c0.726 0.727 0.845 1.786 0.266 2.364s-1.637 0.458-2.364-0.27c-0.726-0.727-0.845-1.786-0.266-2.364s1.637-0.458 2.364 0.27z"></path>
<path fill="#fff" d="M28.067 11.063c0.726 0.727 0.845 1.786 0.266 2.364s-1.637 0.458-2.364-0.27c-0.726-0.727-0.845-1.786-0.266-2.364s1.637-0.458 2.364 0.27z"></path>
<path fill="#000" d="M17.236 14.761c0.183 0.183 0.48 0.183 0.663 0l3.351-3.351c0.183-0.183 0.183-0.48 0-0.663s-0.48-0.183-0.663 0l-3.351 3.351c-0.183 0.183-0.183 0.48 0 0.663zM21.995 5.071l0.525-0.524c0.183-0.183 0.183-0.48 0.001-0.663s-0.48-0.183-0.663-0.001l-0.525 0.524c-0.183 0.183-0.183 0.48-0.001 0.663s0.479 0.184 0.663 0zM31.963 3.067c-0.008-1.664-1.369-3.024-3.032-3.032l-7.003-0.035c-0.258 0-0.467 0.208-0.469 0.466s0.208 0.47 0.466 0.471l7.001 0.035c1.152 0.006 2.094 0.947 2.099 2.099l0.037 7.493c0.006 1.326-0.707 2.554-1.863 3.204l-10.099 5.682c-1.3-0.962-2.431-2.028-3.478-3.075s-2.112-2.178-3.075-3.478l5.682-10.099c0.383-0.681 0.962-1.212 1.673-1.535 0.236-0.107 0.34-0.385 0.233-0.621s-0.385-0.34-0.621-0.233c-0.894 0.406-1.621 1.073-2.102 1.929l-5.462 9.708c-0.391-0.589-0.758-1.212-1.093-1.877-0.982-1.952-3.356-2.738-5.309-1.756s-2.738 3.356-1.756 5.309c1.183 2.352 2.619 4.288 4.057 5.932l-4.123 4.123c-1.052-0.328-1.876 0.132-2.662 0.918-1.539 1.539-1.393 4.191 0.327 5.91 1.651 1.651 4.304 1.932 5.91 0.327 0.786-0.786 1.246-1.609 0.918-2.662l4.123-4.123c1.45 1.269 3.137 2.544 5.147 3.645 0.227 0.124 0.512 0.041 0.636-0.186s0.041-0.512-0.186-0.636c-3.079-1.686-5.392-3.811-7.247-5.666-2.028-2.028-4.334-4.564-6.063-8.003-0.749-1.489-0.15-3.301 1.34-4.050 1.486-0.747 3.303-0.146 4.050 1.34 1.341 2.667 3.166 4.675 4.939 6.448s3.781 3.598 6.448 4.94c1.489 0.749 2.088 2.56 1.339 4.050-0.54 1.074-1.665 1.725-2.866 1.657-0.259-0.014-0.48 0.183-0.494 0.442s0.183 0.48 0.442 0.494c1.556 0.088 3.041-0.748 3.757-2.172 0.982-1.952 0.197-4.327-1.756-5.309-0.665-0.334-1.288-0.702-1.877-1.093l9.708-5.462c1.452-0.817 2.349-2.359 2.341-4.025zM6.639 30.269c-1.23 1.23-3.296 0.962-4.584-0.327-1.354-1.354-1.501-3.41-0.327-4.584 0.453-0.453 0.839-0.749 1.319-0.749 0.61 0 1.373 0.479 2.617 1.724 2.223 2.223 2.004 2.907 0.975 3.936zM10.030 21.967c0.503 0.503 1.039 1.025 1.614 1.553l-3.86 3.859c-0.321-0.494-0.796-1.049-1.457-1.71s-1.216-1.136-1.71-1.457l3.86-3.86c0.526 0.573 1.048 1.109 1.553 1.614zM27.585 10.672l0.525-0.525c0.183-0.183 0.183-0.48 0.001-0.663s-0.48-0.184-0.663-0.001l-0.525 0.525c-0.183 0.183-0.183 0.48-0.001 0.663s0.479 0.184 0.663 0.001zM25.294 8.843c0.183-0.183 0.183-0.48 0.001-0.663l-1.474-1.476c-0.183-0.183-0.48-0.184-0.663-0.001s-0.183 0.48-0.001 0.663l1.474 1.476c0.182 0.183 0.479 0.184 0.663 0.001z"></path>
</svg>
