<!-- Generated by IcoMoon.io -->
<svg version="1.1" xmlns="http://www.w3.org/2000/svg" width="32" height="32" viewBox="0 0 32 32">
<title>targeting</title>
<path fill="#efedff" d="M25.468 16c0 5.229-4.239 9.468-9.468 9.468s-9.468-4.239-9.468-9.468c0-5.229 4.239-9.468 9.468-9.468s9.468 4.239 9.468 9.468z"></path>
<path fill="#8ee2e1" d="M16 25.677c3.421 0 6.434-2.287 7.373-4.511 0-4.072-3.301-7.373-7.373-7.373s-7.373 3.301-7.373 7.373c0.939 2.224 3.953 4.511 7.373 4.511z"></path>
<path fill="#6ad7d4" d="M14.474 13.951c-3.34 0.703-5.847 3.666-5.847 7.215 0.939 2.224 3.953 4.511 7.373 4.511 0.677 0 1.338-0.091 1.971-0.252-5.608-1.604-6.165-8.030-3.497-11.474z"></path>
<path fill="#fff" d="M12.862 21.427c0 0.807-0.821 1.461-1.835 1.461s-1.835-0.654-1.835-1.461c0-0.807 0.821-1.461 1.835-1.461s1.835 0.654 1.835 1.461z"></path>
<path fill="#fff" d="M22.807 21.427c0 0.807-0.821 1.461-1.835 1.461s-1.835-0.654-1.835-1.461c0-0.807 0.821-1.461 1.835-1.461s1.835 0.654 1.835 1.461z"></path>
<path fill="#a78cd6" d="M18.079 14.467c-0.261-1.090-0.691-2.163-1.211-3.050-0.389-0.663-1.347-0.663-1.736 0-0.521 0.887-0.95 1.959-1.211 3.050-0.263 1.101 0.585 2.156 1.718 2.156h0.723c1.132-0 1.981-1.055 1.718-2.156z"></path>
<path fill="#6171a3" d="M16 7.734c-0.916 0-1.658-0.742-1.658-1.658v-3.949c0-0.916 0.742-1.658 1.658-1.658s1.658 0.742 1.658 1.658v3.949c0 0.916-0.742 1.658-1.658 1.658z"></path>
<path fill="#475a99" d="M14.342 2.74v3.336c0 0.916 0.742 1.658 1.658 1.658s1.658-0.742 1.658-1.658v-3.336c-0.543-0.068-1.097-0.103-1.658-0.103s-1.115 0.035-1.658 0.103z"></path>
<path fill="#6171a3" d="M7.734 16c0 0.916-0.742 1.658-1.658 1.658h-3.949c-0.916 0-1.658-0.742-1.658-1.658s0.742-1.658 1.658-1.658h3.949c0.916 0 1.658 0.742 1.658 1.658z"></path>
<path fill="#475a99" d="M2.74 17.658h3.336c0.916 0 1.658-0.742 1.658-1.658s-0.742-1.658-1.658-1.658h-3.336c-0.068 0.543-0.103 1.097-0.103 1.658s0.035 1.115 0.103 1.658z"></path>
<path fill="#6171a3" d="M16 24.266c0.916 0 1.658 0.742 1.658 1.658v3.949c0 0.916-0.742 1.658-1.658 1.658s-1.658-0.742-1.658-1.658v-3.949c0-0.916 0.742-1.658 1.658-1.658z"></path>
<path fill="#475a99" d="M17.658 29.26v-3.336c0-0.916-0.742-1.658-1.658-1.658s-1.658 0.742-1.658 1.658v3.336c0.543 0.068 1.097 0.103 1.658 0.103s1.115-0.035 1.658-0.103z"></path>
<path fill="#6171a3" d="M24.266 16c0-0.916 0.742-1.658 1.658-1.658h3.949c0.916 0 1.658 0.742 1.658 1.658s-0.742 1.658-1.658 1.658h-3.949c-0.916 0-1.658-0.742-1.658-1.658z"></path>
<path fill="#475a99" d="M29.26 14.342h-3.336c-0.916 0-1.658 0.742-1.658 1.658s0.742 1.658 1.658 1.658h3.336c0.068-0.543 0.103-1.097 0.103-1.658s-0.035-1.115-0.103-1.658z"></path>
<path fill="#6171a3" d="M16 27.488c-6.334 0-11.488-5.153-11.488-11.488s5.153-11.488 11.488-11.488 11.488 5.153 11.488 11.488-5.153 11.488-11.488 11.488zM16 7.828c-4.506 0-8.172 3.666-8.172 8.172s3.666 8.172 8.172 8.172c4.506 0 8.172-3.666 8.172-8.172s-3.666-8.172-8.172-8.172z"></path>
<path fill="#000" d="M9.053 24.547c-2.588-2.108-4.072-5.223-4.072-8.547 0-6.076 4.943-11.019 11.019-11.019 1.697 0 3.325 0.377 4.84 1.121 0.232 0.114 0.513 0.018 0.627-0.214s0.018-0.513-0.214-0.627c-1-0.491-2.046-0.834-3.126-1.028v-2.105c-0-1.173-0.954-2.127-2.127-2.127s-2.127 0.954-2.127 2.127v2.106c-4.892 0.882-8.759 4.749-9.64 9.64h-2.106c-1.173 0-2.127 0.954-2.127 2.127s0.954 2.127 2.127 2.127h2.107c0.502 2.787 1.98 5.318 4.227 7.148 0.202 0.165 0.497 0.132 0.659-0.067 0.164-0.201 0.133-0.496-0.067-0.659zM14.811 2.127c0-0.656 0.533-1.189 1.189-1.189s1.189 0.533 1.189 1.189v1.976c-0.78-0.077-1.563-0.081-2.378-0v-1.976zM2.127 17.189c-0.656 0-1.189-0.533-1.189-1.189s0.534-1.189 1.189-1.189h1.976c-0.080 0.807-0.078 1.587 0.001 2.378h-1.976zM24.641 16c0-4.764-3.876-8.641-8.641-8.641s-8.641 3.876-8.641 8.641 3.876 8.641 8.641 8.641 8.641-3.876 8.641-8.641zM8.297 16c0-4.248 3.456-7.703 7.703-7.703s7.703 3.456 7.703 7.703c0 0.829-0.132 1.627-0.376 2.376-0.848-2.213-2.685-3.972-4.975-4.693-0.269-0.889-0.643-1.76-1.080-2.504-0.57-0.971-1.974-0.972-2.545 0-0.437 0.745-0.811 1.615-1.080 2.504-2.29 0.72-4.127 2.479-4.976 4.692-0.243-0.749-0.375-1.547-0.375-2.376zM16.362 16.154h-0.723c-0.834 0-1.454-0.776-1.262-1.579 0.246-1.030 0.658-2.067 1.159-2.922 0.208-0.355 0.72-0.354 0.928 0 0.502 0.854 0.913 1.892 1.16 2.922 0.192 0.801-0.427 1.579-1.262 1.579zM9.251 19.71c0.479-2.228 2.062-4.089 4.156-4.942-0.060 1.246 0.943 2.324 2.231 2.324h0.723c1.288 0 2.291-1.078 2.231-2.324 2.094 0.853 3.677 2.714 4.156 4.942-1.313 2.378-3.846 3.993-6.749 3.993s-5.436-1.615-6.749-3.993zM29.873 13.873h-2.105c-0.532-2.962-2.186-5.597-4.532-7.386-0.206-0.157-0.5-0.117-0.657 0.088s-0.117 0.5 0.088 0.657c2.634 2.008 4.351 5.184 4.351 8.767 0 6.076-4.943 11.019-11.019 11.019-1.797 0-3.582-0.444-5.161-1.285-0.228-0.122-0.512-0.035-0.634 0.193s-0.035 0.512 0.193 0.634c1.087 0.579 2.263 0.984 3.475 1.203v2.109c0 1.173 0.954 2.127 2.127 2.127s2.127-0.954 2.127-2.127v-2.106c4.892-0.882 8.759-4.749 9.64-9.64h2.106c1.173-0 2.127-0.954 2.127-2.127s-0.954-2.127-2.127-2.127zM17.189 29.873c0 0.656-0.534 1.189-1.189 1.189s-1.189-0.533-1.189-1.189v-1.977c0.789 0.079 1.567 0.082 2.378 0.002v1.976zM29.873 17.189h-1.976c0.081-0.818 0.076-1.601 0-2.378h1.976c0.656 0 1.189 0.533 1.189 1.189s-0.534 1.189-1.189 1.189zM19.285 19.457l0.149-0.040v0.552c0 0.259 0.21 0.469 0.469 0.469s0.469-0.21 0.469-0.469c-0.007-0.618 0.018-0.671-0.025-0.797l0.442-0.119c0.25-0.067 0.398-0.324 0.331-0.574s-0.324-0.399-0.574-0.331l-1.504 0.403c-0.25 0.067-0.398 0.324-0.331 0.574 0.067 0.251 0.325 0.398 0.574 0.332zM16.676 20.775c0.17 0.195 0.466 0.215 0.661 0.045s0.215-0.466 0.045-0.661c-0.349-0.4-0.853-0.63-1.382-0.63s-1.034 0.23-1.382 0.63c-0.17 0.195-0.15 0.491 0.045 0.661s0.491 0.15 0.661-0.045c0.171-0.196 0.417-0.308 0.676-0.308s0.505 0.112 0.676 0.308zM12.957 18.552l-1.504-0.403c-0.25-0.067-0.507 0.081-0.574 0.331s0.081 0.507 0.332 0.574l0.442 0.119c-0.042 0.126-0.017 0.172-0.025 0.797 0 0.259 0.21 0.469 0.469 0.469s0.469-0.21 0.469-0.469v-0.552l0.149 0.040c0.249 0.067 0.507-0.081 0.574-0.331s-0.081-0.507-0.332-0.574z"></path>
</svg>
