<!-- Generated by IcoMoon.io -->
<svg version="1.1" xmlns="http://www.w3.org/2000/svg" width="32" height="32" viewBox="0 0 32 32">
<title>tournament</title>
<path fill="#f5ea72" d="M4.173 31.531l4.66-1.937 1.052-3.775h-6.209c-1.263 0-2.287 1.024-2.287 2.287v1.138c0 1.263 1.024 2.287 2.287 2.287z"></path>
<path fill="#de5c6e" d="M10.382 25.819h-0.497l-5.712 5.712h6.209c1.263 0 2.287-1.024 2.287-2.287v-1.138c0-1.263-1.024-2.287-2.287-2.287z"></path>
<path fill="#8ee2e1" d="M22.115 31.531l4.66-1.937 1.052-3.775h-6.209c-1.263 0-2.287 1.024-2.287 2.287v1.138c0 1.263 1.024 2.287 2.287 2.287z"></path>
<path fill="#f3a977" d="M28.324 25.819h-0.497l-5.712 5.712h6.209c1.263 0 2.287-1.024 2.287-2.287v-1.138c0-1.263-1.024-2.287-2.287-2.287z"></path>
<path fill="#a78cd6" d="M18.504 12.797h-5.007l-0.968 3.298c-0.251 0.854 0.39 1.71 1.28 1.71h4.383c0.89 0 1.531-0.855 1.28-1.71z"></path>
<path fill="#a78cd6" d="M7.585 9.539c-1.458-0.725-2.695-2.026-3.784-3.977-0.46-0.824-0.164-1.865 0.659-2.325s1.865-0.164 2.325 0.659c1.507 2.7 3.085 3.573 5.968 2.358 0.87-0.366 1.871 0.042 2.238 0.911s-0.042 1.871-0.911 2.238c-2.142 0.902-4.405 1.174-6.495 0.135z"></path>
<path fill="#a78cd6" d="M24.415 9.539c1.457-0.725 2.695-2.026 3.784-3.977 0.46-0.824 0.165-1.865-0.66-2.325s-1.865-0.164-2.325 0.659c-1.507 2.7-3.085 3.573-5.968 2.358-0.87-0.366-1.871 0.042-2.238 0.911s0.042 1.871 0.911 2.238c2.142 0.902 4.405 1.174 6.494 0.135z"></path>
<path fill="#807bcf" d="M22.862 10.075l0.753-4.076c-1.123 0.95-2.459 1.061-4.368 0.257-0.87-0.366-1.871 0.042-2.238 0.911s0.042 1.872 0.911 2.238c1.62 0.683 3.31 1.004 4.941 0.67z"></path>
<path fill="#807bcf" d="M12.753 6.255c-1.909 0.804-3.245 0.692-4.368-0.257l0.753 4.076c1.631 0.334 3.321 0.012 4.941-0.67 0.87-0.366 1.278-1.368 0.911-2.238s-1.368-1.278-2.238-0.911z"></path>
<path fill="#807bcf" d="M13.283 15.804h5.435c0.222 0 0.44-0.020 0.652-0.057l-0.866-2.949h-5.007l-0.866 2.949c0.212 0.038 0.43 0.057 0.652 0.057z"></path>
<path fill="#d4d4ff" d="M20.527 0.469h-9.054c-1.146 0-2.011 1.039-1.803 2.166l1.81 9.794c0.161 0.869 0.919 1.5 1.803 1.5h5.435c0.884 0 1.642-0.631 1.803-1.5l1.81-9.794c0.208-1.127-0.657-2.166-1.803-2.166z"></path>
<path fill="#a78cd6" d="M17.039 7.616l-0.344 0.659c-0.293 0.562-1.098 0.562-1.391 0l-0.344-0.659c-0.074-0.142-0.191-0.259-0.333-0.333l-0.659-0.344c-0.562-0.293-0.562-1.098 0-1.391l0.659-0.344c0.142-0.074 0.259-0.19 0.333-0.333l0.344-0.659c0.293-0.562 1.098-0.562 1.391 0l0.344 0.659c0.074 0.142 0.19 0.259 0.333 0.333l0.659 0.344c0.562 0.293 0.562 1.098 0 1.391l-0.659 0.344c-0.142 0.074-0.259 0.19-0.333 0.333z"></path>
<path fill="#807bcf" d="M15.191 4.43l-0.23 0.441c-0.074 0.142-0.19 0.259-0.333 0.333l-0.659 0.344c-0.562 0.293-0.562 1.098 0 1.391l0.659 0.344c0.142 0.074 0.259 0.19 0.333 0.333l0.344 0.659c0.293 0.562 1.098 0.562 1.391 0l0.344-0.659c0.026-0.049 0.056-0.094 0.091-0.137-1.224-0.351-1.964-2.203-1.94-3.049z"></path>
<path fill="#000" d="M13.752 7.355l0.659 0.344c0.058 0.030 0.104 0.076 0.134 0.134l0.344 0.659c0.468 0.897 1.754 0.898 2.222 0l0.344-0.659c0.030-0.058 0.076-0.104 0.134-0.134l0.659-0.344c0.897-0.468 0.898-1.754 0-2.222l-0.659-0.344c-0.058-0.030-0.104-0.076-0.134-0.134l-0.344-0.659c-0.468-0.897-1.754-0.898-2.222 0l-0.344 0.659c-0.030 0.058-0.076 0.104-0.134 0.134l-0.659 0.344c-0.897 0.468-0.898 1.754 0 2.222zM14.185 5.963l0.659-0.344c0.229-0.119 0.413-0.303 0.532-0.532l0.344-0.659c0.118-0.227 0.442-0.227 0.56 0l0.344 0.659c0.119 0.229 0.303 0.413 0.532 0.532l0.659 0.344c0.227 0.118 0.227 0.442 0 0.56l-0.659 0.344c-0.229 0.119-0.413 0.303-0.532 0.532v0l-0.344 0.659c-0.118 0.227-0.442 0.227-0.56 0l-0.344-0.659c-0.119-0.229-0.303-0.413-0.532-0.532l-0.659-0.344c-0.153-0.080-0.17-0.222-0.17-0.28s0.017-0.2 0.17-0.28zM28.324 25.35h-2.884v-2.214c0-1.023-0.833-1.856-1.856-1.856h-7.115v-3.007h1.723c1.204 0 2.069-1.155 1.73-2.31l-0.492-1.677c0.785-0.255 1.395-0.923 1.552-1.771l0.34-1.842c3.364 0.088 5.661-1.966 7.288-4.881 0.585-1.048 0.208-2.377-0.84-2.962s-2.377-0.208-2.962 0.84c-0.861 1.542-1.684 2.348-2.668 2.581l0.652-3.529c0.262-1.416-0.826-2.72-2.264-2.72h-7.611c-0.259 0-0.469 0.21-0.469 0.469s0.21 0.469 0.469 0.469h7.611c0.854 0 1.497 0.774 1.342 1.612l-1.81 9.794c-0.12 0.647-0.684 1.117-1.342 1.117h-5.435c-0.658 0-1.222-0.47-1.342-1.117l-1.81-9.794c-0.111-0.598 0.194-1.204 0.739-1.473 0.232-0.115 0.328-0.396 0.213-0.628s-0.395-0.328-0.628-0.213c-0.92 0.454-1.433 1.475-1.247 2.484l0.652 3.529c-0.984-0.232-1.807-1.039-2.668-2.581-0.585-1.048-1.914-1.425-2.962-0.84s-1.425 1.914-0.84 2.962c1.626 2.914 3.923 4.97 7.288 4.881l0.34 1.842c0.157 0.848 0.767 1.516 1.552 1.771l-0.492 1.677c-0.339 1.155 0.525 2.31 1.73 2.31h1.723v3.007h-7.115c-1.023 0-1.856 0.833-1.856 1.856v2.214h-2.885c-1.52 0-2.756 1.236-2.756 2.756v1.138c-0 1.52 1.236 2.756 2.756 2.756h6.707c1.52 0 2.756-1.236 2.756-2.756v-1.138c0-1.52-1.236-2.756-2.756-2.756h-2.885v-2.214c0-0.506 0.412-0.919 0.919-0.919h15.168c0.506 0 0.919 0.412 0.919 0.919v2.214h-2.884c-1.52 0-2.756 1.236-2.756 2.756v1.138c0 1.52 1.236 2.756 2.756 2.756h5.382c0.259 0 0.469-0.21 0.469-0.469s-0.21-0.469-0.469-0.469h-3.753l4.775-4.775h0.303c1.003 0 1.818 0.816 1.818 1.818v1.138c0 0.733-0.436 1.39-1.111 1.676-0.238 0.101-0.35 0.376-0.249 0.614s0.376 0.35 0.614 0.249c1.022-0.432 1.683-1.429 1.683-2.539v-1.138c-0-1.52-1.236-2.756-2.756-2.756zM21.957 7.233c1.427-0.168 2.572-1.143 3.668-3.107 0.333-0.597 1.090-0.812 1.687-0.479s0.812 1.090 0.479 1.687c-1.421 2.547-3.367 4.415-6.296 4.404zM4.21 5.333c-0.333-0.597-0.118-1.354 0.479-1.687s1.354-0.118 1.687 0.479c1.096 1.965 2.241 2.94 3.668 3.107l0.463 2.505c-2.929 0.011-4.875-1.857-6.296-4.404zM10.382 26.288c1.003 0 1.818 0.816 1.818 1.818v1.138c0 1.003-0.816 1.818-1.818 1.818h-5.078l4.775-4.775h0.303zM8.753 26.288l-4.775 4.775h-0.303c-1.003 0-1.818-0.816-1.818-1.818v-1.138c0-1.003 0.816-1.818 1.818-1.818h5.078zM13.809 17.335c-0.578 0-0.993-0.554-0.83-1.109l0.537-1.829h4.97l0.537 1.829c0.163 0.554-0.252 1.109-0.83 1.109zM21.921 31.063h-0.303c-1.003 0-1.818-0.816-1.818-1.818v-1.138c0-1.003 0.816-1.818 1.818-1.818h5.078z"></path>
</svg>
