<!-- Generated by IcoMoon.io -->
<svg version="1.1" xmlns="http://www.w3.org/2000/svg" width="32" height="32" viewBox="0 0 32 32">
<title>treasure-chest</title>
<path fill="#ab7b64" d="M6.448 20.166h19.104v8.125h-19.104z"></path>
<path fill="#9a6a53" d="M25.552 20.166v1.459h-5.037c-0.071 0-0.137 0.040-0.168 0.104-0.454 0.944-1.42 1.596-2.535 1.596h-3.625c-1.116 0-2.081-0.652-2.536-1.596-0.031-0.064-0.097-0.104-0.168-0.104h-5.036v-1.459z"></path>
<path fill="#ab7b64" d="M6.563 10.5h18.875v6.964h-18.875z"></path>
<path fill="#ffe07d" d="M24.969 20.016l0.233 4.485-0.233 3.941h3.75v-6.817l-0.11-0.539 0.11-1.070z"></path>
<path fill="#ffe07d" d="M28.719 16.938l-2.054 0.25-1.634-0.25v-6.375c0-0.345 0.28-0.625 0.625-0.625l0.25-0.063h2.188c0.345 0 0.625 0.28 0.625 0.625z"></path>
<path fill="#ffd064" d="M25.906 9.875v7.063l-0.507 0.25-0.43-0.25v-6.438c0-0.345 0.28-0.625 0.625-0.625z"></path>
<path fill="#ffd064" d="M24.969 20.016v8.426h0.938v-6.567c0-0.138 0.112-0.25 0.25-0.25h2.563v-1.609h-2.813z"></path>
<path fill="#c3ddff" d="M13.595 3.34l0.531 0.27c0.582 0.326 1.125 0.869 1.451 1.451l0.208 0.469c0.094 0.168 0.336 0.168 0.43 0l0.27-0.469c0.163-0.291 0.376-0.567 0.621-0.8 0.033-0.031 0.135-0.081 0.135-0.081 0.21-0.195 0.443-0.366 0.696-0.507l0.594-0.333c0.168-0.094 0.168-0.336 0-0.43l-0.594-0.333c-0.582-0.326-1.063-0.806-1.388-1.388l-0.333-0.594c-0.094-0.168-0.336-0.168-0.43 0l-0.333 0.594c-0.164 0.293-0.368 0.561-0.604 0.796 0 0-0.010 0.022-0.018 0.030-0.226 0.221-0.486 0.425-0.765 0.582l-0.47 0.313c-0.168 0.094-0.168 0.336 0 0.43z"></path>
<path fill="#a4ccff" d="M17.241 4.18c-0.274 0.256-0.508 0.552-0.693 0.881l-0.333 0.594c-0.094 0.168-0.335 0.168-0.43 0l-0.333-0.594c-0.326-0.582-0.806-1.063-1.388-1.388l-0.594-0.333c-0.168-0.094-0.168-0.335 0-0.43l0.594-0.333c0.288-0.161 0.552-0.361 0.784-0.592 0.391 1.068 1.284 1.895 2.393 2.195z"></path>
<path fill="#c3ddff" d="M19.425 6.639l0.322 0.153c0.377 0.211 0.75 0.584 0.961 0.961l0.153 0.322c0.061 0.109 0.218 0.109 0.278 0l0.153-0.322c0.132-0.236 0.34-0.491 0.543-0.667 0.068-0.059 0.239-0.12 0.239-0.12 0.058-0.040 0.117-0.077 0.179-0.111l0.384-0.215c0.109-0.061 0.109-0.218 0-0.278l-0.384-0.215c-0.377-0.211-0.688-0.522-0.898-0.898l-0.215-0.384c-0.061-0.109-0.218-0.109-0.278 0l-0.215 0.384c-0.116 0.207-0.262 0.395-0.433 0.556 0 0-0.083 0.13-0.138 0.173-0.096 0.076-0.219 0.171-0.327 0.231l-0.322 0.153c-0.109 0.061-0.109 0.218 0 0.278z"></path>
<path fill="#a4ccff" d="M22.074 6.965c-0.297 0.203-0.543 0.472-0.72 0.788l-0.215 0.384c-0.061 0.109-0.218 0.109-0.279 0l-0.215-0.384c-0.211-0.377-0.522-0.688-0.899-0.899l-0.384-0.215c-0.109-0.061-0.109-0.218 0-0.279l0.384-0.215c0.169-0.095 0.326-0.21 0.465-0.342 0.289 0.685 0.966 1.165 1.756 1.165 0.036 0 0.070-0.002 0.105-0.003z"></path>
<path fill="#c3ddff" d="M9.425 6.639l0.322 0.153c0.377 0.211 0.75 0.584 0.961 0.961l0.153 0.322c0.061 0.109 0.217 0.109 0.278 0l0.153-0.322c0.132-0.236 0.34-0.491 0.543-0.667 0.068-0.059 0.239-0.12 0.239-0.12 0.058-0.040 0.117-0.077 0.179-0.111l0.384-0.215c0.109-0.061 0.109-0.218 0-0.278l-0.384-0.215c-0.377-0.211-0.688-0.522-0.898-0.898l-0.215-0.384c-0.061-0.109-0.217-0.109-0.278 0l-0.215 0.384c-0.116 0.207-0.262 0.395-0.433 0.556 0 0-0.083 0.13-0.138 0.173-0.096 0.076-0.219 0.171-0.327 0.231l-0.322 0.153c-0.109 0.061-0.109 0.218 0 0.278z"></path>
<path fill="#a4ccff" d="M12.074 6.965c-0.297 0.203-0.543 0.472-0.72 0.788l-0.215 0.384c-0.061 0.109-0.217 0.109-0.279 0l-0.215-0.384c-0.211-0.377-0.522-0.688-0.899-0.899l-0.384-0.215c-0.109-0.061-0.109-0.218 0-0.279l0.384-0.215c0.169-0.095 0.326-0.21 0.465-0.342 0.289 0.685 0.966 1.165 1.757 1.165 0.036 0 0.070-0.002 0.105-0.003z"></path>
<path fill="#ffe07d" d="M17.781 16.938h-3.563v-6.375c0-0.345 0.28-0.625 0.625-0.625l0.25-0.063h2.187c0.345 0 0.625 0.28 0.625 0.625v4.209z"></path>
<path fill="#ffd064" d="M15.094 14.459v-4.584h-0.313c-0.345 0-0.625 0.28-0.625 0.625v6.438h3.75v-2.228h-2.563c-0.138 0-0.25-0.112-0.25-0.25z"></path>
<path fill="#ffe07d" d="M3.281 20.016l0.233 4.485-0.233 3.941h3.75v-6.817l-0.11-0.539 0.11-1.070z"></path>
<path fill="#ffe07d" d="M7.031 16.938l-2.054 0.25-1.634-0.25v-6.375c0-0.345 0.28-0.625 0.625-0.625l0.25-0.063h2.188c0.345 0 0.625 0.28 0.625 0.625z"></path>
<path fill="#ffd064" d="M4.219 9.875v7.063l-0.507 0.25-0.43-0.25v-6.438c0-0.345 0.28-0.625 0.625-0.625z"></path>
<path fill="#ffd064" d="M3.281 20.016v8.426h0.938v-6.567c0-0.138 0.112-0.25 0.25-0.25h2.563v-1.609h-2.813z"></path>
<path fill="#ffd064" d="M28.969 20.625h-25.938c-0.345 0-0.625-0.28-0.625-0.625v-2.375c0-0.345 0.28-0.625 0.625-0.625l0.25-0.063h25.75c0.345 0 0.625 0.28 0.625 0.625v2.188l-0.063 0.25c0 0.345-0.28 0.625-0.625 0.625z"></path>
<path fill="#ffc250" d="M29.656 19.75v0.313c0 0.345-0.28 0.625-0.625 0.625h-26.063c-0.345 0-0.625-0.28-0.625-0.625v-2.5c0-0.345 0.28-0.625 0.625-0.625h0.313v2.563c0 0.138 0.112 0.25 0.25 0.25z"></path>
<path fill="#ffe07d" d="M17.808 22.345l-3.578-0.026c-1.036 0-1.875-0.839-1.875-1.875l-0.003-3.807c0-0.518 0.38-0.99 0.898-0.99h5.5c0.518 0 0.938 0.42 0.938 0.938v3.928c0 0.342-0.091 0.662-0.251 0.938 0 0-0.094 0.111-0.132 0.164-0.341 0.469-0.872 0.731-1.496 0.731z"></path>
<path fill="#ffd064" d="M19.436 21.451c-0.324 0.561-0.93 0.937-1.624 0.937h-3.625c-1.036 0-1.875-0.839-1.875-1.875v-3.928c0-0.517 0.42-0.937 0.938-0.937v4.866c0 0.517 0.421 0.938 0.938 0.938z"></path>
<path fill="#ffd064" d="M16 19.682c-0.673 0-1.22-0.547-1.22-1.219s0.547-1.219 1.22-1.219 1.22 0.547 1.22 1.219-0.547 1.219-1.22 1.219z"></path>
<path fill="#ffd064" d="M28.969 31.469h-25.938c-0.345 0-0.625-0.28-0.625-0.625v-2.375c0-0.345 0.28-0.625 0.625-0.625l0.25-0.063h25.75c0.345 0 0.625 0.28 0.625 0.625v2.188l-0.063 0.25c0 0.345-0.28 0.625-0.625 0.625z"></path>
<path fill="#ffc250" d="M29.656 30.594v0.313c0 0.345-0.28 0.625-0.625 0.625h-26.063c-0.345 0-0.625-0.28-0.625-0.625v-2.5c0-0.345 0.28-0.625 0.625-0.625h0.313v2.563c0 0.138 0.112 0.25 0.25 0.25z"></path>
<path fill="#000" d="M30.125 20.063v-2.5c0-0.55-0.408-1.005-0.938-1.081v-1.513c0-0.259-0.21-0.469-0.469-0.469s-0.469 0.21-0.469 0.469v1.501h-2.813v-5.969c0-0.086 0.070-0.156 0.156-0.156h2.5c0.086 0 0.156 0.070 0.156 0.156v2.281c0 0.259 0.21 0.469 0.469 0.469s0.469-0.21 0.469-0.469v-2.281c0-0.603-0.491-1.094-1.094-1.094h-2.5c-0.435 0-0.811 0.256-0.987 0.625h-6.339c-0.176-0.369-0.552-0.625-0.987-0.625h-2.5c-0.435 0-0.811 0.256-0.987 0.625h-2.11c-0.259 0-0.469 0.21-0.469 0.469s0.21 0.469 0.469 0.469h2.003v2.275h-6.188v-2.275h1.999c0.259 0 0.469-0.21 0.469-0.469s-0.21-0.469-0.469-0.469h-2.106c-0.176-0.369-0.551-0.625-0.987-0.625h-2.5c-0.603 0-1.094 0.491-1.094 1.094v5.981c-0.529 0.076-0.938 0.531-0.938 1.081v2.5c0 0.55 0.408 1.005 0.938 1.081v1.804c0 0.259 0.21 0.469 0.469 0.469s0.469-0.21 0.469-0.469v-1.791h2.813v6.156h-2.813v-2.177c0-0.259-0.21-0.469-0.469-0.469s-0.469 0.21-0.469 0.469v2.19c-0.529 0.076-0.938 0.531-0.938 1.081v2.5c0 0.603 0.491 1.094 1.094 1.094h26.063c0.603 0 1.094-0.491 1.094-1.094v-2.5c0-0.55-0.408-1.005-0.938-1.081v-6.181c0.529-0.076 0.938-0.531 0.938-1.081zM18.375 10.969h6.125v2.275h-6.125zM18.375 14.181h6.125v2.287h-4.349c-0.059-0.721-0.665-1.29-1.401-1.29h-0.375zM20.122 24.698h4.378v2.615h-17v-2.615h10.435c0.259 0 0.469-0.21 0.469-0.469s-0.21-0.469-0.469-0.469h-10.435v-2.604h4.434c0.28 0.98 1.184 1.7 2.253 1.7h3.625c1.069 0 1.973-0.72 2.253-1.7h4.434v2.604h-4.378c-0.259 0-0.469 0.21-0.469 0.469s0.21 0.469 0.469 0.469zM14.625 10.5c0-0.086 0.070-0.156 0.156-0.156h2.5c0.086 0 0.156 0.070 0.156 0.156v4.678h-2.813zM18.75 16.116c0.259 0 0.469 0.21 0.469 0.469v3.928c0 0.775-0.631 1.406-1.406 1.406h-3.625c-0.775 0-1.406-0.631-1.406-1.406v-3.928c0-0.259 0.21-0.469 0.469-0.469zM7.5 14.181h6.188v0.997h-0.438c-0.736 0-1.342 0.569-1.401 1.291h-4.349zM3.75 10.5c0-0.086 0.070-0.156 0.156-0.156h2.5c0.086 0 0.156 0.070 0.156 0.156v5.969h-2.813zM2.969 20.219c-0.086 0-0.156-0.070-0.156-0.156v-2.5c0-0.086 0.070-0.156 0.156-0.156h8.875v0.938h-4.813c-0.259 0-0.469 0.21-0.469 0.469s0.21 0.469 0.469 0.469h4.813v0.938zM29.188 30.906c0 0.086-0.070 0.156-0.156 0.156h-26.063c-0.086 0-0.156-0.070-0.156-0.156v-2.5c0-0.086 0.070-0.156 0.156-0.156h26.063c0.086 0 0.156 0.070 0.156 0.156zM25.438 27.313v-6.156h2.813v6.156zM29.031 20.219h-8.875v-0.938h4.813c0.259 0 0.469-0.21 0.469-0.469s-0.21-0.469-0.469-0.469h-4.813v-0.938h8.875c0.086 0 0.156 0.070 0.156 0.156v2.5c0 0.086-0.070 0.156-0.156 0.156z"></path>
<path fill="#000" d="M24.969 29.188h-5.188c-0.259 0-0.469 0.21-0.469 0.469s0.21 0.469 0.469 0.469h5.188c0.259 0 0.469-0.21 0.469-0.469s-0.21-0.469-0.469-0.469z"></path>
<path fill="#000" d="M12.281 29.188h-5.25c-0.259 0-0.469 0.21-0.469 0.469s0.21 0.469 0.469 0.469h5.25c0.259 0 0.469-0.21 0.469-0.469s-0.21-0.469-0.469-0.469z"></path>
<path fill="#000" d="M15.531 19.796v0.782c0 0.259 0.21 0.469 0.469 0.469s0.469-0.21 0.469-0.469v-0.782c0.55-0.194 0.945-0.718 0.945-1.333 0-0.779-0.634-1.413-1.414-1.413s-1.414 0.634-1.414 1.413c0 0.615 0.395 1.139 0.945 1.333zM16 17.988c0.263 0 0.477 0.213 0.477 0.475s-0.214 0.475-0.477 0.475c-0.263 0-0.477-0.213-0.477-0.475s0.214-0.475 0.477-0.475z"></path>
<path fill="#000" d="M13.241 3.749l0.594 0.333c0.507 0.284 0.925 0.702 1.208 1.208l0.333 0.594c0.126 0.226 0.366 0.366 0.624 0.366h0c0.259 0 0.498-0.14 0.624-0.366l0.333-0.594c0.284-0.507 0.702-0.925 1.208-1.208l0.594-0.333c0.226-0.126 0.366-0.365 0.366-0.624s-0.14-0.498-0.366-0.624l-0.594-0.333c-0.507-0.284-0.925-0.702-1.208-1.208l-0.333-0.594c-0.126-0.226-0.366-0.366-0.624-0.366s-0.498 0.14-0.624 0.366l-0.333 0.594c-0.284 0.507-0.702 0.925-1.208 1.208l-0.594 0.333c-0.226 0.126-0.366 0.366-0.366 0.624s0.14 0.498 0.366 0.624zM14.293 2.986c0.658-0.368 1.2-0.911 1.568-1.568l0.139-0.248 0.139 0.248c0.368 0.658 0.911 1.2 1.568 1.568l0.248 0.139-0.248 0.139c-0.658 0.368-1.2 0.911-1.568 1.568l-0.139 0.248-0.139-0.248c-0.368-0.658-0.911-1.2-1.568-1.568l-0.248-0.139z"></path>
<path fill="#000" d="M18.813 6.5c0 0.227 0.123 0.437 0.321 0.548l0.384 0.215c0.301 0.169 0.55 0.417 0.718 0.718l0.215 0.384c0.111 0.198 0.321 0.321 0.548 0.321s0.437-0.123 0.548-0.321l0.215-0.384c0.169-0.301 0.417-0.55 0.718-0.718l0.384-0.215c0.198-0.111 0.321-0.321 0.321-0.548s-0.123-0.437-0.321-0.548l-0.384-0.215c-0.301-0.169-0.55-0.417-0.718-0.718l-0.215-0.384c-0.111-0.198-0.321-0.321-0.548-0.321s-0.437 0.123-0.548 0.321l-0.215 0.384c-0.169 0.301-0.417 0.55-0.718 0.718l-0.384 0.215c-0.198 0.111-0.321 0.321-0.321 0.548zM21 5.569c0.232 0.38 0.551 0.698 0.931 0.931-0.38 0.232-0.698 0.551-0.931 0.931-0.232-0.38-0.551-0.698-0.931-0.931 0.38-0.232 0.698-0.551 0.931-0.931z"></path>
<path fill="#000" d="M9.134 7.048c0 0 0 0 0 0l0.384 0.215c0.301 0.169 0.55 0.417 0.718 0.718l0.215 0.384c0.111 0.198 0.321 0.321 0.548 0.321s0.437-0.123 0.548-0.321l0.215-0.384c0.169-0.301 0.417-0.55 0.718-0.718l0.384-0.215c0.198-0.111 0.321-0.321 0.321-0.548s-0.123-0.437-0.321-0.548l-0.384-0.215c-0.301-0.169-0.55-0.417-0.718-0.718l-0.215-0.384c-0.111-0.198-0.321-0.321-0.548-0.321s-0.437 0.123-0.548 0.321l-0.215 0.384c-0.169 0.301-0.417 0.55-0.718 0.718l-0.384 0.215c-0.198 0.111-0.321 0.321-0.321 0.548s0.123 0.437 0.321 0.548zM11 5.569c0.232 0.38 0.551 0.698 0.931 0.931-0.38 0.232-0.698 0.551-0.931 0.931-0.232-0.38-0.551-0.698-0.931-0.931 0.38-0.232 0.698-0.551 0.931-0.931z"></path>
<path fill="#000" d="M5.625 12.182c0 0.259-0.21 0.469-0.469 0.469s-0.469-0.21-0.469-0.469c0-0.259 0.21-0.469 0.469-0.469s0.469 0.21 0.469 0.469z"></path>
<path fill="#000" d="M5.625 14.557c0 0.259-0.21 0.469-0.469 0.469s-0.469-0.21-0.469-0.469c0-0.259 0.21-0.469 0.469-0.469s0.469 0.21 0.469 0.469z"></path>
<path fill="#000" d="M27.313 12.182c0 0.259-0.21 0.469-0.469 0.469s-0.469-0.21-0.469-0.469c0-0.259 0.21-0.469 0.469-0.469s0.469 0.21 0.469 0.469z"></path>
<path fill="#000" d="M27.313 14.557c0 0.259-0.21 0.469-0.469 0.469s-0.469-0.21-0.469-0.469c0-0.259 0.21-0.469 0.469-0.469s0.469 0.21 0.469 0.469z"></path>
<path fill="#000" d="M5.625 18.813c0 0.259-0.21 0.469-0.469 0.469s-0.469-0.21-0.469-0.469c0-0.259 0.21-0.469 0.469-0.469s0.469 0.21 0.469 0.469z"></path>
<path fill="#000" d="M27.313 18.813c0 0.259-0.21 0.469-0.469 0.469s-0.469-0.21-0.469-0.469c0-0.259 0.21-0.469 0.469-0.469s0.469 0.21 0.469 0.469z"></path>
<path fill="#000" d="M5.625 23.010c0 0.259-0.21 0.469-0.469 0.469s-0.469-0.21-0.469-0.469c0-0.259 0.21-0.469 0.469-0.469s0.469 0.21 0.469 0.469z"></path>
<path fill="#000" d="M27.313 23.010c0 0.259-0.21 0.469-0.469 0.469s-0.469-0.21-0.469-0.469c0-0.259 0.21-0.469 0.469-0.469s0.469 0.21 0.469 0.469z"></path>
<path fill="#000" d="M5.625 25.385c0 0.259-0.21 0.469-0.469 0.469s-0.469-0.21-0.469-0.469c0-0.259 0.21-0.469 0.469-0.469s0.469 0.21 0.469 0.469z"></path>
<path fill="#000" d="M27.313 25.385c0 0.259-0.21 0.469-0.469 0.469s-0.469-0.21-0.469-0.469c0-0.259 0.21-0.469 0.469-0.469s0.469 0.21 0.469 0.469z"></path>
<path fill="#000" d="M5.625 29.656c0 0.259-0.21 0.469-0.469 0.469s-0.469-0.21-0.469-0.469c0-0.259 0.21-0.469 0.469-0.469s0.469 0.21 0.469 0.469z"></path>
<path fill="#000" d="M27.313 29.656c0 0.259-0.21 0.469-0.469 0.469s-0.469-0.21-0.469-0.469c0-0.259 0.21-0.469 0.469-0.469s0.469 0.21 0.469 0.469z"></path>
<path fill="#000" d="M18.344 29.656c0 0.259-0.21 0.469-0.469 0.469s-0.469-0.21-0.469-0.469c0-0.259 0.21-0.469 0.469-0.469s0.469 0.21 0.469 0.469z"></path>
<path fill="#000" d="M16.469 29.656c0 0.259-0.21 0.469-0.469 0.469s-0.469-0.21-0.469-0.469c0-0.259 0.21-0.469 0.469-0.469s0.469 0.21 0.469 0.469z"></path>
<path fill="#000" d="M14.594 29.656c0 0.259-0.21 0.469-0.469 0.469s-0.469-0.21-0.469-0.469c0-0.259 0.21-0.469 0.469-0.469s0.469 0.21 0.469 0.469z"></path>
</svg>
