<!-- Generated by IcoMoon.io -->
<svg version="1.1" xmlns="http://www.w3.org/2000/svg" width="32" height="32" viewBox="0 0 32 32">
<title>video-game</title>
<path fill="#475a99" d="M20.554 26.657h-9.107c-0.776 0-1.405 0.629-1.405 1.405v0.446c0 0.776 0.629 1.405 1.405 1.405h9.107c0.776 0 1.405-0.629 1.405-1.405v-0.446c0-0.776-0.629-1.405-1.405-1.405z"></path>
<path fill="#6171a3" d="M2.993 20.111v-12.731c0-1.485 1.204-2.689 2.689-2.689h20.636c1.485 0 2.689 1.204 2.689 2.689v12.731c0 1.485-1.204 2.689-2.689 2.689h-20.636c-1.485 0-2.689-1.204-2.689-2.689z"></path>
<path fill="#475a99" d="M4.375 22.461c0.387 0.216 0.832 0.339 1.307 0.339h20.636c0.474 0 0.92-0.123 1.307-0.339l-0.222-1.047c-0.248-1.169-0.896-2.228-1.825-2.98-1.681-1.362-3.48-1.146-3.614-1.167-0.33-1.626-1.77-2.854-3.492-2.854h-4.942c-1.722 0-3.162 1.228-3.492 2.854-0.136 0.021-1.947-0.184-3.614 1.167-0.929 0.752-1.577 1.811-1.825 2.98z"></path>
<path fill="#475a99" d="M11.046 4.691c0.48 2.295 2.518 4.024 4.954 4.024s4.474-1.729 4.954-4.024z"></path>
<path fill="#8ee2e1" d="M25.89 20.651h-19.781c-0.534 0-0.967-0.433-0.967-0.967v-11.875c0-0.534 0.433-0.967 0.967-0.967h19.781c0.534 0 0.967 0.433 0.967 0.967v11.875c0 0.534-0.433 0.967-0.968 0.967z"></path>
<path fill="#6ad7d4" d="M26.83 19.912c-0.32-0.563-0.744-1.066-1.252-1.478-1.681-1.362-3.48-1.146-3.614-1.167-0.33-1.626-1.77-2.854-3.492-2.854h-4.942c-1.722 0-3.162 1.228-3.492 2.854-0.136 0.021-1.947-0.184-3.614 1.167-0.508 0.412-0.931 0.915-1.252 1.478 0.103 0.424 0.484 0.739 0.939 0.739h19.781c0.456 0 0.837-0.315 0.939-0.739z"></path>
<path fill="#6ad7d4" d="M12.071 6.841c0.929 1.143 2.345 1.875 3.929 1.875s3-0.732 3.929-1.875z"></path>
<path fill="#6171a3" d="M19.119 2.963c0.378 1.719-0.709 3.419-2.428 3.798s-3.419-0.709-3.798-2.428c-0.378-1.719 0.709-3.419 2.428-3.798s3.419 0.709 3.798 2.428z"></path>
<path fill="#8ee2e1" d="M17.131 3.467c0.103 0.62-0.316 1.206-0.936 1.309s-1.206-0.316-1.309-0.936c-0.103-0.62 0.316-1.206 0.936-1.309s1.206 0.316 1.309 0.936z"></path>
<path fill="#807bcf" d="M18.471 16.288h-4.942c-0.932 0-1.688 0.756-1.688 1.688v2.617h8.319v-2.617c-0-0.932-0.756-1.688-1.688-1.688z"></path>
<path fill="#a78cd6" d="M24.215 31.531c1.76 0 3.073-1.62 2.707-3.342l-1.354-6.386c-0.329-1.551-1.699-2.661-3.285-2.661h-12.568c-1.586 0-2.956 1.11-3.285 2.661l-1.354 6.386c-0.365 1.721 0.948 3.342 2.708 3.342 1.355 0 2.562-0.856 3.010-2.135l0.4-1.143c0.205-0.585 0.757-0.976 1.376-0.976h6.858c0.62 0 1.171 0.392 1.376 0.976l0.4 1.143c0.448 1.279 1.655 2.135 3.010 2.135z"></path>
<path fill="#807bcf" d="M9.716 19.142c-1.586 0-2.956 1.11-3.285 2.661l-1.354 6.386c-0.365 1.721 0.948 3.342 2.708 3.342 1.355 0 2.562-0.856 3.010-2.135l0.4-1.143c0.205-0.585 0.757-0.976 1.376-0.976h0.122c-1.969-1.054-2.287-5.731-1.52-8.135z"></path>
<path fill="#fff" d="M12.909 11.981c0 0.795-0.809 1.439-1.807 1.439s-1.807-0.644-1.807-1.439c0-0.795 0.809-1.439 1.807-1.439s1.807 0.644 1.807 1.439z"></path>
<path fill="#fff" d="M22.706 11.981c0 0.795-0.809 1.439-1.807 1.439s-1.807-0.644-1.807-1.439c0-0.795 0.809-1.439 1.807-1.439s1.807 0.644 1.807 1.439z"></path>
<path fill="#000" d="M16 5.261c0.886 0 1.606-0.72 1.606-1.606s-0.72-1.606-1.606-1.606-1.606 0.72-1.606 1.606 0.72 1.606 1.606 1.606zM16 2.986c0.369 0 0.668 0.3 0.668 0.668s-0.3 0.668-0.668 0.668-0.668-0.3-0.668-0.668 0.3-0.668 0.668-0.668zM12.155 9.086c-0.733 0-1.329 0.596-1.329 1.329 0 0.259 0.21 0.469 0.469 0.469s0.469-0.21 0.469-0.469c0-0.216 0.176-0.392 0.392-0.392s0.392 0.176 0.392 0.392c0 0.259 0.21 0.469 0.469 0.469s0.469-0.21 0.469-0.469c0-0.733-0.596-1.329-1.329-1.329zM26.318 4.223h-6.708c0.029-0.185 0.044-0.375 0.044-0.568 0-2.015-1.639-3.655-3.655-3.655s-3.655 1.639-3.655 3.655c0 0.193 0.015 0.383 0.044 0.568h-5.159c-0.259 0-0.469 0.21-0.469 0.469s0.21 0.469 0.469 0.469h5.44c0.21 0.463 0.514 0.875 0.888 1.212h-7.449c-0.792 0-1.436 0.644-1.436 1.436v11.875c0 0.792 0.644 1.436 1.436 1.436h0.039c-0.171 0.439-0.192 0.706-0.308 1.212h-0.158c-1.224 0-2.22-0.996-2.22-2.22v-12.731c0-1.019 0.689-1.905 1.676-2.153 0.251-0.063 0.403-0.318 0.34-0.569s-0.318-0.403-0.569-0.34c-1.404 0.353-2.385 1.613-2.385 3.062v12.731c0 1.728 1.395 3.135 3.117 3.157l-1.023 4.824c-0.427 2.015 1.11 3.908 3.166 3.908 1.272 0 2.433-0.661 3.093-1.706 0.183 0.058 0.374 0.089 0.569 0.089h9.107c0.195 0 0.386-0.031 0.569-0.089 0.66 1.045 1.821 1.706 3.093 1.706 0.722 0 1.403-0.231 1.971-0.669 0.205-0.158 0.243-0.452 0.085-0.657s-0.452-0.243-0.657-0.085c-0.403 0.31-0.887 0.474-1.399 0.474-1.154 0-2.186-0.732-2.567-1.821l-0.4-1.143c-0.27-0.772-1.001-1.29-1.819-1.29h-6.858c-0.818 0-1.548 0.518-1.819 1.29l-0.4 1.143c-0.381 1.089-1.413 1.821-2.567 1.821-1.463 0-2.552-1.348-2.249-2.776l1.354-6.386c0.281-1.327 1.47-2.29 2.826-2.29h12.568c1.356 0 2.545 0.963 2.826 2.29l1.354 6.386c0.052 0.246 0.064 0.496 0.036 0.742-0.029 0.257 0.155 0.49 0.412 0.519s0.49-0.155 0.519-0.412c0.040-0.346 0.023-0.697-0.051-1.043l-1.023-4.824c1.723-0.022 3.117-1.429 3.117-3.157v-12.731c0-1.741-1.416-3.158-3.158-3.158zM11.637 28.408c0.139-0.396 0.514-0.662 0.934-0.662h6.858c0.42 0 0.795 0.266 0.934 0.662l0.358 1.022c-0.055 0.010-0.111 0.016-0.167 0.016h-9.107c-0.056 0-0.112-0.006-0.167-0.016zM13.283 3.655c0-1.498 1.219-2.717 2.717-2.717s2.717 1.219 2.717 2.717-1.219 2.717-2.717 2.717-2.717-1.219-2.717-2.717zM19.691 18.673h-7.381v-0.697c0-0.672 0.547-1.22 1.22-1.22h4.942c0.672 0 1.22 0.547 1.22 1.22zM22.284 18.673h-1.656v-0.697c0-1.189-0.968-2.157-2.157-2.157h-4.942c-1.189 0-2.157 0.968-2.157 2.157v0.697h-1.656c-1.217 0-2.331 0.585-3.039 1.509h-0.567c-0.275 0-0.499-0.224-0.499-0.499v-11.875c0-0.275 0.224-0.499 0.499-0.499h19.781c0.275 0 0.499 0.224 0.499 0.499v11.875c0 0.275-0.224 0.499-0.499 0.499h-0.567c-0.709-0.923-1.823-1.509-3.039-1.509zM28.538 20.111c0 1.224-0.996 2.22-2.22 2.22h-0.158c-0.117-0.507-0.138-0.774-0.308-1.212h0.039c0.792 0 1.436-0.644 1.436-1.436v-11.876c0-0.792-0.644-1.436-1.436-1.436h-7.45c0.374-0.336 0.678-0.748 0.889-1.212h6.989c1.224 0 2.22 0.996 2.22 2.22v12.731zM17.221 11.067c-0.195-0.17-0.491-0.15-0.661 0.045-0.141 0.162-0.345 0.255-0.559 0.255s-0.418-0.093-0.559-0.255c-0.17-0.195-0.466-0.215-0.661-0.045s-0.216 0.466-0.045 0.661c0.319 0.366 0.781 0.577 1.266 0.577s0.947-0.21 1.266-0.577c0.17-0.195 0.15-0.491-0.045-0.661zM10.91 24.825c0.259 0 0.469-0.21 0.469-0.469v-0.678h0.678c0.259 0 0.469-0.21 0.469-0.469s-0.21-0.469-0.469-0.469h-0.678v-0.678c0-0.259-0.21-0.469-0.469-0.469s-0.469 0.21-0.469 0.469v0.678h-0.678c-0.259 0-0.469 0.21-0.469 0.469s0.21 0.469 0.469 0.469h0.678v0.678c0 0.259 0.21 0.469 0.469 0.469zM15.396 22.741c-0.259 0-0.469 0.21-0.469 0.469s0.21 0.469 0.469 0.469h1.209c0.259 0 0.469-0.21 0.469-0.469s-0.21-0.469-0.469-0.469zM19.845 9.086c-0.733 0-1.329 0.596-1.329 1.329 0 0.259 0.21 0.469 0.469 0.469s0.469-0.21 0.469-0.469c0-0.216 0.176-0.392 0.392-0.392s0.392 0.176 0.392 0.392c0 0.259 0.21 0.469 0.469 0.469s0.469-0.21 0.469-0.469c0-0.733-0.596-1.329-1.329-1.329zM21.090 24.825c0.259 0 0.469-0.21 0.469-0.469v-0.678h0.678c0.259 0 0.469-0.21 0.469-0.469s-0.21-0.469-0.469-0.469h-0.678v-0.678c0-0.259-0.21-0.469-0.469-0.469s-0.469 0.21-0.469 0.469v0.678h-0.678c-0.259 0-0.469 0.21-0.469 0.469s0.21 0.469 0.469 0.469h0.678v0.678c0 0.259 0.21 0.469 0.469 0.469z"></path>
</svg>
