<!-- Generated by IcoMoon.io -->
<svg version="1.1" xmlns="http://www.w3.org/2000/svg" width="32" height="32" viewBox="0 0 32 32">
<title>vs</title>
<path fill="#8ee2e1" d="M6.431 13.441c1.364 1.364 1.364 3.577 0 4.941s-3.577 1.364-4.941 0c-1.364-1.364-1.364-3.577 0-4.941s3.577-1.364 4.941 0z"></path>
<path fill="#a78cd6" d="M14.661 5.526c0 1.691-1.371 3.062-3.062 3.062s-3.062-1.371-3.062-3.062c0-1.691 1.371-3.062 3.062-3.062s3.062 1.371 3.062 3.062z"></path>
<path fill="#8ee2e1" d="M7.627 9.016c0 1.691-1.371 3.062-3.062 3.062s-3.062-1.371-3.062-3.062c0-1.691 1.371-3.062 3.062-3.062s3.062 1.371 3.062 3.062z"></path>
<path fill="#a78cd6" d="M8.48 22.469c0 1.691-1.371 3.062-3.062 3.062s-3.062-1.371-3.062-3.062c0-1.691 1.371-3.062 3.062-3.062s3.062 1.371 3.062 3.062z"></path>
<path fill="#8ee2e1" d="M14.729 25.945c0 1.691-1.371 3.062-3.062 3.062s-3.062-1.371-3.062-3.062c0-1.691 1.371-3.062 3.062-3.062s3.062 1.371 3.062 3.062z"></path>
<path fill="#807bcf" d="M2.686 22.389l2.071 0.252-0.507 2.66c0.36 0.148 0.754 0.231 1.167 0.231 1.691 0 3.062-1.371 3.062-3.062s-1.371-3.062-3.062-3.062c-1.643 0-2.984 1.295-3.059 2.919 0.107 0.027 0.216 0.049 0.327 0.062z"></path>
<path fill="#807bcf" d="M14.661 5.526c0-1.090-0.569-2.045-1.427-2.588l-1.481 2.246-2.677-1.394c-0.34 0.493-0.54 1.091-0.54 1.736 0 1.691 1.371 3.062 3.062 3.062s3.062-1.371 3.062-3.062z"></path>
<path fill="#8ee2e1" d="M28.844 12.524c1.878 0.444 3.040 2.326 2.596 4.204s-2.326 3.040-4.204 2.596c-1.878-0.444-3.040-2.326-2.596-4.204s2.326-3.040 4.204-2.596z"></path>
<path fill="#a78cd6" d="M23.464 5.526c0 1.691-1.371 3.062-3.062 3.062s-3.062-1.371-3.062-3.062c0-1.691 1.371-3.062 3.062-3.062s3.062 1.371 3.062 3.062z"></path>
<path fill="#8ee2e1" d="M30.497 9.016c0 1.691-1.371 3.062-3.062 3.062s-3.062-1.371-3.062-3.062c0-1.691 1.371-3.062 3.062-3.062s3.062 1.371 3.062 3.062z"></path>
<path fill="#a78cd6" d="M29.644 22.469c0 1.691-1.371 3.062-3.062 3.062s-3.062-1.371-3.062-3.062c0-1.691 1.371-3.062 3.062-3.062s3.062 1.371 3.062 3.062z"></path>
<path fill="#8ee2e1" d="M23.395 25.945c0 1.691-1.371 3.062-3.062 3.062s-3.062-1.371-3.062-3.062c0-1.691 1.371-3.062 3.062-3.062s3.062 1.371 3.062 3.062z"></path>
<path fill="#807bcf" d="M29.313 22.389l-2.071 0.252 0.507 2.66c-0.36 0.148-0.754 0.231-1.167 0.231-1.691 0-3.062-1.371-3.062-3.062s1.371-3.062 3.062-3.062c1.643 0 2.984 1.295 3.059 2.919-0.107 0.027-0.216 0.049-0.327 0.062z"></path>
<path fill="#807bcf" d="M17.339 5.526c0-1.090 0.569-2.045 1.427-2.588l1.481 2.246 2.677-1.394c0.34 0.493 0.54 1.091 0.54 1.736 0 1.691-1.371 3.062-3.062 3.062s-3.062-1.371-3.062-3.062z"></path>
<path fill="#f5ea72" d="M16.565 29.231l2.729-4.159c0.183-0.279 0.542-0.383 0.846-0.244l4.956 2.262c0.499 0.228 1.048-0.203 0.945-0.742l-0.88-4.616c-0.073-0.384 0.194-0.75 0.582-0.798l3.344-0.407c0.543-0.066 0.787-0.715 0.422-1.122l-2.764-3.086c-0.253-0.282-0.224-0.716 0.063-0.963l3.875-3.335c0.395-0.34 0.273-0.981-0.22-1.152l-4.312-1.489c-0.288-0.1-0.474-0.38-0.454-0.684l0.213-3.188c0.035-0.526-0.519-0.888-0.987-0.645l-4.77 2.483c-0.307 0.16-0.686 0.062-0.877-0.228l-2.712-4.114c-0.267-0.405-0.862-0.405-1.129 0l-2.712 4.114c-0.191 0.289-0.569 0.388-0.877 0.228l-4.769-2.483c-0.468-0.244-1.022 0.119-0.987 0.645l0.213 3.188c0.020 0.304-0.166 0.585-0.454 0.684l-4.312 1.489c-0.493 0.17-0.616 0.811-0.22 1.152l3.875 3.335c0.287 0.247 0.315 0.681 0.063 0.963l-2.764 3.086c-0.365 0.407-0.121 1.056 0.422 1.122l3.344 0.407c0.388 0.047 0.656 0.413 0.582 0.798l-0.88 4.616c-0.103 0.539 0.446 0.97 0.945 0.742l4.955-2.262c0.304-0.139 0.663-0.035 0.846 0.244l2.729 4.159c0.267 0.407 0.864 0.407 1.131 0z"></path>
<path fill="#000" d="M10.013 9.759c0.183-0.183 0.183-0.48 0-0.663l-0.615-0.615c-0.183-0.183-0.48-0.183-0.663-0s-0.183 0.48 0 0.663l0.615 0.615c0.183 0.183 0.48 0.183 0.663 0zM9.727 22.029l-0.615 0.615c-0.183 0.183-0.183 0.48 0 0.663s0.48 0.183 0.663 0l0.615-0.615c0.183-0.183 0.183-0.48 0-0.663s-0.48-0.183-0.663-0zM22.602 8.481l-0.615 0.615c-0.183 0.183-0.183 0.48 0 0.663s0.48 0.183 0.663 0l0.615-0.615c0.183-0.183 0.183-0.48 0-0.663s-0.48-0.183-0.663 0zM22.273 22.029c-0.183-0.183-0.48-0.183-0.663 0s-0.183 0.48 0 0.663l0.615 0.615c0.183 0.183 0.48 0.183 0.663 0s0.183-0.48 0-0.663zM32 15.913c0-1.224-0.565-2.365-1.508-3.11l0.496-0.427c0.655-0.564 0.472-1.617-0.325-1.931 0.198-0.447 0.302-0.932 0.302-1.429 0-2.375-2.316-4.088-4.596-3.366-0.006-0.034 0.137-0.723-0.509-1.145-0.351-0.229-0.783-0.251-1.155-0.057l-0.834 0.434c-0.304-1.64-1.743-2.887-3.47-2.887-1.182 0-2.273 0.598-2.921 1.549l-0.525-0.796c-0.452-0.685-1.459-0.687-1.912 0l-0.525 0.796c-0.648-0.95-1.739-1.549-2.921-1.549-1.727 0-3.167 1.247-3.47 2.887l-0.834-0.434c-0.792-0.412-1.731 0.2-1.671 1.092l0.008 0.112c-0.284-0.090-0.579-0.146-0.878-0.162-0.258-0.016-0.479 0.185-0.493 0.444s0.185 0.479 0.444 0.493c0.346 0.018 0.686 0.108 0.996 0.258l0.137 2.043c0.006 0.093-0.051 0.179-0.139 0.21l-3.471 1.199c-0.506-1.054-0.255-2.374 0.73-3.154 0.203-0.161 0.237-0.456 0.076-0.658s-0.455-0.237-0.659-0.076c-0.852 0.675-1.34 1.684-1.34 2.769 0 0.496 0.104 0.981 0.302 1.429-0.797 0.315-0.979 1.368-0.324 1.931l0.496 0.427c-2.189 1.729-1.959 5.14 0.465 6.538-0.252 0.498-0.106 1.108 0.346 1.439-1.314 2.413 0.518 5.324 3.231 5.217l-0.050 0.264c-0.174 0.912 0.755 1.641 1.6 1.256l1.19-0.543c0.443 1.462 1.8 2.502 3.378 2.502 0.998 0 1.947-0.43 2.609-1.155l0.766 1.168c0.452 0.689 1.463 0.688 1.914 0l0.766-1.168c0.663 0.725 1.611 1.155 2.609 1.155 1.578 0 2.934-1.041 3.377-2.503l1.191 0.544c0.844 0.386 1.774-0.344 1.6-1.256l-0.050-0.264c0.703 0.027 1.363-0.154 1.923-0.483 0.223-0.131 0.297-0.419 0.166-0.642s-0.419-0.297-0.642-0.166c-0.486 0.286-1.063 0.405-1.629 0.337l-0.648-3.398c-0.022-0.118 0.059-0.23 0.179-0.245l2.947-0.359c0.455 0.685 0.534 1.515 0.304 2.227-0.080 0.246 0.056 0.511 0.302 0.59 0.245 0.079 0.51-0.054 0.59-0.302 0.287-0.888 0.219-1.894-0.261-2.776 0.452-0.331 0.598-0.941 0.346-1.439 1.215-0.701 1.973-1.989 1.973-3.428zM26.3 6.685c1.725-0.84 3.728 0.425 3.728 2.331 0 0.391-0.088 0.772-0.255 1.12l-3.471-1.199c-0.088-0.030-0.145-0.117-0.139-0.21zM20.401 2.932c1.368 0 2.492 1.065 2.586 2.41l-3.051 1.588c-0.095 0.049-0.21 0.019-0.269-0.070l-1.611-2.444c0.425-0.897 1.34-1.485 2.345-1.485zM11.598 2.932c1.005 0 1.92 0.588 2.345 1.485l-1.611 2.444c-0.059 0.089-0.174 0.119-0.269 0.070l-3.051-1.588c0.095-1.345 1.218-2.41 2.586-2.41zM2.236 13.43l2.65 2.281c0.089 0.076 0.096 0.21 0.019 0.295l-2.326 2.597c-2.031-1.038-2.216-3.869-0.344-5.173zM6.379 21.644l-0.648 3.399c-1.548 0.189-2.907-1.025-2.907-2.574 0-0.516 0.148-1.005 0.429-1.428l2.947 0.359c0.119 0.015 0.201 0.127 0.179 0.245zM11.667 28.538c-1.202 0-2.23-0.822-2.514-1.959l2.902-1.324c0.094-0.043 0.203-0.011 0.259 0.075l1.425 2.172c-0.487 0.645-1.257 1.037-2.072 1.037zM20.333 28.538c-0.815 0-1.585-0.392-2.072-1.037l1.425-2.172c0.057-0.086 0.166-0.118 0.259-0.075l2.902 1.324c-0.285 1.137-1.312 1.959-2.514 1.959zM29.030 20.062l-3.344 0.407c-0.657 0.080-1.11 0.701-0.986 1.351l0.88 4.616c0.032 0.168-0.138 0.297-0.29 0.227l-4.956-2.262c-0.518-0.236-1.12-0.063-1.433 0.413l-2.729 4.159c-0.082 0.125-0.265 0.125-0.347 0l-2.729-4.159c-0.311-0.474-0.913-0.651-1.433-0.413l-4.955 2.262c-0.154 0.071-0.321-0.062-0.29-0.227l0.88-4.616c0.124-0.65-0.329-1.271-0.986-1.351l-3.344-0.407c-0.168-0.020-0.241-0.219-0.129-0.344l2.764-3.086c0.428-0.478 0.38-1.213-0.106-1.632l-3.875-3.335c-0.122-0.105-0.083-0.301 0.068-0.353l4.312-1.489c0.487-0.168 0.803-0.645 0.769-1.159l-0.213-3.188c-0.011-0.161 0.157-0.273 0.303-0.198l4.769 2.483c0.522 0.272 1.16 0.106 1.484-0.385l2.712-4.114c0.082-0.125 0.264-0.124 0.346 0l2.712 4.114c0.324 0.491 0.962 0.657 1.484 0.385l4.77-2.483c0.143-0.075 0.314 0.035 0.303 0.198l-0.213 3.188c-0.034 0.514 0.282 0.991 0.769 1.159l4.312 1.489c0.151 0.052 0.19 0.248 0.068 0.353l-3.875 3.335c-0.486 0.419-0.534 1.154-0.106 1.632l2.764 3.086c0.112 0.125 0.038 0.324-0.13 0.344zM29.42 18.603l-2.326-2.597c-0.077-0.086-0.069-0.22 0.019-0.296l2.65-2.281c0.808 0.563 1.299 1.486 1.299 2.482 0 1.152-0.635 2.176-1.642 2.691zM16 22.576c-0.259 0-0.469 0.21-0.469 0.469v1.228c0 0.259 0.21 0.469 0.469 0.469s0.469-0.21 0.469-0.469v-1.228c0-0.259-0.21-0.469-0.469-0.469zM20.848 15.364c-0.971-0.358-1.87-0.75-2.060-0.834-0.659-0.462-0.527-1.564 0.499-1.873 1.272-0.383 2.403 0.533 2.421 0.547 0.198 0.165 0.493 0.139 0.659-0.058s0.141-0.494-0.057-0.66c-0.061-0.052-1.525-1.259-3.293-0.726-1.794 0.54-2.078 2.684-0.712 3.575 0.123 0.080 1.439 0.621 2.219 0.909 0.899 0.331 1.351 0.874 1.241 1.489-0.104 0.58-0.739 1.197-1.713 1.197-0.849 0-1.671-0.347-2.198-0.929-0.174-0.192-0.47-0.206-0.662-0.033s-0.206 0.47-0.033 0.662c0.702 0.774 1.783 1.237 2.893 1.237 2.698 0 3.967-3.334 0.797-4.503zM15.092 11.662c-0.246-0.082-0.511 0.051-0.593 0.297l-2.103 6.329-2.204-6.348c-0.085-0.245-0.352-0.374-0.597-0.289s-0.374 0.352-0.289 0.597l2.499 7.198c0.090 0.253 0.329 0.421 0.597 0.421h0.004c0.269-0.002 0.509-0.175 0.597-0.433l2.385-7.179c0.082-0.246-0.051-0.511-0.297-0.593zM16 6.539c-0.259 0-0.469 0.21-0.469 0.469v1.228c0 0.259 0.21 0.469 0.469 0.469s0.469-0.21 0.469-0.469v-1.228c0-0.259-0.21-0.469-0.469-0.469z"></path>
</svg>
