<!-- Generated by IcoMoon.io -->
<svg version="1.1" xmlns="http://www.w3.org/2000/svg" width="32" height="32" viewBox="0 0 32 32">
<title>win</title>
<path fill="#ebca5f" d="M7.591 15.612c-1.152-0.066-2.814-0.663-4.186-3.131-0.824-1.483-1.243-3.106-1.35-4.046-0.102-0.891 0.537-1.695 1.428-1.797s1.695 0.537 1.798 1.428c0.185 1.616 1.403 4.243 2.497 4.306 0.895 0.052 1.579 0.819 1.527 1.714-0.052 0.898-0.822 1.579-1.714 1.527z"></path>
<path fill="#ee8c49" d="M7.777 12.371c-1.019-0.059-2.145-2.341-2.445-3.96-0.83 1.417-1.363 3.027-1.514 4.746 1.281 1.904 2.734 2.395 3.772 2.455 0.891 0.052 1.662-0.629 1.714-1.527 0.052-0.895-0.632-1.662-1.527-1.714z"></path>
<path fill="#ebca5f" d="M23.879 15.615c-0.896 0-1.622-0.726-1.623-1.622s0.725-1.624 1.622-1.625c0.243-0 0.696-0.221 1.237-0.839 0.547-0.626 1.045-1.515 1.33-2.38 0.281-0.851 1.199-1.313 2.051-1.032s1.313 1.199 1.032 2.051c-0.866 2.622-3.003 5.444-5.647 5.447-0 0-0.001 0-0.002 0z"></path>
<path fill="#ee8c49" d="M25.952 10.291c-0.245 0.461-0.534 0.89-0.838 1.238-0.541 0.618-0.993 0.839-1.237 0.839-0.897 0.001-1.623 0.728-1.622 1.625s0.727 1.622 1.623 1.622h0.002c1-0.001 1.928-0.406 2.742-1.051 0.005-0.132 0.008-0.263 0.008-0.396 0-1.36-0.239-2.666-0.677-3.877z"></path>
<path fill="#f5ea72" d="M24.755 14.168c0 5.276-4.277 9.553-9.553 9.553s-9.553-4.277-9.553-9.553c0-5.276 4.277-9.553 9.553-9.553s9.553 4.277 9.553 9.553z"></path>
<path fill="#eda1ab" d="M11.935 11.19c0 0.84-0.854 1.521-1.909 1.522s-1.91-0.68-1.91-1.52 0.854-1.521 1.909-1.522c1.055-0 1.91 0.68 1.91 1.52z"></path>
<path fill="#eda1ab" d="M18.467 11.187c0 0.84 0.856 1.52 1.91 1.52s1.909-0.682 1.909-1.522-0.856-1.52-1.91-1.52c-1.055 0.001-1.909 0.682-1.909 1.522z"></path>
<path fill="#565e75" d="M17.072 10.5c-0.001-1.157-0.839-1.265-1.872-1.265s-1.872 0.11-1.871 1.266c0.001 1.157 0.839 2.094 1.873 2.094s1.871-0.939 1.871-2.096z"></path>
<path fill="#a78cd6" d="M16.755 15.706c-1.486-1.091-3.367-1.482-5.269-0.458-0.988-1.201-2.677-1.46-3.957-0.701-0.585-0.707-1.47-1.146-2.441-1.125-1.69 0.037-3.052 1.432-3.017 3.148 0.067 3.189 0.104 5.015 0.126 6.063 0.032 1.566 0.035 1.716 0.101 1.973 0.512 2.338 3.289 3.32 5.16 1.877 1.197 1.914 4.003 2.033 5.354 0.22 0.301 1.387 1.538 2.43 3.014 2.43 1.119 0 2.1-0.599 2.641-1.493 1.562 1.11 3.792 0.547 4.603-1.254 1.016 0.935 2.183 0.859 2.176 0.858 1.955-0 3.469-1.769 3.109-3.806l-1.314-7.055c-0.313-1.68-1.932-2.78-3.597-2.467-1.038 0.194-1.858 0.889-2.256 1.789l-0.021-0.021c-0.585-0.592-1.362-0.919-2.189-0.919-0.843 0-1.64 0.341-2.223 0.942z"></path>
<path fill="#8ee2e1" d="M13.659 30.371l-0.369 0.708c-0.315 0.604-1.179 0.604-1.494 0l-0.369-0.708c-0.080-0.153-0.204-0.278-0.357-0.357l-0.708-0.369c-0.604-0.315-0.604-1.179 0-1.494l0.708-0.369c0.153-0.080 0.278-0.204 0.357-0.357l0.369-0.708c0.315-0.604 1.179-0.604 1.494 0l0.369 0.708c0.080 0.153 0.204 0.278 0.357 0.357l0.708 0.369c0.604 0.315 0.604 1.179 0 1.494l-0.708 0.369c-0.153 0.080-0.278 0.205-0.357 0.357z"></path>
<path fill="#6ad7d4" d="M11.375 27.51c-0.078 0.114-0.182 0.207-0.305 0.272l-0.708 0.369c-0.604 0.315-0.604 1.179 0 1.494l0.708 0.369c0.153 0.080 0.278 0.204 0.357 0.357l0.369 0.708c0.315 0.604 1.179 0.604 1.494 0l0.369-0.708c0.040-0.077 0.091-0.146 0.152-0.207-1.698-0.288-2.329-1.601-2.436-2.654z"></path>
<path fill="#8ee2e1" d="M28.439 7.729l-0.369 0.708c-0.315 0.604-1.179 0.604-1.494 0l-0.369-0.708c-0.080-0.153-0.204-0.278-0.357-0.357l-0.708-0.369c-0.604-0.315-0.604-1.179 0-1.494l0.708-0.369c0.153-0.080 0.278-0.205 0.357-0.357l0.369-0.708c0.315-0.604 1.179-0.604 1.494 0l0.369 0.708c0.080 0.153 0.204 0.278 0.357 0.357l0.708 0.369c0.604 0.315 0.604 1.179 0 1.494l-0.708 0.369c-0.153 0.080-0.278 0.205-0.357 0.357z"></path>
<path fill="#6ad7d4" d="M26.155 4.868c-0.078 0.114-0.182 0.207-0.305 0.272l-0.708 0.369c-0.604 0.315-0.604 1.179 0 1.494l0.708 0.369c0.153 0.080 0.278 0.205 0.357 0.357l0.369 0.708c0.315 0.604 1.179 0.604 1.494 0l0.369-0.708c0.040-0.077 0.091-0.146 0.152-0.207-1.698-0.288-2.329-1.601-2.436-2.654z"></path>
<path fill="#8ee2e1" d="M8.139 4.128l-0.329 0.631c-0.28 0.538-1.050 0.538-1.331 0l-0.329-0.631c-0.071-0.136-0.182-0.247-0.319-0.319l-0.631-0.329c-0.538-0.28-0.538-1.050 0-1.331l0.631-0.329c0.136-0.071 0.247-0.182 0.319-0.319l0.329-0.631c0.28-0.538 1.050-0.538 1.331 0l0.329 0.631c0.071 0.136 0.182 0.247 0.319 0.319l0.631 0.329c0.538 0.28 0.538 1.050 0 1.331l-0.631 0.329c-0.136 0.071-0.248 0.182-0.319 0.319z"></path>
<path fill="#6ad7d4" d="M6.104 1.579c-0.069 0.101-0.162 0.185-0.272 0.242l-0.631 0.329c-0.538 0.28-0.538 1.050 0 1.331l0.631 0.329c0.136 0.071 0.247 0.182 0.319 0.319l0.329 0.631c0.28 0.538 1.050 0.538 1.331 0l0.329-0.631c0.036-0.068 0.082-0.131 0.136-0.184-1.513-0.256-2.075-1.426-2.171-2.365z"></path>
<path fill="#000" d="M4.984 3.896l0.631 0.329c0.051 0.027 0.093 0.068 0.12 0.12l0.329 0.631c0.455 0.873 1.707 0.873 2.162-0l0.329-0.631c0.027-0.051 0.068-0.093 0.12-0.12l0.631-0.329c0.873-0.455 0.874-1.707 0-2.162l-0.631-0.329c-0.051-0.027-0.093-0.068-0.12-0.12l-0.329-0.631c-0.455-0.873-1.707-0.873-2.162 0l-0.329 0.631c-0.027 0.051-0.068 0.093-0.12 0.119l-0.631 0.329c-0.873 0.455-0.873 1.707 0 2.162zM5.418 2.566l0.631-0.329c0.223-0.116 0.402-0.295 0.517-0.517l0.329-0.631c0.105-0.202 0.394-0.202 0.5 0l0.329 0.631c0.116 0.223 0.295 0.401 0.517 0.517l0.631 0.329c0.202 0.105 0.202 0.394 0 0.499l-0.631 0.329c-0.223 0.116-0.402 0.295-0.517 0.517l-0.329 0.631c-0.105 0.202-0.394 0.202-0.5 0l-0.329-0.631c-0.116-0.223-0.295-0.401-0.517-0.517l-0.631-0.329c-0.137-0.071-0.151-0.198-0.151-0.25s0.015-0.179 0.152-0.25zM28.971 7.814c0.045-0.032 0.006-0.006 0.75-0.395 0.939-0.489 0.939-1.835 0-2.325l-0.708-0.369c-0.068-0.036-0.123-0.090-0.159-0.159l-0.369-0.708c-0.489-0.939-1.835-0.939-2.325 0l-0.369 0.708c-0.035 0.068-0.090 0.123-0.159 0.158l-0.708 0.369c-0.939 0.489-0.939 1.835-0 2.325l0.708 0.369c0.068 0.036 0.123 0.090 0.159 0.159l0.364 0.699c-0.063 0.113-0.115 0.233-0.156 0.357-0.265 0.801-0.722 1.623-1.225 2.204-0.396-1.279-1.046-2.476-1.918-3.507-0.167-0.198-0.463-0.222-0.661-0.055s-0.222 0.463-0.055 0.661c1.215 1.436 1.954 3.228 2.112 5.097-1.263-0.085-2.483 0.508-3.195 1.57-1.302-0.95-3.097-0.896-4.344 0.136-1.635-1.065-3.429-1.217-5.12-0.436-1.068-1.049-2.648-1.3-3.962-0.705-0.413-0.405-0.911-0.698-1.452-0.862 0.525-4.502 4.35-8.021 9.022-8.021 1.955 0 3.817 0.611 5.386 1.768 0.208 0.154 0.502 0.109 0.655-0.099s0.109-0.502-0.099-0.655c-1.731-1.276-3.785-1.951-5.942-1.951-3.888 0-7.332 2.229-8.991 5.589-0.237-0.597-0.407-1.214-0.465-1.723-0.132-1.148-1.168-1.973-2.317-1.84s-1.972 1.168-1.84 2.317c0.163 1.419 0.824 3.417 1.833 4.917-1.107 0.622-1.847 1.819-1.819 3.174 0.067 3.189 0.104 5.015 0.126 6.063 0.033 1.622 0.036 1.768 0.114 2.072 0.102 0.462 0.285 0.892 0.544 1.276 0.145 0.215 0.436 0.271 0.651 0.127s0.272-0.436 0.127-0.651c-0.194-0.288-0.331-0.611-0.408-0.961-0.001-0.006-0.003-0.012-0.004-0.017-0.051-0.198-0.056-0.344-0.087-1.865-0.021-1.048-0.059-2.874-0.126-6.064-0.030-1.441 1.118-2.638 2.558-2.669 0.801-0.018 1.553 0.331 2.070 0.955 0.147 0.178 0.402 0.222 0.6 0.104 1.116-0.661 2.528-0.411 3.356 0.596 0.142 0.173 0.387 0.221 0.584 0.115 2.105-1.133 3.891-0.221 4.769 0.423 0.189 0.139 0.451 0.116 0.614-0.052 1.017-1.050 2.698-1.077 3.741-0.021l0.021 0.021c0.231 0.235 0.628 0.164 0.763-0.139 0.66-1.493 2.512-2.034 3.87-1.104 0.577 0.395 0.966 0.992 1.094 1.679l1.314 7.051c0.147 0.834-0.070 1.671-0.595 2.298-0.971 1.158-2.733 1.307-3.911 0.224-0.236-0.217-0.614-0.138-0.745 0.152-0.686 1.523-2.575 2.009-3.904 1.064-0.222-0.158-0.532-0.094-0.673 0.14-0.508 0.84-1.43 1.337-2.443 1.258-0.073-0.391-0.32-0.731-0.682-0.92l-0.708-0.369c-0.068-0.035-0.123-0.090-0.158-0.158l-0.369-0.708c-0.489-0.939-1.835-0.939-2.325 0l-0.369 0.708c-0.082 0.158-0.215 0.174-0.409 0.289-1.098 0.15-2.17-0.34-2.747-1.262-0.147-0.234-0.464-0.292-0.684-0.123-0.72 0.555-1.635 0.721-2.509 0.454-0.248-0.075-0.51 0.064-0.585 0.312s0.064 0.51 0.312 0.585c1.012 0.308 2.065 0.183 2.954-0.339 0.559 0.675 1.338 1.121 2.194 1.276-0.256 0.626 0.003 1.345 0.607 1.66l0.708 0.369c0.068 0.036 0.123 0.090 0.159 0.159l0.369 0.708c0.49 0.94 1.835 0.939 2.325 0l0.369-0.708c0.036-0.068 0.090-0.123 0.158-0.158l0.708-0.369c0.216-0.113 0.391-0.279 0.513-0.479 1.233 0.129 2.408-0.4 3.143-1.313 1.597 0.843 3.602 0.35 4.616-1.177 0.37 0.246 0.782 0.426 1.215 0.528 0.025 0.006 0.491 0.114 0.818 0.089v0.002c1.072-0 2.081-0.471 2.77-1.293 0.704-0.84 0.996-1.956 0.799-3.068l-1.314-7.055c-0.094-0.503-0.291-0.969-0.574-1.376 1.304-1.040 2.422-2.723 3.044-4.605 0.324-0.98-0.12-2.031-1.001-2.501zM5.253 12.954c-0.316-0.008-0.626 0.024-0.936 0.1-0.973-1.37-1.64-3.305-1.797-4.672-0.073-0.634 0.381-1.206 1.016-1.278s1.206 0.383 1.278 1.016c0.095 0.832 0.445 1.908 0.905 2.797-0.225 0.657-0.382 1.339-0.466 2.038zM14.508 29.229l-0.708 0.369c-0.239 0.125-0.432 0.317-0.556 0.556l-0.369 0.708c-0.14 0.268-0.522 0.268-0.662 0l-0.369-0.708c-0.125-0.239-0.317-0.432-0.556-0.556l-0.708-0.369c-0.268-0.14-0.268-0.522 0-0.662l0.708-0.369c0.239-0.125 0.432-0.317 0.556-0.556l0.369-0.708c0.14-0.268 0.522-0.268 0.662 0l0.369 0.708c0.125 0.239 0.317 0.432 0.556 0.556l0.708 0.369c0.268 0.14 0.268 0.522 0 0.662zM26.066 6.956l-0.708-0.369c-0.268-0.14-0.268-0.522 0-0.662l0.708-0.369c0.239-0.125 0.432-0.317 0.556-0.556l0.369-0.708c0.14-0.268 0.522-0.268 0.662-0l0.369 0.708c0.125 0.239 0.317 0.432 0.556 0.556l0.708 0.369c0.268 0.14 0.268 0.522-0 0.662l-0.708 0.369c-0.239 0.125-0.432 0.317-0.556 0.556l-0.369 0.708c-0.14 0.268-0.522 0.268-0.662 0l-0.369-0.708c-0.125-0.239-0.317-0.432-0.556-0.556zM29.082 10.021c-0.566 1.713-1.617 3.287-2.789 4.204-0.327-0.273-0.694-0.483-1.087-0.625-0.025-0.448-0.081-0.893-0.166-1.332 0.836-0.736 1.487-1.912 1.853-2.983 0.606 0.209 1.286-0.046 1.592-0.633l0.014-0.027c0.506 0.251 0.764 0.843 0.582 1.395zM19.262 8.154c-0 0-0 0-0.001 0-0.76 0-1.377 0.619-1.377 1.378 0 0.259 0.21 0.469 0.469 0.469h0c0.259-0 0.469-0.21 0.468-0.469-0-0.243 0.197-0.44 0.44-0.44h0c0.118 0 0.228 0.046 0.311 0.129s0.129 0.194 0.129 0.311c0 0.259 0.21 0.469 0.469 0.469h0c0.259-0 0.469-0.21 0.468-0.469-0-0.759-0.618-1.377-1.378-1.377zM15.2 8.766c-0.76 0-2.341 0.001-2.34 1.736 0.001 1.413 1.051 2.562 2.341 2.562h0.001c1.291-0.001 2.34-1.151 2.339-2.565-0.001-1.709-1.536-1.733-2.308-1.733-0.011 0-0.023 0-0.034 0zM16.604 10.5c0 0.896-0.629 1.626-1.402 1.627-0 0-0 0-0.001 0-0.773 0-1.403-0.729-1.403-1.625-0-0.608 0.193-0.797 1.403-0.798h0.007c1.064 0 1.396 0.111 1.396 0.796zM6.037 24.202l2.789-5.435c0.805 6.437 0.757 6.060 0.76 6.082 0.1 0.592 0.895 0.728 1.184 0.201 0.028-0.051-0.151 0.395 2.715-6.968 0.094-0.241-0.026-0.513-0.267-0.607s-0.513 0.026-0.607 0.267l-2.247 5.777-0.797-6.375c-0.057-0.456-0.672-0.565-0.882-0.156l-2.934 5.716-0.129-6.208c-0.005-0.259-0.223-0.464-0.478-0.459-0.259 0.005-0.464 0.22-0.459 0.478 0.166 7.929 0.15 7.434 0.161 7.498 0.101 0.599 0.908 0.728 1.19 0.189zM11.137 8.158c-0.76 0-1.377 0.619-1.377 1.378 0 0.259 0.21 0.469 0.469 0.469h0c0.259-0 0.469-0.21 0.469-0.469-0-0.243 0.197-0.44 0.44-0.44h0c0.117 0 0.228 0.046 0.311 0.129s0.129 0.194 0.129 0.311c0 0.259 0.21 0.469 0.469 0.469h0c0.259-0 0.469-0.21 0.469-0.469-0-0.368-0.144-0.714-0.404-0.974s-0.606-0.403-0.974-0.403c-0 0-0.001 0-0.001 0zM16.295 26.048v-7.401c0-0.259-0.21-0.469-0.469-0.469s-0.469 0.21-0.469 0.469v7.401c0 0.259 0.21 0.469 0.469 0.469s0.469-0.21 0.469-0.469zM18.51 17.93l1.283 7.275c0.045 0.256 0.29 0.425 0.543 0.38 0.255-0.045 0.425-0.288 0.38-0.543l-1.022-5.794 5.119 5.186c0.193 0.195 0.459 0.247 0.678 0.134 0.227-0.118 0.341-0.381 0.289-0.676l-1.31-7.031c-0.047-0.255-0.293-0.423-0.547-0.375s-0.422 0.292-0.375 0.547l1.099 5.899-5.342-5.412c-0.323-0.327-0.875-0.040-0.795 0.411z"></path>
</svg>
