<svg xmlns="http://www.w3.org/2000/svg" version="1.1" xmlns:xlink="http://www.w3.org/1999/xlink" xmlns:svgjs="http://svgjs.com/svgjs" width="512" height="512" x="0" y="0" viewBox="0 0 52 52" style="enable-background:new 0 0 512 512" xml:space="preserve" class=""><g><g id="_x32_1"><path d="m45 17.6c0 11-7.3 24.4-16.3 30-.9.6-1.8 1-2.6 1.4-3.1 1.3-6.6 1.5-9.3-.4l-5-3.1c-1.4-.9-2.6-2.3-3.4-4 0-.1-.4-1-.6-1.8 0 0 0 0 0-.1-.4-1.2-.6-2.6-.7-4.1-.1-1.1 0-1.2 0-1.4 0-1.1.1-2.3.3-3.5.1-.4.2-1.2.2-1.3.3-1.5.7-3.4 1.1-4.4.3-1 .7-2 1.1-3 .1-.2.4-1 .5-1.1.4-1 .9-1.9 1.3-2.8.4-.8 1.2-2.3 2.2-3.7.7-1 1.3-2 2.6-3.5.8-1 2-2.3 3-3.2 1-.9 1.9-1.7 3.6-2.8.2-.1.4-.3.6-.4.1 0 1.5-1.1 3.9-1.8.1 0 .2 0 .2-.1.6-.2 1.3-.3 1.4-.3 2.3-.4 4.4-.1 6.1 1l5.3 3.3c2.6 1.7 4.5 5.6 4.5 11.1z" fill="#f9a83d" data-original="#f9a83d" class=""></path><g><g><path d="m40.3 6.5c-3-1.9-7.1-1.6-11.6 1.2-9 5.5-16.3 18.9-16.3 30 0 5.5 1.9 9.3 4.8 11.1l-5.4-3.4c-3-1.8-4.8-5.6-4.8-11.1 0-11 7.3-24.4 16.3-30 4.5-2.8 8.6-3 11.6-1.2z" fill="#ffd06c" data-original="#ffd06c" class=""></path></g><g><path d="m28.7 7.7c9-5.5 16.3-1.1 16.4 9.9 0 11-7.3 24.5-16.3 30s-16.3 1.1-16.4-9.9c0-11 7.3-24.4 16.3-30z" fill="#f9a83d" data-original="#f9a83d" class=""></path></g><g><path d="m15 37.7c0-9.9 6.8-22.5 15-27.6 7.3-4.5 12.5-1.3 12.5 7.5 0 9.9-6.8 22.6-15 27.6-7.2 4.4-12.5 1.4-12.5-7.5z" fill="#ffd06c" data-original="#ffd06c" class=""></path></g><g><g><path d="m13.8 44.8-5.4-3.4c-.3-.6-.5-1.2-.7-1.8l5.4 3.4c.2.6.4 1.2.7 1.8z" fill="#f9a83d" data-original="#f9a83d" class=""></path></g></g><g><g><g><path d="m34.2 5.5c-.5.1-1.1.2-1.6.4l-5.4-3.4c.6-.2 1.1-.3 1.6-.4z" fill="#f9a83d" data-original="#f9a83d" class=""></path></g></g><g><g><path d="m29.1 7.5c-.2.1-.8.5-1.1.7l-5.4-3.4c.3-.2.7-.5 1.1-.7z" fill="#f9a83d" data-original="#f9a83d" class=""></path></g></g><g><g><path d="m25.4 10.2c-.3.3-.6.5-.9.8l-5.5-3.4c.3-.3.6-.6.9-.8z" fill="#f9a83d" data-original="#f9a83d" class=""></path></g></g><g><g><path d="m22.2 13.3c-.3.3-.5.6-.8.9l-5.4-3.3c.2-.3.5-.6.8-.9z" fill="#f9a83d" data-original="#f9a83d" class=""></path></g></g><g><g><path d="m19.6 16.7c-.2.3-.5.7-.7 1l-5.4-3.3c.2-.3.4-.7.7-1z" fill="#f9a83d" data-original="#f9a83d" class=""></path></g></g><g><g><path d="m17.3 20.3c-.2.3-.4.7-.6 1.1l-5.4-3.4c.2-.4.4-.7.6-1.1z" fill="#f9a83d" data-original="#f9a83d" class=""></path></g></g><g><g><path d="m15.4 24.2c-.2.4-.3.7-.5 1.1l-5.4-3.3c.1-.4.3-.7.5-1.1z" fill="#f9a83d" data-original="#f9a83d" class=""></path></g></g><g><g><path d="m13.9 28.3c-.1.4-.2.8-.3 1.2l-5.4-3.4c.1-.4.2-.8.3-1.2z" fill="#f9a83d" data-original="#f9a83d" class=""></path></g></g><g><g><path d="m12.8 32.7c-.1.4-.1.9-.2 1.3l-5.4-3.4c0-.4.1-.9.2-1.3z" fill="#f9a83d" data-original="#f9a83d" class=""></path></g></g><g><g><path d="m7 35.6c-.1-1.1 0-1.2 0-1.4l5.4 3.4v1.4z" fill="#f9a83d" data-original="#f9a83d" class=""></path></g></g></g><g><path d="m19.5 20.9c-1.3 0-2.4 1.1-2.4 2.4 0-.7-.3-1.3-.7-1.7s-1-.7-1.7-.7c.7 0 1.3-.3 1.7-.7s.7-1 .7-1.7c0 .7.3 1.3.7 1.7s1 .7 1.7.7z" fill="#ffffff" data-original="#ffffff" class=""></path></g><g><g><g><path d="m28.6 18.4c2.5-1.4 3.3-.5 4.8 1.4 1.1 1.3 2.6 1.6 4.6.5.5-.3 1.1-.5 1.6-.6 2.1-.4.7 3.4-.4 5.2-2.4 3.9-6.8 7.1-10.4 9.2-2.3 1.3-4.6 2.3-6.8 3-.9.1-3.1 1-4.5-.5-.4-.4-.7-.9-.8-1.5-.2-.8.2-2 1-2.7.5-.5 1-.8 1.5-1.2 1.5-1.3 2.8-2 4.1-4.6 1.5-3 2.1-6.3 5.3-8.2z" fill="#f9a83d" data-original="#f9a83d" class=""></path></g><g><path d="m18.2 36.1c-.2-.2-.4-.6-.6-1.1-.1-.3.1-1.2.7-1.7.4-.4.9-.8 1.4-1.2 1.9-1.6 3-2.3 4.3-4.9 1.6-3.1 2.1-6.3 5-8 1.9-1.1 2.2-.5 3.6 1.2 1.6 1.9 3.7 1.9 5.8.8.4-.2.9-.4 1.3-.5v.5c-1.2 6.4-11.5 13.1-18.1 15.1-.6.2-2.4.8-3.4-.2z" fill="#ef7b56" data-original="#ef7b56" class=""></path></g></g><g><g><path d="m32 23.3v1.6c0 .7 0 1-.2 1.6s-.7 1.3-1.2 1.7v.8c0 .3-.2.8-.5 1.1-.1.1-.2.2-.4.3 0-.3 0-.7 0-1-.1.1-.2.2-.3.3v1c-.2.2-.3.3-.5.5 0-.3 0-.7 0-1-.1.1-.2.2-.3.3v1c-.2.2-.3.3-.5.5 0-.3 0-.7 0-1-.1.1-.2.2-.3.3v1c-.3.3-.4.4-.5.4-.2.1-.4 0-.4-.2 0-.3 0-.5 0-.8-.8.7-1.4.5-1.4-.4 0-1.9-.1-2.5.3-3.8.5-1.7 1.6-3.6 3-4.9 1.8-1.7 3.1-1.1 3.2.7zm-4.7 5.1c.8-.7.9-2.6.1-2.2-.4.2-.8 1-.8 1.8 0 .5.3.7.7.4zm2.8-2.6c.4-.3.7-1.1.7-1.6 0-.6-.3-.8-.7-.4-.4.3-.7 1.1-.7 1.7 0 .4.3.6.7.3zm-2 3.9c.4-.4.8-.7 1.2-1.1-.2-.3-.4-.7-.6-1-.2.7-.4 1.4-.6 2.1z" fill="#f9a83d" data-original="#f9a83d" class=""></path></g></g></g><g opacity=".2"><g><path d="m36.6 5.4-22.1 40.7c-.9-1.4-1.5-3.1-1.8-5.3l18.6-34.4c1.9-.8 3.7-1.1 5.3-1z" fill="#ffffff" data-original="#ffffff" class=""></path></g></g><g opacity=".2"><path d="m44.8 14.6-18.7 34.4c-4.1 1.7-7.7 1.2-10.2-1l22.9-42.2c3.1 1.1 5.3 4.2 6 8.8z" fill="#ffffff" data-original="#ffffff" class=""></path></g></g></g></g></svg>