<svg xmlns="http://www.w3.org/2000/svg" version="1.0" viewBox="0 0 1430.000000 778.000000" preserveAspectRatio="xMidYMid meet">
    <g transform="translate(0.000000,778.000000) scale(0.100000,-0.100000)" fill="CurrentColor" stroke="none">
        <path d="M5315 7384 c-546 -56 -1020 -191 -1297 -370 -136 -87 -170 -130 -313 -387 -277 -499 -538 -1192 -753 -2002 l-19 -69 -214 -86 c-663 -267 -1265 -566 -1660 -825 -147 -97 -345 -251 -446 -349 -367 -353 -396 -641 -87 -862 258 -184 796 -303 1544 -341 223 -11 918 -8 1170 6 643 35 1192 89 1955 191 464 62 1176 184 1745 299 3280 663 6129 1768 6831 2649 71 88 135 216 150 297 43 235 -134 427 -513 558 -239 83 -607 151 -933 173 -55 4 -102 8 -105 10 -3 1 -93 6 -200 9 -107 4 -211 9 -230 10 -19 2 -94 3 -165 4 l-130 1 -79 155 c-123 242 -228 412 -290 471 -220 207 -767 390 -1346 450 -188 19 -335 15 -420 -12 -50 -16 -198 -89 -635 -314 -299 -153 -542 -229 -885 -276 -94 -13 -194 -18 -400 -18 -206 0 -306 5 -400 18 -343 47 -586 123 -885 276 -435 224 -585 298 -635 314 -55 18 -262 29 -355 20z m5085 -784 c19 -19 20 -33 20 -239 0 -121 -3 -227 -7 -236 -6 -16 -163 -124 -232 -159 -16 -9 -38 -13 -48 -9 -38 14 -251 154 -257 169 -3 9 -6 111 -6 228 0 201 1 215 21 240 l20 26 235 0 c221 0 235 -1 254 -20z m-5220 -429 c162 -51 301 -171 374 -324 55 -114 70 -188 64 -315 -14 -257 -184 -477 -432 -559 -103 -34 -265 -38 -361 -9 -171 51 -319 174 -394 326 -79 162 -90 318 -33 483 69 201 237 356 444 408 94 24 244 20 338 -10z m4604 -173 c34 -32 156 -227 156 -251 0 -25 -145 -253 -166 -261 -9 -3 -117 -6 -240 -6 l-225 0 -24 25 c-25 24 -25 24 -25 234 0 226 5 254 49 270 14 5 121 10 238 10 206 1 213 0 237 -21z m1210 1 l26 -20 0 -228 c0 -189 -3 -230 -16 -249 -15 -22 -19 -22 -248 -22 -270 0 -235 -15 -332 140 -80 126 -79 124 -47 179 64 110 135 210 151 214 9 3 112 5 228 6 200 1 213 0 238 -20z m981 -256 c149 -75 241 -156 297 -265 29 -58 32 -71 32 -153 0 -66 -6 -105 -21 -147 -22 -60 -75 -151 -116 -203 l-25 -29 -46 149 c-57 184 -145 445 -197 584 -22 57 -39 106 -39 108 0 8 44 -9 115 -44z m-1704 -269 c155 -99 139 -60 139 -331 0 -220 -1 -234 -20 -253 -19 -19 -33 -20 -245 -20 l-226 0 -24 25 -25 24 0 219 c0 194 2 222 18 241 25 31 233 161 258 161 11 0 67 -30 125 -66z m-7428 -1296 c-91 -385 -210 -1110 -248 -1515 -8 -84 11 -79 -155 -36 -282 73 -465 165 -583 293 -102 109 -129 246 -78 394 69 202 319 454 691 699 111 73 368 225 382 226 3 1 0 -27 -9 -61z"/>
        <path d="M12280 4028 c-284 -132 -1038 -415 -1620 -609 -987 -328 -2261 -673 -3270 -886 l-135 -28 655 -6 c1104 -11 1462 -47 1778 -179 271 -114 448 -299 737 -770 321 -525 405 -642 609 -845 238 -237 451 -364 680 -404 324 -58 642 129 766 450 172 445 196 1206 70 2216 -49 392 -173 1083 -195 1089 -6 1 -39 -11 -75 -28z"/>
        <path d="M5030 2109 c-136 -20 -177 -26 -470 -63 -606 -77 -1629 -163 -1972 -166 l-38 0 0 -113 c0 -383 59 -780 150 -1016 124 -319 444 -507 766 -450 225 39 441 167 670 394 201 200 310 347 539 725 215 355 324 512 444 643 35 37 57 67 49 66 -7 -1 -69 -9 -138 -20z"/>
    </g>
</svg>