<?xml version="1.0" encoding="utf-8"?>
<!-- Generator: Adobe Illustrator 26.5.0, SVG Export Plug-In . SVG Version: 6.00 Build 0)  -->
<svg version="1.1" id="Camada_1" xmlns="http://www.w3.org/2000/svg" xmlns:xlink="http://www.w3.org/1999/xlink" x="0px" y="0px"
	 viewBox="0 0 786.6 778" style="enable-background:new 0 0 786.6 778;" xml:space="preserve">
<style type="text/css">
	.st0{fill:#1D293F;}
</style>
<g transform="translate(0.000000,778.000000) scale(0.100000,-0.100000)">
	<path class="st0" d="M2895.7,5764.1c-288.7-29.6-539.3-101-685.7-195.6c-71.9-46-89.9-68.7-165.5-204.6
		c-146.4-263.8-284.4-630.2-398.1-1058.4l-10-36.5l-113.1-45.5c-350.5-141.2-668.8-299.2-877.6-436.2
		c-77.7-51.3-182.4-132.7-235.8-184.5c-194-186.6-209.4-338.9-46-455.7c136.4-97.3,420.8-160.2,816.3-180.3
		c117.9-5.8,485.3-4.2,618.6,3.2c339.9,18.5,630.2,47.1,1033.6,101c245.3,32.8,621.7,97.3,922.6,158.1
		c1734.1,350.5,3240.3,934.7,3611.5,1400.5c37.5,46.5,71.4,114.2,79.3,157c22.7,124.2-70.8,225.8-271.2,295
		c-126.4,43.9-320.9,79.8-493.3,91.5c-29.1,2.1-53.9,4.2-55.5,5.3c-1.6,0.5-49.2,3.2-105.7,4.8c-56.6,2.1-111.6,4.8-121.6,5.3
		c-10,1.1-49.7,1.6-87.2,2.1l-68.7,0.5l-41.8,81.9c-65,127.9-120.5,217.8-153.3,249c-116.3,109.4-405.5,206.2-711.6,237.9
		c-99.4,10-177.1,7.9-222-6.3c-26.4-8.5-104.7-47.1-335.7-166c-158.1-80.9-286.5-121.1-467.9-145.9c-49.7-6.9-102.6-9.5-211.5-9.5
		c-108.9,0-161.8,2.6-211.5,9.5c-181.3,24.8-309.8,65-467.9,145.9c-230,118.4-309.3,157.5-335.7,166
		C3054.3,5763.1,2944.8,5768.9,2895.7,5764.1z M5584,5349.6c10-10,10.6-17.4,10.6-126.4c0-64-1.6-120-3.7-124.8
		c-3.2-8.5-86.2-65.6-122.7-84.1c-8.5-4.8-20.1-6.9-25.4-4.8c-20.1,7.4-132.7,81.4-135.9,89.3c-1.6,4.8-3.2,58.7-3.2,120.5
		c0,106.3,0.5,113.7,11.1,126.9l10.6,13.7h124.2C5566.6,5360.2,5574,5359.7,5584,5349.6z M2824.3,5122.8
		c85.6-27,159.1-90.4,197.7-171.3c29.1-60.3,37-99.4,33.8-166.5c-7.4-135.9-97.3-252.2-228.4-295.5c-54.5-18-140.1-20.1-190.9-4.8
		c-90.4,27-168.7,92-208.3,172.4c-41.8,85.6-47.6,168.1-17.4,255.4c36.5,106.3,125.3,188.2,234.7,215.7
		C2695.3,5140.8,2774.6,5138.7,2824.3,5122.8z M5258.4,5031.4c18-16.9,82.5-120,82.5-132.7c0-13.2-76.7-133.8-87.8-138
		c-4.8-1.6-61.9-3.2-126.9-3.2h-119l-12.7,13.2c-13.2,12.7-13.2,12.7-13.2,123.7c0,119.5,2.6,134.3,25.9,142.7
		c7.4,2.6,64,5.3,125.8,5.3C5242,5043,5245.7,5042.5,5258.4,5031.4z M5898.1,5031.9l13.7-10.6v-120.5c0-99.9-1.6-121.6-8.5-131.6
		c-7.9-11.6-10-11.6-131.1-11.6c-142.7,0-124.2-7.9-175.5,74c-42.3,66.6-41.8,65.6-24.8,94.6c33.8,58.2,71.4,111,79.8,113.1
		c4.8,1.6,59.2,2.6,120.5,3.2C5878,5043,5884.9,5042.5,5898.1,5031.9z M6416.7,4896.6c78.8-39.7,127.4-82.5,157-140.1
		c15.3-30.7,16.9-37.5,16.9-80.9c0-34.9-3.2-55.5-11.1-77.7c-11.6-31.7-39.7-79.8-61.3-107.3l-13.2-15.3l-24.3,78.8
		c-30.1,97.3-76.7,235.3-104.2,308.8c-11.6,30.1-20.6,56-20.6,57.1C6355.9,4924,6379.2,4915.1,6416.7,4896.6z M5515.8,4754.3
		c81.9-52.3,73.5-31.7,73.5-175c0-116.3-0.5-123.7-10.6-133.8c-10-10-17.4-10.6-129.5-10.6h-119.5l-12.7,13.2l-13.2,12.7v115.8
		c0,102.6,1.1,117.4,9.5,127.4c13.2,16.4,123.2,85.1,136.4,85.1C5455.6,4789.2,5485.2,4773.4,5515.8,4754.3z M1588.7,4069.2
		c-48.1-203.5-111-586.8-131.1-801c-4.2-44.4,5.8-41.8-81.9-19c-149.1,38.6-245.8,87.2-308.2,154.9
		c-53.9,57.6-68.2,130.1-41.2,208.3c36.5,106.8,168.7,240,365.3,369.6c58.7,38.6,194.6,119,202,119.5
		C1595.1,4101.9,1593.5,4087.1,1588.7,4069.2z"/>
	<path class="st0" d="M6578,3989.8c-150.1-69.8-548.8-219.4-856.5-322c-521.8-173.4-1195.4-355.8-1728.8-468.4l-71.4-14.8l346.3-3.2
		c583.7-5.8,772.9-24.8,940-94.6c143.3-60.3,236.9-158.1,389.6-407.1c169.7-277.6,214.1-339.4,322-446.7
		c125.8-125.3,238.4-192.4,359.5-213.6c171.3-30.7,339.4,68.2,405,237.9c90.9,235.3,103.6,637.6,37,1171.6
		c-25.9,207.2-91.5,572.6-103.1,575.7C6614.5,4005.2,6597,3998.8,6578,3989.8z"/>
	<path class="st0" d="M2745,2975.3c-71.9-10.6-93.6-13.7-248.5-33.3c-320.4-40.7-861.2-86.2-1042.6-87.8h-20.1v-59.7
		c0-202.5,31.2-412.4,79.3-537.1c65.6-168.7,234.7-268,405-237.9c119,20.6,233.2,88.3,354.2,208.3
		c106.3,105.7,163.9,183.5,285,383.3c113.7,187.7,171.3,270.7,234.7,339.9c18.5,19.6,30.1,35.4,25.9,34.9
		C2814.2,2985.3,2781.5,2981.1,2745,2975.3z"/>
</g>
</svg>
